<?xml version="1.0" encoding="iso-8859-1"?>
<!-- Generator: Adobe Illustrator 16.0.0, SVG Export Plug-In . SVG Version: 6.00 Build 0)  -->
<!DOCTYPE svg PUBLIC "-//W3C//DTD SVG 1.1//EN" "http://www.w3.org/Graphics/SVG/1.1/DTD/svg11.dtd">
<svg version="1.1" id="Capa_1" xmlns="http://www.w3.org/2000/svg" xmlns:xlink="http://www.w3.org/1999/xlink" x="0px" y="0px"
	 width="98.456px" height="98.456px" viewBox="0 0 98.456 98.456" style="enable-background:new 0 0 98.456 98.456;"
	 xml:space="preserve">
<g>
	<g>
		<path d="M32.671,48.659c0.698-1.842,1.56-3.448,2.783-4.839c2.683-3.05,6.072-4.694,10.101-5.066
			c5.678-0.524,10.344,1.668,14.429,5.396c1.691,1.544,3.19,3.275,4.662,5.027c0.312,0.374,0.45,0.407,0.783,0.013
			c1.894-2.25,3.78-4.51,6.111-6.338c2.688-2.108,5.65-3.63,9.086-4.032c8.492-0.995,15.589,3.63,17.396,12.396
			c0.76,3.687,0.525,7.332-0.751,10.886c-2.361,6.567-7.83,10.317-14.818,10.235c-4.257-0.051-7.891-1.7-11.206-4.215
			c-2.166-1.643-4.021-3.613-5.806-5.648c-0.3-0.341-0.439-0.417-0.803-0.039c-1.825,1.895-3.559,3.884-5.607,5.552
			c-2.591,2.109-5.451,3.694-8.8,4.149c-5.923,0.805-11.038-0.756-15.015-5.403c-0.901-1.054-1.581-2.255-2.139-3.524
			c-0.07-0.16-0.091-0.353-0.272-0.486c-0.78,1.683-1.746,3.232-3.014,4.58c-3.192,3.394-7.129,5.164-11.776,5.328
			c-3.358,0.119-6.647-0.31-9.71-1.762c-5.131-2.432-7.953-6.479-8.303-12.197c-0.026-0.435,0.094-0.545,0.525-0.543
			c2.76,0.021,5.52,0.021,8.279,0c0.414-0.002,0.53,0.119,0.6,0.524c0.531,3.149,2.225,5.343,5.398,6.13
			c4.428,1.1,8.496-1.414,9.659-5.972c0.783-3.067,0.445-6.001-1.589-8.556c-1.35-1.696-3.184-2.522-5.337-2.674
			c-3.098-0.218-5.632,0.803-7.462,3.375c-0.17,0.24-0.368,0.299-0.643,0.299c-2.488-0.008-4.975-0.014-7.462,0.005
			c-0.433,0.003-0.521-0.118-0.447-0.529c1.291-7.176,2.57-14.354,3.852-21.532c0.175-0.982,0.354-1.964,0.516-2.948
			c0.052-0.323,0.176-0.442,0.524-0.441c8.261,0.011,16.521,0.011,24.781,0c0.395-0.001,0.479,0.128,0.477,0.497
			c-0.017,2.214-0.021,4.43,0.003,6.644c0.004,0.451-0.111,0.575-0.569,0.573c-5.918-0.016-11.836-0.005-17.754-0.021
			c-0.491-0.001-0.71,0.08-0.802,0.632c-0.521,3.149-1.096,6.29-1.647,9.434c-0.023,0.133-0.117,0.314,0.027,0.402
			c0.16,0.098,0.25-0.096,0.345-0.188c2.712-2.611,6.02-3.409,9.668-3.214c3.509,0.187,6.505,1.504,8.976,4
			c1.032,1.041,1.834,2.246,2.481,3.557C32.474,48.266,32.546,48.408,32.671,48.659z M89.857,55.455
			c0.013-0.318-0.04-0.787-0.1-1.254c-0.523-4.179-4.043-6.881-8.211-6.331c-2.188,0.29-3.992,1.372-5.692,2.674
			c-1.896,1.455-3.484,3.229-5.121,4.953c-0.22,0.231-0.122,0.354,0.039,0.533c1.149,1.288,2.338,2.54,3.685,3.625
			c2.237,1.799,4.658,3.186,7.608,3.459c3.322,0.309,6.014-1.246,7.202-4.258C89.68,57.815,89.852,56.728,89.857,55.455z
			 M40.226,55.86c0.016,0.21,0.034,0.556,0.064,0.897c0.282,3.234,2.442,5.667,5.573,6.238c1.721,0.315,3.394,0.086,5.017-0.545
			c3.466-1.351,6.105-3.777,8.52-6.506c0.177-0.199,0.09-0.298-0.049-0.443c-1.729-1.812-3.49-3.59-5.531-5.062
			c-1.417-1.021-2.908-1.932-4.623-2.356c-2.611-0.646-4.989-0.275-6.846,1.851C40.91,51.584,40.222,53.537,40.226,55.86z"/>
	</g>
</g>
<g>
</g>
<g>
</g>
<g>
</g>
<g>
</g>
<g>
</g>
<g>
</g>
<g>
</g>
<g>
</g>
<g>
</g>
<g>
</g>
<g>
</g>
<g>
</g>
<g>
</g>
<g>
</g>
<g>
</g>
</svg>
