<?xml version="1.0" encoding="iso-8859-1"?>
<!-- Generator: Adobe Illustrator 16.0.0, SVG Export Plug-In . SVG Version: 6.00 Build 0)  -->
<!DOCTYPE svg PUBLIC "-//W3C//DTD SVG 1.1//EN" "http://www.w3.org/Graphics/SVG/1.1/DTD/svg11.dtd">
<svg version="1.1" id="Capa_1" xmlns="http://www.w3.org/2000/svg" xmlns:xlink="http://www.w3.org/1999/xlink" x="0px" y="0px"
	 width="96.833px" height="96.833px" viewBox="0 0 96.833 96.833" style="enable-background:new 0 0 96.833 96.833;"
	 xml:space="preserve">
<g>
	<path d="M72.157,4.523c0,0-1.161,13.104-12.53,11.487c0,0,4.143-6.191,0-16.01c0,0-4.586,7.857-11.214,7.984
		C41.791,7.857,37.205,0,37.205,0c-4.143,9.818,0,16.01,0,16.01c-11.369,1.617-12.53-11.487-12.53-11.487S0.791,9.433,0.791,51.135
		c0,41.691,29.179,45.698,29.179,45.698c0.776-17.819,14.205,0,14.205,0h4.093h0.309h4.079c0,0,13.438-17.819,14.212,0
		c0,0,29.175-4.007,29.175-45.698C96.042,9.433,72.157,4.523,72.157,4.523z M30.164,79.002c-6.404,0-11.785-1.417-14.685-2.834
		l2.138-6.911c2.391,1.114,7.166,2.529,12.207,2.529c6.145,0,12.039-3.05,12.039-8.849c0-5.496-4.703-9.141-15.797-9.141
		c-3.068,0-6.005,0.146-8.219,0.448l0.041-24.381h32.934v7.578H27.772l0.09,9.661c1.278-0.146,2.386-0.219,4.007-0.219
		c4.867,0,9.733,0.969,13.491,3.124c4.178,2.299,7.252,6.393,7.252,12.264C52.613,71.495,43.823,79.002,30.164,79.002z
		 M78.761,78.795H68.592V42.419H59.5l0.074-7.222c0,0,19.188-2.421,19.188-5.332V78.795z"/>
</g>
<g>
</g>
<g>
</g>
<g>
</g>
<g>
</g>
<g>
</g>
<g>
</g>
<g>
</g>
<g>
</g>
<g>
</g>
<g>
</g>
<g>
</g>
<g>
</g>
<g>
</g>
<g>
</g>
<g>
</g>
</svg>
