<?xml version="1.0" encoding="iso-8859-1"?>
<!-- Generator: Adobe Illustrator 16.0.0, SVG Export Plug-In . SVG Version: 6.00 Build 0)  -->
<!DOCTYPE svg PUBLIC "-//W3C//DTD SVG 1.1//EN" "http://www.w3.org/Graphics/SVG/1.1/DTD/svg11.dtd">
<svg version="1.1" id="Capa_1" xmlns="http://www.w3.org/2000/svg" xmlns:xlink="http://www.w3.org/1999/xlink" x="0px" y="0px"
	 width="97.274px" height="97.274px" viewBox="0 0 97.274 97.274" style="enable-background:new 0 0 97.274 97.274;"
	 xml:space="preserve">
<g>
	<g>
		<path d="M78.487,34.809c-0.794-0.194-1.586-0.349-2.645-0.615c3.946-6.03,7.934-12.004,11.828-17.957l-15.538,0.019
			c-2.698,0.117-5.049,2.006-6.521,4.284c-5.382,8.337-10.86,16.613-16.056,25.065c-6.16,10.024-3.931,22.035,5.25,29.425
			c9.159,7.372,23.049,7.803,32.598,0.955c5.458-3.915,9.068-9.32,9.749-16.109C98.343,48.015,90.641,37.792,78.487,34.809z
			 M82.89,59.041c-4.644,2.897-9.319,5.75-14.053,8.5c-2.459,1.429-4.064,0.405-4.126-2.488c-0.053-2.504-0.011-5.008-0.011-7.512
			c-0.007-2.504-0.062-5.01,0.008-7.512c0.08-2.94,2.01-4.093,4.587-2.631c4.556,2.586,9.054,5.277,13.53,8
			C84.64,56.502,84.676,57.928,82.89,59.041z"/>
		<path d="M26.345,16.254c-3.819-0.004-7.687,0.567-9.675,4.117C12.28,28.21,8.307,36.283,4.164,44.261
			c-0.813,1.566-0.513,3.194,0.991,3.878c0.885,0.402,2.132,0.41,3.115,0.418l16.192,0.007c4.578,0.034,8.332,2.462,9.521,6.392
			c1.018,3.366-0.35,7.123-3.383,9.289c-4.518,3.228-10.887,2.139-14.265-2.287L15.612,60.6c0,0-9.639,0.014-12.202,0.014
			s-3.791,1.754-3.306,3.986c0.195,0.9,0.61,2.009,1.039,2.836c8.483,16.383,33.115,18.387,44.163,3.719
			c0.24-0.318,1.006-1.445,1.006-1.445s-0.566-1.08-0.724-1.422c-3.249-7.041-3.354-14.199,0.479-20.937
			c0.334-0.589,1.075-1.62,1.075-1.62s-0.917-1.088-1.401-1.715c-4.272-5.522-9.863-8.55-16.715-9.744
			c-0.806-0.141-1.607-0.146-2.602-0.338l2.658-5.21l17.357-0.039c2.031-0.169,3.399-1.216,4.652-2.634
			c2.438-2.755,4.126-6.287,6.337-9.76L26.345,16.254z"/>
	</g>
</g>
<g>
</g>
<g>
</g>
<g>
</g>
<g>
</g>
<g>
</g>
<g>
</g>
<g>
</g>
<g>
</g>
<g>
</g>
<g>
</g>
<g>
</g>
<g>
</g>
<g>
</g>
<g>
</g>
<g>
</g>
</svg>
