<?xml version="1.0" encoding="iso-8859-1"?>
<!-- Generator: Adobe Illustrator 16.0.0, SVG Export Plug-In . SVG Version: 6.00 Build 0)  -->
<!DOCTYPE svg PUBLIC "-//W3C//DTD SVG 1.1//EN" "http://www.w3.org/Graphics/SVG/1.1/DTD/svg11.dtd">
<svg version="1.1" id="Capa_1" xmlns="http://www.w3.org/2000/svg" xmlns:xlink="http://www.w3.org/1999/xlink" x="0px" y="0px"
	 width="96px" height="96px" viewBox="0 0 96 96" style="enable-background:new 0 0 96 96;" xml:space="preserve">
<g>
	<g>
		<path d="M95.433,23.134c0.441-2.297,1.503-5.276-1.303-6.549c-2.816-1.276-4.721,1.185-6.301,3.169
			c-1.668,2.094-8.071,14.028-8.979,13.675c-0.63,0.009-1.475-3.181-1.891-4.71c-0.972-3.569-1.687-7.224-2.901-10.705
			c-1.019-2.924-3.913-3.246-6.016-0.938c-1.3,1.426-1.762,3.246-2.161,5.053c-0.525,2.374-0.976,4.764-1.393,7.159
			c-0.393,2.261-1.194,2.159-2.566,0.631c-2.589-2.881-4.05-6.479-6.26-9.588c-1.484-2.087-2.943-5.485-5.96-4.003
			c-2.809,1.381-1.739,4.854-0.822,7.248c3.333,8.697,4.328,18.722,6.637,27.675c0.127,0.495,0.67,2.519,0.67,2.519
			s-0.185,0.378-0.722,1.584c-3.507,7.768-1.435,16.376,4.967,21.298c6.389,4.912,15.226,5.045,21.356,0.322
			c6.636-5.114,8.929-13.812,5.314-21.512c-0.447-0.951-1.211-2.111-1.211-2.111s0.698-2.41,1.075-3.436
			C90.195,41.119,93.664,32.385,95.433,23.134z M81.353,74.403c-5.176,4.519-12.619,5.047-18.367,1.304
			c-6.156-4.01-8.536-11.189-6-18.664c0.6,3.393,3.785,11.406,5.729,13.765c4.095,4.964,9.642,5.151,14.101,0.496
			c2.939-3.068,4.699-6.858,6.329-10.71c0.58-1.366,1.092-3.171,1.704-4.764C88.03,62.234,86.544,69.871,81.353,74.403z
			 M58.421,54.542c0,0,4.47-5.81,12.491-6.411c6.608-0.495,11.46,4.141,12.533,5.212c0,0-1.069,3.094-1.971,5.398
			c-1.479,3.786-3.127,7.502-5.893,10.566c-3.86,4.277-7.854,4.168-11.398-0.292C60.776,64.728,58.421,54.542,58.421,54.542z
			 M84.339,50.767c-8.635-7.176-17.699-6.409-26.509,0.723c-2.184-10.3-4.266-21.013-7.371-31.099
			c-0.189-0.613-0.342-1.574,0.113-1.769c1.556-0.667,2.897,2.395,3.414,3.219c2.148,3.434,3.92,7.12,6.71,10.123
			c1.03,1.11,2.117,2.396,3.74,1.932c1.476-0.421,1.777-2.108,2.085-3.424c0.766-3.265,1.361-6.568,2.129-9.831
			c0.294-1.25,0.932-2.715,2.38-2.594c1.265,0.105,1.421,1.682,1.706,2.76c1.007,3.804,1.846,7.654,2.929,11.433
			c0.467,1.629,1.081,3.52,3.27,3.562c1.496,0.029,2.435-1.786,3.231-3.185c2.383-4.177,4.786-8.398,8.028-12.169
			c0.735-0.855,1.663-2.129,2.798-1.683c1.316,0.519,0.637,2.035,0.441,3.075C91.565,31.766,87.726,41.06,84.339,50.767z"/>
		<path d="M37.079,27.842c-0.495,0.005-1.377,0.066-1.377,0.066s-1-1.372-1.578-1.994c-3.931-4.248-9.604-5.692-13.741-3.088
			c-0.77,0.483-1.985,1.258-1.985,1.258s-1.406-0.859-2.242-1.411c-4.147-2.739-7.061-2.597-10.85,0.212
			c-5.109,3.787-6.519,8.717-4.271,15.088c1.819,5.162,4.876,9.719,7.257,14.607c0.694,1.425,1.613,4.199,1.613,4.199
			s-0.336,1.936-0.537,3.015c-1.209,7.918,1.291,13.407,7.362,17.477c6.128,4.106,12.73,4.247,18.996,0.315
			c6.258-3.927,8.988-9.854,7.965-17.222c-0.126-0.911-0.358-3.044-0.358-3.044s0.964-1.689,1.671-2.798
			c2.567-4.033,4.562-8.333,4.746-12.389C49.779,33.593,44.414,27.771,37.079,27.842z M34.374,31.422
			c0.988,2.794,0.105,4.63-1.69,6.155c-0.625,0.531-1.403,0.922-2.203,0.36c-0.814-0.571-0.644-1.382-0.333-2.175
			C30.898,33.841,32.355,32.603,34.374,31.422z M18.637,27.993c0.291,0.291,2.139,0.739,2.743,4.213
			c-0.111,2.041-0.898,3.567-2.988,3.659c-2.086,0.09-2.353-1.729-2.272-3.178C16.308,29.286,18.555,28.088,18.637,27.993z
			 M33.997,76.125c-5.365,3.144-12.058,2.624-16.935-1.275c-4.446-3.556-6.461-8.406-5.314-14.234
			c1.046,2.357,2.127,4.946,3.25,7.266c2.291,4.73,5.89,7.683,11.339,7.831c5.418,0.148,9.286-2.326,11.663-7.17
			c1.064-2.166,2.315-4.639,3.372-6.808C42.04,67.995,39.3,73.021,33.997,76.125z M12.425,56.671c0,0,0.818-1.583,1.213-2.206
			c6.109-9.655,20.827-9.163,26.217,0.915c0.298,0.557,0.896,1.908,0.896,1.908s-0.148,0.56-0.364,0.987
			c-1.811,3.603-3.026,7.491-5.277,10.887c-2.029,3.062-4.923,4.408-8.083,4.462c-4.842-0.073-7.87-2.381-9.777-6.129
			c-1.566-3.08-2.776-6.338-4.203-9.49C12.771,57.393,12.425,56.671,12.425,56.671z M47.521,42.849
			c-0.602,3.716-2.268,7.036-4.146,10.253c-0.286,0.489-1.171,1.837-1.171,1.837s-0.45-0.819-1.029-1.571
			c-9.265-12.018-22.039-10.613-29.85,0.443c-2.53-5.765-6.187-10.917-8.275-16.594c-2.091-5.68-0.396-10.365,4.763-13.354
			c2.075-1.204,4.05-1.291,6.227-0.089c1.167,0.645,2.833,1.896,2.833,1.896s-1.038,1.289-1.768,2.376
			c-1.145,1.432-1.281,3.855-1.12,5.125c0.32,2.529,1.114,4.854,4.351,4.857c2.683,0.002,4.933-2.29,5.096-5.139
			c0.119-2.093-0.622-3.937-1.953-5.432c-0.554-0.622-1.411-1.545-1.411-1.545s1.25-1.398,2.512-1.852
			c2.928-1.053,8.447,0.982,10.209,3.644c0.362,0.548,0.902,1.381,0.902,1.381s-1.043,0.763-1.589,1.13
			c-1.876,1.265-3.274,2.907-4.055,5.069c-0.624,1.723-0.334,3.281,1.019,4.418c1.421,1.193,3.064,0.866,4.524-0.065
			c2.485-1.583,3.421-4.003,3.381-6.843c-0.02-1.388-0.298-2.912-0.298-2.912s2.414-0.301,4.069,0.339
			C44.945,31.848,48.305,38.014,47.521,42.849z"/>
		<path d="M73.583,65.239c1.574,0.046,2.178-1.05,2.545-2.373c-0.298-1.346-0.936-2.41-2.469-2.432
			c-1.529-0.022-2.339,0.848-2.37,2.369C71.257,64.338,72.055,65.196,73.583,65.239z"/>
		<path d="M66.255,65.226c1.528,0.096,2.411-0.726,2.479-2.257c0.067-1.524-0.769-2.344-2.156-2.546
			c-1.652-0.012-2.545,0.905-2.635,2.304C63.85,64.171,64.757,65.13,66.255,65.226z"/>
		<path d="M29.672,66.524c1.522-0.016,2.344-1.022,2.362-2.438c0.018-1.468-0.888-2.299-2.388-2.386
			c-1.603,0.029-2.329,1.011-2.337,2.428C27.301,65.583,28.146,66.54,29.672,66.524z"/>
		<path d="M22.58,66.505c1.5-0.05,2.216-1.035,2.253-2.55c-0.239-1.403-0.988-2.323-2.527-2.221c-1.501,0.101-2.34,1.052-2.26,2.506
			C20.128,65.704,21.132,66.556,22.58,66.505z"/>
	</g>
</g>
<g>
</g>
<g>
</g>
<g>
</g>
<g>
</g>
<g>
</g>
<g>
</g>
<g>
</g>
<g>
</g>
<g>
</g>
<g>
</g>
<g>
</g>
<g>
</g>
<g>
</g>
<g>
</g>
<g>
</g>
</svg>
