<?xml version="1.0" encoding="iso-8859-1"?>
<!-- Generator: Adobe Illustrator 16.0.0, SVG Export Plug-In . SVG Version: 6.00 Build 0)  -->
<!DOCTYPE svg PUBLIC "-//W3C//DTD SVG 1.1//EN" "http://www.w3.org/Graphics/SVG/1.1/DTD/svg11.dtd">
<svg version="1.1" id="Capa_1" xmlns="http://www.w3.org/2000/svg" xmlns:xlink="http://www.w3.org/1999/xlink" x="0px" y="0px"
	 width="98.25px" height="98.25px" viewBox="0 0 98.25 98.25" style="enable-background:new 0 0 98.25 98.25;" xml:space="preserve"
	>
<g>
	<g>
		<g>
			<path d="M60.516,60.307c0.416-27.098-6.328-54.438-7.817-60.125C51.512,0.096,50.333,0,49.125,0C21.994,0,0,21.994,0,49.125
				c0,1.35,0.096,2.682,0.203,4.001C17.857,60.96,41.229,62.021,60.516,60.307z"/>
			<path d="M98.002,54.052c0.158-1.625,0.248-3.262,0.248-4.927c0-23.744-16.854-43.555-39.248-48.132
				c1.777,6.868,7.715,31.995,7.365,58.714C81.396,57.991,93.486,55.182,98.002,54.052z"/>
			<path d="M43.289,66.977c-14.279,0-29.123-1.771-42.008-6.852c5,21.825,24.5,38.125,47.844,38.125
				c1.592,0,3.161-0.091,4.713-0.236c3.934-9.669,5.869-20.1,6.462-31.218C54.842,67.259,49.119,66.977,43.289,66.977z"/>
			<path d="M96.93,60.271c-5.949,1.434-17.146,3.85-30.731,5.36c-0.537,10.741-2.314,21.476-5.785,31.263
				C78.507,92.634,92.719,78.389,96.93,60.271z"/>
		</g>
	</g>
</g>
<g>
</g>
<g>
</g>
<g>
</g>
<g>
</g>
<g>
</g>
<g>
</g>
<g>
</g>
<g>
</g>
<g>
</g>
<g>
</g>
<g>
</g>
<g>
</g>
<g>
</g>
<g>
</g>
<g>
</g>
</svg>
