<?xml version="1.0" encoding="iso-8859-1"?>
<!-- Generator: Adobe Illustrator 16.0.0, SVG Export Plug-In . SVG Version: 6.00 Build 0)  -->
<!DOCTYPE svg PUBLIC "-//W3C//DTD SVG 1.1//EN" "http://www.w3.org/Graphics/SVG/1.1/DTD/svg11.dtd">
<svg version="1.1" id="Capa_1" xmlns="http://www.w3.org/2000/svg" xmlns:xlink="http://www.w3.org/1999/xlink" x="0px" y="0px"
	 width="96.911px" height="96.911px" viewBox="0 0 96.911 96.911" style="enable-background:new 0 0 96.911 96.911;"
	 xml:space="preserve">
<g>
	<g>
		<path d="M34.891,38.19c-1.488,0-2.724,0.539-3.708,1.615c-0.984,1.076-1.477,2.458-1.477,4.142c0,1.696,0.5,3.093,1.502,4.187
			c1.002,1.095,2.235,1.644,3.7,1.644c1.512,0,2.765-0.539,3.761-1.615s1.494-2.486,1.494-4.232c0-1.708-0.499-3.091-1.494-4.15
			C37.674,38.72,36.414,38.19,34.891,38.19z"/>
		<path d="M68.796,5.449c-9.659,0-16.112,3.91-20.341,10.431C44.226,9.359,37.772,5.449,28.115,5.449C8.705,5.449,0,17.998,0,37.728
			c0,23.454,26.193,50.431,48.43,53.734h0.05c22.239-3.304,48.431-30.28,48.431-53.734C96.911,17.998,88.205,5.449,68.796,5.449z
			 M20.026,53.591c0.652,1.64,1.749,3.415,3.293,5.327h-4.452c-1.373-2.179-2.331-4.219-2.875-6.118
			c-0.545-1.899-0.817-4.137-0.817-6.71c0-2.522,0.287-4.731,0.862-6.628c0.574-1.896,1.519-3.826,2.83-5.79h4.452
			c-1.526,1.725-2.666,3.594-3.416,5.609c-0.75,2.017-1.126,4.319-1.126,6.911C18.777,48.997,19.193,51.464,20.026,53.591z
			 M44.767,53.781h-4.815v-2.074c-0.939,0.915-1.881,1.572-2.826,1.977c-0.946,0.402-1.971,0.604-3.074,0.604
			c-2.478,0-4.621-0.982-6.429-2.95c-1.809-1.967-2.713-4.412-2.713-7.336c0-3.031,0.875-5.515,2.625-7.453
			c1.75-1.937,3.875-2.904,6.376-2.904c1.151,0,2.231,0.223,3.241,0.667c1.011,0.446,1.943,1.113,2.801,2.004v-2.166h4.815
			L44.767,53.781L44.767,53.781z M57.255,38.577c-0.563-0.3-1.028-0.45-1.393-0.45c-0.742,0-1.367,0.488-1.88,1.464
			c-0.512,0.976-0.766,2.889-0.766,5.741l0.016,0.994v8.254h-4.777V34.169h4.127v2.57c0.446-1.013,1.04-1.783,1.781-2.308
			c0.74-0.526,1.552-0.788,2.434-0.788c0.623,0,1.276,0.175,1.958,0.525L57.255,38.577z M70.244,38.577h-2.857V54.58h-4.814V38.577
			h-2.469v-4.408h2.469v-7.523h4.814v7.523h2.857V38.577z M80.182,53.128c-0.574,1.896-1.518,3.826-2.83,5.79h-4.453
			c1.527-1.725,2.666-3.592,3.416-5.604s1.127-4.317,1.127-6.917c0-2.806-0.418-5.268-1.248-7.387
			c-0.652-1.638-1.75-3.418-3.295-5.34h4.453c1.371,2.179,2.33,4.218,2.875,6.118c0.543,1.9,0.816,4.138,0.816,6.711
			C81.044,49.023,80.757,51.23,80.182,53.128z"/>
	</g>
</g>
<g>
</g>
<g>
</g>
<g>
</g>
<g>
</g>
<g>
</g>
<g>
</g>
<g>
</g>
<g>
</g>
<g>
</g>
<g>
</g>
<g>
</g>
<g>
</g>
<g>
</g>
<g>
</g>
<g>
</g>
</svg>
