<?xml version="1.0" encoding="iso-8859-1"?>
<!-- Generator: Adobe Illustrator 16.0.0, SVG Export Plug-In . SVG Version: 6.00 Build 0)  -->
<!DOCTYPE svg PUBLIC "-//W3C//DTD SVG 1.1//EN" "http://www.w3.org/Graphics/SVG/1.1/DTD/svg11.dtd">
<svg version="1.1" id="Capa_1" xmlns="http://www.w3.org/2000/svg" xmlns:xlink="http://www.w3.org/1999/xlink" x="0px" y="0px"
	 width="97.02px" height="97.02px" viewBox="0 0 97.02 97.02" style="enable-background:new 0 0 97.02 97.02;" xml:space="preserve"
	>
<g>
	<g>
		<path d="M48.902,32.942c16.667,0,30.943,6.119,38.138,17.219c2.941-3.933,4.772-8.197,4.956-12.497
			c0.977-23.075-18.457-36.43-43.093-36.43C24.263,1.234,4.8,13.725,4.8,38.17c0,4.688,1.597,8.735,4.164,12.22
			C16.832,38.818,32.006,32.942,48.902,32.942z"/>
		<path d="M95.242,34.238c0.191,1.123,0.298,2.261,0.298,3.415c0,17.103-21.559,34.142-47.534,34.142S0.976,54.756,0.976,37.653
			c0-0.033,0.004-0.067,0.004-0.101C0.337,40.754,0,44.069,0,47.464c0,27.247,21.719,48.321,48.51,48.321
			c26.791,0,48.509-21.074,48.509-48.321C97.021,42.881,96.393,38.45,95.242,34.238z"/>
	</g>
</g>
<g>
</g>
<g>
</g>
<g>
</g>
<g>
</g>
<g>
</g>
<g>
</g>
<g>
</g>
<g>
</g>
<g>
</g>
<g>
</g>
<g>
</g>
<g>
</g>
<g>
</g>
<g>
</g>
<g>
</g>
</svg>
