<?xml version="1.0" encoding="iso-8859-1"?>
<!-- Generator: Adobe Illustrator 16.0.0, SVG Export Plug-In . SVG Version: 6.00 Build 0)  -->
<!DOCTYPE svg PUBLIC "-//W3C//DTD SVG 1.1//EN" "http://www.w3.org/Graphics/SVG/1.1/DTD/svg11.dtd">
<svg version="1.1" id="Capa_1" xmlns="http://www.w3.org/2000/svg" xmlns:xlink="http://www.w3.org/1999/xlink" x="0px" y="0px"
	 width="96.643px" height="96.643px" viewBox="0 0 96.643 96.643" style="enable-background:new 0 0 96.643 96.643;"
	 xml:space="preserve">
<g>
	<g>
		<path d="M85.326,45.45c-2.798-9.562-9.67-17.692-18.26-22.619c-9.813-5.646-22.129-6.22-32.671-2.316
			c-5.333,2.134-10.151,5.469-14.109,9.626c-0.068-8.553-0.006-17.109-0.037-25.666c0.012-1.663-1.008-3.319-2.572-3.94
			c-1.808-0.729-3.921-0.713-5.714,0.054c-1.511,0.653-2.451,2.261-2.479,3.881c-0.081,8.692,0.121,17.385,0.068,26.078
			c-0.053,9.413,0.121,18.821,0.077,28.236c0.217,5.31,1.412,10.602,3.627,15.44c3.921,8.371,10.911,15.27,19.349,19.048
			c7.104,3.025,15.099,4.25,22.719,2.699c9.329-1.632,17.888-6.918,23.643-14.419c5.433-6.969,8.116-15.837,8.212-24.618
			C87.056,53.051,86.452,49.173,85.326,45.45z M76.112,61.554c-0.884,6.202-3.916,12.07-8.457,16.387
			c-3.975,3.986-9.245,6.624-14.805,7.489c-6.412,1.062-13.197-0.229-18.765-3.589c-2.938-1.803-5.522-4.157-7.707-6.819
			c-7.706-9.49-8.168-24.151-1.023-34.076c2.302-3.05,5.007-5.856,8.286-7.864c3.465-2.181,7.442-3.496,11.504-3.968
			c6.777-0.791,13.889,0.9,19.43,4.934c4.147,3.111,7.594,7.25,9.633,12.037C76.193,50.944,76.984,56.355,76.112,61.554z"/>
		<path d="M32.586,48.865c-2.674,0.057-5.516,1.26-6.896,3.655c-0.906,1.61-1.458,3.511-1.154,5.364
			c0.366,2.038,1.238,4.092,2.919,5.382c2.274,1.744,5.5,2.296,8.138,1.055c2.655-1.039,4.25-3.734,4.629-6.468
			c0.291-2.042-0.326-4.17-1.493-5.848C37.366,50.017,34.94,48.974,32.586,48.865z"/>
	</g>
</g>
<g>
</g>
<g>
</g>
<g>
</g>
<g>
</g>
<g>
</g>
<g>
</g>
<g>
</g>
<g>
</g>
<g>
</g>
<g>
</g>
<g>
</g>
<g>
</g>
<g>
</g>
<g>
</g>
<g>
</g>
</svg>
