<?xml version="1.0" encoding="iso-8859-1"?>
<!-- Generator: Adobe Illustrator 16.0.0, SVG Export Plug-In . SVG Version: 6.00 Build 0)  -->
<!DOCTYPE svg PUBLIC "-//W3C//DTD SVG 1.1//EN" "http://www.w3.org/Graphics/SVG/1.1/DTD/svg11.dtd">
<svg version="1.1" id="Capa_1" xmlns="http://www.w3.org/2000/svg" xmlns:xlink="http://www.w3.org/1999/xlink" x="0px" y="0px"
	 width="98.339px" height="98.339px" viewBox="0 0 98.339 98.339" style="enable-background:new 0 0 98.339 98.339;"
	 xml:space="preserve">
<g>
	<g>
		<path d="M45.456,38.695h-0.057c-1.655,0-2.946,1.463-3.001,3.405c-0.032,1.111,0.39,2.227,1.127,2.986
			c0.585,0.601,1.32,0.933,2.071,0.933l0.066-0.001c1.617-0.042,2.945-1.624,2.962-3.525C48.643,40.436,47.22,38.731,45.456,38.695z
			"/>
		<path d="M77.61,85.853c-1.062-2.431-2.738-4.339-4.838-5.945c-6.012-4.6-10.007-10.09-13.895-15.237
			c-3.387-4.493-6.134-9.321-7.184-14.98c-0.671-3.624-1.295-7.229-0.799-10.923c0.499-3.727,0.907-7.462,1.554-11.176
			c0.644-3.695,1.516-7.341,2.164-11.033c0.223-1.268,0.592-2.627,1.744-3.547c1.146-0.916,1.961-2.121,2.654-3.403
			c1.764-3.248,2.188-6.105-1.964-7.876C56.491,1.497,55.943,1.246,55.393,1c-0.341-0.13-0.675-0.269-1.017-0.39
			c-3.468-1.235-4.827-0.701-6.412,2.559c-0.362,0.747-0.795,1.507-0.924,2.305c-0.159,0.971-0.751,1.292-1.529,1.551
			c-8.71,2.884-15.187,8.438-19.557,16.465c-3.017,5.541-4.474,11.528-5.246,17.766c-1.208,9.731,0.194,19.017,4.305,27.884
			c4.492,9.697,11.742,16.961,20.518,22.817c4.628,3.088,9.703,4.989,15.237,5.815c3.57,0.535,7.111,1.026,10.585-0.188
			c2.242-0.787,4.466-1.799,5.332-4.364C77.982,91.875,78.486,87.857,77.61,85.853z M31.417,47.297
			c-1.492-0.002-2.82-1.757-2.745-3.627c0.07-1.719,1.185-3.043,2.561-3.037c1.554,0.006,2.717,1.575,2.682,3.619
			C33.883,46.042,32.854,47.299,31.417,47.297z M76.148,91.63c-3.139-1.167-6.027-2.736-8.248-4.009
			c-4.267-2.443-7.869-4.937-11.02-7.624c-4.136-3.528-7.435-8.068-10.699-14.721c-2.351-4.789-3.983-10.049-4.855-15.638
			c-0.77-4.927-0.84-9.301-0.217-13.372c1.774-11.591,6.602-22.506,14.76-33.371c0.045-0.061,0.089-0.123,0.128-0.185
			c0.178,0.078,0.355,0.155,0.534,0.232c1.271,0.543,2.052,1.203,2.314,1.961c0.321,0.919-0.004,2.25-0.991,4.073
			c-0.761,1.401-1.476,2.327-2.32,3.001c-1.491,1.19-1.959,2.867-2.219,4.35c-0.317,1.804-0.697,3.637-1.063,5.409
			c-0.38,1.836-0.772,3.735-1.104,5.625c-0.473,2.711-0.82,5.463-1.16,8.125c-0.131,1.035-0.263,2.068-0.401,3.103
			c-0.542,4.042,0.208,8.088,0.812,11.34c0.952,5.14,3.312,10.076,7.427,15.534c3.632,4.809,7.841,10.666,14.146,15.49
			c2.082,1.594,3.532,3.369,4.431,5.426C76.99,87.73,76.739,90.277,76.148,91.63z"/>
	</g>
</g>
<g>
</g>
<g>
</g>
<g>
</g>
<g>
</g>
<g>
</g>
<g>
</g>
<g>
</g>
<g>
</g>
<g>
</g>
<g>
</g>
<g>
</g>
<g>
</g>
<g>
</g>
<g>
</g>
<g>
</g>
</svg>
