<?xml version="1.0" encoding="iso-8859-1"?>
<!-- Generator: Adobe Illustrator 16.0.0, SVG Export Plug-In . SVG Version: 6.00 Build 0)  -->
<!DOCTYPE svg PUBLIC "-//W3C//DTD SVG 1.1//EN" "http://www.w3.org/Graphics/SVG/1.1/DTD/svg11.dtd">
<svg version="1.1" id="Capa_1" xmlns="http://www.w3.org/2000/svg" xmlns:xlink="http://www.w3.org/1999/xlink" x="0px" y="0px"
	 width="98.167px" height="98.167px" viewBox="0 0 98.167 98.167" style="enable-background:new 0 0 98.167 98.167;"
	 xml:space="preserve">
<g>
	<path d="M58.479,97.283c-9.613,1.474-19.279,1.478-28.289-2.915C14.735,86.836,6.537,74.44,6.183,57.144
		C6.024,49.484,6.152,41.82,6.152,34.16c0.004-8.701,0-17.403,0.004-26.104c0-3.256,1.423-5.707,4.33-7.161
		c2.904-1.452,5.756-1.102,8.351,0.8c2.087,1.532,2.94,3.698,2.937,6.276c-0.018,16.253-0.01,32.505-0.007,48.757
		c0,12.874,8.23,23.089,20.906,25.159c7.872,1.288,15.729,0.899,22.733-3.821c8.456-5.702,12.615-16.151,10.354-26.13
		c-2.266-9.989-10.517-17.683-20.623-19.011c-2.807-0.369-5.671-0.287-8.513-0.323c-4.466-0.058-7.93-3.11-8.189-7.303
		c-0.273-4.38,2.676-7.878,7.273-8.29c24.299-2.179,41.495,13.512,45.524,32.449C95.875,71.285,80.528,93.901,58.479,97.283z"/>
</g>
<g>
</g>
<g>
</g>
<g>
</g>
<g>
</g>
<g>
</g>
<g>
</g>
<g>
</g>
<g>
</g>
<g>
</g>
<g>
</g>
<g>
</g>
<g>
</g>
<g>
</g>
<g>
</g>
<g>
</g>
</svg>
