<?xml version="1.0" encoding="iso-8859-1"?>
<!-- Generator: Adobe Illustrator 16.0.0, SVG Export Plug-In . SVG Version: 6.00 Build 0)  -->
<!DOCTYPE svg PUBLIC "-//W3C//DTD SVG 1.1//EN" "http://www.w3.org/Graphics/SVG/1.1/DTD/svg11.dtd">
<svg version="1.1" id="Capa_1" xmlns="http://www.w3.org/2000/svg" xmlns:xlink="http://www.w3.org/1999/xlink" x="0px" y="0px"
	 width="97.69px" height="97.691px" viewBox="0 0 97.69 97.691" style="enable-background:new 0 0 97.69 97.691;"
	 xml:space="preserve">
<g>
	<path d="M89.78,56.988c-2.793,0-5.242,1.45-6.649,3.637l-17.195-8.247c0.09-0.366,0.152-0.744,0.152-1.14
		c0-2.63-2.136-4.765-4.767-4.765s-4.765,2.134-4.765,4.765c0,0.75,0.189,1.449,0.498,2.08l-3.852,3.381l-9.16-5.851
		c0.154-0.483,0.26-0.989,0.26-1.524c0-0.665-0.135-1.295-0.369-1.875l7.783-5.404c0.754,0.833,1.836,1.367,3.049,1.367
		c2.279,0,4.127-1.847,4.127-4.125c0-0.598-0.133-1.161-0.36-1.674l3.979-2.538c0.58,0.491,1.319,0.798,2.141,0.798
		c1.271,0,2.363-0.722,2.926-1.771l9.285,2.056l0.441-1.993l-9.369-2.074c-0.021-0.144-0.049-0.283-0.086-0.421l2.688-1.717
		c0.527,0.503,1.238,0.815,2.022,0.815c1.627,0,2.947-1.318,2.947-2.944s-1.32-2.945-2.947-2.945c-1.625,0-2.942,1.319-2.942,2.945
		c0,0.095,0.019,0.185,0.026,0.277l-2.918,1.861c-0.571-0.459-1.286-0.745-2.075-0.745c-1.839,0-3.328,1.49-3.328,3.328
		c0,0.275,0.043,0.54,0.104,0.797l-4.18,2.668c-0.693-0.526-1.547-0.849-2.482-0.849c-1.205,0-2.278,0.525-3.035,1.351l-5.638-1.271
		c0-0.026,0.008-0.052,0.008-0.079c0-0.15-0.025-0.292-0.043-0.436l5.063-2.521c0.58,0.659,1.422,1.084,2.371,1.084
		c1.75,0,3.17-1.42,3.17-3.168c0-1.749-1.42-3.168-3.17-3.168s-3.17,1.419-3.17,3.168c0,0.064,0.017,0.125,0.021,0.189l-5.157,2.569
		c-0.607-0.642-1.461-1.046-2.414-1.046c-1.174,0-2.203,0.614-2.795,1.534l-2.242-0.896c0.002-0.028,0.01-0.056,0.01-0.086
		c0-1.748-1.42-3.168-3.172-3.168c-0.932,0-1.764,0.411-2.344,1.055l-1.389-0.555c-0.109-1.419-1.285-2.542-2.734-2.542
		c-1.52,0-2.754,1.233-2.754,2.754s1.234,2.754,2.754,2.754c0.857,0,1.613-0.399,2.119-1.014l1.203,0.481
		c-0.006,0.079-0.023,0.155-0.023,0.234c0,1.749,1.42,3.169,3.168,3.169c0.99,0,1.861-0.463,2.443-1.171l2.449,0.979
		c0.008,0.117,0.016,0.234,0.035,0.349l-8.275,4.121c-0.73-0.923-1.85-1.525-3.119-1.525c-2.207,0-3.998,1.791-3.998,3.998
		c0,0.349,0.059,0.68,0.143,1.001l-13.804,6.877c-1.031-1.506-2.762-2.495-4.725-2.495C2.561,47.686,0,50.248,0,53.408
		c0,3.158,2.561,5.721,5.721,5.721c3.158,0,5.723-2.562,5.723-5.721c0-0.47-0.063-0.922-0.17-1.357l13.971-6.957
		c0.727,0.744,1.736,1.21,2.859,1.21c2.209,0,4-1.791,4-3.998c0-0.205-0.031-0.402-0.061-0.6l8.389-4.179
		c0.602,0.594,1.428,0.962,2.338,0.962c1.076,0,2.023-0.519,2.633-1.311l5.344,1.205c-0.063,0.291-0.104,0.592-0.104,0.903
		c0,0.324,0.047,0.636,0.117,0.939l-7.958,5.522c-0.906-0.891-2.146-1.443-3.518-1.443c-2.771,0-5.02,2.247-5.02,5.019
		c0,2.772,2.248,5.02,5.02,5.02c1.498,0,2.83-0.671,3.75-1.714l8.569,5.474l-2.043,1.794c-1.21-1.114-2.823-1.801-4.599-1.801
		c-3.758,0-6.805,3.047-6.805,6.806c0,3.758,3.047,6.805,6.805,6.805c3.758,0,6.808-3.047,6.808-6.805
		c0-1.244-0.34-2.408-0.926-3.412l7.486-6.571c0.818,0.668,1.852,1.085,2.99,1.085c1.502,0,2.828-0.71,3.701-1.797l17.229,8.264
		c-0.247,0.768-0.385,1.583-0.385,2.434c0,4.368,3.543,7.91,7.912,7.91c4.368,0,7.912-3.542,7.912-7.91
		C97.692,60.531,94.149,56.988,89.78,56.988z"/>
</g>
<g>
</g>
<g>
</g>
<g>
</g>
<g>
</g>
<g>
</g>
<g>
</g>
<g>
</g>
<g>
</g>
<g>
</g>
<g>
</g>
<g>
</g>
<g>
</g>
<g>
</g>
<g>
</g>
<g>
</g>
</svg>
