<?xml version="1.0" encoding="iso-8859-1"?>
<!-- Generator: Adobe Illustrator 16.0.0, SVG Export Plug-In . SVG Version: 6.00 Build 0)  -->
<!DOCTYPE svg PUBLIC "-//W3C//DTD SVG 1.1//EN" "http://www.w3.org/Graphics/SVG/1.1/DTD/svg11.dtd">
<svg version="1.1" id="Capa_1" xmlns="http://www.w3.org/2000/svg" xmlns:xlink="http://www.w3.org/1999/xlink" x="0px" y="0px"
	 width="98.734px" height="98.734px" viewBox="0 0 98.734 98.734" style="enable-background:new 0 0 98.734 98.734;"
	 xml:space="preserve">
<g>
	<g>
		<path d="M59.204,91.099c-0.045-0.047-0.095-0.092-0.139-0.14c-5.938-6.079-6.929-13.354-6.943-13.476
			c-0.112-1.229-0.138-2.381-0.108-3.488c-1.476,0.262-2.986,0.422-4.537,0.422c-14.445,0-26.198-11.753-26.198-26.199
			c0-14.445,11.753-26.194,26.198-26.194c14.447,0,26.197,11.749,26.197,26.194c0,4.405-0.486,8.33-2.414,11.978
			c0,0-2.137,6.329,2.015,12.404c2.894,4.238,9.009,4.666,11.677,4.781c6.383-8.084,10.003-18.062,10.003-29.164
			c0-7.771-1.881-15.106-5.194-21.58c-2.459,2.356-6.324,2.668-9.135,0.547c-2.914-2.197-3.89-4.678-2.624-8.207
			c-2.929,1.874-5.737,2.216-8.723-0.037c-2.396-1.808-3.304-4.842-2.532-7.567c-2.464,1.953-6.011,2.103-8.641,0.12
			c-3.098-2.335-3.727-6.732-1.424-9.846c-2.979-0.585-6.055-0.901-9.206-0.901C21.255,0.747,0,22.003,0,48.219
			c0,26.22,21.255,47.477,47.476,47.477c5.016,0,9.844-0.782,14.382-2.223c-0.689-0.529-1.313-1.086-1.905-1.648
			C59.691,91.586,59.448,91.345,59.204,91.099z"/>
		<path d="M86.162,78.584c0,0-19.506,0.94-16.138-17.323c0,0-18.646-4.338-16.783,16.01c0,0,2.327,19.148,25.239,20.611
			c0,0,11.865,1.465,18.3-6.521C98.385,88.901,103.493,77.211,86.162,78.584z"/>
	</g>
</g>
<g>
</g>
<g>
</g>
<g>
</g>
<g>
</g>
<g>
</g>
<g>
</g>
<g>
</g>
<g>
</g>
<g>
</g>
<g>
</g>
<g>
</g>
<g>
</g>
<g>
</g>
<g>
</g>
<g>
</g>
</svg>
