<?xml version="1.0" encoding="iso-8859-1"?>
<!-- Generator: Adobe Illustrator 16.0.0, SVG Export Plug-In . SVG Version: 6.00 Build 0)  -->
<!DOCTYPE svg PUBLIC "-//W3C//DTD SVG 1.1//EN" "http://www.w3.org/Graphics/SVG/1.1/DTD/svg11.dtd">
<svg version="1.1" id="Capa_1" xmlns="http://www.w3.org/2000/svg" xmlns:xlink="http://www.w3.org/1999/xlink" x="0px" y="0px"
	 width="96.201px" height="96.201px" viewBox="0 0 96.201 96.201" style="enable-background:new 0 0 96.201 96.201;"
	 xml:space="preserve">
<g>
	<g>
		<path d="M92.823,12.556C45.651-3.094,5.755,11.973,4.078,12.622L0,14.203v57.718c0,0,16.673,11.29,40.572,12.458l0.042-11.951
			c-10.097-0.839-22.737-4.397-29.548-8.916V21.289c10.301-3.017,41.435-9.434,74.214,0.109v44.42l-3.55,1.513v12.919l14.471-7.313
			V14.008L92.823,12.556z"/>
		<path d="M61.126,64.202c-5.265,0-10.392,1.028-15.233,3.062l-1.77,0.748V86.83l1.637,0.777c0.271,0.125,6.753,3.122,15.643,3.122
			c5.278,0,10.354-1.035,15.085-3.077l1.738-0.75V68.124l-1.603-0.78C75.959,67.019,69.866,64.202,61.126,64.202z M71.977,83.426
			c-3.355,1.211-6.912,1.825-10.573,1.825c-4.886,0-8.89-1.098-11.028-1.834V71.521c3.455-1.223,7.07-1.841,10.751-1.841
			c4.854,0,8.769,1.085,10.851,1.816V83.426z"/>
		<polygon points="69.448,26.948 54.194,26.948 57.566,59.229 64.127,58.377 		"/>
	</g>
</g>
<g>
</g>
<g>
</g>
<g>
</g>
<g>
</g>
<g>
</g>
<g>
</g>
<g>
</g>
<g>
</g>
<g>
</g>
<g>
</g>
<g>
</g>
<g>
</g>
<g>
</g>
<g>
</g>
<g>
</g>
</svg>
