<?xml version="1.0" encoding="iso-8859-1"?>
<!-- Generator: Adobe Illustrator 16.0.0, SVG Export Plug-In . SVG Version: 6.00 Build 0)  -->
<!DOCTYPE svg PUBLIC "-//W3C//DTD SVG 1.1//EN" "http://www.w3.org/Graphics/SVG/1.1/DTD/svg11.dtd">
<svg version="1.1" id="Capa_1" xmlns="http://www.w3.org/2000/svg" xmlns:xlink="http://www.w3.org/1999/xlink" x="0px" y="0px"
	 width="97.453px" height="97.452px" viewBox="0 0 97.453 97.452" style="enable-background:new 0 0 97.453 97.452;"
	 xml:space="preserve">
<g>
	<g>
		<path d="M72.33,61.721c-1.016-0.496-10.325-4.802-23.68-4.802c-8.043,0-15.875,1.572-23.273,4.681l-2.703,1.144v28.749l2.5,1.189
			c0.415,0.19,10.319,4.771,23.9,4.771c8.064,0,15.818-1.582,23.048-4.701l2.657-1.146V62.913L72.33,61.721z M65.228,86.291
			c-5.127,1.85-10.562,2.788-16.155,2.788c-7.463,0-13.582-1.675-16.85-2.802V68.102c5.278-1.867,10.803-2.812,16.426-2.812
			c7.417,0,13.398,1.658,16.58,2.775V86.291L65.228,86.291z"/>
		<polygon points="53.236,48.021 61.365,0 38.059,0 43.21,49.32 		"/>
	</g>
</g>
<g>
</g>
<g>
</g>
<g>
</g>
<g>
</g>
<g>
</g>
<g>
</g>
<g>
</g>
<g>
</g>
<g>
</g>
<g>
</g>
<g>
</g>
<g>
</g>
<g>
</g>
<g>
</g>
<g>
</g>
</svg>
