<?xml version="1.0" encoding="iso-8859-1"?>
<!-- Generator: Adobe Illustrator 16.0.0, SVG Export Plug-In . SVG Version: 6.00 Build 0)  -->
<!DOCTYPE svg PUBLIC "-//W3C//DTD SVG 1.1//EN" "http://www.w3.org/Graphics/SVG/1.1/DTD/svg11.dtd">
<svg version="1.1" id="Capa_1" xmlns="http://www.w3.org/2000/svg" xmlns:xlink="http://www.w3.org/1999/xlink" x="0px" y="0px"
	 width="98.49px" height="98.49px" viewBox="0 0 98.49 98.49" style="enable-background:new 0 0 98.49 98.49;" xml:space="preserve"
	>
<g>
	<g>
		<path d="M49.246,23.643c25.248,0,46.057,19.004,48.908,43.489c0.221-1.893,0.336-3.813,0.336-5.762
			c0-27.198-22.049-49.248-49.245-49.248C22.047,12.122,0,34.172,0,61.37c0,1.947,0.114,3.869,0.336,5.762
			C3.19,42.647,23.998,23.643,49.246,23.643z"/>
		<path d="M62.758,62.327c0-0.059-0.039-0.117-0.095-0.173c0.058-0.052,0.095-0.11,0.095-0.169c0-0.234,0.123-0.481,0.371-0.731
			c2.18-2.085,3.965-4.563,3.965-8.627c0-9.323-7.14-14.679-17.848-14.679c-10.713,0-17.851,7.732-17.851,16.562v6.92v1.455v6.92
			c0,8.822,7.138,16.562,17.851,16.562c10.708,0,17.848-5.357,17.848-14.68c0-4.066-1.785-6.549-3.965-8.629
			C62.881,62.812,62.758,62.562,62.758,62.327z M48.152,57.384c-1.387,0-2.18,0.795-2.18,2.187v0.433H45.93v5.358h0.112
			c0.208,1.002,0.946,1.567,2.11,1.567c3.077,0,8.333,0.494,8.333,4.76c0,3.668-3.271,5.256-7.237,5.256
			c-4.66,0-7.24-3.668-7.24-7.139v-7.004h0.061v-0.218h-0.062v-0.854l0.061,0.002v-0.221h-0.061v-7c0-3.471,2.581-7.139,7.24-7.139
			c3.967,0,7.238,1.584,7.238,5.255C56.484,56.89,51.229,57.384,48.152,57.384z"/>
	</g>
</g>
<g>
</g>
<g>
</g>
<g>
</g>
<g>
</g>
<g>
</g>
<g>
</g>
<g>
</g>
<g>
</g>
<g>
</g>
<g>
</g>
<g>
</g>
<g>
</g>
<g>
</g>
<g>
</g>
<g>
</g>
</svg>
