<?xml version="1.0" encoding="iso-8859-1"?>
<!-- Generator: Adobe Illustrator 16.0.0, SVG Export Plug-In . SVG Version: 6.00 Build 0)  -->
<!DOCTYPE svg PUBLIC "-//W3C//DTD SVG 1.1//EN" "http://www.w3.org/Graphics/SVG/1.1/DTD/svg11.dtd">
<svg version="1.1" id="Capa_1" xmlns="http://www.w3.org/2000/svg" xmlns:xlink="http://www.w3.org/1999/xlink" x="0px" y="0px"
	 width="89.73px" height="89.73px" viewBox="0 0 89.73 89.73" style="enable-background:new 0 0 89.73 89.73;" xml:space="preserve"
	>
<g>
	<g>
		<path d="M19.423,13.123c0-1.877-0.973-2.75-2.672-2.75h-4.98V0h11.658c5.467,0,7.773,2.375,7.773,7.998v20.621
			c0,2.998-0.242,5.25-0.242,5.25h0.242c0,0,5.344-10.375,19.797-10.375c16.515,0,26.96,13.498,26.96,33.119
			c0,20.119-11.781,33.117-27.931,33.117c-13.725,0-19.309-10.625-19.309-10.625h-0.244c0,0,0.244,2.002,0.244,4.75v4.375H19.423
			V13.123z M48.327,79.355c9.716,0,17.729-8.248,17.729-22.617c0-13.75-7.164-22.619-17.485-22.619
			c-9.109,0-17.611,6.621-17.611,22.744C30.96,68.109,36.667,79.355,48.327,79.355z"/>
	</g>
</g>
<g>
</g>
<g>
</g>
<g>
</g>
<g>
</g>
<g>
</g>
<g>
</g>
<g>
</g>
<g>
</g>
<g>
</g>
<g>
</g>
<g>
</g>
<g>
</g>
<g>
</g>
<g>
</g>
<g>
</g>
</svg>
