<?xml version="1.0" encoding="iso-8859-1"?>
<!-- Generator: Adobe Illustrator 16.0.0, SVG Export Plug-In . SVG Version: 6.00 Build 0)  -->
<!DOCTYPE svg PUBLIC "-//W3C//DTD SVG 1.1//EN" "http://www.w3.org/Graphics/SVG/1.1/DTD/svg11.dtd">
<svg version="1.1" id="Capa_1" xmlns="http://www.w3.org/2000/svg" xmlns:xlink="http://www.w3.org/1999/xlink" x="0px" y="0px"
	 width="96.625px" height="96.625px" viewBox="0 0 96.625 96.625" style="enable-background:new 0 0 96.625 96.625;"
	 xml:space="preserve">
<g>
	<g>
		<path d="M11.419,47.579v-0.116c3.099-0.928,3.865-8.284-2.185-8.284c-2.31,0-6.666-0.001-9.234-0.001v18.398
			c0,0,7.592-0.002,8.996-0.002c1.402,0,5.33-0.955,5.33-5.42C14.327,50.042,13.613,48.613,11.419,47.579z M9.548,53.708
			l-5.929-0.003V43.328c2.02,0,3.965,0,6.329,0c-1.274,1.563-3.288,4.098-3.288,4.098l3.715,4.164
			C10.98,52.146,11.138,53.708,9.548,53.708z"/>
		<polygon points="46.697,39.333 42.959,39.333 42.959,57.609 49.07,57.611 51.048,53.742 46.697,53.742 		"/>
		<path d="M27.919,39.498c-4.876,0.054-8.699,4.026-8.691,9.027c0.009,4.957,3.908,8.981,8.733,9.013
			c4.948,0.03,8.95-4.13,8.858-9.21C36.731,43.357,32.785,39.442,27.919,39.498z M28.088,53.636c-2.705,0.049-4.984-2.238-5.03-5.05
			c-0.048-2.825,2.119-5.117,4.878-5.159c2.786-0.044,4.973,2.14,5.008,5C32.978,51.246,30.795,53.585,28.088,53.636z"/>
		<path d="M88.343,39.007c-2.889,6.396-5.6,12.719-8.261,18.609l4.104-0.01l4.135-9.81l4.154,9.779l4.15,0.003L88.343,39.007z"/>
		<path d="M56.572,57.618l4.103-0.011l4.136-9.809l4.154,9.779l4.15,0.003l-8.283-18.573C61.943,45.404,59.232,51.726,56.572,57.618
			z"/>
	</g>
</g>
<g>
</g>
<g>
</g>
<g>
</g>
<g>
</g>
<g>
</g>
<g>
</g>
<g>
</g>
<g>
</g>
<g>
</g>
<g>
</g>
<g>
</g>
<g>
</g>
<g>
</g>
<g>
</g>
<g>
</g>
</svg>
