<?xml version="1.0" encoding="iso-8859-1"?>
<!-- Generator: Adobe Illustrator 16.0.0, SVG Export Plug-In . SVG Version: 6.00 Build 0)  -->
<!DOCTYPE svg PUBLIC "-//W3C//DTD SVG 1.1//EN" "http://www.w3.org/Graphics/SVG/1.1/DTD/svg11.dtd">
<svg version="1.1" id="Capa_1" xmlns="http://www.w3.org/2000/svg" xmlns:xlink="http://www.w3.org/1999/xlink" x="0px" y="0px"
	 width="98.668px" height="98.668px" viewBox="0 0 98.668 98.668" style="enable-background:new 0 0 98.668 98.668;"
	 xml:space="preserve">
<g>
	<g>
		<path d="M98.663,72.863c-0.121-1.675-1.119-2.725-2.926-2.741l-6.286-0.003l0.325-0.275c0.15-0.129,0.313-0.245,0.468-0.37
			c2.167-1.756,4.527-3.292,6.289-5.508c2.477-3.118,2.354-7.766-0.314-10.606c-1.545-1.644-3.564-2.293-5.758-2.446
			c-3.487-0.245-6.467,0.826-8.768,3.521c-1.104,1.296-1.042,3.081,0.069,4.099c1.277,1.168,2.97,1.087,4.283-0.188
			c0.429-0.416,0.865-0.836,1.353-1.174c1.142-0.792,2.916-0.759,3.757,0.018c0.933,0.861,1.047,2.36,0.261,3.707
			c-0.187,0.317-0.428,0.604-0.666,0.887c-0.702,0.831-1.539,1.521-2.374,2.208c-2.418,1.993-4.864,3.956-7.26,5.976
			c-1.155,0.974-1.479,2.289-1.04,3.714c0.395,1.281,1.56,1.958,3.181,1.962c4.166,0.01,8.333-0.018,12.498,0.018
			C97.437,75.672,98.764,74.262,98.663,72.863z"/>
		<path d="M37.145,51.925c-1.621-0.512-3.294-0.63-4.985-0.573c-2.391,0.081-4.679,0.605-6.869,1.562
			c-0.688,0.3-1.082,0.843-1.1,1.592c-0.017,0.725,0.367,1.253,1.014,1.548c0.582,0.266,1.161,0.133,1.731-0.115
			c2.019-0.875,4.133-1.267,6.33-1.146c3.696,0.201,5.783,2.155,5.996,5.583c0.068,1.097,0.074,1.069-0.98,0.839
			c-3.634-0.797-7.277-1.083-10.893,0.069c-3.083,0.981-4.96,3.309-5.137,6.249c-0.205,3.394,1.216,5.807,4.318,7.242
			c3.451,1.599,8.969,1.483,12.749-2.674c0,0.691-0.037,1.169,0.007,1.64c0.101,1.077,0.832,1.738,1.853,1.721
			c1.032-0.019,1.818-0.782,1.82-1.864c0.007-4.591,0.055-9.184-0.039-13.772C42.88,55.92,40.688,53.045,37.145,51.925z
			 M36.792,71.13c-2.729,1.736-5.634,2.085-8.583,0.571c-1.534-0.788-2.213-2.166-2.1-3.892c0.126-1.938,1.281-3.098,3.002-3.759
			c1.266-0.487,2.597-0.614,3.598-0.566c2.296,0.016,4.205,0.295,6.083,0.803c0.254,0.068,0.555,0.04,0.583,0.47
			C39.542,67.306,39.126,69.645,36.792,71.13z"/>
		<path d="M18.591,69.564c-0.237,0.205-0.466,0.42-0.711,0.617c-2.662,2.124-5.602,2.78-8.795,1.441
			c-3.976-1.666-5.993-6.198-4.839-10.633c1.013-3.899,4.133-6.404,7.941-6.391c2.332,0.009,4.201,1.059,5.896,2.547
			c0.991,0.871,2.136,0.84,2.872-0.026c0.72-0.849,0.573-1.908-0.415-2.773c-2.387-2.093-5.16-3.188-8.349-3.185
			c-0.626,0.015-1.248,0.046-1.872,0.145c-6.24,0.99-10.526,6.343-10.311,12.902c0.194,5.906,5.004,10.964,10.998,11.507
			c3.868,0.351,7.182-0.897,9.93-3.636c0.765-0.764,0.785-1.786,0.078-2.514C20.296,68.832,19.443,68.83,18.591,69.564z"/>
		<path d="M74.848,48.938c1.304,0.775,2.681,1.371,4.146,1.778c0.625,0.173,1.052,0.024,1.337-0.563
			c0.085-0.176,0.208-0.337,0.334-0.488c1.946-2.356,1.603-5.854-0.887-6.688c0.553-0.433,0.556-1.004,0.395-1.609
			c-0.132-0.495-0.222-1.009-0.412-1.48c-0.431-1.07-0.583-2.181-0.647-3.321c-0.038-0.681-0.082-1.479-0.836-1.73
			c-0.733-0.245-1.292,0.299-1.753,0.817c-1.548,1.745-2.429,3.834-3.05,6.048c-0.312,1.115-0.588,2.243-0.902,3.45
			c-0.278-0.283-0.479-0.699-0.774-0.749c-0.119-0.315-0.621-1.845,0.147-3.167c0.016-0.007,0.027-0.018,0.038-0.03l0.146-0.186
			c0.041-0.052,0.031-0.125-0.021-0.166c-0.051-0.041-0.125-0.032-0.165,0.021l-0.146,0.186c-0.027,0.034-0.03,0.078-0.015,0.116
			c-0.704,1.238-0.362,2.635-0.194,3.149c-0.354-0.518-1.186-1.502-2.471-1.726c-0.021-0.033-0.057-0.057-0.099-0.057h-0.234
			c-0.065,0-0.119,0.053-0.119,0.118c0,0.064,0.053,0.117,0.119,0.117h0.234c0.02,0,0.036-0.006,0.052-0.014
			c1.288,0.214,2.103,1.241,2.416,1.716c-0.32,0.222,0.104,0.657,0.066,1.069c-1.666-1.243-3.415-2.183-5.233-2.993
			c-1.638-0.729-3.26-1.507-5.032-1.871c-0.396-0.081-0.819-0.09-1.048,0.343c-0.211,0.397-0.077,0.784,0.158,1.124
			c0.129,0.186,0.292,0.362,0.477,0.489c2.043,1.405,3.604,3.292,5.203,5.147c0.374,0.434,0.752,0.861,1.395,0.893
			c0.209,0.009,0.382,0.11,0.373,0.373c0,0.034,0,0.068,0.001,0.104c0.039,0.691,0.208,1.254,0.648,1.91
			c1.145,1.397,2.579,2.411,4.233,3.099c0.334,0.139,0.613,0.209,0.847,0.209c0.573,0,0.854-0.433,0.935-1.322
			c0.024-1.214-0.351-2.362-0.721-3.479c0.294-0.228,0.432,0.202,0.66,0.055c0.197-0.277-0.182-0.569,0.015-0.905
			C74.609,48.804,74.73,48.87,74.848,48.938z M77.169,36.972c0.243,0,0.438,0.196,0.438,0.438c0,0.241-0.195,0.438-0.438,0.438
			c-0.242,0-0.438-0.197-0.438-0.438C76.73,37.167,76.927,36.972,77.169,36.972z M76.174,39.101c0.354,0,0.642,0.287,0.642,0.643
			c0,0.354-0.287,0.642-0.642,0.642c-0.355,0-0.642-0.288-0.642-0.642C75.533,39.388,75.818,39.101,76.174,39.101z M75.394,41.648
			c0.484,0,0.877,0.394,0.877,0.877c0,0.484-0.393,0.877-0.877,0.877s-0.878-0.393-0.878-0.877
			C74.516,42.042,74.909,41.648,75.394,41.648z M64.598,43.19c-0.087,0.104-0.295,0.072-0.464-0.07
			c-0.17-0.143-0.237-0.342-0.15-0.444c0.087-0.104,0.295-0.072,0.464,0.07C64.617,42.887,64.685,43.086,64.598,43.19z
			 M67.601,44.848c-0.129,0.154-0.439,0.107-0.692-0.104c-0.254-0.212-0.354-0.511-0.225-0.665c0.129-0.154,0.44-0.107,0.693,0.104
			S67.729,44.693,67.601,44.848z M70.822,46.735c-0.162,0.194-0.554,0.136-0.873-0.133c-0.319-0.268-0.446-0.643-0.282-0.837
			c0.164-0.193,0.555-0.135,0.874,0.133C70.859,46.166,70.986,46.541,70.822,46.735z"/>
		<path d="M73.574,54.715c-0.276,0-0.597-0.077-0.978-0.235c-1.758-0.729-3.228-1.806-4.367-3.195c0,0-0.095-0.121-0.099-0.134
			c-2.121,0.057-4.092,0.575-5.847,1.809c-4.084,2.871-5.709,6.916-5.273,11.788c0.438,4.901,2.852,8.568,7.548,10.25
			c4.845,1.732,9.316,0.797,13.104-2.822c0.716-0.685,0.75-1.595,0.141-2.297c-0.601-0.692-1.614-0.764-2.378-0.168
			c-0.494,0.385-0.965,0.804-1.485,1.149c-5.173,3.453-11.745,0.918-12.954-4.976c-0.146-0.707-0.098-1.015,0.791-1.006
			c5.104,0.048,10.209,0.026,15.314,0.021c1.541-0.002,2.236-0.73,2.17-2.274c-0.021-0.483-0.073-0.967-0.147-1.446
			c-0.487-3.147-1.74-5.864-4.291-7.84C74.748,53.867,74.511,54.715,73.574,54.715z M75.388,61.969c0,0-5.526,0-7.324,0
			c-2.14,0.001-5.104-0.031-7.243,0.021l0.139-0.857c0.632-3.463,3.082-6.089,6.201-6.584c3.642-0.578,6.694,1.505,7.822,5.337
			C74.981,59.885,75.368,61.337,75.388,61.969z"/>
		<path d="M58.898,52.979c-0.133-1.022-0.909-1.652-2.052-1.63c-1.505,0.031-2.825,0.61-4.045,1.443
			c-1.461,0.996-2.559,2.331-3.619,3.779c0-1.019-0.001-2.035,0-3.054c0-0.373-0.021-0.735-0.21-1.077
			c-0.428-0.771-1.306-1.152-2.189-0.938c-0.826,0.201-1.411,0.95-1.413,1.903c-0.009,6.676-0.006,13.352-0.003,20.027
			c0,0.226,0.019,0.459,0.083,0.673c0.258,0.868,1.149,1.444,2.042,1.344c0.972-0.109,1.667-0.824,1.677-1.836
			c0.025-2.653,0.01-5.307,0.015-7.961c0.012-6.063,3.242-10.047,8.168-10.478C58.457,55.081,59.041,54.064,58.898,52.979z"/>
		<path d="M56.309,36.115c0.493,0.135,1.037,0.132,1.469,0.42c0.787,0.523,1.573,0.768,2.517,0.107
			c-0.093,0.947,0.348,1.199,1.109,1.382c0.078,0.019,0.158,0.034,0.241,0.051c0.065,0.159,0.245,0.427,0.651,0.134
			c0.484,0.133,0.861,0.382,0.934,1.088c0.025,0.246,0.381,0.48,0.586,0.325c0.183-0.139,0.079-0.453-0.045-0.568
			c-0.563-0.519-0.359-0.907,0.142-1.215c0.724-0.446,0.663-0.969,0.222-1.566c-0.273-0.371-0.535-0.75-0.82-1.152
			c0.604-0.219,0.725,0.266,1.006,0.453c0.309,0.204,0.634,0.812,0.918,0.497c0.256-0.28-0.361-0.565-0.625-0.827
			c-0.026-0.027-0.012-0.098-0.016-0.148c0.314-0.181,0.527,0.015,0.765,0.181c0.396,0.277,0.799,0.55,1.22,0.785
			c1.376,0.772,1.987,0.598,2.76-0.763c0.669-1.178,0.874-1.229,1.955-0.446c0.217,0.157,0.417,0.313,0.694,0.188
			c0.149-0.068,0.178-0.222,0.162-0.363c-0.032-0.309-0.282-0.402-0.529-0.484c-0.554-0.184-1.201-0.276-1.563-0.73
			c-0.143-0.179-0.332-0.348-0.316-0.576c0.07-1.112-0.128-1.044-0.479-1.047c-0.487-0.005,0.226-2.479-2.102-2.11
			c-0.191,0.031-0.51,0.068-0.835,0.05c0.937-1.243,0.739-2.408-0.113-3.488c-0.632-0.8-0.956-1.727-1.287-2.665
			c-0.338-0.961-0.774-1.046-1.438-0.284c-1.357,1.556-1.893,3.388-1.833,5.438c0.039,1.425,0.353,2.795,0.734,4.179
			c-0.423,0.059-0.644-0.134-0.882-0.336c-0.117-0.101-0.328-0.128-0.432,0.036c-0.299-0.223-0.834-0.779-0.783-1.863
			c0.012-0.015,0.021-0.031,0.024-0.052l0.053-0.311c0.01-0.06-0.031-0.117-0.092-0.127c-0.06-0.01-0.116,0.03-0.127,0.09
			l-0.052,0.311c-0.005,0.03,0.003,0.061,0.021,0.084c-0.03,0.677,0.153,1.166,0.38,1.503c-0.352-0.155-0.825-0.248-1.438-0.147
			c-0.023-0.016-0.054-0.021-0.084-0.014l-0.306,0.073c-0.059,0.014-0.096,0.072-0.082,0.133c0.015,0.059,0.074,0.096,0.134,0.082
			l0.306-0.073c0.021-0.005,0.036-0.017,0.051-0.031c0.882-0.147,1.45,0.124,1.764,0.372c0.03,0.027,0.06,0.053,0.086,0.074
			c0.033,0.03,0.062,0.058,0.087,0.084c-0.006,0.091,0.007,0.184,0.047,0.225c0.891,0.886,0.022,0.688-0.432,0.694
			c-1.632,0.021-3.146,0.427-4.514,1.331c-0.241,0.158-0.509,0.345-0.445,0.668C55.741,36.064,56.074,36.048,56.309,36.115z"/>
		<path d="M85.73,43.999c0.437,1.12,1.081,1.366,2.162,0.929c0.354-0.143,0.721-0.678,1.072-0.405
			c0.348,0.271-0.278,0.721-0.229,1.08c0.007,0.038,0.06,0.146,0.227,0.118c0.167-0.029,0.622-1.167,0.725-1.174
			c0.114-0.007,0.025,0.467,0.062,0.674c0.084,0.494-0.331,1.484,0.307,1.647c0.676,0.174,1.045-0.568,1.337-1.13
			c0.091-0.176,0.208-0.424,0.234-0.617c0.04-0.299,0.216-0.614,0.445-0.822c0.502-0.455,0.948-1.032,1.371-1.564
			c0.223-0.279,0.488-0.635,0.272-1.012c-0.205-0.356-0.617-0.2-0.944-0.206c-0.34-0.006-0.833-0.016-1.075,0.223
			c-0.201,0.197-0.399,0.155-0.596,0.077c1.005-1.493,2.535-1.575,2.551-1.575l-0.007-0.172c-0.066,0.003-1.65,0.083-2.705,1.68
			c-0.028-0.013-0.058-0.024-0.087-0.035c0.719-1.8-0.145-3.157-0.182-3.214l-0.144,0.094c0.009,0.013,0.854,1.34,0.164,3.062
			l0.081,0.032c-0.141-0.04-0.279-0.039-0.419,0.081c-0.008,0.007-0.199-0.155-0.216-0.324c-0.197-1.917-1.524-3.137-2.72-4.465
			c-0.234-0.259-0.516-0.633-0.937-0.39c-0.431,0.249-0.613,0.71-0.483,1.18c0.172,0.623,0.169,1.239,0.111,1.863
			c-0.045,0.499,0.009,0.955,0.459,1.27C85.375,41.833,85.177,42.577,85.73,43.999z"/>
		<path d="M45.79,32.415c0.391,0.875,1.015,1.251,1.286,1.355c0.226,0.087,0.462,0.346,0.568,0.438
			c0.659,0.584,1.625,1.356,2.019,1.525c0.248,0.106,0.603-0.01,0.455-0.238c-0.341-0.447-0.249-0.604,0.396-0.56
			c0.576,0.041,1.134,0.12,1.699,0.171c0.414,0.042,0.809-0.021,1.028-0.447c0.21-0.409,0.061-0.81-0.176-1.151
			c-0.353-0.51-0.85-0.843-1.413-1.066c-0.354-0.14-0.527-0.315-0.344-0.698c0.313-0.651-0.016-1.143-0.392-1.636
			c-0.377-0.493-0.992-0.815-1.157-1.452c-0.15-0.579-0.4-0.444-0.695-0.165c-0.873,0.827-1.514,1.77-1.471,3.047
			c0.014,0.437-0.007,0.423-0.193,0.454c-0.026,0.003-0.051,0.005-0.078,0.008c-0.11-0.146-0.484-0.618-0.917-0.993
			c-0.009-0.078-0.073-0.14-0.153-0.14h-0.2c-0.086,0-0.157,0.07-0.157,0.156c0,0.087,0.071,0.157,0.157,0.157h0.2
			c0.026,0,0.049-0.008,0.071-0.02c0.337,0.299,0.641,0.661,0.792,0.852c-0.402,0.002-0.735-0.15-1.023-0.516
			c-0.368-0.466-0.875-0.793-1.391-1.083c-0.185-0.104-0.536-0.308-0.725-0.021c-0.212,0.322,0.171,0.659,0.338,0.792
			C44.692,31.486,45.461,31.679,45.79,32.415z"/>
	</g>
</g>
<g>
</g>
<g>
</g>
<g>
</g>
<g>
</g>
<g>
</g>
<g>
</g>
<g>
</g>
<g>
</g>
<g>
</g>
<g>
</g>
<g>
</g>
<g>
</g>
<g>
</g>
<g>
</g>
<g>
</g>
</svg>
