<?xml version="1.0" encoding="iso-8859-1"?>
<!-- Generator: Adobe Illustrator 16.0.0, SVG Export Plug-In . SVG Version: 6.00 Build 0)  -->
<!DOCTYPE svg PUBLIC "-//W3C//DTD SVG 1.1//EN" "http://www.w3.org/Graphics/SVG/1.1/DTD/svg11.dtd">
<svg version="1.1" id="Capa_1" xmlns="http://www.w3.org/2000/svg" xmlns:xlink="http://www.w3.org/1999/xlink" x="0px" y="0px"
	 width="98.839px" height="98.838px" viewBox="0 0 98.839 98.838" style="enable-background:new 0 0 98.839 98.838;"
	 xml:space="preserve">
<g>
	<g>
		<path d="M65.468,45.439c-3.629,0.884-6.577,2.964-9.463,5.181c-1.376,1.059-2.682,2.206-4.133,3.168
			c-1.266,0.839-2.506,0.942-3.829,0.089c-1.329-0.857-2.659-1.694-3.899-2.695c-1.97-1.589-4.066-3.017-6.37-4.111
			c-2.117-1.009-4.299-1.826-6.66-1.86c-1.846-0.027-3.607,0.413-5.302,1.263c-4.851,2.431-7.193,6.95-6.942,12.024
			c0.234,4.73,1.98,9.013,4.27,13.058c3.058,5.4,6.912,10.213,11.43,14.471c4.175,3.936,8.536,7.605,14.259,9.138
			c0.744,0,1.488,0,2.232,0c2.382-0.586,4.541-1.655,6.564-3.021c5.343-3.607,9.77-8.17,13.682-13.246
			c3.576-4.642,6.598-9.603,8.35-15.249c0.854-2.756,1.239-5.561,0.867-8.445C79.611,48.117,71.623,43.94,65.468,45.439z"/>
		<path d="M98.306,26.265c-2.579-3.944-5.85-7.253-9.529-10.153C79.398,8.722,68.619,4.993,56.814,3.955
			c-6.062-0.328-7.848-0.35-10.745-0.153c-2.997,0.204-5.977,0.489-8.931,1.028C25.506,6.958,15.189,11.768,6.507,19.889
			c-2.238,2.094-4.319,4.342-6.006,6.916c-0.898,1.371-0.549,3.092,0.719,3.95c1.341,0.908,3.004,0.587,4.004-0.778
			c0.27-0.368,0.513-0.759,0.795-1.118c5.644-7.182,12.903-12.152,21.356-15.415c9.875-3.813,20.116-4.763,30.59-3.634
			c6.973,0.751,13.615,2.624,19.817,5.923c6.324,3.364,11.785,7.75,15.828,13.751c0.33,0.49,0.754,0.857,1.297,1.081
			c1.194,0.49,2.496,0.149,3.323-0.861C99.002,28.764,99.054,27.409,98.306,26.265z"/>
		<path d="M72.108,22.676c-6.771-4.293-14.24-6.022-21.51-6.02c-2.128,0.036-3.582,0.051-5.038,0.183
			c-8.295,0.745-15.793,3.493-22.296,8.776c-2.184,1.776-4.155,3.763-5.747,6.094c-0.935,1.368-0.647,3.062,0.609,3.963
			c1.276,0.916,3.016,0.663,3.957-0.645c3.053-4.244,7.08-7.278,11.796-9.405c7.844-3.54,16.04-4.179,24.394-2.459
			c7.587,1.562,13.987,5.169,18.555,11.641c0.662,0.938,1.663,1.298,2.807,1.042c2.03-0.453,2.886-2.652,1.684-4.445
			C78.908,27.804,75.744,24.981,72.108,22.676z"/>
		<path d="M38.353,40.189c0.39-0.49,0.795-0.975,1.243-1.411c5.607-5.459,17.028-4.862,21.006,1.389
			c0.628,0.988,1.987,1.231,3.09,0.822c1.135-0.422,1.777-1.404,1.789-2.657c0.011-1.311-0.841-2.162-1.625-3.014
			c-3.803-4.128-8.657-5.762-14.015-5.875c-2.742,0.038-5.302,0.41-7.76,1.346c-3.362,1.279-6.237,3.233-8.301,6.23
			c-0.858,1.246-0.468,2.976,0.744,3.794C35.773,41.661,37.405,41.384,38.353,40.189z"/>
	</g>
</g>
<g>
</g>
<g>
</g>
<g>
</g>
<g>
</g>
<g>
</g>
<g>
</g>
<g>
</g>
<g>
</g>
<g>
</g>
<g>
</g>
<g>
</g>
<g>
</g>
<g>
</g>
<g>
</g>
<g>
</g>
</svg>
