<?xml version="1.0" encoding="iso-8859-1"?>
<!-- Generator: Adobe Illustrator 16.0.0, SVG Export Plug-In . SVG Version: 6.00 Build 0)  -->
<!DOCTYPE svg PUBLIC "-//W3C//DTD SVG 1.1//EN" "http://www.w3.org/Graphics/SVG/1.1/DTD/svg11.dtd">
<svg version="1.1" id="Capa_1" xmlns="http://www.w3.org/2000/svg" xmlns:xlink="http://www.w3.org/1999/xlink" x="0px" y="0px"
	 width="98.319px" height="98.319px" viewBox="0 0 98.319 98.319" style="enable-background:new 0 0 98.319 98.319;"
	 xml:space="preserve">
<g>
	<g>
		<path d="M40.312,60.268c-0.105,0.257-0.344,0.476-0.562,0.665c-0.546,0.479-1.151,0.895-1.672,1.399
			c-3.35,3.245-3.539,7.768-0.681,11.293c1.746,2.155,4.039,3.508,6.637,4.352c3.197,1.039,6.471,1.188,9.761,0.508
			c2.868-0.596,5.447-1.792,7.467-3.985c1.892-2.057,2.753-4.449,2.17-7.249c-0.416-1.989-1.512-3.597-2.997-4.938
			c-0.971-0.823-1.52-2.347-1.604-2.527c-0.818-1.722-2.034-3.151-3.338-4.514c-0.638-0.667-1.311-1.298-2.054-2.031
			c0.28-0.086,0.422-0.128,0.562-0.172c1.798-0.575,3.456-1.384,4.818-2.739c2.024-2.014,2.19-4.666,0.41-6.892
			c-1.229-1.534-2.863-2.479-4.667-3.131c-3.258-1.185-6.597-1.389-9.988-0.674c-2.314,0.487-4.418,1.387-6.137,3.077
			c-2.125,2.093-2.144,5.14-0.059,7.284c1.461,1.502,3.245,2.419,5.215,3.025c0.629,0.196,1.276,0.336,1.947,0.509
			c-0.734,0.774-1.446,1.507-2.138,2.257C42.163,57.135,41.023,58.552,40.312,60.268z M43.803,50.136
			c-0.779-0.604-1.139-1.39-0.982-2.353c0.14-0.863,0.778-1.334,1.536-1.657c0.208-0.086,0.427-0.155,0.698-0.254
			c-0.383-0.217-0.747-0.381-1.065-0.609c-0.912-0.652-0.915-1.95-0.034-2.649c0.87-0.692,1.91-0.927,2.969-1.031
			c1.668-0.163,3.336-0.147,4.962,0.36c0.599,0.185,1.153,0.452,1.565,0.953c0.804,0.977,0.587,2.061-0.538,2.641
			c-0.174,0.091-0.355,0.165-0.542,0.249c0.521,0.266,1.042,0.439,1.452,0.757c1.358,1.051,1.252,2.873-0.241,3.808
			c-0.633,0.453-2.122,0.873-2.122,0.873s-1.054-1.062-1.634-1.831c0.213-0.129,0.324-0.197,0.434-0.266
			c0.797-0.489,0.815-1.52-0.011-1.955c-1.033-0.546-2.104-0.538-3.123,0.067c-0.542,0.321-0.567,1.225-0.08,1.666
			c0.458,0.416,1.021,0.507,1.608,0.51c0.223,0.001,0.442,0,0.781,0c-0.683,1.068-1.79,2.029-1.79,2.029
			C47.396,51.382,45.069,51.117,43.803,50.136z M48.987,50.551c0.265-0.262,0.477-0.579,0.716-0.875
			c1.116,1.547,2.611,2.7,3.942,4.02c1.661,1.646,3.326,3.293,4.529,5.325c0.591,0.996,1.072,2.043,1.059,3.251
			c-0.023,1.861-1.563,3.658-3.5,4.005c-1.791,0.32-3.34-0.143-4.561-1.545c-0.08-0.09-0.166-0.18-0.265-0.244
			c-0.294-0.197-0.529-0.115-0.529,0.24c0.001,0.739-0.007,1.494,0.127,2.219c0.175,0.932,0.453,1.854,0.755,2.754
			c0.123,0.369,0.426,0.677,0.674,1.05c-1.506,0-2.98,0-4.563,0c0.962-0.937,1.209-2.097,1.417-3.254
			c0.141-0.79,0.185-1.599,0.225-2.398c0.01-0.229,0.089-0.603-0.117-0.704c-0.205-0.104-0.587,0.21-0.74,0.385
			c-1.289,1.47-2.927,1.903-4.747,1.432c-2.311-0.602-4.119-2.945-2.849-5.896c0.921-2.139,2.423-3.835,4.032-5.454
			C46.039,53.404,47.527,51.993,48.987,50.551z"/>
		<path d="M88.963,44.894c-0.858-1.29-2.012-2.265-3.323-3.055c-0.644-0.391-1.326-0.719-2.016-1.084
			c0.189-0.447,0.387-0.871,0.555-1.308c0.864-2.256,0.698-4.533,0.061-6.8c-0.112-0.402-0.244-0.87-0.756-0.999
			c0.045-0.744-0.158-1.407-0.552-2.032c-0.798-1.274-1.981-2.092-3.296-2.708c-3.492-1.639-7.165-2.12-10.967-1.515
			c-1.819,0.289-3.546,0.861-4.904,2.198c-0.76,0.75-1.105,1.66-0.88,2.736c0.269,1.271,1.121,2.133,2.112,2.86
			c1.488,1.094,3.178,1.753,4.964,2.186c2.677,0.645,5.369,0.778,8.083,0.252c0.351-0.067,0.699-0.148,1.061-0.226
			c-0.62,0.911-1.339,2.305-1.863,3.409c-0.159,0.334-0.133,0.404-0.479,0.415c-1.289,0.033-2.586,0.023-3.857,0.197
			c-2.088,0.287-4.037,0.981-5.605,2.479c-1.628,1.557-1.96,3.515-0.937,5.522c0.621,1.218,1.551,2.169,2.631,2.972
			c2.659,1.979,5.728,2.909,8.957,3.274c1.459,0.164,2.971,0.061,4.44-0.096c1.951-0.206,3.785-0.824,5.396-2.016
			C90.058,49.874,90.531,47.245,88.963,44.894z M77.202,33.082c-0.724,0.508-1.547,0.679-2.401,0.745
			c-1.493,0.121-2.974,0.093-4.386-0.484c-1.569-0.639-2.666-1.705-2.975-3.441c-0.24-1.357,0.268-2.313,1.562-2.873
			c1.143-0.494,2.361-0.605,3.572-0.474c1.713,0.069,3.696,1.497,3.901,1.834c-0.32,0-0.421,0-0.67,0
			c-0.426,0-2.125,0.042-2.125,0.042s-0.016-0.059-0.433-0.345c-0.559-0.384-1.232-0.396-1.884-0.192
			c-0.603,0.185-0.885,0.768-0.679,1.354c1.799-0.594,3.579-0.536,5.328,0.172c0.89,0.361,1.599,0.933,1.848,1.924
			C78.045,32.078,77.819,32.645,77.202,33.082z M78.805,49.07c-0.262,1.091-0.485,2.186-0.726,3.281
			c-0.016,0.065-0.048,0.132-0.106,0.288c-0.137-0.777-0.257-1.46-0.377-2.141c-0.043-0.013-0.087-0.027-0.132-0.044
			c-0.201,0.364-0.402,0.729-0.604,1.096c-0.037-0.006-0.073-0.009-0.109-0.014c0-0.56,0-1.119,0-1.68
			c-0.051-0.016-0.103-0.033-0.152-0.049c-0.337,0.449-0.672,0.896-1.008,1.345c-0.03-0.009-0.061-0.016-0.093-0.022
			c0.091-0.577,0.182-1.158,0.294-1.875c-0.888,0.638-1.669,1.199-2.449,1.761c-0.017-0.017-0.035-0.031-0.052-0.046
			c0.437-0.565,0.873-1.133,1.312-1.697c0.346-0.442,0.7-0.877,1.038-1.323c0.168-0.223,0.348-0.298,0.625-0.195
			c0.74,0.269,1.489,0.517,2.234,0.772C78.765,48.618,78.881,48.75,78.805,49.07z M83.339,49.358
			c-0.16,0.457-0.411,0.87-0.903,1.182c0-0.556-0.005-1.046,0.002-1.535c0.025-1.851-1.351-3.359-2.717-3.915
			c-0.188-0.075-0.528-0.208-0.528-0.208s0.022,0.294,0.036,0.551c0.025,0.501,0.073,1,0.099,1.502
			c0.011,0.208,0.021,0.452,0.021,0.452l-3.162-1.183c0,0,1.092-1.254,1.62-1.866c-0.34-0.138-0.649-0.256-0.93-0.295
			c-1.5-0.202-2.797,0.215-3.831,1.35c-0.312,0.343-0.614,0.698-0.951,1.08c-0.304-0.535-0.103-1.024,0.08-1.461
			c0.862-2.085,2.358-3.378,4.666-3.61c0.058-0.005,0.113-0.036,0.144-0.048c0.398-2.372,1.291-4.509,2.824-6.337
			c0.941-1.119,2.03-2.094,3.323-2.811c0.521-0.289,0.659-0.265,0.821,0.296c0.619,2.119,0.932,4.276,0.144,6.406
			c-0.514,1.389-1.207,2.713-1.847,4.055c-0.141,0.295-0.116,0.471,0.093,0.72C83.758,45.38,84.065,47.285,83.339,49.358z"/>
		<path d="M10.94,52.235c1.828,1.002,3.817,1.444,5.89,1.557c2.595,0.141,5.126-0.188,7.572-1.071
			c2.123-0.768,4.051-1.848,5.561-3.585c2.12-2.44,1.911-5.337-0.573-7.396c-1.253-1.035-2.721-1.629-4.286-1.999
			c-0.291-0.069-0.463-0.174-0.562-0.49c-0.138-0.43-1.006-2.301-2.072-3.174c0.104-0.017,0.234-0.037,0.364-0.06
			c1.39-0.231,2.803-0.372,4.166-0.714c1.89-0.473,3.619-1.314,5.014-2.736c1.211-1.232,1.533-2.699,0.733-4
			c-0.345-0.564-0.859-1.068-1.398-1.461c-1.581-1.154-3.452-1.569-5.345-1.766c-2.928-0.304-5.792,0.077-8.544,1.146
			c-1.469,0.573-2.808,1.356-3.847,2.581c-1.27,1.491-1.138,3.357,0.339,4.638c0.371,0.324,0.762,0.621,1.118,0.909
			c-0.652,0.388-1.35,0.663-1.94,1.123c-2.224,1.727-3.22,4.077-3.087,6.885c0.009,0.181-0.087,0.396-0.2,0.543
			c-0.47,0.61-1.025,1.162-1.438,1.808c-0.84,1.317-1.032,2.737-0.413,4.214C8.577,50.583,9.651,51.53,10.94,52.235z M17.604,30.135
			l5.625-3.725l3.533,0.004l-0.688,4.083c0.461,0,0.887,0,1.374,0c-0.066,0.442-0.101,0.816-0.187,1.178l-0.042,0.212l-1.365,0.006
			l-0.271,1.442l-3.386,0.015c0.082-0.482,0.157-0.921,0.247-1.438c-1.861,0-5.565,0-5.565,0L17.604,30.135z M10.286,41.555
			c0.072-0.792,0.636-1.381,1.454-1.474c-0.072-1.072,0.42-1.946,1.031-2.782c0.092-0.124,0.083-0.339,0.076-0.511
			c-0.014-0.336,0.032-0.611,0.342-0.826c1.862-1.302,3.882-1.84,6.114-1.23c2.693,0.736,4.465,2.48,5.204,5.156
			c0.794,2.877,0.118,5.433-1.981,7.591c-0.517,0.531-1.208,0.842-1.979,0.309c-0.099-0.068-0.329-0.022-0.462,0.047
			c-0.833,0.418-1.695,0.429-2.575,0.205c-0.227-0.057-0.359-0.044-0.521,0.188c-0.772,1.111-1.125,1.196-2.365,0.65
			C11.848,47.657,10.016,44.567,10.286,41.555z"/>
		<path d="M44.063,35.534c3.159,0.715,6.307,0.635,9.404-0.328c1.311-0.406,2.538-1.008,3.522-1.998
			c1.479-1.49,1.632-3.011,0.457-4.552c-0.855-1.124-2.046-1.784-3.318-2.316c-0.429-0.179-0.874-0.317-1.318-0.477
			c0.423-1.311-0.083-2.494-0.365-3.74c0.189-0.07,0.385-0.144,0.583-0.212c0.977-0.354,1.899-0.793,2.645-1.549
			c1.098-1.108,1.113-2.329,0.026-3.444c-0.934-0.953-2.119-1.464-3.363-1.824c-2.996-0.866-6.022-0.925-9.052-0.184
			c-1.472,0.355-2.863,0.892-3.956,2.021c-0.902,0.935-0.991,2.138-0.102,3.092c0.457,0.49,1.022,0.892,1.591,1.253
			c0.462,0.297,1.001,0.474,1.544,0.721c-0.69,0.793-1.352,1.563-2.028,2.318c-0.189,0.211-0.209,0.364-0.08,0.633
			c0.288,0.609,0.665,1.064,1.373,1.15c0.069,0.009,0.133,0.047,0.13,0.047c-0.884,0.592-1.803,1.127-2.623,1.783
			c-0.666,0.534-1.135,1.264-1.263,2.15c-0.186,1.288,0.412,2.277,1.294,3.103C40.545,34.472,42.258,35.125,44.063,35.534z
			 M51.467,32.888c-1.291-0.013-2.583-0.005-3.873-0.005c-1.261,0-2.521-0.009-3.782,0.008c-0.354,0.003-0.501-0.11-0.479-0.471
			c0.021-0.349,0.011-0.7,0.004-1.05c-0.005-0.26,0.083-0.388,0.369-0.387c2.616,0.007,5.23,0.007,7.847-0.001
			c0.282-0.003,0.377,0.104,0.366,0.376c-0.014,0.365-0.022,0.731,0.002,1.096C51.946,32.809,51.79,32.891,51.467,32.888z
			 M52.19,21.069c-0.029,0.244-0.049,0.274-0.049,0.274s-0.607-1.18-0.959-1.502C52.19,19.626,52.307,19.812,52.19,21.069z
			 M44.074,16.451c0.65-0.548,1.438-0.772,2.254-0.883c1.378-0.186,2.755-0.155,4.091,0.268c0.422,0.134,0.836,0.362,1.192,0.63
			c0.544,0.406,0.565,1.027,0.06,1.479c-0.334,0.298-0.741,0.518-1.134,0.74c-0.089,0.048-0.179,0.098-0.179,0.098l-1.207-1.166
			c-0.051-0.053-0.076-0.158-0.063-0.231c0.083-0.43-0.161-0.661-0.521-0.71c-0.475-0.067-0.962-0.077-1.438-0.049
			c-0.473,0.027-0.763,0.326-0.833,0.79c-0.581-0.249-1.135-0.49-1.689-0.729c-0.042,0.048-0.083,0.098-0.125,0.148
			c0.03,0.216,0.062,0.432,0.096,0.679c-0.318,0-0.627,0-0.969,0C43.543,17.052,43.75,16.722,44.074,16.451z M40.983,25.59
			c-0.264-0.103-0.407-0.543-0.566-0.849c-0.037-0.069,0.069-0.246,0.148-0.337c1.487-1.726,2.984-3.44,4.466-5.171
			c0.114-0.133,0.183-0.379,0.151-0.549c-0.085-0.504-0.231-0.996-0.354-1.494c0.033-0.039,0.064-0.078,0.099-0.117
			c0.619,0.343,1.24,0.69,1.921,1.069c0.174-0.23,0.363-0.479,0.554-0.73c0.346-0.456,0.417-0.488,0.867-0.126
			c0.557,0.443,1.113,0.899,1.603,1.415c1.616,1.707,1.948,2.363,2.479,3.995c0.383,1.172,0.604,2.36,0.072,3.594
			c-0.389,0.901-0.619,1.873-0.952,2.803c-0.054,0.155-0.267,0.37-0.408,0.373c-2.207,0.021-4.412,0.003-6.619,0
			c-0.043,0-0.087-0.022-0.189-0.051c0.597-1.402,1.189-2.791,1.837-4.313c-0.969,0.306-1.856,0.519-2.687,0.873
			C42.485,26.366,41.745,25.885,40.983,25.59z"/>
		<path d="M20.207,22.231c3.938,1.011,7.801,0.757,11.528-0.897c0.692-0.308,1.333-0.801,1.893-1.319
			c1.233-1.139,1.18-2.521-0.081-3.618c-0.283-0.248-0.599-0.479-0.938-0.637c-0.694-0.324-1.414-0.596-2.146-0.897
			c0.389-1.095,0.21-2.072-0.578-2.948c-0.783-0.87-1.786-1.063-2.892-0.999c0.697-1.733,0.55-2.768-0.512-3.701
			c-1.029-0.908-2.632-1.138-3.729-0.435c-1.568,1.005-2.029,2.374-1.099,4.112c-1.31,0.073-2.312,0.6-2.87,1.752
			c-0.589,1.211-0.243,2.291,0.68,3.251c-0.157,0.087-0.274,0.149-0.389,0.215c-0.743,0.42-1.449,0.881-1.97,1.581
			c-0.756,1.019-0.679,2.099,0.208,2.993C18.123,21.499,19.132,21.956,20.207,22.231z M18.994,14.918
			c-0.704-1.179-0.062-2.923,1.316-3.484c0.398-0.162,0.849-0.2,1.275-0.285c0.156-0.032,0.315-0.036,0.494-0.055
			c-0.932-1.797-0.816-2.981,0.339-3.85c1.213-0.913,2.951-0.828,4.019,0.194c1.04,0.997,1.025,2.187-0.087,3.837
			c0.202-0.033,0.358-0.059,0.516-0.082c1.413-0.205,2.649,0.209,3.291,1.461c0.84,1.642-0.335,3.631-2.25,3.775
			c-1.061,0.082-2.021-0.164-2.72-1.052c-0.04-0.051-0.107-0.08-0.284-0.211c0.071,0.474,0.104,0.827,0.18,1.167
			c0.346,1.569,1.555,2.634,3.143,2.786c0.227,0.021,0.453,0.05,0.676,0.099c0.065,0.014,0.114,0.107,0.173,0.163
			c-0.059,0.058-0.107,0.147-0.177,0.165c-0.114,0.031-0.24,0.02-0.362,0.02c-2.671,0-5.343,0-8.017-0.003
			c-0.158,0-0.317-0.023-0.477-0.035c-0.015-0.058-0.029-0.115-0.044-0.172c0.15-0.052,0.296-0.135,0.45-0.144
			c0.908-0.072,1.772-0.257,2.481-0.889c0.873-0.777,1.111-1.8,1.192-2.981c-0.135,0.1-0.217,0.146-0.282,0.21
			C22.355,16.984,20.044,16.682,18.994,14.918z"/>
		<path d="M63.468,21.198c2.587,1.211,5.335,1.584,8.166,1.48c1.497-0.052,2.964-0.266,4.35-0.856
			c0.553-0.237,1.104-0.517,1.58-0.878c1.456-1.106,1.482-2.682,0.057-3.837c-0.688-0.559-1.459-1.011-2.23-1.539
			c0.197-0.331,0.412-0.708,0.648-1.073c0.049-0.077,0.169-0.123,0.265-0.148c0.554-0.147,0.832-0.536,0.765-1.09
			c-0.051-0.404-0.473-0.764-0.891-0.76c-0.537,0.007-0.896,0.342-0.972,0.883c-0.018,0.121-0.047,0.299-0.131,0.347
			c-0.668,0.392-1.349,0.759-2.027,1.126c-0.041,0.023-0.111-0.008-0.212-0.022c0.195-0.883,0.372-1.741,0.583-2.593
			c0.043-0.171,0.191-0.348,0.337-0.459c0.422-0.318,0.63-0.775,0.485-1.168c-0.173-0.469-0.603-0.726-1.077-0.646
			c-0.397,0.068-0.816,0.474-0.751,0.895c0.069,0.45-0.171,0.705-0.38,1.006c-0.312,0.446-0.623,0.894-0.938,1.34
			c-0.116,0.164-0.241,0.324-0.438,0.592c-0.158-1.194-0.308-2.244-0.427-3.297c-0.022-0.207,0.024-0.447,0.11-0.641
			c0.218-0.481,0.156-0.892-0.235-1.217c-0.333-0.276-0.813-0.248-1.2,0.076c-0.352,0.291-0.399,0.731-0.164,1.193
			c0.079,0.15,0.147,0.343,0.129,0.504c-0.117,0.979-0.259,1.957-0.397,2.935c-0.014,0.106-0.046,0.212-0.089,0.403
			c-0.532-0.746-1.025-1.396-1.47-2.079c-0.153-0.233-0.239-0.538-0.266-0.819c-0.044-0.49-0.421-0.896-0.903-0.891
			c-0.432,0.01-0.835,0.294-0.94,0.662c-0.115,0.406,0.104,0.871,0.504,1.122c0.145,0.089,0.344,0.201,0.376,0.336
			c0.187,0.779,0.329,1.568,0.506,2.449c-0.305-0.014-0.59,0.052-0.789-0.05c-0.53-0.28-1.025-0.627-1.526-0.96
			c-0.042-0.026-0.021-0.144-0.032-0.217c-0.078-0.468-0.45-0.803-0.9-0.807c-0.449-0.004-0.869,0.332-0.95,0.761
			c-0.078,0.419,0.176,0.942,0.612,1.031c0.51,0.103,0.602,0.573,0.728,0.82c-0.875,0.461-1.562,0.83-2.107,1.436
			c-0.729,0.805-0.866,1.71-0.28,2.636C61.552,20.15,62.475,20.734,63.468,21.198z M63.135,14.252
			c-0.06-0.095-0.227-0.126-0.351-0.163c-0.359-0.112-0.584-0.332-0.555-0.723c0.031-0.396,0.349-0.661,0.755-0.629
			c0.383,0.031,0.59,0.241,0.639,0.642c0.021,0.172,0.115,0.4,0.249,0.486c0.797,0.498,1.615,0.964,2.429,1.434
			c0.059,0.036,0.142,0.034,0.285,0.063c-0.099-0.489-0.19-0.929-0.279-1.371c-0.138-0.682-0.26-1.37-0.419-2.049
			c-0.031-0.138-0.177-0.295-0.309-0.352c-0.41-0.183-0.664-0.543-0.537-0.885c0.127-0.339,0.375-0.561,0.764-0.521
			c0.398,0.042,0.607,0.385,0.583,0.878c-0.007,0.127,0.01,0.283,0.08,0.384c0.618,0.884,1.248,1.758,1.876,2.633
			c0.041,0.058,0.106,0.098,0.225,0.202c0.096-0.658,0.186-1.253,0.268-1.847c0.093-0.661,0.2-1.319,0.255-1.982
			c0.02-0.229-0.049-0.455-0.143-0.704c-0.333-0.853,0.526-1.24,0.947-0.96c0.296,0.174,0.428,0.446,0.29,0.761
			c-0.276,0.646-0.151,1.143-0.093,1.711c0.093,0.872,0.217,1.741,0.333,2.612c0.014,0.109,0.069,0.218,0.139,0.433
			c0.396-0.55,0.741-1.02,1.076-1.494c0.236-0.333,0.461-0.677,0.699-1.01c0.198-0.283,0.396-0.529,0.332-0.938
			c-0.061-0.372,0.21-0.614,0.592-0.681c0.361-0.062,0.595,0.157,0.717,0.432c0.152,0.344,0.048,0.7-0.296,0.86
			c-0.343,0.158-0.441,0.4-0.51,0.732c-0.185,0.904-0.4,1.802-0.601,2.706c-0.027,0.114-0.027,0.235-0.053,0.48
			c0.438-0.226,0.805-0.402,1.162-0.6c0.48-0.261,0.947-0.542,1.429-0.798c0.235-0.125,0.362-0.271,0.371-0.561
			c0.015-0.456,0.28-0.73,0.659-0.705c0.335,0.023,0.623,0.167,0.694,0.54c0.076,0.396-0.155,0.695-0.59,0.83
			c-0.123,0.037-0.277,0.094-0.339,0.192c-0.413,0.651-0.806,1.316-1.21,1.984c0.144,0.127,0.264,0.219,0.364,0.324
			c0.372,0.386,0.287,0.925-0.214,1.094c-0.317,0.107-0.385,0.283-0.381,0.57c0.01,0.575,0.002,1.149,0.002,1.822
			c-3.307-1.255-6.566-1.258-9.904,0.031c0-0.54-0.005-1.026,0-1.513c0.005-0.418,0.081-0.814-0.49-1.002
			c-0.372-0.12-0.383-0.723-0.085-1.019c0.096-0.096,0.217-0.164,0.39-0.293C63.956,15.592,63.556,14.915,63.135,14.252z"/>
		<path d="M47.463,44.925c0.716,0.251,1.886,0.137,2.219,0.048c0.389-0.102,0.644-0.358,0.666-0.767
			c0.025-0.435-0.241-0.714-0.619-0.857c-0.748-0.282-1.51-0.296-2.262-0.012c-0.351,0.132-0.566,0.387-0.569,0.791
			C46.896,44.536,47.117,44.804,47.463,44.925z"/>
		<path d="M80.181,42.289c0.682-0.014,1.217-0.577,1.21-1.276c-0.008-0.612-0.591-1.163-1.226-1.155
			c-0.674,0.01-1.238,0.56-1.226,1.196C78.954,41.765,79.493,42.301,80.181,42.289z"/>
		<path d="M81.645,38.285c0.662,0.028,1.263-0.53,1.289-1.203c0.027-0.654-0.501-1.189-1.195-1.217
			c-0.699-0.023-1.225,0.459-1.247,1.151C80.468,37.682,80.992,38.256,81.645,38.285z M81.715,36.074
			c0.592-0.001,0.988,0.397,0.986,0.992c-0.002,0.548-0.459,0.985-1.03,0.986c-0.518,0.005-0.961-0.454-0.965-0.995
			C80.7,36.487,81.124,36.075,81.715,36.074z"/>
		<path d="M73.643,32.393c0.421,0.004,0.861-0.114,1-0.622c0.117-0.421-0.143-1.001-0.609-1.209c-0.42-0.185-1.14-0.403-2.074-0.258
			c-0.752,0.16-0.993,0.743-0.535,1.356C72.197,32.408,73.121,32.388,73.643,32.393z"/>
		<path d="M16.965,43.235l-1.487-2.182c-0.035-0.146-0.251-0.183-0.417-0.101l-1.49,0.649c-0.955,0.284-1.198,0.847-1.05,1.565
			c0.124,0.591,0.231,1.186,0.382,1.77c0.037,0.148,0.187,0.325,0.327,0.382c0.686,0.287,1.386,0.532,2.076,0.803
			c0.281,0.109,0.485,0.068,0.656-0.204c0.361-0.575,0.734-1.145,1.12-1.706C17.336,43.841,17.318,43.562,16.965,43.235z"/>
		<path d="M16.087,37.664c0.131,0.269,0.243,0.544,0.308,0.695c1.203-0.084,2.331-0.162,3.566-0.249
			c0.112-0.532,0.244-1.122,0.358-1.718c0.067-0.351-0.049-0.625-0.396-0.778c-0.43-0.19-0.848-0.414-1.287-0.581
			c-1.061-0.4-1.971-0.085-2.752,0.667c-0.702,0.674-0.687,0.686-0.099,1.458C15.906,37.312,16.002,37.49,16.087,37.664z"/>
		<path d="M23.32,44.646c0.481-0.332,0.742-0.845,0.747-1.396c0.004-0.704-0.109-1.411-0.231-2.107
			c-0.027-0.151-0.287-0.335-0.47-0.375c-0.455-0.101-0.928-0.122-1.393-0.186c-0.255-0.034-0.432-0.014-0.482,0.309
			c-0.149,0.948-0.545,1.792-1.124,2.472c0.495,0.715,0.97,1.403,1.525,2.209C22.313,45.302,22.827,44.991,23.32,44.646z"/>
		<polygon points="23.324,28.071 19.713,30.562 22.846,30.562 		"/>
		<path d="M98.09,68.912c-0.556-2.028-1.685-3.696-3.165-5.163c-1.639-1.626-3.565-2.805-5.658-3.729
			c-1.808-0.798-3.694-1.354-5.651-1.617c-1.926-0.258-3.853-0.26-5.781,0.066c-2.413,0.407-4.604,1.276-6.368,3.009
			c-1.738,1.705-2.425,3.783-2.007,6.211c0.372,2.162,1.515,3.9,2.992,5.442c1.922,2.002,4.249,3.396,6.831,4.375
			c0.667,0.253,1.348,0.469,2.078,0.718c-1.163,0.919-2.386,1.644-3.664,2.264c-3.114,1.516-6.416,2.455-9.794,3.16
			c-4.152,0.867-8.358,1.313-12.585,1.535c-4.37,0.227-8.743,0.221-13.114-0.042c-2.955-0.177-5.896-0.469-8.82-0.923
			C29.145,83.561,25,82.566,21.07,80.806c-1.451-0.652-2.829-1.439-4.117-2.442c0.055-0.039,0.09-0.073,0.131-0.09
			c0.099-0.038,0.2-0.072,0.303-0.1c1.507-0.387,2.929-0.98,4.288-1.733c2.188-1.213,4.049-2.785,5.422-4.901
			c1.216-1.874,1.602-3.933,1.196-6.092c-0.428-2.287-1.907-3.877-3.809-5.097c-1.958-1.256-4.143-1.867-6.433-2.037
			c-3.684-0.272-7.195,0.425-10.509,2.084c0,0-2.549,1.29-3.75,2.536c-1.677,1.46-2.964,3.182-3.53,5.369
			c-0.455,1.767-0.339,3.496,0.508,5.128c1.199,2.306,3.192,3.671,5.565,4.544c1.826,0.669,3.726,0.95,5.669,0.913
			c0.249-0.006,0.422,0.053,0.567,0.269c1.078,1.599,2.451,2.923,3.94,4.123c2.159,1.738,4.578,3.062,7.112,4.154
			c3.321,1.435,6.787,2.426,10.332,3.122c4.009,0.788,8.062,1.225,12.146,1.349c4.07,0.124,8.137,0.008,12.185-0.448
			c2.805-0.317,5.585-0.78,8.327-1.451c3.82-0.938,7.52-2.201,10.98-4.104c3.099-1.702,5.844-3.825,7.932-6.722
			c0.166-0.229,0.325-0.308,0.595-0.3c1.108,0.022,2.212-0.003,3.316-0.162c2.276-0.326,4.365-1.065,6.183-2.52
			C97.808,74.45,98.808,71.538,98.09,68.912z"/>
	</g>
</g>
<g>
</g>
<g>
</g>
<g>
</g>
<g>
</g>
<g>
</g>
<g>
</g>
<g>
</g>
<g>
</g>
<g>
</g>
<g>
</g>
<g>
</g>
<g>
</g>
<g>
</g>
<g>
</g>
<g>
</g>
</svg>
