<?xml version="1.0" encoding="iso-8859-1"?>
<!-- Generator: Adobe Illustrator 16.0.0, SVG Export Plug-In . SVG Version: 6.00 Build 0)  -->
<!DOCTYPE svg PUBLIC "-//W3C//DTD SVG 1.1//EN" "http://www.w3.org/Graphics/SVG/1.1/DTD/svg11.dtd">
<svg version="1.1" id="Capa_1" xmlns="http://www.w3.org/2000/svg" xmlns:xlink="http://www.w3.org/1999/xlink" x="0px" y="0px"
	 width="96.961px" height="96.96px" viewBox="0 0 96.961 96.96" style="enable-background:new 0 0 96.961 96.96;"
	 xml:space="preserve">
<g>
	<g>
		<path d="M31.721,83.119c-0.51-0.429-1.018-0.859-1.529-1.286c-2.593-2.166-2.593-2.166-5.235,0.016
			c-3.375,2.786-8.289,2.531-11.25-0.583c-3.005-3.159-3.078-8.203-0.167-11.417c3.174-3.504,7.987-3.708,11.562-0.489
			c1.389,1.25,1.77,1.266,3.124,0.033c0.986-0.896,1.94-1.825,2.914-2.732c1.529-1.432,1.551-1.972,0.081-3.509
			c-4.163-4.351-9.264-5.716-15.104-4.748C8.653,59.64,2.309,66.065,1.496,73.221C0.292,83.836,8.394,92.695,19.324,92.719
			c5.208-0.001,9.556-1.836,12.771-6.043C33.389,84.982,33.319,84.458,31.721,83.119z"/>
		<path d="M62.339,49.485c2.207,0.555,4.438,1.124,6.746,1.047c2.093-0.068,2.877-1.102,2.528-3.181
			c-0.559-3.327-1.062-6.664-1.717-9.972c-0.201-1.003,0.119-1.3,0.946-1.641c3.595-1.481,11.5-4.863,12.736-5.392
			c0.149,0.833,0.312,2.239-0.127,2.973c-0.871,0.824-0.953,1.606-0.134,2.446c0.363,0.372,0.344,0.791,0.257,1.191
			c-1.097,5.083-1.031,10.285-1.607,15.42c-0.1,0.886,0.308,1.35,1.072,1.592c0.399,0.126,0.803,0.188,1.208,0.192
			c0.844-0.05,0.842-0.049,1.263-0.183c0.765-0.242,1.171-0.706,1.072-1.591c-0.576-5.135-0.511-10.337-1.606-15.42
			c-0.088-0.401-0.106-0.819,0.256-1.192c0.819-0.839,0.738-1.622-0.133-2.446c-0.647-1.084,0.012-3.637,0.012-3.637l11.85-5.018
			L49.397,4.425c-0.819-0.35-1.429-0.144-2.146,0.16c-10.833,4.608-21.672,9.203-32.512,13.798C9.907,20.431,5.072,22.474,0,24.619
			c0.645,0.298,1.058,0.503,1.484,0.683c8.17,3.467,16.336,6.946,24.523,10.378c0.926,0.388,1.278,0.731,1.05,1.846
			c-0.647,3.163-1.103,6.365-1.641,9.551c-0.407,2.399,0.39,3.417,2.808,3.462c2.011,0.038,3.987-0.336,5.912-0.849
			C43.525,47.198,52.912,47.121,62.339,49.485z"/>
		<path d="M93.168,69.68c-1.242-5.713-4.307-9.804-10.254-11.139c-5.669-1.274-10.73,0.116-15.167,3.83
			c-0.474,0.396-0.823,0.898-1.479,0.139c-5.061-5.857-14.779-5.761-20.611-0.595c-1.113,0.984-1.281,0.595-1.66-0.5
			c-0.87-2.511-0.919-2.493-3.668-2.493c-0.19,0-0.381-0.001-0.571,0c-2.234,0.008-2.595,0.354-2.597,2.537
			c-0.004,4.662-0.001,9.322-0.001,13.984c0,4.758-0.008,9.514,0.005,14.271c0.004,1.671,0.469,2.13,2.104,2.141
			c1.808,0.012,3.616,0.004,5.422,0.003c2.323-0.002,2.56-0.231,2.561-2.498c0.001-5.231-0.001-10.464,0.004-15.695
			c0-0.476-0.035-0.968,0.075-1.419c0.731-2.994,4.183-5.409,7.374-5.197c3.561,0.239,5.482,2.179,5.855,5.942
			c0.065,0.661,0.058,1.33,0.059,1.996c0.005,4.947-0.002,9.895,0.006,14.842c0.002,1.59,0.434,2.016,2.027,2.026
			c1.714,0.012,3.426,0.005,5.138,0.003c2.08-0.003,2.323-0.316,2.323-2.392V72.631c-0.107-2.376,1.011-3.5,2.72-4.463
			c5.433-3.065,10.507-0.292,10.644,5.89l-0.029,15.697c0.003,1.662,0.517,2.095,2.188,2.102c1.903,0.009,3.807,0.006,5.708,0.002
			c1.911-0.005,2.261-0.341,2.263-2.231c0.008-5.09,0-10.181,0.004-15.27C93.609,72.781,93.502,71.218,93.168,69.68z"/>
	</g>
</g>
<g>
</g>
<g>
</g>
<g>
</g>
<g>
</g>
<g>
</g>
<g>
</g>
<g>
</g>
<g>
</g>
<g>
</g>
<g>
</g>
<g>
</g>
<g>
</g>
<g>
</g>
<g>
</g>
<g>
</g>
</svg>
