<?xml version="1.0" encoding="iso-8859-1"?>
<!-- Generator: Adobe Illustrator 16.0.0, SVG Export Plug-In . SVG Version: 6.00 Build 0)  -->
<!DOCTYPE svg PUBLIC "-//W3C//DTD SVG 1.1//EN" "http://www.w3.org/Graphics/SVG/1.1/DTD/svg11.dtd">
<svg version="1.1" id="Capa_1" xmlns="http://www.w3.org/2000/svg" xmlns:xlink="http://www.w3.org/1999/xlink" x="0px" y="0px"
	 width="97.703px" height="97.704px" viewBox="0 0 97.703 97.704" style="enable-background:new 0 0 97.703 97.704;"
	 xml:space="preserve">
<g>
	<g>
		<path d="M14.615,51.391c-0.151,0.025-0.274,0.262-0.482,0.477c0.238,0.089,0.272,0.113,0.306,0.113
			c4.167-0.037,8.338,0.016,12.501-0.151c2.533-0.103,4.567-1.54,6.05-3.786c1.908-2.893,2.279-6.192,1.813-9.643
			c-0.417-3.073-1.782-5.505-4.214-7.136c-1.864-1.253-3.933-1.762-6.088-1.791c-3.274-0.043-6.551-0.018-9.824-0.018
			c-0.102,0-0.206,0.024-0.342,0.04c0,0.188,0,0.354,0,0.514c1.563,0.326,2.061,0.966,2.13,2.727
			c0.012,0.335,0.016,0.67,0.016,1.006c0.001,3.492,0.003,6.984-0.001,10.477c-0.001,1.579,0.026,3.158-0.033,4.735
			C16.382,50.559,15.712,51.201,14.615,51.391z M20.589,31.292c0.018,0.089-0.347-1.66,4.758-0.206c1.14,0.386,4.2,2.38,4.2,9.437
			c0,7.057-2.754,9.545-4.745,10c-0.664,0.152-1.434,0.211-2.344,0.203c-2.078,0.047-1.863-1.265-1.863-1.265L20.589,31.292z"/>
		<path d="M40.122,37.969c-0.933,0.125-1.85,0.395-2.581,1.063c-0.393,0.359-0.742,0.864-0.932,1.383
			c-0.317,0.873,0.14,1.73,0.91,1.941c0.924,0.253,1.678-0.264,1.829-1.272c0.046-0.31,0.059-0.628,0.088-0.942
			c0.063-0.665,0.405-1.128,0.973-1.268c1.278-0.315,2.413,0.059,2.586,1.907c0.022,0.236,0.029,0.473,0.032,0.71
			c0.021,2.075-0.274,2.437-2.105,2.969c-1.222,0.354-2.46,0.716-3.608,1.28c-2.133,1.047-2.093,4.261-0.474,5.7
			c1.388,1.234,2.976,1.248,4.567,0.615c0.669-0.266,1.259-0.771,1.891-1.172c1.256,1.795,3.616,2.079,5.083,0.953
			c0.103,0.064,0.206,0.146,0.309,0.146c1.38,0.015,2.758,0.01,4.136,0.01c0.682,0,1.359,0.006,2.041-0.008
			c0.1-0.002,0.197-0.104,0.296-0.157c-0.06-0.083-0.103-0.218-0.177-0.241c-1.014-0.333-1.26-1.256-1.287-2.225
			c-0.067-2.405-0.069-4.813-0.072-7.219c0-1.059,0.527-1.818,1.291-2.392c0.781-0.586,1.635-0.738,2.49-0.277
			c0.839,0.455,1.154,1.289,1.15,2.298c-0.009,2.369,0,4.738-0.014,7.106c-0.004,0.391-0.059,0.787-0.125,1.172
			c-0.125,0.729-0.467,1.27-1.143,1.502c-0.122,0.043-0.223,0.158-0.422,0.305c0.189,0.094,0.225,0.123,0.256,0.123
			c2.148,0.004,4.297,0.01,6.445,0.004c0.101,0,0.199-0.096,0.299-0.147c-0.096-0.087-0.183-0.228-0.289-0.251
			c-0.856-0.188-1.324-0.777-1.379-1.709c-0.072-1.218-0.09-2.441-0.11-3.663c-0.032-1.716-0.017-3.434-0.076-5.148
			c-0.056-1.656-1.009-2.602-2.338-3.017c-2.118-0.66-4.074-0.271-5.716,1.466c-0.072,0.076-0.156,0.137-0.315,0.274
			c0-0.729,0-1.357,0-1.916c-1.677,0.254-3.304,0.495-4.929,0.756c-0.14,0.024-0.263,0.184-0.394,0.281
			c0.126,0.078,0.242,0.195,0.378,0.229c0.93,0.231,1.235,0.565,1.396,1.599c0.038,0.25,0.056,0.509,0.056,0.765
			c0.004,2.191,0.019,4.383-0.006,6.574c-0.008,0.688-0.089,1.379-0.195,2.058c-0.121,0.774-0.524,1.291-1.257,1.439
			c0.287-0.288,0.53-0.635,0.699-1.053c-0.031-0.06-0.062-0.115-0.097-0.174c-0.165,0.105-0.373,0.174-0.488,0.324
			c-0.376,0.494-0.811,0.781-1.408,0.602c-0.494-0.149-0.778-0.619-0.808-1.393c-0.03-0.77-0.021-1.54-0.023-2.309
			c-0.007-2.034,0.002-4.066-0.02-6.1c-0.015-1.421-0.597-2.416-1.827-2.971C43.216,37.827,41.683,37.759,40.122,37.969z
			 M42.534,49.464c-0.119,1.003-1.35,1.546-2.106,1.597c-0.764,0.051-1.393-0.392-1.664-1.27c-0.136-0.439-0.188-0.925-0.206-1.393
			c-0.041-1.13,0.486-1.913,1.369-2.401c0.703-0.387,2.008-0.708,2.872-1.129C42.715,46.467,42.712,47.979,42.534,49.464z"/>
		<path d="M75.624,51.63c2.121,1.113,4.327,1.193,6.504,0.214c1.399-0.631,2.412-1.732,2.767-3.445
			c-0.381-0.203-0.537,0.027-0.688,0.369c-1.406,3.227-5.482,3.022-6.939,1.117c-1.514-1.978-1.463-4.243-1.138-6.634
			c2.962,0,5.876,0,8.851,0c-0.068-1.229-0.365-2.285-1.006-3.209c-1.006-1.46-2.416-2.046-4.004-2.189
			c-3.826-0.342-7.164,2.107-7.637,6.553C72.001,47.535,73.246,50.385,75.624,51.63z M78.615,38.901
			c0.945-0.257,1.82,0.188,2.188,1.314c0.188,0.585,0.26,1.23,0.397,1.916c-1.591,0-3.071,0-4.554,0
			C76.689,41.044,77.553,39.188,78.615,38.901z"/>
		<path d="M64.059,39.351c0.502,0,1.017,0,1.565,0c0.019,0.171,0.032,0.25,0.03,0.328c-0.039,3.215-0.066,6.432-0.129,9.648
			c-0.022,1.254,0.33,2.043,1.369,2.547c1.676,0.816,3.387,0.803,5.039-0.029c0.508-0.257,0.898-0.808,1.313-1.258
			c0.237-0.26,0.213-0.518-0.174-0.627c-0.084,0.105-0.162,0.211-0.247,0.312c-0.715,0.857-1.717,1.16-2.633,0.771
			c-0.934-0.395-1.077-1.268-1.078-2.227c-0.002-3.021-0.014-6.041-0.02-9.062c0-0.114,0.019-0.229,0.032-0.418
			c1.226,0,2.431,0,3.615,0c0-0.411,0-0.743,0-1.146c-1.206,0-2.38,0-3.619,0c0-1.423,0-2.773,0-4.113
			c-0.618-0.077-0.61-0.074-0.778,0.453c-0.623,1.952-1.793,3.238-3.677,3.635C63.883,38.332,63.855,38.37,64.059,39.351z"/>
		<path d="M36.141,33.27c0.846,1.602,2.134,2.491,3.798,2.76c1.149,0.188,1.941-0.108,3.011-0.579
			c0.178-0.078,1.514-0.066,1.514-0.066l0.007-3.774l-0.61,0.009c0,0,0.18,2.402-1.468,3.391c-1.413,0.85-2.807,0.57-3.742-1.733
			c-0.972-2.681-0.666-4.784,0-6.66c0.936-2.304,2.329-2.583,3.742-1.734c1.647,0.989,1.468,3.391,1.468,3.391l0.61,0.01
			l-0.007-3.774c0,0-1.336,0.012-1.514-0.066c-1.069-0.471-1.861-0.766-3.011-0.58c-1.664,0.271-2.952,1.159-3.798,2.761
			c-0.55,1.041-0.772,2.158-0.771,3.314c0,0.003,0,0.006,0.001,0.008c-0.001,0.002-0.001,0.005-0.001,0.008
			C35.369,31.112,35.591,32.229,36.141,33.27z"/>
		<path d="M50.198,28.608c0.602,0.075,0.769,0.542,0.784,1.13c0.014,0.47,0.002,0.942,0.008,1.413
			c0.013,0.933,0.023,2.17,0.043,3.102c0.011,0.498,0.266,0.835,0.636,1.091c0.968,0.668,2.466,0.53,3.32-0.307
			c0.069-0.07,0.143-0.137,0.247-0.236c0,0.342,0,0.626,0,0.905c0.031,0.01,0.051,0.024,0.068,0.021l2.42-0.015l0.006-0.237
			c0,0-0.688,0.124-0.688-1.426l0.004-5.7l-2.583,0.039c-0.073,0.011-0.135,0.092-0.202,0.141c0.064,0.04,0.123,0.101,0.191,0.118
			c0.502,0.124,0.663,0.306,0.729,0.86c0.021,0.179,0.027,0.391,0.028,0.57c0.003,0.782,0.009,1.871-0.001,2.653
			c-0.005,0.369-0.011,0.742-0.061,1.107c-0.105,0.781-0.602,1.194-1.313,1.133c-0.721-0.062-1.041-0.439-1.047-1.281
			c-0.011-1.363-0.005-2.726-0.006-4.089c0-0.418,0-0.805,0-1.222l-2.595-0.011c-0.051,0.008-0.092,0.074-0.138,0.112
			C50.1,28.523,50.145,28.602,50.198,28.608z"/>
		<path d="M46.329,25.744l0.004,9.249c0,0.37-0.612,0.661-0.612,0.661l0.004,0.126l3.128-0.012v-0.125c0,0-0.639-0.16-0.639-0.764
			l-0.005-10.753c-0.862,0.153-1.781,0.317-2.699,0.48c-0.021,0.02-0.041,0.041-0.061,0.062c0.072,0.048,0.139,0.121,0.218,0.14
			C46.191,24.929,46.291,25.16,46.329,25.744z"/>
		<path d="M59.207,24.83c0.034,0.175,0.027,0.36,0.027,0.54c0.002,3.157,0.002,6.713,0.002,9.871c0,0.119,0,0.238,0,0.429
			l1.962,0.026c1.603,0.138,2.266-0.041,3.272-0.638c1.992-1.184,1.881-4.381,0.799-5.86c-1.043-1.425-2.848-1.638-4.108-0.466
			c-0.024,0.023-0.056,0.038-0.097,0.064c0-1.786,0-3.547,0-5.297c-0.887,0.126-1.77,0.25-2.648,0.383
			c-0.049,0.007-0.088,0.071-0.132,0.109c0.058,0.047,0.11,0.128,0.173,0.134C58.867,24.164,59.124,24.395,59.207,24.83z
			 M61.259,29.373c2.027-1.383,2.865,0.138,2.892,2.569c-0.076,3.659-2.892,3.009-2.892,3.009V29.373z"/>
		<path d="M81.918,59.901c-1.035,0.365-2.158,0.652-3.324,0.918c-2.34,0.514-4.902,0.744-7.459,0.697
			c-1.279-0.004-2.56-0.07-3.811-0.205c-0.626-0.067-1.247-0.149-1.85-0.254c-0.639-0.117-1.258-0.146-1.873-0.22
			c-0.615-0.017-1.225-0.052-1.817-0.022c-0.593,0.052-1.175,0.061-1.731,0.164c-0.279,0.043-0.556,0.084-0.826,0.125
			c-0.268,0.062-0.531,0.121-0.791,0.181c-0.521,0.103-1.004,0.28-1.478,0.418c-0.928,0.321-1.755,0.687-2.446,1.082
			c-0.703,0.375-1.271,0.774-1.732,1.106c-0.91,0.688-1.338,1.18-1.338,1.18s0.479-0.44,1.429-1.049
			c0.479-0.293,1.065-0.646,1.78-0.963c0.705-0.336,1.537-0.631,2.447-0.914c0.467-0.112,0.939-0.267,1.45-0.342
			c0.253-0.047,0.511-0.095,0.771-0.143c0.265-0.027,0.533-0.057,0.805-0.085c0.541-0.079,1.104-0.06,1.676-0.086
			c0.572,0.004,1.158,0.034,1.752,0.062c0.586,0.082,1.202,0.118,1.789,0.235c0.626,0.118,1.258,0.211,1.896,0.29
			c1.277,0.156,2.582,0.242,3.89,0.268c2.615,0.012,5.233-0.264,7.626-0.824c1.195-0.276,2.333-0.631,3.377-1.053
			c1.041-0.424,2.01-0.867,2.857-1.363c0.859-0.471,1.596-0.992,2.229-1.471c0.624-0.492,1.152-0.939,1.559-1.338
			c0.426-0.377,0.709-0.725,0.918-0.945c0.205-0.224,0.313-0.342,0.313-0.342s-0.12,0.107-0.347,0.311s-0.547,0.509-0.991,0.857
			c-0.862,0.725-2.188,1.649-3.899,2.518C83.917,59.141,82.952,59.533,81.918,59.901z"/>
		<path d="M89.039,60.575c-0.49,0.328-1.023,0.586-1.534,0.877c-0.532,0.25-1.047,0.538-1.593,0.754
			c-0.537,0.243-1.089,0.441-1.641,0.641c-0.56,0.18-1.113,0.371-1.685,0.508c-0.563,0.158-1.14,0.271-1.712,0.396
			c-0.576,0.106-1.15,0.222-1.732,0.292c-0.578,0.087-1.164,0.137-1.746,0.188c-0.586,0.039-1.17,0.07-1.758,0.078
			c-0.586,0.008-1.172,0.006-1.759-0.021c-0.586-0.019-1.172-0.06-1.755-0.114c-1.17-0.092-2.335-0.24-3.49-0.447
			c-0.578-0.104-1.152-0.22-1.725-0.354c-0.566-0.136-1.145-0.285-1.686-0.458l-0.021-0.008h-0.005l-0.919-0.182
			c-0.305-0.065-0.611-0.121-0.926-0.138l-0.931-0.077c-0.312-0.002-0.623,0.012-0.934,0.018c-0.312-0.004-0.622,0.021-0.931,0.064
			c-0.308,0.04-0.617,0.061-0.922,0.117l-0.91,0.184c-0.304,0.058-0.597,0.16-0.896,0.238c-0.298,0.077-0.591,0.176-0.879,0.284
			c-0.289,0.106-0.583,0.198-0.862,0.329c-0.565,0.24-1.114,0.518-1.653,0.809c-1.068,0.596-2.092,1.279-2.996,2.098
			c0.485-0.366,1-0.69,1.521-0.998c0.521-0.311,1.059-0.586,1.604-0.848c0.55-0.25,1.104-0.482,1.674-0.679
			c0.277-0.114,0.568-0.192,0.854-0.285c0.284-0.094,0.572-0.177,0.866-0.239c0.292-0.062,0.579-0.151,0.876-0.193l0.885-0.141
			c0.295-0.041,0.594-0.047,0.889-0.074c0.297-0.03,0.595-0.041,0.893-0.025c0.297,0.008,0.594,0.007,0.889,0.021l0.883,0.098
			c0.297,0.02,0.586,0.076,0.877,0.143l0.863,0.182c0.578,0.193,1.143,0.347,1.721,0.492c0.582,0.148,1.17,0.274,1.759,0.391
			c1.179,0.227,2.368,0.396,3.565,0.503c0.598,0.046,1.197,0.081,1.799,0.091c0.6,0.02,1.201,0.012,1.802-0.004
			s1.2-0.057,1.799-0.105c0.599-0.062,1.196-0.121,1.79-0.219c0.596-0.08,1.186-0.205,1.773-0.324
			c0.586-0.139,1.168-0.291,1.74-0.474c0.577-0.166,1.141-0.385,1.702-0.593c0.558-0.227,1.111-0.454,1.647-0.725
			c0.548-0.246,1.062-0.557,1.59-0.842c0.499-0.332,1.02-0.629,1.492-0.996l0.721-0.531l0.689-0.57
			c0.467-0.369,0.871-0.812,1.309-1.215c-0.473,0.365-0.918,0.755-1.405,1.093l-0.721,0.517L89.039,60.575z"/>
		<path d="M96.605,59.473c-0.373,0.432-0.775,0.832-1.16,1.246c-0.786,0.811-1.614,1.579-2.485,2.284
			c-0.433,0.356-0.899,0.666-1.34,1.007c-0.463,0.309-0.931,0.612-1.401,0.901c-0.966,0.542-1.945,1.05-2.98,1.419
			c-1.018,0.404-2.077,0.689-3.141,0.921c-1.072,0.205-2.154,0.343-3.246,0.388c-1.093,0.037-2.186,0.037-3.283-0.051
			c-1.094-0.072-2.19-0.212-3.284-0.396c-2.192-0.356-4.365-0.899-6.604-1.396c-1.119-0.251-2.252-0.504-3.438-0.697
			c-0.596-0.094-1.202-0.172-1.834-0.215L61.93,64.86c-0.096-0.002-0.131-0.01-0.272-0.008l-0.214,0.002l-0.428,0.004l-0.486,0.024
			c-1.289,0.07-2.51,0.31-3.709,0.679c-1.195,0.361-2.34,0.86-3.428,1.444c-1.084,0.591-2.113,1.271-3.074,2.031
			c-0.48,0.38-0.944,0.78-1.396,1.2c-0.032,0.029-0.062,0.061-0.094,0.091c-0.032-0.031-0.063-0.062-0.095-0.093
			c-0.448-0.422-0.912-0.823-1.393-1.205c-0.959-0.766-1.985-1.446-3.069-2.038c-2.168-1.169-4.604-1.981-7.121-2.116
			c-0.313-0.023-0.627-0.027-0.941-0.027l-0.234-0.002l-0.263,0.01l-0.426,0.021c-0.288,0.016-0.639,0.061-0.954,0.092
			c-0.315,0.037-0.604,0.086-0.905,0.129c-1.184,0.193-2.314,0.447-3.433,0.698c-2.236,0.498-4.407,1.035-6.597,1.394
			c-2.187,0.373-4.381,0.531-6.56,0.441c-1.092-0.043-2.172-0.186-3.243-0.389c-1.063-0.232-2.121-0.516-3.138-0.922
			c-1.032-0.369-2.011-0.877-2.977-1.418c-0.471-0.291-0.938-0.592-1.399-0.901c-0.438-0.341-0.907-0.649-1.339-1.006
			c-0.87-0.704-1.696-1.472-2.485-2.283c-0.384-0.415-0.787-0.815-1.159-1.245L0,58.155l0.907,1.455
			c0.312,0.482,0.658,0.938,0.987,1.412c0.695,0.916,1.45,1.793,2.262,2.625c0.402,0.418,0.845,0.799,1.274,1.193
			c0.45,0.37,0.91,0.733,1.378,1.086c0.962,0.67,1.958,1.312,3.03,1.817c1.06,0.536,2.188,0.922,3.326,1.265
			c1.147,0.311,2.316,0.553,3.497,0.688c1.18,0.141,2.369,0.201,3.549,0.171c1.182-0.015,2.356-0.101,3.52-0.229
			c2.328-0.246,4.609-0.686,6.831-1.123c1.111-0.211,2.212-0.418,3.282-0.559l0.79-0.088c0.252-0.014,0.465-0.042,0.747-0.049
			l0.427-0.006l0.165-0.004l0.191,0.01c0.256,0.01,0.512,0.019,0.765,0.048c2.035,0.181,4.013,0.853,5.848,1.843
			c2.47,1.333,5.911,4.495,5.911,4.495h0.011l0.273-0.004c0,0,3.126-3.515,8.759-5.718c0.955-0.373,2.009-0.521,2.992-0.616
			l0.365-0.034l0.43-0.018l0.213-0.008c-0.002,0,0.106,0,0.154,0l0.375,0.006c0.508,0.018,1.033,0.067,1.567,0.135
			c1.071,0.138,2.172,0.345,3.282,0.557c2.225,0.438,4.509,0.875,6.838,1.124c1.164,0.132,2.34,0.218,3.521,0.231
			c1.182,0.033,2.37-0.03,3.551-0.168c1.183-0.137,2.354-0.375,3.502-0.687c1.14-0.341,2.27-0.726,3.33-1.263
			c1.073-0.504,2.069-1.146,3.033-1.814c0.471-0.353,0.93-0.718,1.381-1.086c0.43-0.396,0.871-0.777,1.274-1.195
			c0.813-0.832,1.567-1.707,2.267-2.625c0.33-0.475,0.678-0.935,0.987-1.414l0.909-1.453L96.605,59.473z"/>
		<path d="M8.877,56.294c0.406,0.399,0.934,0.845,1.558,1.337c0.634,0.479,1.368,1.002,2.229,1.473
			c0.848,0.494,1.816,0.938,2.858,1.363c1.044,0.42,2.18,0.775,3.377,1.051c2.392,0.562,5.01,0.838,7.624,0.824
			c1.308-0.023,2.613-0.109,3.891-0.267c0.64-0.079,1.271-0.171,1.895-0.29c0.588-0.118,1.203-0.154,1.791-0.234
			c0.593-0.027,1.178-0.058,1.75-0.062c0.571,0.025,1.137,0.007,1.677,0.086c0.271,0.027,0.54,0.057,0.804,0.085
			c0.261,0.048,0.52,0.095,0.771,0.142c0.512,0.076,0.985,0.229,1.45,0.344c0.912,0.283,1.744,0.576,2.448,0.912
			c0.715,0.318,1.301,0.67,1.781,0.965c0.947,0.607,1.428,1.049,1.428,1.049s-0.428-0.492-1.337-1.182
			c-0.463-0.33-1.03-0.73-1.733-1.105c-0.692-0.395-1.519-0.76-2.448-1.082c-0.472-0.137-0.954-0.316-1.476-0.418
			c-0.26-0.059-0.523-0.119-0.791-0.18c-0.271-0.041-0.547-0.084-0.826-0.125c-0.558-0.104-1.14-0.113-1.732-0.164
			c-0.593-0.03-1.201,0.006-1.818,0.021c-0.614,0.075-1.235,0.102-1.872,0.219c-0.604,0.105-1.223,0.188-1.849,0.256
			c-1.251,0.135-2.531,0.201-3.811,0.205c-2.557,0.045-5.121-0.185-7.459-0.699c-1.167-0.266-2.289-0.551-3.324-0.918
			c-1.033-0.367-1.999-0.76-2.849-1.207c-1.712-0.869-3.037-1.793-3.899-2.52c-0.444-0.348-0.766-0.654-0.993-0.855
			c-0.225-0.203-0.345-0.312-0.345-0.312s0.109,0.119,0.313,0.344C8.168,55.569,8.453,55.917,8.877,56.294z"/>
		<path d="M7.737,60.274l0.72,0.533c0.473,0.366,0.993,0.664,1.493,0.996c0.525,0.284,1.042,0.594,1.588,0.84
			c0.537,0.271,1.093,0.498,1.649,0.726c0.563,0.208,1.123,0.428,1.702,0.593c0.572,0.184,1.154,0.335,1.74,0.473
			c0.589,0.119,1.179,0.246,1.772,0.326c0.595,0.098,1.193,0.156,1.791,0.219c0.6,0.047,1.199,0.088,1.8,0.104
			c0.6,0.017,1.2,0.022,1.802,0.004c0.601-0.01,1.2-0.044,1.799-0.091c1.197-0.105,2.386-0.277,3.564-0.503
			c0.59-0.115,1.176-0.242,1.759-0.39c0.576-0.146,1.142-0.299,1.72-0.494l0.865-0.18c0.288-0.068,0.579-0.125,0.874-0.144
			l0.884-0.099c0.296-0.015,0.593-0.012,0.89-0.021c0.296-0.015,0.595-0.004,0.89,0.024c0.297,0.027,0.596,0.033,0.891,0.076
			l0.885,0.14c0.296,0.042,0.582,0.131,0.875,0.194c0.293,0.062,0.581,0.145,0.867,0.238c0.284,0.094,0.576,0.17,0.854,0.285
			c0.569,0.195,1.124,0.43,1.674,0.68c0.545,0.26,1.083,0.537,1.604,0.846s1.035,0.633,1.521,0.998
			c-0.903-0.817-1.927-1.5-2.996-2.098c-0.538-0.291-1.087-0.566-1.654-0.808c-0.278-0.132-0.574-0.222-0.861-0.329
			c-0.288-0.109-0.582-0.207-0.881-0.284c-0.298-0.077-0.591-0.181-0.895-0.237l-0.91-0.185c-0.305-0.056-0.615-0.077-0.923-0.116
			c-0.308-0.045-0.617-0.068-0.929-0.066c-0.311-0.006-0.622-0.02-0.934-0.016l-0.933,0.076c-0.312,0.016-0.619,0.072-0.924,0.139
			l-0.92,0.181h-0.003l-0.024,0.008c-0.54,0.173-1.117,0.321-1.685,0.458c-0.569,0.137-1.146,0.251-1.723,0.355
			c-1.156,0.207-2.322,0.354-3.49,0.447c-0.585,0.053-1.17,0.094-1.756,0.113c-0.586,0.027-1.173,0.027-1.759,0.021
			c-0.586-0.008-1.171-0.039-1.757-0.078c-0.582-0.053-1.167-0.102-1.747-0.188c-0.582-0.069-1.157-0.185-1.731-0.292
			c-0.572-0.123-1.147-0.238-1.712-0.396c-0.57-0.137-1.126-0.328-1.684-0.506c-0.552-0.199-1.105-0.398-1.641-0.642
			c-0.547-0.216-1.06-0.503-1.594-0.754c-0.509-0.292-1.043-0.548-1.533-0.877L7.864,60.1l-0.721-0.518
			c-0.486-0.338-0.934-0.729-1.404-1.092c0.436,0.4,0.839,0.845,1.308,1.214L7.737,60.274z"/>
	</g>
</g>
<g>
</g>
<g>
</g>
<g>
</g>
<g>
</g>
<g>
</g>
<g>
</g>
<g>
</g>
<g>
</g>
<g>
</g>
<g>
</g>
<g>
</g>
<g>
</g>
<g>
</g>
<g>
</g>
<g>
</g>
</svg>
