<?xml version="1.0" encoding="iso-8859-1"?>
<!-- Generator: Adobe Illustrator 16.0.0, SVG Export Plug-In . SVG Version: 6.00 Build 0)  -->
<!DOCTYPE svg PUBLIC "-//W3C//DTD SVG 1.1//EN" "http://www.w3.org/Graphics/SVG/1.1/DTD/svg11.dtd">
<svg version="1.1" id="Capa_1" xmlns="http://www.w3.org/2000/svg" xmlns:xlink="http://www.w3.org/1999/xlink" x="0px" y="0px"
	 width="99.583px" height="99.583px" viewBox="0 0 99.583 99.583" style="enable-background:new 0 0 99.583 99.583;"
	 xml:space="preserve">
<g>
	<g>
		<g>
			<g>
				<path d="M8.248,52.276c-0.636,0.635-1.616,1.027-2.558,1.027c-2.558,0-3.484-1.773-3.498-3.438
					c-0.009-0.999,0.349-1.938,0.98-2.575c0.619-0.622,1.489-0.951,2.518-0.951c0.95,0,1.822,0.34,2.453,0.955l0.083,0.082
					l1.492-1.441L9.632,45.85c-1.089-1.073-2.452-1.642-3.942-1.642c-1.667,0-3.083,0.542-4.1,1.562
					c-1.02,1.025-1.599,2.521-1.59,4.1c0.015,2.554,1.513,5.536,5.689,5.536c1.607,0,3.019-0.552,4.076-1.595l0.087-0.084
					L8.331,52.19L8.248,52.276z"/>
				<path d="M15.183,44.208c-3.795,0-5.523,2.934-5.523,5.661c0,2.756,1.708,5.536,5.523,5.536c3.764,0,5.479-2.787,5.509-5.552
					c0.018-1.581-0.56-3.083-1.582-4.115C18.12,44.736,16.762,44.208,15.183,44.208z M15.183,53.351
					c-2.391,0-3.288-1.785-3.333-3.455c-0.026-1.068,0.331-2.065,0.98-2.731c0.592-0.606,1.384-0.915,2.353-0.915
					c0.962,0,1.745,0.302,2.33,0.897c0.646,0.657,1.007,1.654,0.988,2.733C18.472,51.56,17.585,53.351,15.183,53.351z"/>
				<polygon points="23.833,44.419 21.611,44.419 21.611,55.165 29.237,55.165 29.237,53.097 23.833,53.097 				"/>
				<path d="M34.652,44.208c-3.795,0-5.524,2.934-5.524,5.661c0,2.756,1.708,5.536,5.524,5.536c3.763,0,5.479-2.787,5.509-5.552
					c0.017-1.581-0.56-3.083-1.583-4.115C37.589,44.736,36.231,44.208,34.652,44.208z M34.652,53.351
					c-2.391,0-3.29-1.785-3.334-3.455c-0.026-1.068,0.331-2.065,0.982-2.731c0.591-0.606,1.382-0.915,2.352-0.915
					c0.96,0,1.744,0.302,2.328,0.897c0.647,0.657,1.009,1.654,0.989,2.733C37.941,51.56,37.054,53.351,34.652,53.351z"/>
				<path d="M47.996,50.572c0,1.766-0.891,2.778-2.447,2.778c-1.649,0-2.597-1.014-2.597-2.778v-6.138h-2.205v6.138
					c0,2.928,1.88,4.819,4.788,4.819c2.882,0,4.673-1.846,4.673-4.819v-6.138h-2.212V50.572z"/>
				<path d="M57.548,51.397c1.785-0.459,2.428-2.088,2.428-3.376c0-1.729-1.223-3.596-3.903-3.611c-0.833,0-1.666-0.002-2.498-0.004
					c-0.833-0.003-1.667-0.003-2.5-0.003h-0.12v10.762h2.221v-3.514h1.729l2.729,3.514h2.535v-0.293L57.548,51.397z M57.754,48.065
					c0,0.722-0.44,1.562-1.683,1.562h-2.897v-3.123h2.897C57.312,46.504,57.754,47.346,57.754,48.065z"/>
			</g>
			<path d="M62.947,44.177V55.05h-1.85V44.177H62.947z"/>
			<path d="M72.066,51.217c0,2.308-1.577,4.177-4.179,4.177c-2.603,0-4.161-1.869-4.161-4.177c0-2.292,1.593-4.178,4.146-4.178
				C70.424,47.039,72.066,48.925,72.066,51.217z M65.709,51.217c0,1.22,0.73,2.356,2.18,2.356c1.445,0,2.179-1.139,2.179-2.356
				c0-1.203-0.846-2.374-2.179-2.374C66.457,48.843,65.709,50.014,65.709,51.217z"/>
			<polygon points="78,47.068 75.886,53.369 73.755,47.068 71.788,47.068 74.908,55.219 76.86,55.219 79.968,47.068 			"/>
			<path d="M81.188,51.916c0.129,0.979,1.021,1.974,2.555,1.974c0.981,0,1.719-0.561,2.17-1.026l1.206,1.239
				c-0.835,0.867-2.203,1.285-3.408,1.285c-2.732,0-4.355-1.688-4.355-4.227c0-2.414,1.64-4.15,4.211-4.15
				c2.654,0,4.146,1.712,3.956,4.905H81.188z M85.687,50.293c-0.063-1.159-1.03-1.861-2.163-1.861c-1.078,0-1.965,0.643-2.112,1.861
				H85.687z"/>
			<path d="M89.664,48.996l-0.004-1.97h-1.715v8.065h1.852v-4.572c0-0.535,1.606-2.181,2.921-1.77v-1.922
				C91.959,46.828,90.479,47.366,89.664,48.996z"/>
			<path d="M98.163,49.303c-0.546-0.514-1.171-0.687-1.902-0.687c-0.905,0-1.404,0.282-1.404,0.767c0,0.497,0.453,0.779,1.435,0.843
				c1.451,0.092,3.292,0.418,3.292,2.465c0,1.355-1.106,2.526-3.307,2.526c-1.217,0-2.435-0.204-3.559-1.373l0.938-1.358
				c0.545,0.611,1.793,1.062,2.65,1.076c0.718,0.017,1.389-0.358,1.389-0.918c0-0.531-0.438-0.752-1.528-0.813
				c-1.451-0.108-3.183-0.638-3.183-2.386c0-1.778,1.841-2.402,3.245-2.402c1.2,0,2.104,0.233,2.995,1.015L98.163,49.303z"/>
		</g>
	</g>
</g>
<g>
</g>
<g>
</g>
<g>
</g>
<g>
</g>
<g>
</g>
<g>
</g>
<g>
</g>
<g>
</g>
<g>
</g>
<g>
</g>
<g>
</g>
<g>
</g>
<g>
</g>
<g>
</g>
<g>
</g>
</svg>
