<?xml version="1.0" encoding="iso-8859-1"?>
<!-- Generator: Adobe Illustrator 16.0.0, SVG Export Plug-In . SVG Version: 6.00 Build 0)  -->
<!DOCTYPE svg PUBLIC "-//W3C//DTD SVG 1.1//EN" "http://www.w3.org/Graphics/SVG/1.1/DTD/svg11.dtd">
<svg version="1.1" id="Capa_1" xmlns="http://www.w3.org/2000/svg" xmlns:xlink="http://www.w3.org/1999/xlink" x="0px" y="0px"
	 width="98.763px" height="98.762px" viewBox="0 0 98.763 98.762" style="enable-background:new 0 0 98.763 98.762;"
	 xml:space="preserve">
<g>
	<g>
		<path d="M33.069,51.075c1.356-0.392,2.174-1.252,2.596-2.477c0.487-1.415,0.519-2.862,0.053-4.283
			c-0.474-1.445-1.419-2.481-3.012-2.543l-6.686-0.021v15.273h2.646l-0.006-5.868l1.743,0.003l2.935,5.863h2.9
			C35.403,55.474,33.896,52.612,33.069,51.075z M32.065,48.917c-1.105,0.058-2.217,0.016-3.384,0.016v-4.603
			c0.618,0,1.22-0.002,1.823,0c0.557,0.002,1.114-0.015,1.67,0.014c0.72,0.037,1.229,0.437,1.274,1.142
			c0.048,0.757,0.018,1.536-0.116,2.28C33.217,48.401,32.74,48.881,32.065,48.917z"/>
		<path d="M22.744,45.134c0-1.044-0.458-1.864-1.243-2.517c-0.886-0.737-1.938-1.084-3.061-1.201
			c-1.642-0.172-3.233,0.001-4.648,0.943c-1.02,0.678-1.609,1.609-1.594,2.881l-0.002,8.076c-0.027,1.457,0.661,2.504,1.894,3.138
			c2.274,1.171,4.599,1.165,6.856-0.052c1.188-0.642,1.816-1.685,1.807-3.084C22.735,50.59,22.744,47.862,22.744,45.134z
			 M20.197,52.879c-0.019,1.039-0.611,1.666-1.507,1.782c-0.873,0.112-1.788,0.089-2.664-0.035
			c-0.594-0.086-1.226-0.735-1.269-1.492l-0.016-7.485c0.042-0.932,0.762-1.578,1.457-1.662c0.892-0.108,1.825-0.081,2.717,0.049
			c0.675,0.099,1.23,0.77,1.287,1.578L20.197,52.879z"/>
		<path d="M49.739,45.134c0-1.044-0.547-1.864-1.331-2.517c-0.886-0.737-1.938-1.084-3.061-1.201
			c-1.642-0.172-3.233,0.001-4.649,0.943c-1.019,0.678-1.608,1.609-1.593,2.881l-0.002,8.076c-0.028,1.457,0.66,2.594,1.894,3.229
			c2.274,1.17,4.599,1.164,6.856-0.054c1.187-0.642,1.905-1.772,1.896-3.173C49.732,50.59,49.74,47.862,49.739,45.134z
			 M47.104,52.879c-0.02,1.039-0.611,1.666-1.507,1.782c-0.874,0.112-1.789,0.089-2.664-0.035c-0.594-0.086-1.226-0.735-1.269-1.492
			l-0.016-7.485c0.041-0.932,0.761-1.578,1.456-1.662c0.893-0.108,1.826-0.081,2.717,0.049c0.675,0.099,1.229,0.77,1.287,1.578
			L47.104,52.879z"/>
		<path d="M86.115,45.125c0-1.044-0.547-1.863-1.332-2.517c-0.885-0.736-1.938-1.084-3.06-1.2c-1.642-0.173-3.233,0.001-4.649,0.942
			c-1.019,0.678-1.607,1.61-1.593,2.881l-0.003,8.076c-0.027,1.456,0.66,2.593,1.896,3.229c2.273,1.171,4.599,1.164,6.854-0.053
			c1.188-0.642,1.906-1.773,1.896-3.175C86.108,50.581,86.117,47.854,86.115,45.125z M83.481,52.871
			c-0.02,1.038-0.611,1.665-1.508,1.782c-0.873,0.112-1.788,0.088-2.664-0.037c-0.594-0.083-1.227-0.734-1.269-1.49l-0.017-7.485
			c0.041-0.933,0.762-1.578,1.456-1.662c0.894-0.107,1.826-0.08,2.717,0.049c0.677,0.1,1.23,0.77,1.288,1.578L83.481,52.871z"/>
		<path d="M61.886,44.42l0.005-2.728h-8.888c-0.01,0-0.019,0-0.025-0.002l-0.002,15.326h2.603l-0.007-5.973h5.451v-2.572
			l-5.44,0.003l0.004-4.055L61.886,44.42L61.886,44.42z"/>
		<path d="M9.185,41.647c-0.188,0.936-0.342,1.791-0.487,2.509c-1.082-0.123-2.024-0.194-3.04-0.2
			c-1.336-0.005-2.06,0.515-2.515,1.773c-0.516,1.43-0.587,2.874-0.461,4.363c0.081,0.957,0.181,1.929,0.441,2.851
			c0.374,1.329,1.073,1.779,2.445,1.801c0.573,0.008,1.148,0.026,1.719-0.008c0.551-0.034,1.1-0.131,1.711-0.207
			c0.159,0.785,0.316,1.606,0.483,2.428c-1.927,0.271-3.802,0.453-5.677,0.169c-0.787-0.118-1.499-0.699-2.005-1.309
			c-1.022-1.23-1.38-2.697-1.598-4.244c-0.308-2.169-0.32-4.339,0.388-6.438c0.253-0.751,0.616-1.475,1.072-2.127
			c0.637-0.909,1.639-1.392,2.739-1.483C5.918,41.398,7.463,41.513,9.185,41.647z"/>
		<path d="M88.035,41.707v2.713c0.07,0,3.933,0,4.004,0l0.003,12.582h2.633l0.018-12.596h4.07v-2.696L88.035,41.707z"/>
		<path d="M64.684,57.017h8.866l-0.006-2.693h-6.281l0.027-12.632h-2.607C64.697,46.16,64.697,52.527,64.684,57.017z"/>
	</g>
</g>
<g>
</g>
<g>
</g>
<g>
</g>
<g>
</g>
<g>
</g>
<g>
</g>
<g>
</g>
<g>
</g>
<g>
</g>
<g>
</g>
<g>
</g>
<g>
</g>
<g>
</g>
<g>
</g>
<g>
</g>
</svg>
