<?xml version="1.0" encoding="iso-8859-1"?>
<!-- Generator: Adobe Illustrator 16.0.0, SVG Export Plug-In . SVG Version: 6.00 Build 0)  -->
<!DOCTYPE svg PUBLIC "-//W3C//DTD SVG 1.1//EN" "http://www.w3.org/Graphics/SVG/1.1/DTD/svg11.dtd">
<svg version="1.1" id="Capa_1" xmlns="http://www.w3.org/2000/svg" xmlns:xlink="http://www.w3.org/1999/xlink" x="0px" y="0px"
	 width="98.727px" height="98.726px" viewBox="0 0 98.727 98.726" style="enable-background:new 0 0 98.727 98.726;"
	 xml:space="preserve">
<g>
	<g>
		<path d="M21.46,49.882c1.021-0.696,1.645-1.888,1.645-3.284l-0.002-5.869c0-3.131-2.255-4.205-6.224-4.205H12.36v25.718h3.706
			V51.738c3.698-0.335,3.15,1.493,3.126,1.568l-0.003,8.936h3.715c0,0,0.01-9.572,0.01-10.242
			C22.914,50.583,21.46,49.882,21.46,49.882z M19.116,46.588c0,2.388-3.116,2.137-3.116,2.137v-9.417c0,0,3.105-0.37,3.12,1.426
			L19.116,46.588z"/>
		<polygon points="25.204,62.202 33.387,62.202 33.387,59.015 28.269,59.015 28.269,50.429 33.023,50.429 33.023,47.755 
			28.269,47.755 28.269,40.156 33.387,40.156 33.387,36.579 25.204,36.579 		"/>
		<polygon points="45.379,39.8 48.91,39.8 48.91,62.229 52.648,62.229 52.648,39.8 56.174,39.8 56.174,36.606 45.379,36.606 		"/>
		<polygon points="56.931,39.8 60.463,39.8 60.463,62.212 64.201,62.212 64.201,39.8 67.732,39.8 67.732,36.606 56.931,36.606 		"/>
		<rect x="69.258" y="36.545" width="3.518" height="25.667"/>
		<path d="M83.23,37.341c-0.74-0.478-1.74-0.673-3.074-0.673s-2.371,0.195-3.109,0.673c-0.741,0.479-1.223,1.117-1.557,1.754
			c-0.407,0.733-0.631,1.594-0.668,2.519v15.646c0.037,0.957,0.113,1.818,0.521,2.553c0.396,0.758,0.896,1.236,1.695,1.757
			c0.74,0.51,1.783,0.637,3.117,0.637s2.334-0.163,3.074-0.673c0.739-0.479,1.26-1.084,1.592-1.721
			c0.406-0.733,0.629-1.596,0.666-2.553v-2.603h-3.25v3.097c0,0-0.018,1.721-2.008,1.721c-1.988,0-1.973-1.721-1.973-1.721
			l0.012-16.141c0,0-0.246-2.214,1.899-2.214c2.147,0,2.009,2.214,2.009,2.214v1.374h3.311v-1.374
			c-0.037-0.925-0.26-1.785-0.666-2.519C84.49,38.458,83.97,37.82,83.23,37.341z"/>
		<path d="M8.408,37.28c-0.74-0.478-1.742-0.674-3.074-0.674c-1.334,0-2.371,0.196-3.111,0.674C1.484,37.759,1,38.396,0.668,39.034
			C0.26,39.766,0.038,40.811,0,41.736v15.523c0.038,0.957,0.114,1.817,0.521,2.552c0.396,0.758,0.893,1.226,1.696,1.745
			c0.74,0.51,1.782,0.647,3.116,0.647c1.332,0,2.334-0.164,3.074-0.673c0.74-0.479,1.258-1.084,1.591-1.721
			c0.409-0.733,0.63-1.596,0.667-2.553v-2.603h-3.25v3.097c0,0-0.018,1.721-2.007,1.721c-1.99,0-1.972-1.721-1.972-1.721
			l-0.05-16.016c0,0-0.186-2.398,1.96-2.398c2.148,0,2.008,2.398,2.008,2.398v1.373h3.312v-1.373
			c-0.037-0.925-0.258-1.97-0.667-2.702C9.666,38.396,9.148,37.759,8.408,37.28z"/>
		<path d="M38.407,36.69l-3.752,25.522h3.543l0.481-4.266h3.835l0.55,4.264h3.545L42.861,36.69H38.407z M39.385,55.278l1.046-10.934
			l0.103-0.642h0.201l0.102,0.642l1.046,10.934H39.385z"/>
		<path d="M94.882,36.484h-4.569l-3.842,25.688h3.637l0.486-4.052h3.932l0.566,4.052h3.635L94.882,36.484z M91.316,55.421
			l1.076-11.528l0.102-0.657h0.209l0.104,0.657l1.073,11.528H91.316L91.316,55.421z"/>
	</g>
</g>
<g>
</g>
<g>
</g>
<g>
</g>
<g>
</g>
<g>
</g>
<g>
</g>
<g>
</g>
<g>
</g>
<g>
</g>
<g>
</g>
<g>
</g>
<g>
</g>
<g>
</g>
<g>
</g>
<g>
</g>
</svg>
