<?xml version="1.0" encoding="iso-8859-1"?>
<!-- Generator: Adobe Illustrator 16.0.0, SVG Export Plug-In . SVG Version: 6.00 Build 0)  -->
<!DOCTYPE svg PUBLIC "-//W3C//DTD SVG 1.1//EN" "http://www.w3.org/Graphics/SVG/1.1/DTD/svg11.dtd">
<svg version="1.1" id="Capa_1" xmlns="http://www.w3.org/2000/svg" xmlns:xlink="http://www.w3.org/1999/xlink" x="0px" y="0px"
	 width="97.664px" height="97.664px" viewBox="0 0 97.664 97.664" style="enable-background:new 0 0 97.664 97.664;"
	 xml:space="preserve">
<g>
	<g>
		<path d="M85.668,6.911C69.936-6.911,40.691,0.648,20.345,23.801C0.001,46.953-3.735,76.929,11.997,90.753
			c15.731,13.821,44.978,6.264,65.321-16.89C97.662,50.712,101.399,20.736,85.668,6.911z M61.237,57.852
			C49.21,71.584,32.221,76.382,23.29,68.562c-8.933-7.821-6.422-25.297,5.606-39.031S59.737,11.608,68.67,19.429
			C77.601,27.249,73.267,44.114,61.237,57.852z"/>
		<path d="M50.109,33.355c-3.517-2.538-9.331-0.492-12.981,4.567c-3.647,5.064-3.755,11.226-0.235,13.762
			c3.52,2.538,9.331,0.492,12.98-4.571C53.521,42.051,53.63,35.893,50.109,33.355z"/>
	</g>
</g>
<g>
</g>
<g>
</g>
<g>
</g>
<g>
</g>
<g>
</g>
<g>
</g>
<g>
</g>
<g>
</g>
<g>
</g>
<g>
</g>
<g>
</g>
<g>
</g>
<g>
</g>
<g>
</g>
<g>
</g>
</svg>
