<?xml version="1.0" encoding="iso-8859-1"?>
<!-- Generator: Adobe Illustrator 16.0.0, SVG Export Plug-In . SVG Version: 6.00 Build 0)  -->
<!DOCTYPE svg PUBLIC "-//W3C//DTD SVG 1.1//EN" "http://www.w3.org/Graphics/SVG/1.1/DTD/svg11.dtd">
<svg version="1.1" id="Capa_1" xmlns="http://www.w3.org/2000/svg" xmlns:xlink="http://www.w3.org/1999/xlink" x="0px" y="0px"
	 width="98.021px" height="98.021px" viewBox="0 0 98.021 98.021" style="enable-background:new 0 0 98.021 98.021;"
	 xml:space="preserve">
<g>
	<path d="M26.205,43.545c-0.655,0.007-1.175,0.524-1.171,1.167c0.002,0.638,0.538,1.171,1.178,1.172
		c0.657,0.001,1.183-0.529,1.181-1.193C27.39,44.042,26.866,43.537,26.205,43.545z M34.479,46.916l0.007,0.9l-0.095-0.108
		c-0.986-1.195-3.184-1.241-4.421-0.171c-0.96,0.83-1.27,1.908-1.188,3.137c0.121,1.86,1.662,3.19,3.518,3.042
		c0.743-0.061,1.405-0.299,1.991-0.838c0,0.22,0.009,0.391-0.001,0.562c-0.063,1-0.641,1.635-1.633,1.764
		c-0.305,0.041-0.621,0.033-0.93,0.011c-0.603-0.048-1.196-0.284-1.717-0.604l-0.816,1.303c1.101,0.871,2.816,1.056,4.113,0.845
		c1.717-0.277,2.866-1.435,2.878-3.236l0.013-6.604L34.479,46.916z M32.519,52.136c-1.119-0.006-1.861-0.752-1.858-1.866
		c0.002-1.115,0.771-1.876,1.889-1.87c1.063,0.005,1.801,0.773,1.796,1.867C34.34,51.385,33.6,52.142,32.519,52.136z M5.832,47.702
		c0,0-0.088-0.082-0.109-0.103c-0.477-0.439-1.25-0.736-1.907-0.774c-1.271-0.073-2.364,0.298-3.104,1.385
		c-0.804,1.179-0.893,2.486-0.439,3.801c0.947,2.748,4.343,2.854,5.655,1.323l0.113-0.12c0.053,0.312,0.104,0.652,0.153,0.938
		c0.556,0,1.079,0,1.613,0c0-3.574,0-7.921,0-11.495l-1.982-1.472C5.84,42.355,5.832,47.702,5.832,47.702z M4.16,52.53
		c-1.088,0-1.971-0.881-1.971-1.971c0-1.088,0.883-1.97,1.971-1.97s1.971,0.882,1.971,1.97C6.131,51.649,5.248,52.53,4.16,52.53z
		 M13.582,46.833c-2.393-0.238-4.219,1.295-4.317,3.662c-0.073,1.746,0.922,3.134,2.603,3.621c0.866,0.252,1.74,0.248,2.618,0.056
		c0.651-0.144,1.252-0.401,1.798-0.831l-0.859-1.195c-0.391,0.215-0.775,0.414-1.159,0.518c-0.784,0.214-1.56,0.197-2.268-0.274
		c-0.44-0.295-0.656-0.726-0.743-1.267c1.847,0,3.658,0,5.482,0C17.051,48.943,15.842,47.058,13.582,46.833z M11.309,49.862
		c0.093-0.906,0.838-1.487,1.861-1.479c0.945,0.009,1.591,0.573,1.672,1.479C13.669,49.862,12.497,49.862,11.309,49.862z
		 M22.738,50.29c-0.352-0.151-0.718-0.269-1.083-0.381c-0.466-0.146-0.941-0.254-1.404-0.409c-0.237-0.08-0.397-0.267-0.397-0.542
		c0-0.717,1.114-0.729,1.612-0.639c0.492,0.09,0.926,0.223,1.44,0.478l0.729-1.239c-0.16-0.101-1.497-0.745-2.913-0.745
		c-0.699,0-1.362,0.158-1.966,0.553c-1.098,0.718-1.279,2.819,0.251,3.463c0.264,0.111,0.536,0.205,0.812,0.281
		c0.508,0.143,1.024,0.25,1.528,0.402c0.347,0.104,0.51,0.33,0.501,0.59c-0.008,0.262-0.183,0.451-0.538,0.561
		c-0.461,0.144-0.931,0.129-1.392,0.012c-0.555-0.143-0.964-0.299-1.476-0.557l-0.855,1.259c0.968,0.666,2.102,0.978,3.335,0.93
		c0.779-0.028,1.516-0.174,2.161-0.659C24.054,52.918,24.215,50.927,22.738,50.29z M25.239,54.149c0.663,0,1.303,0,1.943,0
		c0-2.402,0-4.785,0-7.178c-0.657,0-1.288,0-1.943,0C25.239,49.388,25.239,51.77,25.239,54.149z M45.086,49.088
		c-0.197-1.021-0.74-1.784-1.777-2.05c-1.256-0.321-2.416-0.115-3.43,0.896l0.003-0.885l-1.776,0.004c0,2.408,0,4.784,0,7.17
		c0.661,0,1.308,0,1.979,0c0-0.123,0-0.228,0-0.33c0-1.2-0.006-2.399,0.002-3.599c0.008-1.224,1.014-1.947,2.187-1.58
		c0.485,0.151,0.769,0.488,0.853,0.984c0.032,0.188,0.043,0.383,0.044,0.573c0.004,1.199,0.002,2.398,0.002,3.599
		c0,0.113,0,0.226,0,0.351c0.678,0,1.322,0,1.979,0c0.005-0.085,0.011-0.149,0.011-0.217c0.001-1.372,0.004-2.744-0.003-4.117
		C45.156,49.62,45.137,49.351,45.086,49.088z M63.21,48.344c-0.744-0.945-1.755-1.425-3.004-1.425c-1.21,0-2.191,0.468-2.913,1.39
		c-0.57,0.728-0.859,1.568-0.859,2.498c0,0.988,0.343,1.888,1.018,2.671c0.671,0.78,1.617,1.176,2.812,1.176
		c0.54,0,1.03-0.082,1.456-0.246c0.427-0.164,0.815-0.405,1.155-0.719c0.321-0.297,0.611-0.686,0.862-1.158l-0.644-0.338
		c-0.283,0.457-0.551,0.797-0.798,1.012c-0.264,0.229-0.587,0.414-0.96,0.552s-0.762,0.207-1.156,0.207
		c-0.821,0-1.521-0.293-2.083-0.872c-0.558-0.577-0.85-1.326-0.867-2.227l-0.003-0.104h6.795
		C63.993,49.801,63.722,48.989,63.21,48.344z M57.292,50.125l0.038-0.132c0.203-0.709,0.51-1.25,0.912-1.608
		c0.55-0.491,1.215-0.74,1.979-0.74c0.462,0,0.909,0.099,1.328,0.293c0.42,0.196,0.765,0.458,1.021,0.778
		c0.257,0.32,0.453,0.751,0.586,1.281l0.031,0.128H57.292z M65.432,54.561h0.722V41.709h-0.722V54.561z M74.784,48.716l-0.187-0.258
		c-0.367-0.512-0.801-0.9-1.286-1.155c-0.483-0.255-1.034-0.384-1.636-0.384c-1.04,0-1.941,0.379-2.683,1.128
		s-1.115,1.664-1.115,2.718c0,1.078,0.372,2.006,1.105,2.757c0.732,0.751,1.63,1.132,2.664,1.132c0.584,0,1.128-0.123,1.616-0.363
		c0.491-0.242,0.941-0.608,1.338-1.092l0.182-0.22v1.48h0.753v-7.347h-0.753L74.784,48.716L74.784,48.716z M74.449,52.42
		c-0.267,0.472-0.647,0.851-1.14,1.127c-0.487,0.274-1.014,0.415-1.562,0.415c-0.542,0-1.058-0.141-1.531-0.42
		c-0.474-0.278-0.854-0.672-1.136-1.17c-0.279-0.5-0.422-1.029-0.422-1.576c0-0.551,0.141-1.081,0.418-1.574
		c0.278-0.495,0.658-0.885,1.13-1.158c0.472-0.272,0.992-0.412,1.548-0.412c0.866,0,1.605,0.307,2.198,0.911
		c0.592,0.604,0.893,1.364,0.893,2.263C74.847,51.411,74.712,51.948,74.449,52.42z M88.631,48.45
		c-0.731-0.93-1.727-1.401-2.953-1.401c-1.19,0-2.153,0.46-2.864,1.367c-0.562,0.715-0.847,1.54-0.847,2.456
		c0,0.971,0.337,1.854,1.001,2.625c0.659,0.767,1.59,1.156,2.766,1.156c0.53,0,1.013-0.082,1.432-0.242
		c0.42-0.161,0.802-0.398,1.137-0.707c0.315-0.291,0.601-0.674,0.848-1.139l-0.631-0.332c-0.277,0.451-0.542,0.786-0.783,0.996
		c-0.26,0.227-0.577,0.408-0.944,0.543c-0.367,0.137-0.75,0.203-1.139,0.203c-0.81,0-1.498-0.288-2.05-0.857
		c-0.549-0.568-0.837-1.306-0.854-2.189l-0.002-0.104h6.683C89.401,49.882,89.133,49.083,88.631,48.45z M82.809,50.202l0.037-0.131
		c0.199-0.697,0.502-1.23,0.898-1.584c0.54-0.482,1.195-0.729,1.947-0.729c0.455,0,0.895,0.098,1.307,0.29
		c0.414,0.192,0.752,0.45,1.004,0.766c0.252,0.316,0.446,0.739,0.577,1.262l0.031,0.127H82.809z M97.319,41.812v6.918l-0.188-0.273
		c-0.348-0.512-0.757-0.9-1.216-1.155c-0.457-0.254-0.977-0.382-1.543-0.382c-0.98,0-1.833,0.378-2.531,1.127
		c-0.7,0.749-1.056,1.664-1.056,2.719c0,1.079,0.353,2.007,1.046,2.759c0.692,0.75,1.539,1.131,2.516,1.131
		c0.55,0,1.063-0.123,1.524-0.363c0.464-0.242,0.889-0.608,1.264-1.09l0.184-0.234v1.493h0.702V41.812H97.319z M97.002,52.417
		c-0.25,0.473-0.613,0.853-1.078,1.129c-0.464,0.275-0.962,0.416-1.479,0.416s-1.006-0.141-1.455-0.42
		c-0.448-0.279-0.812-0.674-1.075-1.174c-0.265-0.496-0.399-1.025-0.399-1.572c0-0.551,0.134-1.079,0.396-1.572
		c0.264-0.494,0.624-0.885,1.07-1.159c0.445-0.274,0.94-0.413,1.47-0.413c0.821,0,1.522,0.307,2.085,0.913
		c0.56,0.603,0.843,1.364,0.843,2.26C97.377,51.411,97.252,51.948,97.002,52.417z M78.767,44.309h-0.768v2.804h-1.325v0.636h1.325
		l-0.001,5.342c-0.006,0.221-0.023,0.807,0.484,1.268c0.497,0.449,1.312,0.562,2.401,0.327l-0.172-0.745
		c-0.266,0.053-0.542,0.082-0.787,0.082c-0.326,0-0.592-0.05-0.787-0.146c-0.244-0.121-0.372-0.315-0.372-0.563V47.75h2.247v-0.636
		h-2.247L78.767,44.309L78.767,44.309z M53.026,48.449l-0.182,0.216v-1.552h-0.789v7.347h0.789v-2.452
		c0-1.298,0.062-1.802,0.16-2.192l0.007-0.018c0.205-0.459,1.006-1.937,2.776-1.992v-0.715
		C54.419,47.124,53.531,47.843,53.026,48.449z M48.456,47.429c-0.606,0-1.099,0.492-1.099,1.099s0.492,1.099,1.099,1.099
		c0.607,0,1.099-0.492,1.099-1.099S49.063,47.429,48.456,47.429z M48.456,51.804c-0.606,0-1.099,0.492-1.099,1.098
		c0,0.606,0.492,1.1,1.099,1.1c0.607,0,1.099-0.492,1.099-1.1C49.555,52.296,49.063,51.804,48.456,51.804z"/>
</g>
<g>
</g>
<g>
</g>
<g>
</g>
<g>
</g>
<g>
</g>
<g>
</g>
<g>
</g>
<g>
</g>
<g>
</g>
<g>
</g>
<g>
</g>
<g>
</g>
<g>
</g>
<g>
</g>
<g>
</g>
</svg>
