<?xml version="1.0" encoding="iso-8859-1"?>
<!-- Generator: Adobe Illustrator 16.0.0, SVG Export Plug-In . SVG Version: 6.00 Build 0)  -->
<!DOCTYPE svg PUBLIC "-//W3C//DTD SVG 1.1//EN" "http://www.w3.org/Graphics/SVG/1.1/DTD/svg11.dtd">
<svg version="1.1" id="Capa_1" xmlns="http://www.w3.org/2000/svg" xmlns:xlink="http://www.w3.org/1999/xlink" x="0px" y="0px"
	 width="98.199px" height="98.198px" viewBox="0 0 98.199 98.198" style="enable-background:new 0 0 98.199 98.198;"
	 xml:space="preserve">
<g>
	<path d="M25.346,41.623l6.992,14.622l-15.635,3.791C15.292,53.596,16.415,46.41,25.346,41.623z M69.571,32.114
		c-10.961-2.568-22.83-2.46-34.985-0.626c-0.438,0.066-0.874,0.136-1.308,0.209l-4.041-7.484c-3.934,0.525-7.629,1.343-11.052,2.436
		l3.849,8.049c-6.286,2.436-11.445,5.904-15.167,10.078c-6.139,6.985-8.566,15.766-5.618,24.316
		c0.594,1.725,1.395,3.359,2.384,4.894l2.574-0.708L20.55,69.34l15.954-4.383l12.832-3.523l-4.445-8.23l-8.245-15.271
		c0.436-0.085,0.878-0.17,1.331-0.252c20.522-3.661,31.748,1.995,37.896,8.015l-15.637,3.79L53.71,39.061
		c-3.73-0.217-8.036,0.006-13.024,0.856l7,12.609l3.138,5.663l1.367,2.462l28.785-7.904l14.633-4.02L98.199,48
		c-0.68-1.181-1.519-2.216-2.473-3.322C90.997,39.203,80.742,34.318,69.571,32.114"/>
</g>
<g>
</g>
<g>
</g>
<g>
</g>
<g>
</g>
<g>
</g>
<g>
</g>
<g>
</g>
<g>
</g>
<g>
</g>
<g>
</g>
<g>
</g>
<g>
</g>
<g>
</g>
<g>
</g>
<g>
</g>
</svg>
