<?xml version="1.0" encoding="iso-8859-1"?>
<!-- Generator: Adobe Illustrator 16.0.0, SVG Export Plug-In . SVG Version: 6.00 Build 0)  -->
<!DOCTYPE svg PUBLIC "-//W3C//DTD SVG 1.1//EN" "http://www.w3.org/Graphics/SVG/1.1/DTD/svg11.dtd">
<svg version="1.1" id="Capa_1" xmlns="http://www.w3.org/2000/svg" xmlns:xlink="http://www.w3.org/1999/xlink" x="0px" y="0px"
	 width="98.538px" height="98.538px" viewBox="0 0 98.538 98.538" style="enable-background:new 0 0 98.538 98.538;"
	 xml:space="preserve">
<g>
	<path d="M98.538,26.576c-0.002-0.527-0.041-1.067-0.163-1.577c-0.412-1.695-1.801-2.97-3.398-3.014l-11.207-0.003L83.747,7.125
		c-0.048-3.314-0.966-4.741-4.549-4.908L51.492,2.188c-2.917,0.031-4.363,2.011-4.258,4.473l-0.082,15.348l-12.681,0.002
		l-0.342-0.574c-1.37-2.881-3.515-5.14-5.854-7.202c-3.498-3.083-7.545-4.198-12.102-2.867c-4.485,1.309-7.555,4.538-9.838,8.296
		C2.68,25.682,0.851,32.419,0.247,39.412c-0.337,3.895-0.224,7.831-0.243,11.749c-0.014,3.113,1.444,4.644,4.572,4.746l11.07,0.049
		l0.038,23.418c-0.611,0.104-1.145,0.14-1.645,0.287c-1.545,0.459-3.505,0.729-4.889,1.49c-3.923,2.157-3.925,7.221-0.031,9.43
		c1.234,0.701,2.965,1.236,4.365,1.434c4.432,0.625,8.694,0.555,13.135-0.098c8.617-1.453,7.356-10.381-0.177-11.801
		c-1.345-0.361-2.45-0.535-3.785-0.787c-0.048-0.146-0.088-0.211-0.088-0.277l-0.015-23.157l12.958-0.012
		c2.749-0.146,3.695-1.269,4.014-4.011l0.106-1.496c0.1,0.017,0.372-0.012,0.473,0.007c0,0.526,0,1.051,0,1.577l-0.015,38.742
		c-0.003,4.347,1.192,5.623,5.515,5.633c12.066,0.025,24.135,0.021,36.203-0.016c3.751,0,4.854-1.775,4.852-3.019l-0.018-43.219
		l8.871-0.034c3.106,0,3.016-4.049,3.016-4.68L98.538,26.576z M79.987,5.833c0,9.725,0,19.432,0,29.234l-29.344,0.021L50.642,5.821
		L79.987,5.833z M35.983,50.971l-0.062,1.396c-10.707,0-21.587,0-32.298,0c-0.039-0.178-0.052-0.377-0.063-0.584
		c-0.625-9.28,0.26-18.317,4.313-26.842c1.694-3.563,3.85-6.787,7.256-8.949c3.629-2.306,7.25-1.996,10.596,0.732
		c3.613,2.943,5.673,6.892,7.305,11.12c1.792,4.644,2.809,9.467,2.983,14.438C36.117,45.175,36.014,48.074,35.983,50.971z
		 M94.843,46.402l-11.928-0.003c0,15.373,0,30.728,0,46.134c-4.748,0-9.331,0-14.042,0l-0.02-27.146
		c0-1.096-0.829-1.855-1.937-1.855c-1.108,0-1.878,0.668-1.892,1.875l-0.048,27.186l-21.302,0.014l-0.012-46.221l-4.041-0.011
		l-0.021-1.145c-0.109-4.863-0.721-9.666-1.991-14.369l-1.64-5.175L47.1,25.681l0.009,9.107c-0.021,1.811,0.916,2.944,2.466,3.585
		c0.763,0.314,1.643,0.479,2.47,0.481l26.646,0.011c0.666-0.001,1.349-0.086,1.992-0.248c1.944-0.489,2.85-1.515,2.917-3.515
		l0.041-9.424l11.224-0.01L94.843,46.402z"/>
</g>
<g>
</g>
<g>
</g>
<g>
</g>
<g>
</g>
<g>
</g>
<g>
</g>
<g>
</g>
<g>
</g>
<g>
</g>
<g>
</g>
<g>
</g>
<g>
</g>
<g>
</g>
<g>
</g>
<g>
</g>
</svg>
