<?xml version="1.0" encoding="iso-8859-1"?>
<!-- Generator: Adobe Illustrator 16.0.0, SVG Export Plug-In . SVG Version: 6.00 Build 0)  -->
<!DOCTYPE svg PUBLIC "-//W3C//DTD SVG 1.1//EN" "http://www.w3.org/Graphics/SVG/1.1/DTD/svg11.dtd">
<svg version="1.1" id="Capa_1" xmlns="http://www.w3.org/2000/svg" xmlns:xlink="http://www.w3.org/1999/xlink" x="0px" y="0px"
	 width="96.551px" height="96.551px" viewBox="0 0 96.551 96.551" style="enable-background:new 0 0 96.551 96.551;"
	 xml:space="preserve">
<g>
	<path d="M93.422,30.203c-2.946-6.843-8.301-12.153-15.08-14.952c-8.791-3.63-17.068-1.581-23.594,1.864
		C50.135,8.844,41.728,0.317,28.615,0.001L28.499,0C21.121,0,14.153,2.978,8.883,8.385c-5.2,5.334-8.063,12.31-8.063,19.643
		c0,11.382,7.236,18.981,14.114,23.635c-4.792,7.269-7.88,17.094-3.716,27.84l0.043,0.108c2.831,6.813,8.253,12.104,15.268,14.896
		c3.423,1.361,6.997,2.043,10.555,2.043c3.637,0,7.256-0.711,10.679-2.133c11.747-4.881,15.665-16.296,16.895-24.904
		c9.945-0.412,23.069-4.488,28.979-17.875l0.047-0.107C96.5,44.713,96.406,37.137,93.422,30.203z M50.471,30.468
		c1.48,7.779,3.49,19.315,4.392,27.886c0,0-25.983-10.333-26.252-10.458C33.213,43.65,41.479,36.427,50.471,30.468z M10.469,28.027
		c0-9.943,8.223-18.346,17.971-18.379c9.6,0.259,15.148,7.129,18.035,12.509C34.577,29.864,23.999,39.6,20.011,43.42
		C15.208,40.084,10.469,35.024,10.469,28.027z M44.062,85.506c-9.183,3.816-20.098-0.557-23.868-9.545
		c-3.039-7.908-0.115-14.883,3.267-19.665l31.61,12.118C54.152,74.667,51.484,82.422,44.062,85.506z M84.787,47.796
		c-4.171,9.373-13.551,11.595-19.656,11.996l-0.959-0.011c-0.97-11.301-4.049-27.646-5.287-33.951
		c4.576-2.483,10.168-3.977,15.774-1.661C83.85,27.965,88.478,38.774,84.787,47.796z"/>
</g>
<g>
</g>
<g>
</g>
<g>
</g>
<g>
</g>
<g>
</g>
<g>
</g>
<g>
</g>
<g>
</g>
<g>
</g>
<g>
</g>
<g>
</g>
<g>
</g>
<g>
</g>
<g>
</g>
<g>
</g>
</svg>
