<?xml version="1.0" encoding="iso-8859-1"?>
<!-- Generator: Adobe Illustrator 16.0.0, SVG Export Plug-In . SVG Version: 6.00 Build 0)  -->
<!DOCTYPE svg PUBLIC "-//W3C//DTD SVG 1.1//EN" "http://www.w3.org/Graphics/SVG/1.1/DTD/svg11.dtd">
<svg version="1.1" id="Capa_1" xmlns="http://www.w3.org/2000/svg" xmlns:xlink="http://www.w3.org/1999/xlink" x="0px" y="0px"
	 width="97.526px" height="97.526px" viewBox="0 0 97.526 97.526" style="enable-background:new 0 0 97.526 97.526;"
	 xml:space="preserve">
<g>
	<g>
		<g>
			<path d="M22.473,47.311c-2.094-3.908-6.142-6.375-10.516-6.375C5.304,40.936,0,46.287,0,52.986
				C0,59.685,5.351,64.99,12.051,64.99c4.885,0,9.538-3.351,11.166-8.05h-3.21c-1.211,3.072-4.652,5.398-7.956,5.398
				c-4.699,0-8.747-3.723-8.979-8.283h20.844C23.822,50.847,23.45,49.125,22.473,47.311z M3.164,51.406
				c0.791-4.605,4.467-7.817,8.887-7.817c4.188,0,7.63,3.071,8.747,7.817H3.164z"/>
			<polygon points="39.641,41.464 33.639,50.304 27.637,41.464 24.101,41.464 31.917,52.724 24.101,64.402 27.591,64.402 
				33.639,55.236 39.734,64.402 43.224,64.402 35.361,52.724 43.224,41.464 			"/>
			<path d="M58.467,40.912c0,0-2.302,0-2.726,0c0-0.269,0-0.678,0-0.678c0-1.258,0.688-1.98,1.888-1.98h0.791
				c0.141,0,0.254-0.113,0.254-0.252v-5.213c0-0.139-0.113-0.252-0.254-0.252h-1.021c-0.002,0-0.004,0-0.004,0
				c-1.855,0.024-3.133,0.154-4.146,0.421c-1.026,0.271-1.862,0.704-2.715,1.405c-1.47,1.225-2.277,3.211-2.277,5.592
				c0,0,0,0.641,0,0.957c-0.41,0-2.307,0-2.307,0c-0.14,0-0.253,0.113-0.253,0.253v5.258c0,0.14,0.113,0.253,0.253,0.253
				c0,0,1.896,0,2.307,0c0,0.491,0,17.753,0,17.753c0,0.141,0.113,0.254,0.253,0.254h6.979c0.14,0,0.252-0.113,0.252-0.254
				c0,0,0-17.263,0-17.753c0.424,0,2.726,0,2.726,0c0.141,0,0.254-0.113,0.254-0.253v-5.258
				C58.721,41.025,58.607,40.912,58.467,40.912z"/>
			<path d="M94.889,42.519c-0.812-0.789-1.752-1.392-2.795-1.793c-1.041-0.401-2.194-0.604-3.43-0.604
				c-1.595,0-3.056,0.367-4.341,1.091c-1.172,0.661-2.179,1.607-2.996,2.816c-1.536-2.592-3.794-3.907-6.715-3.907
				c-2.742,0-4.769,0.885-6.169,2.7c0-0.731,0-1.656,0-1.656c0-0.14-0.113-0.253-0.254-0.253h-6.605
				c-0.14,0-0.253,0.113-0.253,0.253v23.265c0,0.141,0.113,0.254,0.253,0.254h6.979c0.141,0,0.254-0.113,0.254-0.254V51.728
				c0-1.516,0.316-2.676,0.939-3.447c0.608-0.756,1.522-1.139,2.715-1.139c1.113,0,1.924,0.364,2.479,1.113
				c0.563,0.762,0.853,1.932,0.853,3.473v12.703c0,0.14,0.112,0.252,0.252,0.252h6.979c0.14,0,0.252-0.112,0.252-0.252V51.728
				c0-1.539,0.31-2.705,0.916-3.466c0.595-0.744,1.5-1.12,2.694-1.12c1.123,0,1.878,0.352,2.377,1.107
				c0.517,0.782,0.767,2.026,0.767,3.806v12.375c0,0.141,0.113,0.254,0.255,0.254h6.979c0.14,0,0.253-0.113,0.253-0.254V51.728
				C97.526,46.288,97.033,44.566,94.889,42.519z"/>
		</g>
	</g>
</g>
<g>
</g>
<g>
</g>
<g>
</g>
<g>
</g>
<g>
</g>
<g>
</g>
<g>
</g>
<g>
</g>
<g>
</g>
<g>
</g>
<g>
</g>
<g>
</g>
<g>
</g>
<g>
</g>
<g>
</g>
</svg>
