<?xml version="1.0" encoding="iso-8859-1"?>
<!-- Generator: Adobe Illustrator 16.0.0, SVG Export Plug-In . SVG Version: 6.00 Build 0)  -->
<!DOCTYPE svg PUBLIC "-//W3C//DTD SVG 1.1//EN" "http://www.w3.org/Graphics/SVG/1.1/DTD/svg11.dtd">
<svg version="1.1" id="Capa_1" xmlns="http://www.w3.org/2000/svg" xmlns:xlink="http://www.w3.org/1999/xlink" x="0px" y="0px"
	 width="98.778px" height="98.778px" viewBox="0 0 98.778 98.778" style="enable-background:new 0 0 98.778 98.778;"
	 xml:space="preserve">
<g>
	<path d="M74.562,62.526l24.216-24.227l-30.671-4.864l-0.506-13.443l-9.15,0.2L49.389,2.416l-9.267,18.178l-9.758,0.213
		l0.517,12.595L0,38.3l24.216,24.227l-5.352,33.834l16.367-8.335l18.367,0.688l0.228-5.639l26.088,13.286L74.562,62.526z
		 M49.389,6.659l6.923,13.581L42.31,20.546L49.389,6.659z M21.359,92.928l4.914-31.068L4.035,39.611l26.927-4.271l0.183,4.466
		l4.862-0.456l-0.42,29.824h-4.294l-0.302,18.692l0.286,0.011L21.359,92.928z M48.913,67.564l0.338-8.242l9.656-0.039l0.746-9.354
		l-10.799,0.463l0.226-10.77l9.482-0.443v8.018l10.082,0.487l-0.463-12.287l26.562,4.212L72.506,61.857l4.913,31.07L53.91,80.955
		l0.541-13.354L48.913,67.564z"/>
</g>
<g>
</g>
<g>
</g>
<g>
</g>
<g>
</g>
<g>
</g>
<g>
</g>
<g>
</g>
<g>
</g>
<g>
</g>
<g>
</g>
<g>
</g>
<g>
</g>
<g>
</g>
<g>
</g>
<g>
</g>
</svg>
