<?xml version="1.0" encoding="iso-8859-1"?>
<!-- Generator: Adobe Illustrator 16.0.0, SVG Export Plug-In . SVG Version: 6.00 Build 0)  -->
<!DOCTYPE svg PUBLIC "-//W3C//DTD SVG 1.1//EN" "http://www.w3.org/Graphics/SVG/1.1/DTD/svg11.dtd">
<svg version="1.1" id="Capa_1" xmlns="http://www.w3.org/2000/svg" xmlns:xlink="http://www.w3.org/1999/xlink" x="0px" y="0px"
	 width="97.549px" height="97.549px" viewBox="0 0 97.549 97.549" style="enable-background:new 0 0 97.549 97.549;"
	 xml:space="preserve">
<g>
	<path d="M80.879,22.397c0.017,0.322-3.194-1.137-3.194-1.137c0.077-0.939-0.192-1.67-0.832-2.213l-1.737-2.428
		c1.03-0.824,1.527-1.656,1.51-2.529c-0.021-0.994-0.723-1.943-2.131-2.897l-0.039-0.177L74.211,11l-0.326-0.211l-0.109,0.184
		l-2.125-0.133l-0.656-1.127c0.971-0.736,2.109-1.66,1.617-3.385c-0.404-1.42-1.67-1.42-2.21-1.42c-0.138,0-0.276,0.004-0.414,0.008
		l-0.286,0.007c-0.674,0.009-1.621,0.101-2.066,0.792c-0.217,0.338-0.26,0.752-0.156,1.244l-0.953-0.02l-0.01-0.011l-0.215,0.007
		l-0.633-0.014l0.008,0.033l-5.394,0.17c-0.29-0.129-0.598-0.161-0.909-0.096c-0.146-0.051-0.291-0.098-0.44-0.114
		c0-0.017-0.001-0.032,0-0.048c0.569-0.521,0.835-1.016,0.772-1.502c-0.064-0.518-0.457-0.938-1.197-1.283l-0.049-0.022
		l-1.641-1.112c-0.018-0.163-0.034-0.326-0.059-0.487L56.758,0H53.76h-0.691h-0.634h-0.653h-2.368h-1.036h-0.61l-0.01,0.49
		c-0.002,0.128-0.022,0.252-0.035,0.379c-1.522,0.152-2.466,0.618-2.864,1.426c-0.395,0.803-0.198,1.836,0.595,3.146l-1.355,0.616
		l-0.835-0.063l0.291-0.41l-1.068,0.345l-0.471-0.441l0.15-0.14l-0.601-0.284l-0.11-0.104L41.37,4.97l-0.306-0.145
		c-1.179-0.564-2.397-1.146-3.468-1.146c-2.309,0-2.672,2.646-2.784,3.699c-0.348,0.442-0.645,0.934-0.925,1.418
		c-0.808,1.393-1.522,2.551-3.356,2.338l-0.062-0.1l-0.252,0.065l-0.294-0.05l-0.048,0.121c-0.353,0.07-0.727,0.114-1.127,0.152
		c-1.566,0.148-3.506,0.338-3.793,3.041l-0.962,1.646c-2.675-0.121-3.041,1.728-3.347,3.202c-0.092,0.445-0.19,0.863-0.333,1.229
		c-4.634,2.025-7.58,4.686-7.58,7.948c0,0.517,0.074,1.019,0.216,1.505l7.938,55.156c0,0,4.205,12.5,24.849,12.5h6.077
		c20.645,0,24.85-12.5,24.85-12.5L84.6,29.893c0.142-0.486,0.216-0.988,0.216-1.505C84.817,26.09,83.36,24.088,80.879,22.397z
		 M77.731,31.745l0.066-2.395h0.009l0.083-0.028c0.738-0.249,1.539-0.601,1.893-1.321c0.039-0.078,0.064-0.163,0.09-0.248
		c0.713,0.865,1.016,1.596,0.87,2.142C80.549,30.624,79.553,31.231,77.731,31.745z M78.17,32.657
		c-0.486,0.277-1.018,0.551-1.592,0.817l0.854-0.613C77.694,32.795,77.934,32.727,78.17,32.657z M76.584,20.279
		c0.088,0.19,0.133,0.407,0.133,0.659c-0.032-0.001-0.066-0.008-0.098-0.008c-0.223,0-0.418,0.041-0.596,0.104
		C76.233,20.817,76.422,20.569,76.584,20.279z M77.239,22.163l2.633,1.713l-0.98,2.286l-1.578,1.808l-0.645-0.724
		c-0.343-0.864-0.938-1.519-1.754-1.966l0.84-1.615L77.239,22.163z M76.142,32.516c0.034-0.229,0.069-0.463,0.1-0.697
		c0.077,0.157,0.164,0.314,0.271,0.471l-0.375,0.27C76.137,32.545,76.14,32.531,76.142,32.516z M76.137,28.837
		c0.097,0.062,0.195,0.121,0.303,0.176c-0.066,0.099-0.128,0.197-0.182,0.297C76.227,29.151,76.187,28.993,76.137,28.837z
		 M75.271,31.529c-0.013-0.338-0.004-0.688,0.013-1.061c0.012-0.241,0.021-0.485,0.024-0.729
		C75.383,30.297,75.351,30.895,75.271,31.529z M71.74,32.409v-0.18l-0.005-0.004l-0.084-2.734c0.129-1.108,0.643-1.523,1.884-1.523
		c0.132,0,0.271,0.005,0.419,0.013c0.389,0.718,0.371,1.556,0.331,2.442c-0.043,0.95-0.081,2.004,0.437,2.965l-2.975,1.079
		l-0.006-1.675l0.012-0.004L71.74,32.409z M74.704,22.235l-0.433-0.074l-0.036-0.02c0.275-0.1,0.549-0.219,0.816-0.365
		c-0.116,0.141-0.221,0.285-0.32,0.421C74.721,22.21,74.711,22.223,74.704,22.235z M75.731,19.198l-2.727,1.656
		c-1.162-0.847-2.045-1.664-2.213-2.955l3.424-0.818L75.731,19.198z M68.307,27.307c-0.689-0.161-1.445-0.043-2.273,0.367
		l-0.131,0.098c-0.197-0.064-0.413-0.08-0.635-0.072l-1.215-1.262l1.48-1.457l0.945-0.018c0.507,0.658,1.189,1.34,2.131,1.457
		C68.488,26.704,68.383,26.997,68.307,27.307z M68.532,29.636c-0.143,0.144-0.302,0.282-0.471,0.425
		c-0.487,0.411-1.062,0.9-1.251,1.674c-0.095,0.018-0.187,0.045-0.276,0.078c-0.095-0.075-0.197-0.137-0.297-0.203
		c0.385-0.906,0.54-1.742,0.531-2.582l1.449-0.111C68.288,29.174,68.392,29.415,68.532,29.636z M62.437,36.741
		c0.998-0.162,2.021-0.336,2.925-0.939l0.191,0.376c-1.356,0.563-2.811,0.837-4.43,0.83C61.543,36.896,61.982,36.815,62.437,36.741z
		 M60.469,36.161c0.582-0.486,1.396-0.537,2.341-0.585c0.2-0.011,0.403-0.021,0.606-0.036c-0.367,0.087-0.75,0.151-1.141,0.215
		C61.67,35.853,61.059,35.965,60.469,36.161z M65.735,29.722c-0.05,0.362-0.146,0.735-0.284,1.12
		C65.469,30.463,65.563,30.091,65.735,29.722z M61.579,28.683c0.602-0.312,0.989-0.859,1.127-1.632
		c0.248,0.564,0.608,1.02,1.088,1.343c-0.203,0.153-0.406,0.319-0.604,0.513c-0.062,0.059-0.121,0.121-0.181,0.182l-1.104,0.047
		c-0.084-0.081-0.158-0.162-0.221-0.24l0.232-0.016L61.579,28.683z M54.674,34.705l-1.196-0.563c0.041-0.091,0.088-0.175,0.133-0.26
		l1.146,0.157l0.008,0.064l-0.752-0.063L54.674,34.705z M54.614,32.379c-0.249-0.027-0.488-0.018-0.724,0.01
		c-0.097-0.565-0.401-1.056-0.796-1.513l0.49-0.842c0.164-0.016,0.326-0.032,0.489-0.05l1.454,1.41
		c-0.333,0.323-0.525,0.705-0.637,1.086C54.797,32.45,54.715,32.403,54.614,32.379z M47.936,30.064l-0.05-0.094
		c-0.342-0.495-0.778-0.868-1.3-1.112L48,27.437c0.292,0.118,0.572,0.245,0.837,0.378l0.734,2.119
		c-0.231,0.143-0.439,0.308-0.63,0.488C48.621,30.217,48.271,30.112,47.936,30.064z M48.757,32.778l-0.014,0.892
		c-0.032-0.094-0.052-0.188-0.092-0.281c0.002-0.019,0.003-0.036,0.004-0.055C48.676,33.152,48.713,32.965,48.757,32.778z
		 M47.811,37.883c-0.064,0.001-0.128,0.002-0.192,0.003l0.009-0.012L47.811,37.883z M41.004,20.93l-0.849,0.029
		c-0.194-0.518-0.515-0.938-0.97-1.25c0.013-0.105,0.016-0.211,0.007-0.316c0.838-0.392,1.635-0.904,1.917-1.755
		c0.013-0.038,0.012-0.08,0.022-0.119c0.16,0.029,0.319,0.057,0.474,0.072c-0.09,0.122-0.167,0.254-0.209,0.412
		c-0.108,0.404,0.001,0.855,0.312,1.364l-0.375,0.398l0.732,0.119l0.036,0.048l-0.303,0.295L41.004,20.93z M41.393,22.915
		l-0.128-0.143l-0.228,0.229l-0.289,0.002l-0.001,0.29l-0.722,0.725l-0.337-0.003c0.26-0.441,0.437-0.923,0.531-1.447
		c0.123,0.019,0.245,0.038,0.379,0.038c0.135,0,0.273-0.009,0.478-0.038c0.041-0.01,0.079-0.031,0.119-0.043L41.393,22.915z
		 M39.404,26.369c-0.001,0.001-0.002,0.001-0.003,0.001c0-0.001,0.001-0.002,0.001-0.002L39.404,26.369z M37.783,23.946
		l-0.807,0.116c-0.778-1.444-1.783-2.287-3.046-2.563c0.01-0.013,0.02-0.025,0.03-0.038c0.342,0.134,0.703,0.21,1.093,0.21
		c0.652,0,1.284-0.183,1.895-0.358c0.402-0.116,0.784-0.215,1.156-0.271l0.618,0.572L37.783,23.946z M38.577,25.446l-0.053,0.051
		c-0.053-0.053-0.106-0.104-0.163-0.153c0.031-0.012,0.063-0.021,0.094-0.033L38.577,25.446z M36.677,29.64
		c-0.491-0.229-0.879-0.517-1.012-0.892c-0.202-0.572,0.169-1.449,1.062-2.538l1.025,0.544l0.009,0.51
		c-0.613,0.441-0.985,0.926-1.104,1.479C36.592,29.051,36.611,29.349,36.677,29.64z M34.722,29.082
		c0.217,0.613,0.718,1.048,1.354,1.377c-1.197-0.027-1.629-0.116-1.716-0.907c-0.014-0.13-0.033-0.272-0.054-0.424
		c-0.117-0.873-0.276-2.068,0.278-2.701c0.231-0.265,0.597-0.426,1.084-0.487C34.731,27.186,34.418,28.219,34.722,29.082z
		 M35.435,23.542c-0.086-0.071-0.171-0.137-0.259-0.211c-0.249-0.21-0.516-0.423-0.799-0.623
		C34.763,22.899,35.116,23.169,35.435,23.542z M35.021,14.721c0.006-0.021,0.012-0.042,0.018-0.063
		c0.132-0.51,0.331-1.28,0.563-1.387c0.036-0.017,0.068-0.024,0.098-0.024c0.108,0,0.387,0.111,0.848,0.958
		c-0.013-0.001-0.027-0.005-0.04-0.005C35.93,14.2,35.45,14.438,35.021,14.721z M36.294,19.266c-0.337,0.012-0.675,0.04-1.013,0.084
		c0.139-0.225,0.272-0.453,0.395-0.689c0.073,0.111,0.149,0.218,0.241,0.311C36.028,19.084,36.156,19.18,36.294,19.266z
		 M37.048,20.248c-0.126,0.034-0.253,0.067-0.377,0.104c-0.78,0.226-1.495,0.37-2.128,0.226c0.021-0.04,0.043-0.079,0.064-0.118
		C35.412,20.292,36.226,20.221,37.048,20.248z M34.222,19.157c-0.093,0.146-0.186,0.297-0.278,0.448
		c-0.048,0.013-0.096,0.028-0.144,0.04c0.191-0.539,0.563-0.999,0.981-1.506c0.027-0.033,0.053-0.067,0.081-0.1
		C34.679,18.416,34.458,18.783,34.222,19.157z M38.122,18.002c-0.864-0.042-1.292-0.466-1.404-1.384l0.639-1.232l0.022,0.004
		c0.116,0,0.221-0.034,0.332-0.049c0.153,0.822,0.9,1.226,1.443,1.514l0.227,0.12C39.121,17.403,38.705,17.741,38.122,18.002z
		 M39.604,15.959c0.034,0.006,0.068,0.011,0.102,0.016c-0.001,0.013-0.005,0.024-0.006,0.037l-0.076-0.041
		C39.616,15.965,39.611,15.963,39.604,15.959z M41.151,16.487c0.056,0.017,0.112,0.039,0.167,0.053
		c-0.053-0.01-0.105-0.016-0.16-0.027C41.158,16.504,41.153,16.495,41.151,16.487z M42.887,34.01
		c-0.017-0.022-0.033-0.045-0.05-0.066c-0.37-0.479-0.691-0.926-0.887-1.42C42.33,32.968,42.647,33.458,42.887,34.01z
		 M48.395,10.801c0.307-0.241,0.673-0.452,1.052-0.667c0.458-0.26,0.957-0.549,1.38-0.928C50.307,9.944,49.511,10.462,48.395,10.801
		z M50.526,11.817c-0.107,0.402-0.162,0.816-0.136,1.243c-0.003-0.021-0.015-0.04-0.017-0.06
		C50.316,12.605,50.383,12.212,50.526,11.817z M49.599,11.427c-0.206,0.548-0.302,1.117-0.215,1.716
		c0.155,1.072,0.875,2.07,2.199,3.051l0.098,0.073c-0.598,0.468-0.812,1.099-0.891,1.761l-0.068-0.006
		c-0.067-0.61-0.297-1.307-1.021-1.817c-0.194-1.589-0.723-2.776-1.645-3.667c0.033-0.205,0.042-0.405-0.003-0.596
		C48.581,11.821,49.104,11.654,49.599,11.427z M55.877,11.236c-0.356,0.157-0.685,0.41-0.938,0.799
		c-1.605,0.136-2.199,1.333-2.671,2.317c-0.056,0.114-0.109,0.223-0.164,0.332c-1.372-1.758-0.542-3.146,0.494-4.863
		c0.143-0.237,0.286-0.479,0.425-0.723C53.604,10.489,54.559,11.206,55.877,11.236z M54.471,9.587
		c0.353,0.275,0.74,0.498,1.171,0.639C55.258,10.178,54.844,10.008,54.471,9.587z M56.944,13.348c-0.318,0-0.572-0.033-0.795-0.098
		c0.219-0.176,0.439-0.348,0.633-0.548c0.229,0.255,0.463,0.471,0.71,0.624C57.308,13.337,57.125,13.348,56.944,13.348z
		 M57.67,14.321c0.224-0.014,0.447-0.026,0.668-0.026c0.426,0,0.748,0.063,1.022,0.188c-0.696-0.004-1.375-0.016-2.011-0.144
		C57.458,14.333,57.564,14.327,57.67,14.321z M56.645,19.62l-0.061,3.137c-0.531-0.412-1.201-0.715-2.041-0.703l-0.949-0.933
		c-0.254-0.371-0.582-0.663-0.908-0.935c-0.518-0.432-0.842-0.742-0.918-1.202c0.443-0.366,0.793-0.829,1.051-1.462
		c0.131,0.051,0.268,0.092,0.411,0.124c0.646,0.822,1.579,1.196,2.429,1.536C56.008,19.321,56.336,19.462,56.645,19.62z
		 M56.299,16.391c0.176,0.154,0.272,0.383,0.334,0.689c-0.047-0.1-0.096-0.199-0.144-0.301
		C56.43,16.651,56.364,16.521,56.299,16.391z M56.438,25.2l-0.887,0.307c0.096-0.393,0.121-0.783,0.078-1.173
		c0.197,0.035,0.396,0.062,0.599,0.062c0.088,0,0.17-0.016,0.255-0.023C56.42,24.651,56.406,24.928,56.438,25.2z M54.795,27.115
		c-0.095,0.05-0.182,0.11-0.271,0.167c-0.028-0.035-0.071-0.063-0.104-0.097c0.055-0.029,0.107-0.062,0.16-0.096
		C54.652,27.106,54.723,27.106,54.795,27.115z M53.629,22.553c-0.127-0.081-0.244-0.177-0.365-0.268
		c0.01-0.021,0.021-0.039,0.031-0.059L53.629,22.553z M52.161,21.057c-0.031,0.016-0.062,0.031-0.091,0.049
		c-0.167-0.18-0.315-0.348-0.435-0.506c0.138,0.127,0.279,0.243,0.412,0.354C52.088,20.989,52.12,21.023,52.161,21.057z
		 M54.502,14.663c0.11-0.114,0.222-0.219,0.33-0.328l-0.053,1.113c-0.324,0.44-0.812,0.514-1.628,0.57
		c-0.045,0.002-0.09,0-0.135,0.001c-0.011-0.036-0.013-0.075-0.025-0.11C53.594,15.578,54.074,15.108,54.502,14.663z M53.374,14.385
		c0.299-0.584,0.609-1.002,1.084-1.211c0,0.043,0.002,0.086,0.006,0.129c-0.239,0.215-0.463,0.441-0.682,0.666
		C53.646,14.112,53.51,14.252,53.374,14.385z M51.459,21.92c-0.062,0.169-0.104,0.336-0.141,0.479
		c-0.061,0.24-0.125,0.48-0.223,0.607l-0.534-0.015l-0.939-2.538v-0.189c0.277-0.189,0.506-0.414,0.685-0.678
		C50.215,20.586,50.904,21.331,51.459,21.92z M48.482,15.193c-0.162-0.339-0.313-0.677-0.436-1.017
		C48.22,14.485,48.372,14.817,48.482,15.193z M48.167,17.301c0.08,0,0.149-0.025,0.226-0.033c0.261,0.478,0.555,0.946,0.935,1.37
		l-0.404,0.359c-0.261,0.009-0.522,0.019-0.783,0.036l0,0c-0.213-0.014-0.425-0.002-0.636,0.025
		c-0.661-0.472-0.754-1.093-0.762-2.002l0.111,0.027C47.275,17.192,47.71,17.301,48.167,17.301z M46.102,22.766
		c-0.052-0.065-0.111-0.124-0.151-0.203c0.086-0.055,0.174-0.102,0.259-0.164l0.123-0.12c0.186-0.2,0.444-0.484,0.573-0.829
		c0.21-0.067,0.415-0.146,0.605-0.256l0.112-0.097c0.047,0.007,0.095,0.015,0.136,0.015c0.045,0,0.09-0.021,0.135-0.027
		c0.038,0.021,0.077,0.038,0.115,0.055c0.005,0.355,0.054,0.693,0.149,1.013c-0.542-0.022-1.1,0.085-1.706,0.352
		C46.34,22.571,46.219,22.662,46.102,22.766z M47.746,27.337l-1.678,1.041c-0.013-0.086-0.017-0.17-0.042-0.258l-0.038-0.095
		c-0.07-0.136-0.16-0.244-0.238-0.368l0.006-0.693C46.466,26.961,47.133,27.114,47.746,27.337z M46.609,15.184l-0.013-0.072
		l-0.33-0.029l-0.389-0.115l-0.042,0.104l0.023-0.153l-0.036,0.004c-0.02-0.206-0.08-0.402-0.178-0.59
		c0.008,0,0.017,0.002,0.024,0.002c0.468,0,0.89-0.127,1.276-0.371c0.139,0.516,0.329,1.008,0.551,1.482L46.609,15.184z
		 M46.743,12.185l-1.053,0.497c-0.027-0.367-0.131-0.762-0.408-1.101c0.067-0.085,0.128-0.171,0.189-0.257
		c0.175,0.289,0.394,0.542,0.626,0.752l0.167,0.15l0.224-0.025c0.084-0.01,0.17-0.021,0.255-0.033
		C46.743,12.174,46.743,12.18,46.743,12.185z M45.424,19.088c0.084,0.234,0.191,0.469,0.33,0.705l-1.17-0.364
		C44.887,19.34,45.174,19.234,45.424,19.088z M45.691,24.53c-0.051,0.016-0.102,0.033-0.152,0.055
		c-0.118-0.109-0.241-0.208-0.375-0.286c0.041-0.104,0.084-0.206,0.111-0.316c0.095,0.03,0.189,0.062,0.299,0.081
		C45.589,24.208,45.629,24.364,45.691,24.53z M42.712,29.475c-0.03,0.006-0.062,0.014-0.091,0.019
		c-0.003-0.461-0.08-0.919-0.235-1.379c0.151-0.265,0.237-0.543,0.289-0.815l2.074,1.438v0.038c-0.324,0.106-0.63,0.224-0.915,0.37
		C43.509,29.326,43.122,29.399,42.712,29.475z M43.677,30.443c-0.248,0.31-0.429,0.328-0.502,0.328c-0.188,0-0.423-0.104-0.663-0.23
		c0.127-0.028,0.252-0.058,0.385-0.082c0.239-0.045,0.482-0.091,0.724-0.158C43.639,30.348,43.654,30.395,43.677,30.443z
		 M43.655,23.999l-0.901,0.004v-0.006h0.305l-0.173-0.344c0.051-0.103,0.119-0.195,0.155-0.306l0.03-0.091l-0.006-0.095
		c-0.034-0.567-0.19-0.995-0.41-1.321c0.009-0.006,0.018-0.01,0.027-0.016l1.001,0.979L43.655,23.999z M44.252,25.319l0.439,0.447
		c0.006,0.094,0.018,0.188,0.027,0.283c-0.046,0.041-0.093,0.072-0.138,0.115l-0.105,0.153c-0.413-0.275-0.862-0.496-1.374-0.619
		l-0.07-0.007c-0.003-0.063,0.001-0.127-0.01-0.191c0.092,0.011,0.185,0.037,0.277,0.037C43.619,25.537,43.937,25.45,44.252,25.319z
		 M44.713,21.297l-0.121,0.13c-0.251-0.273-0.534-0.491-0.83-0.667c0.002-0.004,0.005-0.009,0.007-0.014
		C44.073,20.984,44.388,21.159,44.713,21.297z M43.713,17.663c-0.088,0.128-0.176,0.26-0.26,0.394
		c-0.035,0.021-0.065,0.038-0.101,0.059c-0.304,0.171-0.604,0.358-0.888,0.566c-0.116-0.235-0.115-0.366-0.101-0.419
		c0.062-0.232,0.571-0.445,0.98-0.618c0.181-0.076,0.366-0.159,0.547-0.25C43.834,17.481,43.781,17.565,43.713,17.663z
		 M42.51,31.635c0.212,0.079,0.433,0.136,0.664,0.136c0.568,0,1.061-0.328,1.468-0.96l0.706-0.71l1.437,0.722
		c-0.005,0.094-0.01,0.188-0.015,0.283c-0.177,0.258-0.272,0.531-0.279,0.809c-1.227,0.241-1.962,1.102-2.588,1.951
		C43.571,33.024,43.108,32.278,42.51,31.635z M44.524,34.712c0.435-0.601,0.837-1.148,1.365-1.495
		c-0.051,0.072-0.106,0.144-0.156,0.216c-0.392,0.561-0.752,1.064-1.257,1.342C44.491,34.753,44.509,34.732,44.524,34.712z
		 M45.946,35.438c-0.17-0.035-0.347-0.063-0.521-0.097c0.457-0.38,0.803-0.874,1.127-1.337c0.122-0.174,0.242-0.34,0.364-0.5
		c0.144,0.65,0.196,1.354,0.162,2.133C46.699,35.585,46.322,35.514,45.946,35.438z M46.989,36.633
		c-0.004,0.037-0.009,0.075-0.014,0.113l-1.942-0.468c0.234,0.042,0.471,0.09,0.713,0.14C46.151,36.501,46.563,36.575,46.989,36.633
		z M47.551,24.09l-0.023-0.023l1.928-0.061c0.092,0.074,0.18,0.15,0.28,0.223c0.214,0.098,0.433,0.17,0.655,0.22
		c-0.08,0.411-0.062,0.79,0.066,1.136c0.021,0.058,0.055,0.107,0.082,0.161c-0.334,0.096-0.647,0.297-0.949,0.576
		C49.308,25.327,48.615,24.569,47.551,24.09z M49.697,36.691c1.205-0.205,1.849-1.088,2.423-1.879
		c0.016-0.022,0.032-0.043,0.049-0.065c-0.004,0.012-0.009,0.022-0.013,0.034c-0.516,1.499-0.952,2.36-2.464,2.222L49.697,36.691z
		 M51.311,34.224c-0.469,0.646-0.893,1.214-1.597,1.423l0.037-2.41l0.058,0.027l-0.046-0.835l0.004-0.174L49.76,32.25
		c-0.006-0.186-0.008-0.369-0.004-0.555l0.625-0.609l1.449,0.746l0.652,1.072c-0.004,0.002-0.008,0.004-0.014,0.007
		C51.997,33.28,51.648,33.76,51.311,34.224z M51.771,29.917c-0.228-0.1-0.474-0.166-0.733-0.206c0.073-0.806-0.26-1.524-0.586-2.147
		c0.424-0.031,0.887,0.067,1.383,0.207c0.291,0.081,0.592,0.152,0.898,0.206l0.029,0.79l-0.002,0.001
		C52.383,29.071,51.997,29.442,51.771,29.917z M51.879,24.336c0.514-0.249,0.793-0.667,0.986-1.093
		c0.303,0.211,0.621,0.392,0.959,0.547l-0.023,2.209l-0.449,0.029C52.567,25.634,52.073,25.08,51.879,24.336z M55.324,23.232
		c-0.011-0.023-0.026-0.048-0.036-0.071c0.088,0.031,0.176,0.083,0.266,0.129C55.478,23.272,55.4,23.253,55.324,23.232z
		 M56.439,28.127l0.583,0.308c-0.282,0.293-0.475,0.64-0.625,1.001c-0.25-0.281-0.543-0.491-0.857-0.663
		C55.861,28.645,56.172,28.44,56.439,28.127z M56.422,15.333c0.004-0.066,0.017-0.135,0.018-0.201
		c0.963,0.333,1.988,0.348,2.995,0.353c0.002,0.085-0.002,0.167,0.009,0.257c0.084,0.271,0.201,0.535,0.334,0.795l-0.266,0.705
		l-1.772,0.614c-0.001-0.015-0.003-0.029-0.004-0.044C57.66,16.963,57.535,15.785,56.422,15.333z M59.574,13.485
		c0.03-0.013,0.062-0.029,0.091-0.043c0.014,0.031,0.027,0.063,0.041,0.093C59.661,13.516,59.617,13.501,59.574,13.485z
		 M57.592,22.233l0.029-1.642C57.742,21.173,57.737,21.719,57.592,22.233z M58.584,29.045l0.131-0.004l0.031,1.818
		c-0.541,0.049-1.092,0.135-1.64,0.318L58.584,29.045z M58.762,31.86l0.003,0.137L57.905,32
		C58.189,31.936,58.475,31.887,58.762,31.86z M58.728,27.641l-0.071-0.008l-0.07,0.013c-0.045,0.008-0.078,0.024-0.121,0.033
		c-0.16-0.247-0.369-0.481-0.66-0.667c0.104-0.015,0.215-0.026,0.337-0.033c0.438,0.202,0.792,0.459,1.071,0.772
		C59.061,27.698,58.9,27.661,58.728,27.641z M58.995,24.999c-0.281,0-0.564,0.023-0.844,0.07l-0.076,0.013l-0.42-0.047l-0.005-0.329
		c1.698-0.475,3.66-1.252,5.166-2.916l0.062,0.029c0.32,0.156,0.674,0.324,1.057,0.406c-0.042,0.629,0.049,1.183,0.283,1.661
		c-0.685,0.366-1.295,0.886-1.608,1.72c-0.174-0.002-0.353,0.016-0.533,0.074l-0.096,0.042c-0.022,0.013-0.044,0.03-0.067,0.044
		C61.063,25.353,60.09,24.999,58.995,24.999z M62.399,14.001l-0.077,0.001L61.723,14c-0.066-0.581-0.268-1.231-0.868-1.702
		l0.149-0.294l0.189,0.106c0.404,0.23,0.818,0.455,1.245,0.661C62.305,13.146,62.336,13.58,62.399,14.001z M59.086,23.161
		c0.824-0.633,1.646-1.139,2.486-1.523C60.901,22.247,60.086,22.745,59.086,23.161z M66.316,15.421
		c0.005,0.021,0.004,0.04,0.01,0.061l0.042,0.104c0.113,0.21,0.245,0.411,0.387,0.61l-0.037,1.613l-2.973-0.736
		c-0.06-0.613-0.25-1.268-0.834-1.735c0.09-0.043,0.174-0.095,0.258-0.149c0.483,0.305,1.021,0.461,1.629,0.461
		C65.315,15.649,65.821,15.539,66.316,15.421z M64.877,14.616l1.389-0.337c-0.01,0.042-0.008,0.089-0.014,0.133
		C65.765,14.528,65.305,14.61,64.877,14.616z M65.961,23.395c-0.039-0.002-0.074-0.01-0.113-0.01c-0.02,0-0.043,0.002-0.062,0.003
		l-0.062-1.688l0.335-0.312c0.043,0.039,0.088,0.076,0.134,0.111C65.967,22.143,65.899,22.775,65.961,23.395z M62.988,18.654
		l0.095-0.122c0.045,0.036,0.082,0.079,0.129,0.113c0.668,0.376,1.48,0.811,2.342,0.92c-0.045,0.118-0.08,0.245-0.1,0.384
		c-0.423,0.106-0.725,0.37-0.947,0.661l-1.051-0.494l-0.635-0.619L62.988,18.654z M60.795,30.784c-0.055,0-0.108,0.003-0.164,0.004
		c0.006-0.05,0.009-0.1,0.013-0.15L60.795,30.784z M60.336,31.794c0.299-0.005,0.597-0.02,0.895-0.02l0.186,0.002
		c0.006,0.063,0.01,0.127,0.021,0.188l-1.193,0.018C60.276,31.92,60.307,31.857,60.336,31.794z M61.235,27.714
		c0.118-0.151,0.238-0.29,0.359-0.418C61.512,27.476,61.385,27.608,61.235,27.714z M62.752,31.832
		c0.032-0.013,0.065-0.026,0.097-0.04c0.542,0.019,1.112,0.07,1.673,0.175l-1.771-0.011C62.752,31.914,62.752,31.873,62.752,31.832z
		 M64.452,30.936c-0.146-0.023-0.289-0.039-0.435-0.057c0.229-0.302,0.42-0.65,0.553-1.061l0.097-0.092
		C64.53,30.124,64.459,30.528,64.452,30.936z M67.109,19.846l0.302-0.664c0.012-0.007,0.023-0.011,0.034-0.018
		c-0.083,0.166-0.166,0.334-0.245,0.5C67.17,19.727,67.139,19.784,67.109,19.846z M67.801,15.049L67.801,15.049
		c0.435-0.153,0.9-0.375,1.33-0.736c0.1,0.049,0.186,0.113,0.291,0.156l0.103,0.03c0.207,0.037,0.409,0.057,0.604,0.057
		c0.181,0,0.354-0.018,0.521-0.051c-0.435,0.578-0.878,1.217-0.965,2.021C69.395,15.55,68.768,15.049,67.801,15.049z M68.743,16.852
		c-0.142-0.117-0.27-0.236-0.395-0.354c-0.038-0.132-0.086-0.262-0.146-0.39C68.422,16.19,68.62,16.395,68.743,16.852z
		 M68.102,20.095c0.207-0.433,0.412-0.851,0.654-1.233c0.013,1.059,0.002,1.75-1.026,1.98
		C67.859,20.594,67.983,20.343,68.102,20.095z M67.762,24.117l-0.016-2.259c1.287-0.216,1.754-0.914,1.92-1.692
		c0.504,1.052,1.395,1.766,2.672,2.086c0.017,0.122,0.047,0.245,0.092,0.367c-0.053,0.11-0.08,0.234-0.022,0.386
		c0.026,0.072,0.067,0.126,0.099,0.192c-0.08,0.155-0.146,0.313-0.188,0.478c-0.171-0.029-0.342-0.047-0.513-0.047l-0.237,0.014
		c-0.786,0.166-1.457,0.582-2.026,1.23L67.762,24.117z M74.295,13.122c0.133-0.18,0.215-0.393,0.267-0.625
		c0.683,0.571,1.054,1.113,1.063,1.613c0.01,0.563-0.422,1.174-1.256,1.814c-0.437-0.207-0.881-0.314-1.352-0.314
		c-0.2,0-0.395,0.029-0.586,0.063c0.251-0.528,0.4-1.124,0.4-1.801C73.357,13.788,73.935,13.604,74.295,13.122z M72.883,11.92
		c-0.06,0.04-0.111,0.083-0.172,0.124c-0.145,0.097-0.293,0.202-0.441,0.313c-0.014-0.165-0.053-0.323-0.1-0.482L72.883,11.92z
		 M71.514,15.018c0.072-0.096,0.142-0.197,0.213-0.295c-0.154,0.555-0.45,1.033-0.818,1.465c-0.046,0.022-0.092,0.045-0.138,0.068
		C70.907,15.864,71.167,15.481,71.514,15.018z M68.477,6.256c0.076-0.119,0.339-0.321,1.238-0.333l0.302-0.007
		c0.128-0.004,0.257-0.008,0.385-0.008c0.795,0,1.099,0.169,1.249,0.695c0.268,0.932-0.177,1.459-0.986,2.1
		c-0.201-0.865-0.57-1.819-1.846-1.819c-0.098,0-0.216,0.028-0.324,0.04C68.401,6.622,68.392,6.387,68.477,6.256z M68.006,7.971
		l1.982,1.963l0.862,1.51l-0.017,1.461l-1.195,0.104c-0.157-0.899-0.637-1.524-1.396-1.832c0.35-1.334-0.154-2.367-0.824-3.217
		L68.006,7.971z M67.5,12.95l-0.306,0.074l-0.134-0.002l-0.051,0.047l-3.201,0.778c0.048-0.209,0.123-0.374,0.218-0.514
		c0.235,0.052,0.47,0.104,0.722,0.122l0.045,0.003l0.045-0.005c0.99-0.109,1.77-0.387,2.385-0.874
		C67.303,12.715,67.408,12.826,67.5,12.95z M65.91,7.948l0.75,3.186l-2.348,0.799l-2.813-1.736l-0.473-0.535
		c0.158-0.161,0.294-0.369,0.305-0.642c0.014-0.407-0.259-0.714-0.502-0.912L65.91,7.948z M61.033,15.229
		c0.109,0.056,0.214,0.125,0.329,0.165c-0.011,0.177-0.006,0.36,0.028,0.552l-0.582-0.527l-0.005-0.09
		C60.881,15.299,60.958,15.266,61.033,15.229z M61.322,18.623c-0.028,0.106-0.048,0.214-0.065,0.321
		c-0.1-0.029-0.181-0.068-0.24-0.119C61.131,18.773,61.233,18.707,61.322,18.623z M61.34,20.532c0.049,0,0.097-0.009,0.145-0.014
		c0.01,0.018,0.023,0.033,0.034,0.051c-0.987,0.413-1.944,0.975-2.899,1.693c0.184-0.838,0.104-1.731-0.246-2.707
		c0.393-0.009,0.777-0.113,1.158-0.314c0.031,0.124,0.076,0.252,0.145,0.385l0.086,0.119C60.276,20.275,60.793,20.532,61.34,20.532z
		 M59.54,10.418C59.54,10.419,59.54,10.419,59.54,10.418c0.084,0.191,0.194,0.368,0.316,0.539c-0.223,0.293-0.354,0.642-0.417,1.03
		c-0.708-0.017-1.226-0.103-1.628-0.5l0.605-0.621L59.54,10.418z M58.618,7.907c0.059-0.006,0.115,0.011,0.172,0.016
		c-0.004,0.105,0.016,0.21,0.029,0.315l-0.861,0.861c-0.015,0.006-0.027,0.021-0.043,0.028c-1.554,0.623-2.646,0.223-3.988-1.59
		l0.531-0.563c0.385-0.008,0.756,0.271,1.164,0.586c0.492,0.381,1.051,0.812,1.758,0.812C57.799,8.373,58.208,8.214,58.618,7.907z
		 M55.853,4.579l0.586-0.686l1.349,0.902c-0.003,0.139-0.005,0.279-0.011,0.418c-0.201,0.109-0.422,0.285-0.376,0.596L57.26,5.883
		l0.104,0.386c0.053,0.192,0.167,0.288,0.325,0.339l0.198,0.455c-0.459,0.051-0.793-0.281-1.205-0.72
		c-0.365-0.388-0.774-0.808-1.325-0.975l0.153-0.297l0.302,0.03l-0.011-0.156l0.216-0.046L55.853,4.579z M53.749,0.999h2.008
		l0.002,0.902c-0.084-0.015-0.166-0.022-0.248-0.039l-0.033-0.013l-0.04-0.142l-0.101,0.086l-1.592-0.632
		C53.747,1.106,53.747,1.052,53.749,0.999z M53.519,5.712c-0.377,0.231-0.653,0.55-0.825,0.954l-0.167-0.08
		c-0.041-0.309-0.104-0.615-0.211-0.926c0.106-0.009,0.209-0.021,0.319-0.029c0.291-0.019,0.59-0.039,0.888-0.09
		C53.517,5.597,53.52,5.655,53.519,5.712z M51.997,4.682c0.08-0.047,0.155-0.049,0.213-0.049c0.041,0,0.092,0.014,0.137,0.02
		C52.23,4.661,52.114,4.67,51.997,4.682z M52.106,2.936l0.896,0.041l0.399,0.502l-0.347,0.303c-0.277-0.077-0.559-0.148-0.846-0.148
		c-0.359,0-0.651,0.126-0.897,0.335c0.069-0.202,0.118-0.419,0.146-0.653l0.1-0.035C51.756,3.182,51.937,3.065,52.106,2.936z
		 M51.731,0.999l-0.016,0.313l-0.496,0.442c-0.145-0.287-0.332-0.536-0.545-0.756L51.731,0.999L51.731,0.999z M48.725,0.999h0.249
		l0.894,1.499L49.775,4.09l-1.029-0.054l-0.075-2.682C48.692,1.237,48.712,1.119,48.725,0.999z M49.336,7.944
		c0.257-0.668,0.096-1.462-0.442-2.396c0.01-0.028,0.016-0.057,0.023-0.084c0.119,0.018,0.238,0.037,0.363,0.037
		c0.287,0,0.594-0.049,0.909-0.146l0.088-0.042l0.375,0.334l0.004,0.034l-0.03-0.015l0.144,0.933l0.002,0.014
		c0.214,1.424-0.55,1.936-1.816,2.652c-0.662,0.375-1.383,0.798-1.854,1.461c-0.251-0.325-0.316-0.733-0.332-1.258
		c0.066,0.011,0.129,0.027,0.201,0.033l0.082,0.006l0.08-0.02C48.313,9.191,49.055,8.672,49.336,7.944z M45.755,2.735
		c0.187-0.381,0.716-0.644,1.514-0.791c-0.351,0.89-0.301,1.775,0.157,2.644l0.075,0.106c0.079,0.084,0.165,0.151,0.248,0.223
		c0,0.014,0,0.028-0.001,0.042l-1.319,0.145C45.757,4.048,45.513,3.227,45.755,2.735z M46.123,6.208
		c0.35,0.217,0.723,0.332,1.115,0.332c0.162,0,0.329-0.029,0.497-0.067c-0.048,0.909-0.314,1.392-1.295,1.499l-0.197-0.199
		c-0.004-0.02-0.004-0.039-0.009-0.059c-0.203-0.547-0.59-0.867-0.976-1.104L46.123,6.208z M41.699,10.135
		c0.143-1.154,0.292-2.244,0.909-3.19l1.365,0.104l0.741,0.633l-0.755,3.32l-2.156,0.009c-0.076-0.008-0.148-0.029-0.223-0.044
		C41.621,10.691,41.665,10.415,41.699,10.135z M44.115,13.171c-0.299-0.089-0.623-0.143-0.978-0.161
		c0.016-0.081,0.024-0.162,0.033-0.243c0.258-0.03,0.508-0.09,0.751-0.173C43.966,12.797,44.026,12.992,44.115,13.171z
		 M42.007,14.322c0.414,0.366,0.951,0.555,1.637,0.555c0.019,0,0.041-0.001,0.061-0.001l0.233,0.184l-0.37,0.017l0.109,0.247
		c-1.071,0.518-2.079,0.462-3.098-0.168l-0.072-0.12l-0.132-0.006l-0.689-0.449l0.013,0.387c-0.303-0.055-0.524-0.156-0.7-0.303
		c0.116-0.203,0.203-0.418,0.265-0.642c0.504,0.327,1.044,0.558,1.655,0.558C41.287,14.581,41.647,14.489,42.007,14.322z
		 M41.373,12.473l0.045,0.404l-2.169-0.563c-0.368-1.052-0.875-2.137-1.569-3.36c0.29-0.054,0.56-0.15,0.818-0.268
		c-0.069,0.688,0.012,1.27,0.284,1.754c0.315,0.561,0.874,0.969,1.639,1.236c0.021,0.041,0.034,0.08,0.056,0.121l0.095,0.125
		C40.813,12.151,41.082,12.329,41.373,12.473z M37.743,11.247c-0.305-0.428-0.533-0.889-0.689-1.381
		C37.317,10.35,37.54,10.805,37.743,11.247z M40.807,9.255c0.012-0.256,0.049-0.506,0.131-0.747
		C40.887,8.756,40.843,9.005,40.807,9.255z M40.665,6.434c0.192-0.092,0.385-0.193,0.572-0.309l0.13,0.123l-0.114,0.074
		l-1.004,0.323C40.369,6.578,40.506,6.51,40.665,6.434z M39.778,9.688c0.021,0.075,0.044,0.15,0.066,0.227
		c0.013,0.1,0.02,0.197,0.041,0.298c-0.082-0.085-0.175-0.164-0.231-0.263c-0.167-0.298-0.214-0.693-0.166-1.174
		C39.602,9.063,39.689,9.372,39.778,9.688z M37.596,4.678c0.49,0,1.076,0.188,1.689,0.439c-0.27,0.082-0.525,0.218-0.694,0.482
		c-0.221,0.346-0.237,0.803-0.054,1.404c-0.622,0.001-1.39,0.022-2.039,0.506c-0.205-0.14-0.42-0.25-0.651-0.326
		C36.202,4.685,37.17,4.678,37.596,4.678z M34.752,9.297c0.204-0.352,0.404-0.684,0.616-0.992l0.444,0.412
		c0.123,1.574,0.768,2.935,1.927,4.059l0.011,1.24l-0.176-0.007c-0.453-0.911-1.029-1.763-1.875-1.763
		c-0.174,0-0.348,0.039-0.515,0.115c-0.664,0.306-0.892,1.19-1.113,2.046c-0.051,0.198-0.104,0.392-0.16,0.579
		c-0.57-0.033-0.915-0.404-1.377-1.021c-0.195-0.26-0.408-0.516-0.649-0.751l0.08-0.237l-0.285,0.005l-0.515-0.829
		C33.103,12.057,33.994,10.602,34.752,9.297z M31.791,14.642c-0.109-0.122-0.217-0.255-0.324-0.394
		c0.002-0.004,0.004-0.007,0.006-0.01c0.086,0.107,0.172,0.209,0.26,0.326C31.752,14.59,31.772,14.616,31.791,14.642z
		 M30.722,15.342c0.055-0.071,0.108-0.145,0.163-0.216c0.583,0.702,1.386,1.413,2.557,1.413c0.257,0,0.528-0.033,0.804-0.102
		l0.135-0.055c0.016-0.009,0.03-0.021,0.045-0.031l0.25,0.251c-0.193,0.304-0.417,0.598-0.667,0.899
		c-0.568,0.689-1.199,1.466-1.32,2.544c-0.631,0.434-0.861,1.029-0.914,1.649c-0.029,0.014-0.054,0.033-0.082,0.047l-1.131-0.639
		l-0.773-0.813L29.76,17.8l0.012-0.01l-0.015-0.238v-0.021C29.706,16.67,30.176,16.054,30.722,15.342z M30.552,30.033
		c-1.238,1.444-1.417,3.341-0.637,4.962c-0.192,0.002-0.384,0.006-0.573,0.022L29.311,35l-0.16,0.028l-0.021,0.003
		c-0.285,0.049-0.575,0.074-0.861,0.074c-1.409,0-2.661-0.585-3.959-1.254l0.088-0.073l0.146-0.046l0.037-0.105l1.013-0.844
		c1.828-1.151,1.571-2.832,1.354-4.188c-0.025-0.154-0.048-0.309-0.07-0.462c0.287,0.043,0.565,0.07,0.824,0.07
		c1.381,0,2.252-0.598,2.884-1.424C31.23,28.102,31.443,29.011,30.552,30.033z M29.141,36.125c-0.09-0.021-0.181-0.041-0.271-0.062
		c0.061-0.007,0.122-0.006,0.182-0.014C29.081,36.078,29.111,36.098,29.141,36.125z M26.018,25.272
		c-0.114,0.186-0.209,0.384-0.286,0.589c-0.149-0.108-0.308-0.206-0.478-0.292c0.007-0.063,0.004-0.129,0.004-0.193
		C25.522,25.358,25.775,25.323,26.018,25.272z M25.823,24.295l0.02-0.01c0,0.002,0,0.004,0.001,0.006
		C25.837,24.294,25.831,24.295,25.823,24.295z M26.026,29.497c0.006-0.045,0.014-0.088,0.021-0.133
		c0.128,1.018,0.059,1.759-0.696,2.368l-0.034-0.046C25.797,31,25.919,30.237,26.026,29.497z M29.596,23.504
		c0.112-0.311,0.223-0.611,0.36-0.879c0.16,0.107,0.327,0.201,0.5,0.283c-0.121,0.16-0.246,0.315-0.366,0.477
		c-0.332,0.445-0.661,0.88-1.003,1.291C29.309,24.293,29.461,23.881,29.596,23.504z M28.146,14.352
		c-0.021,0.005-0.04,0.01-0.061,0.014c-0.013-0.008-0.025-0.016-0.038-0.023c0.439-0.254,0.943-0.346,1.534-0.365
		C29.123,14.128,28.643,14.241,28.146,14.352z M30.893,23.982c0.013-0.017,0.026-0.034,0.04-0.052
		c-0.006,0.016-0.014,0.031-0.02,0.047c-0.156,0.382-0.308,0.749-0.47,1.094l-0.583,0.292c0.07,0.141,0.142,0.275,0.212,0.412
		c-0.508,0.833-1.174,1.402-2.313,1.423C29.088,26.389,30.005,25.173,30.893,23.982z M27.449,26.21l0.158-0.305
		c0.203-0.068,0.386-0.15,0.548-0.25C27.933,25.856,27.699,26.042,27.449,26.21z M28.842,12.319c0.251-0.024,0.506-0.062,0.76-0.096
		c-0.014,0.262,0.014,0.511,0.071,0.747c-0.965,0.013-1.925,0.181-2.767,0.992l-0.876,0.04
		C26.339,12.645,27.291,12.465,28.842,12.319z M25.583,15.27c0.369,0.219,0.792,0.339,1.274,0.339c0.051,0,0.106-0.003,0.161-0.007
		l0.54,1.392l-0.328,0.01l-2.111-0.021c-0.049-0.185-0.12-0.362-0.234-0.521L25.583,15.27z M26.518,18.91
		c-0.253,0.318-0.675,0.559-1.242,0.854c-0.013,0.006-0.026,0.016-0.039,0.021c0.245-0.232,0.549-0.428,0.876-0.637
		c0.12-0.077,0.241-0.154,0.361-0.235C26.489,18.911,26.504,18.911,26.518,18.91z M25.03,18.667
		c-0.049,0.035-0.094,0.08-0.143,0.117c0.014-0.051,0.029-0.1,0.043-0.152C24.963,18.646,24.998,18.653,25.03,18.667z
		 M24.879,21.145c0.25-0.18,0.544-0.333,0.857-0.495c0.762-0.395,1.734-0.903,1.985-2.001c0.067-0.027,0.137-0.051,0.201-0.082
		c-0.063,0.582-0.023,1.131,0.149,1.668c0.062,0.176,0.134,0.347,0.216,0.514c-0.21,0.312-0.359,0.661-0.494,0.99
		c-0.345,0.844-0.583,1.283-1.325,1.274l-0.116-0.106l-0.184,0.092l-0.405-0.033l0.002,0.238l-1.251,0.633l-0.625-0.569
		c0.007-0.097,0.004-0.2-0.018-0.311C24.321,22.633,24.916,22.048,24.879,21.145z M21.625,19.415
		c0.316-1.533,0.612-2.396,2.124-2.404c-0.003,0.073-0.006,0.147-0.01,0.221c-0.879,0.742-0.904,1.754-0.915,2.582
		c-0.002,0.17-0.01,0.34-0.02,0.508l-0.772,0.793c-0.152,0-0.303-0.009-0.454-0.02c-0.047-0.326-0.09-0.654-0.114-0.985
		C21.523,19.879,21.576,19.647,21.625,19.415z M20.626,24.091c0.113,0.033,0.227,0.061,0.342,0.061c0.087,0,0.171-0.032,0.257-0.052
		c0.341,0.236,0.713,0.358,1.111,0.358c0.256,0,0.522-0.063,0.793-0.163c0.167,0.333,0.418,0.602,0.756,0.801l-0.006,0.062
		c-1.162-0.124-2.294,0.094-3.579,0.677c-0.066-0.082-0.133-0.156-0.202-0.226l-0.032-0.088l-0.231-0.212L20.626,24.091z
		 M19.781,27.973l0.264-0.018l0.048,0.037l0.193-0.053l0.313-0.021l0.022-0.09c0.334-0.111,0.66-0.242,0.974-0.377
		c0.855-0.367,1.68-0.68,2.505-0.473l1.356,0.687c-0.248,0.546-0.338,1.122-0.42,1.687c-0.078,0.533-0.158,1.039-0.371,1.477
		l-1.328-1.747l-0.441,2.702c-0.064-0.033-0.128-0.064-0.194-0.1c-0.402-0.213-0.857-0.455-1.357-0.455
		c-0.483,0-0.913,0.238-1.288,0.684c-0.499-0.132-0.853-0.346-1.045-0.645c-0.233-0.361-0.271-0.891-0.112-1.576
		c0.003-0.006,0.004-0.012,0.007-0.018l0.561-1.113l0.318,0.221L19.781,27.973z M23.117,34.362c-1.288-0.48-2.423-0.989-3.396-1.518
		c0.117,0.033,0.227,0.072,0.354,0.098l2.656,1.223C22.86,34.229,22.989,34.295,23.117,34.362z M18.806,26.118
		c-0.118-0.053-0.236-0.085-0.352-0.109l0.355-0.053L18.806,26.118z M19.423,24.108l-0.418,0.645l-0.167-0.121l-0.007,0.311
		l-0.893,0.133C18.377,24.747,18.865,24.424,19.423,24.108z M18.224,27.698l-0.01,0.03c-0.031,0.146-0.046,0.292-0.056,0.44
		c-0.207-0.29-0.347-0.535-0.383-0.781L18.224,27.698z M16.837,26.038c0.014,0.158,0.041,0.314,0.08,0.47
		c-0.423,1.085,0.15,1.878,0.584,2.462c0.161,0.217,0.304,0.422,0.407,0.628c-0.184,0.896-0.104,1.646,0.264,2.214
		c0.044,0.068,0.104,0.125,0.156,0.188c-1.711-1.173-2.643-2.409-2.643-3.61C15.686,27.61,16.096,26.818,16.837,26.038z
		 M22.232,80.174l-6.5-40.375l4.625,2.875l6,42.25L22.232,80.174z M31.982,86.799l-4.125-41.75l7.833,2.25l1.583,40.833
		L31.982,86.799z M34.517,35.296c-0.152,0.005-0.305,0.023-0.458,0.034c0.099-0.074,0.198-0.154,0.295-0.245
		c0.913-0.858,1.399-0.95,1.566-0.95c0.087,0,0.269,0,0.427,0.436c0.172,0.475,0.206,0.834,0.094,1.012
		c-0.175,0.279-0.836,0.346-1.42,0.403c-0.01,0.001-0.02,0.003-0.029,0.003l0.357-0.715L34.517,35.296z M37.872,36.784
		c-0.192,0.013-0.383,0.025-0.576,0.043c-0.35,0.029-0.701,0.062-1.047,0.062c-0.119,0-0.226-0.008-0.334-0.016
		c0.556-0.102,1.078-0.287,1.374-0.756c0.292-0.465,0.292-1.082-0.001-1.887c-0.346-0.951-1.005-1.094-1.367-1.094
		c-0.631,0-1.389,0.41-2.251,1.222c-0.278,0.262-0.574,0.42-0.877,0.522l-0.287,0.082c-0.464,0.101-0.944,0.085-1.418,0.062
		c-0.896-1.364-0.861-3.075,0.22-4.336c1.483-1.7,0.718-3.327-0.104-4.9c0.237-0.467,0.44-0.957,0.634-1.433
		c0.196-0.482,0.388-0.934,0.602-1.355c0.824,0.043,1.417,0.525,2.09,1.096c0.361,0.306,0.744,0.602,1.162,0.848
		c-0.806,0.074-1.438,0.343-1.86,0.825c-0.853,0.976-0.65,2.489-0.517,3.492l0.051,0.399c0.191,1.746,1.66,1.777,2.732,1.801
		c0.697,0.016,1.353,0.033,1.75,0.371l0.092,0.137l0.069,0.002l0.226,0.203l0.183-0.194l0.233,0.005L37.872,36.784z M38.909,30.284
		c-0.042-0.008-0.087-0.018-0.13-0.026c-0.093-0.243-0.214-0.476-0.325-0.683c-0.196-0.365-0.419-0.779-0.333-0.984
		c0.033-0.078,0.178-0.279,0.829-0.471l0.331-0.098l0.002-0.021l0.761-0.012l0.729,0.75l0.012,1.785
		c-0.458-0.06-0.879,0.001-1.26,0.182c-0.143-0.125-0.281-0.254-0.444-0.355L38.909,30.284z M39.526,32.84
		c0.111,0.85-0.02,1.657-0.395,2.434L39.526,32.84z M39.797,37.073l-0.552-0.119c1.214-1.518,1.585-3.182,1.128-4.96l0.405-0.001
		c0.113,1.059,0.72,1.852,1.267,2.562c0.192,0.25,0.368,0.493,0.53,0.738C41.5,35.573,40.464,36.024,39.797,37.073z M43.263,36.881
		l3.57,0.859l-0.016,0.097l0.514,0.023l0.115,0.028c-0.288,0.004-0.575,0.014-0.863,0.014c-1.894,0-3.45-0.132-4.871-0.398
		L43.263,36.881z M52.357,89.132h-7.5V47.633h7.5V89.132z M55.672,37.784l-0.125-0.003c-1.424-0.08-2.854-0.056-4.282-0.009
		c1.088-0.506,1.497-1.676,1.837-2.666c0.107-0.311,0.214-0.604,0.333-0.879l2.375,1.789c0.153,0.44,0.438,0.758,0.858,0.9
		C56.534,37.62,56.182,37.784,55.672,37.784z M57.39,37.779c0.086-0.171,0.163-0.359,0.218-0.589l1.012,0.477
		C58.213,37.706,57.805,37.745,57.39,37.779z M57.698,36.126l-0.016-0.048c-0.012-0.087-0.021-0.173-0.033-0.259l-0.033-0.121
		c-0.035-0.083-0.074-0.153-0.109-0.232c0.021-0.1,0.037-0.201,0.052-0.303l0.194-0.078l-0.129-0.349l0.035-0.39l-0.186-0.016
		l-0.492-1.328l1.803-0.006v0.006l0.481-0.007l0.233-0.001l0.002-0.002l2.725-0.041l3.031,0.021l0.273,0.01l-0.624,1.156
		c-0.567,0.352-1.332,0.397-2.146,0.438c-1.393,0.072-3.094,0.164-3.832,2.129L57.698,36.126z M64.899,87.133l-5.292,1.333
		l1.583-40.833l7.833-2.25L64.899,87.133z M66.906,35.746c-0.001-0.185-0.024-0.362-0.088-0.528c-0.08-0.207-0.21-0.372-0.354-0.521
		c0.305-0.444,0.584-1.021,0.547-1.702c0.015-0.001,0.029-0.001,0.043-0.001l1.613,1.625l0.002-0.021l0.553,0.543L66.906,35.746z
		 M69.315,32.804l-0.081-0.075c-0.047-0.036-0.099-0.071-0.146-0.106c0.026-0.007,0.052-0.009,0.069-0.009
		c0.117,0,0.267,0.037,0.425,0.084c0.016,0.125,0.034,0.252,0.057,0.379C69.51,32.986,69.393,32.896,69.315,32.804z M69.73,28.402
		l0.724-2.428l1.5-0.75c0.18,0.361,0.5,0.592,0.938,0.683l0.039,0.053l0.253,0.006l0.39,0.023l0.003-0.013l0.024,0.001
		c0.062,0.137,0.121,0.275,0.195,0.403c-0.326-0.065-0.638-0.104-0.929-0.104c-1.065,0-2.464,0.467-3.114,2.678L69.73,28.402z
		 M70.742,32.995l0.001,0.428c-0.042-0.145-0.074-0.291-0.103-0.439C70.674,32.989,70.709,32.991,70.742,32.995z M70.526,31.27
		c0-0.287,0.002-0.574,0.023-0.846c0.043-0.011,0.084-0.029,0.127-0.043l0.031,1.01C70.649,31.348,70.588,31.31,70.526,31.27z
		 M74.649,80.508l-4.125,4.75l6-42.25l4.625-2.875L74.649,80.508z M81.731,29.17c-0.158-0.848-0.757-1.79-1.818-2.851l1.023-2.387
		c-0.001,0.679-0.133,1.33-0.372,1.932c0.849,0.836,1.3,1.689,1.3,2.524C81.864,28.647,81.815,28.909,81.731,29.17z"/>
</g>
<g>
</g>
<g>
</g>
<g>
</g>
<g>
</g>
<g>
</g>
<g>
</g>
<g>
</g>
<g>
</g>
<g>
</g>
<g>
</g>
<g>
</g>
<g>
</g>
<g>
</g>
<g>
</g>
<g>
</g>
</svg>
