<?xml version="1.0" encoding="iso-8859-1"?>
<!-- Generator: Adobe Illustrator 16.0.0, SVG Export Plug-In . SVG Version: 6.00 Build 0)  -->
<!DOCTYPE svg PUBLIC "-//W3C//DTD SVG 1.1//EN" "http://www.w3.org/Graphics/SVG/1.1/DTD/svg11.dtd">
<svg version="1.1" id="Capa_1" xmlns="http://www.w3.org/2000/svg" xmlns:xlink="http://www.w3.org/1999/xlink" x="0px" y="0px"
	 width="96.398px" height="96.399px" viewBox="0 0 96.398 96.399" style="enable-background:new 0 0 96.398 96.399;"
	 xml:space="preserve">
<g>
	<g>
		<polygon points="0,66.489 8.885,66.489 8.885,53.269 23.664,53.269 23.664,44.96 8.885,44.96 8.885,38.428 23.674,38.428 
			23.674,29.909 0,29.909 		"/>
		<path d="M78.266,29.909H64.469v36.58h13.797c12.072,0,18.133-9.092,18.133-18.238C96.398,39.106,90.338,29.909,78.266,29.909z
			 M78.266,57.97h-4.912V38.375h4.912c6.166,0,9.301,5.068,9.301,9.875C87.566,53.059,84.43,57.97,78.266,57.97z"/>
		<path d="M44.135,29.59c-10.279,0-18.61,8.331-18.61,18.609c0,10.276,8.331,18.608,18.61,18.608
			c10.277,0,18.608-8.332,18.608-18.608C62.743,37.921,54.412,29.59,44.135,29.59z M44.135,58.409
			c-5.641,0-10.212-4.57-10.212-10.209c0-5.641,4.572-10.211,10.212-10.211c5.639,0,10.208,4.572,10.208,10.211
			C54.344,53.838,49.774,58.409,44.135,58.409z"/>
	</g>
</g>
<g>
</g>
<g>
</g>
<g>
</g>
<g>
</g>
<g>
</g>
<g>
</g>
<g>
</g>
<g>
</g>
<g>
</g>
<g>
</g>
<g>
</g>
<g>
</g>
<g>
</g>
<g>
</g>
<g>
</g>
</svg>
