<?xml version="1.0" encoding="iso-8859-1"?>
<!-- Generator: Adobe Illustrator 16.0.0, SVG Export Plug-In . SVG Version: 6.00 Build 0)  -->
<!DOCTYPE svg PUBLIC "-//W3C//DTD SVG 1.1//EN" "http://www.w3.org/Graphics/SVG/1.1/DTD/svg11.dtd">
<svg version="1.1" id="Capa_1" xmlns="http://www.w3.org/2000/svg" xmlns:xlink="http://www.w3.org/1999/xlink" x="0px" y="0px"
	 width="97.829px" height="97.829px" viewBox="0 0 97.829 97.829" style="enable-background:new 0 0 97.829 97.829;"
	 xml:space="preserve">
<g>
	<g>
		<path d="M65.326,28.397c0.002,0.003,0.002,0.003,0.002,0.003c0.006,0.002,0.01,0.004,0.016,0.004L65.326,28.397z"/>
		<path d="M67.404,33.136c-0.314-1.753-1.003-3.325-2.076-4.735c-0.138-0.029-0.224-0.098-0.19-0.26
			c-1.068-0.899-2.228-1.343-3.5-0.477c-0.729,0.498-1.509,0.887-2.263,1.328c-2.973,1.749-5.933,3.519-8.996,5.104
			C49.256,34.687,47,36.172,47,36.172s-0.051-0.943-0.037-1.479c0.112-4.427,0.463-8.835,1.056-13.225
			c0.409-3.029,0.896-6.033,2.088-8.877c0.366-0.873,0.794-1.711,1.396-2.447c0.926-1.128,2.033-1.513,2.99-1.057
			c0.992,0.474,1.398,1.47,1.189,2.926c0.018,0.49-0.188,0.925-0.368,1.359c-0.498,1.203-1.198,2.326-1.485,3.607
			c-0.605,2.712,0.09,4.566,2.955,5.258c4.098,0.701,7.646-2.976,8.508-8.184c0.646-3.915,0.123-7.617-2.407-10.85
			c-3.073-2.804-6.71-3.689-10.722-2.96c-5.545,1.011-8.878,4.85-11.429,9.461c-2.292,4.144-3.447,8.705-4.214,13.356
			c-0.865,5.236-1.316,10.524-1.821,15.801l-0.151,1.716c-0.716,0.205-2.671,0.755-3.283,1.201
			c-1.026,0.748-1.238,1.776-0.376,2.721c0.946,1.036,3.11,1.453,3.11,1.453c-0.138,2.527-0.235,6.107-0.271,8.641
			c-0.053,3.761-0.04,7.521-0.057,11.28c0.003,0.18,0.004,0.358,0.006,0.538c0.01,0.632,0.021,1.262,0.032,1.896
			c0.351,4.22,0.638,8.442,1.408,12.617c0.782,4.25,1.864,8.388,4.266,12.044c2.694,4.106,6.175,5.587,10.762,4.531
			c4.316-0.994,7.152-3.812,8.993-7.71c1.5-3.179,2.053-6.583,2.432-10.062c0.808-7.443-0.395-14.515-3.625-21.231
			c-2.532-5.267-5.847-9.937-10.782-13.271c-0.747-0.448-0.917-1.22,0.347-1.583c4.268-1.18,8.52-2.402,12.619-4.092
			c2.045-0.843,4.072-1.723,5.892-3.033C67.225,35.654,67.664,34.583,67.404,33.136z M51.276,61.784
			c1.695,4.915,2.154,9.975,1.5,15.136c-0.129,1.021-0.519,1.953-0.927,2.879c-0.346,0.785-0.967,1.271-1.837,1.276
			c-0.82,0.003-1.088-0.696-1.368-1.305c-0.467-1.016-0.684-2.105-0.885-3.198c-1.399-7.567-1.213-15.232-1.295-22.932
			C48.609,56.056,50.236,58.767,51.276,61.784z"/>
	</g>
</g>
<g>
</g>
<g>
</g>
<g>
</g>
<g>
</g>
<g>
</g>
<g>
</g>
<g>
</g>
<g>
</g>
<g>
</g>
<g>
</g>
<g>
</g>
<g>
</g>
<g>
</g>
<g>
</g>
<g>
</g>
</svg>
