<?xml version="1.0" encoding="iso-8859-1"?>
<!-- Generator: Adobe Illustrator 16.0.0, SVG Export Plug-In . SVG Version: 6.00 Build 0)  -->
<!DOCTYPE svg PUBLIC "-//W3C//DTD SVG 1.1//EN" "http://www.w3.org/Graphics/SVG/1.1/DTD/svg11.dtd">
<svg version="1.1" id="Capa_1" xmlns="http://www.w3.org/2000/svg" xmlns:xlink="http://www.w3.org/1999/xlink" x="0px" y="0px"
	 width="98.366px" height="98.365px" viewBox="0 0 98.366 98.365" style="enable-background:new 0 0 98.366 98.365;"
	 xml:space="preserve">
<g>
	<g>
		<path d="M74.51,40.515c-0.699-3.834-3-6.337-6.285-6.957l1.631-0.463c5.525-1.572,7.67-5.052,6.559-10.642
			c-0.981-4.932-1.961-9.863-2.914-14.802C72.276,1.327,68.522,0,65.591,0c-1.043,0-6.084,1.331-7.388,1.695l-29.641,8.332
			c-2.033,0.573-4.549,1.552-5.965,4.062c-1.447,2.559-0.908,5.354-0.375,7.239L42.27,91.973c1.146,4.002,4.043,6.393,7.754,6.393
			c0.568,0,1.158-0.061,1.756-0.18c2.666-0.533,8.729-2.184,10.709-2.711c4.42-1.183,6.777-5.037,5.867-9.592
			c-0.279-1.406-0.57-2.812-0.859-4.216c-0.366-1.772-3.715-18.885-5.035-25.717l1.05-0.245c1.664-0.389,3.332-0.775,4.989-1.178
			c4.925-1.189,7.289-4.599,6.654-9.621C74.965,43.438,74.776,41.969,74.51,40.515z M63.516,51.203
			c-2.787,0.676-5.582,1.307-8.375,1.969c-0.609,0.145-1.203,0.342-1.926,0.551c1.6,8.279,3.18,16.471,4.776,24.656
			c0.625,3.191,1.31,6.37,1.945,9.559c0.426,2.125-0.461,3.683-2.541,4.238c-2.154,0.576-4.336,1.055-6.523,1.493
			c-2.075,0.413-3.505-0.629-4.173-2.964c-1.869-6.559-3.73-13.119-5.592-19.68c-4.818-16.983-9.641-33.967-14.453-50.953
			c-0.955-3.385-0.221-4.658,3.156-5.61c9.885-2.776,19.758-5.557,29.639-8.33c3.517-0.987,4.924-0.076,5.627,3.548
			c0.955,4.946,1.935,9.887,2.92,14.827c0.638,3.205-0.098,4.398-3.301,5.31c-5.451,1.551-10.897,3.099-16.542,4.703
			c0.695,2.37,1.318,4.501,1.986,6.788c3.84-0.688,7.584-1.374,11.338-2.026c2.69-0.469,4.106,0.514,4.6,3.215
			c0.252,1.379,0.431,2.772,0.607,4.164C67.02,49.312,66.157,50.564,63.516,51.203z"/>
	</g>
</g>
<g>
</g>
<g>
</g>
<g>
</g>
<g>
</g>
<g>
</g>
<g>
</g>
<g>
</g>
<g>
</g>
<g>
</g>
<g>
</g>
<g>
</g>
<g>
</g>
<g>
</g>
<g>
</g>
<g>
</g>
</svg>
