<?xml version="1.0" encoding="iso-8859-1"?>
<!-- Generator: Adobe Illustrator 16.0.0, SVG Export Plug-In . SVG Version: 6.00 Build 0)  -->
<!DOCTYPE svg PUBLIC "-//W3C//DTD SVG 1.1//EN" "http://www.w3.org/Graphics/SVG/1.1/DTD/svg11.dtd">
<svg version="1.1" id="Capa_1" xmlns="http://www.w3.org/2000/svg" xmlns:xlink="http://www.w3.org/1999/xlink" x="0px" y="0px"
	 width="97.542px" height="97.542px" viewBox="0 0 97.542 97.542" style="enable-background:new 0 0 97.542 97.542;"
	 xml:space="preserve">
<g>
	<path d="M96.799,38.266l0.743-0.604l-2.011-0.958l-52.937,42.95c0,0-0.745,0.541-1.563,0.541c-0.818,0-1.235-0.271-1.235-0.271
		L22.529,68.974c6.126-1.09,11.246-5.093,13.875-10.525l4.233,7.126c0,0,0.208,0.286,0.567,0.276c0.482,0,0.703-0.47,0.703-0.47
		L67.09,5.601l-1.335-2.011l-0.519,1.23L51.094,38.394l-4.862-4.862c-2.853-2.853-7.479-2.853-10.331,0l-3.106,3.108
		c0,0-5.083-5.678-13.642-5.678C8.574,30.961,0,39.538,0,50.115c0,8.037,4.948,14.916,11.964,17.759l23.937,23.938
		c1.428,1.426,3.296,2.141,5.166,2.141s3.738-0.713,5.165-2.141l23.976-23.975c2.414-2.414,2.785-6.098,1.112-8.9l0.014-0.01
		L96.799,38.266z M7.031,62.238C3.794,59,2.01,54.695,2.01,50.115c0-4.579,1.784-8.884,5.021-12.123
		c3.238-3.237,7.544-5.021,12.122-5.021c4.579,0,8.885,1.784,12.123,5.021c3.237,3.238,5.021,7.543,5.021,12.123
		s-1.784,8.884-5.021,12.123c-3.239,3.238-7.544,5.021-12.123,5.021C14.575,67.259,10.27,65.476,7.031,62.238z"/>
</g>
<g>
</g>
<g>
</g>
<g>
</g>
<g>
</g>
<g>
</g>
<g>
</g>
<g>
</g>
<g>
</g>
<g>
</g>
<g>
</g>
<g>
</g>
<g>
</g>
<g>
</g>
<g>
</g>
<g>
</g>
</svg>
