<?xml version="1.0" encoding="iso-8859-1"?>
<!-- Generator: Adobe Illustrator 16.0.0, SVG Export Plug-In . SVG Version: 6.00 Build 0)  -->
<!DOCTYPE svg PUBLIC "-//W3C//DTD SVG 1.1//EN" "http://www.w3.org/Graphics/SVG/1.1/DTD/svg11.dtd">
<svg version="1.1" id="Capa_1" xmlns="http://www.w3.org/2000/svg" xmlns:xlink="http://www.w3.org/1999/xlink" x="0px" y="0px"
	 width="97.428px" height="97.427px" viewBox="0 0 97.428 97.427" style="enable-background:new 0 0 97.428 97.427;"
	 xml:space="preserve">
<g>
	<g>
		<polygon points="0,47.131 5.652,47.131 5.652,38.72 15.053,38.72 15.053,33.433 5.652,33.433 5.652,29.279 15.06,29.279 
			15.06,23.859 0,23.859 		"/>
		<path d="M34.508,39.651V23.859h-5.684v15.758c0,3.425-6.583,3.489-6.583,0V23.859h-5.684v15.792c0,5.25,4.454,7.812,8.942,7.812
			C29.987,47.496,34.508,44.902,34.508,39.651z"/>
		<polygon points="41.656,35.794 49.602,47.129 54.056,47.129 54.056,23.859 48.438,23.859 48.438,35.494 40.393,23.859 
			36.004,23.859 36.004,47.129 41.656,47.129 		"/>
		<polygon points="61.217,35.794 69.163,47.129 73.617,47.129 73.617,23.859 68,23.859 68,35.494 59.955,23.859 55.566,23.859 
			55.566,47.129 61.217,47.129 		"/>
		<polygon points="83.035,47.131 88.72,47.131 88.72,37.722 97.428,23.859 90.781,23.859 88.652,27.284 85.895,32.337 
			83.268,27.582 80.941,23.859 74.367,23.859 83.035,37.756 		"/>
		<path d="M30.855,55.175v4.838h12.444v-3.024h-4.214v-0.497l4.214-2.595v-3.619l-4.515,3.05
			C36.952,49.505,30.855,50.235,30.855,55.175z M33.771,55.248c0-1.848,2.559-1.83,2.559,0v1.741h-2.559V55.248z"/>
		<path d="M53.531,50.279h-8.775v23.27h8.775c7.68,0,11.535-5.783,11.535-11.603C65.066,56.13,61.211,50.279,53.531,50.279z
			 M53.531,68.13h-3.125V55.666h3.125c3.922,0,5.918,3.223,5.918,6.281S57.453,68.13,53.531,68.13z"/>
		<rect x="66.188" y="50.279" width="5.684" height="23.27"/>
		<polygon points="79.097,64.673 88.697,64.673 88.697,59.155 79.097,59.155 79.097,55.763 88.704,55.763 88.704,50.279 
			73.379,50.279 73.379,73.548 88.738,73.548 88.738,68.065 79.097,68.065 		"/>
		<path d="M37.067,60.753c-3.539,0-6.408,2.869-6.408,6.406c0,3.541,2.87,6.409,6.408,6.409c3.541,0,6.409-2.869,6.409-6.409
			C43.476,63.621,40.608,60.753,37.067,60.753z M37.067,70.675c-1.942,0-3.515-1.573-3.515-3.517c0-1.942,1.573-3.517,3.515-3.517
			c1.943,0,3.517,1.574,3.517,3.517C40.584,69.103,39.01,70.675,37.067,70.675z"/>
	</g>
</g>
<g>
</g>
<g>
</g>
<g>
</g>
<g>
</g>
<g>
</g>
<g>
</g>
<g>
</g>
<g>
</g>
<g>
</g>
<g>
</g>
<g>
</g>
<g>
</g>
<g>
</g>
<g>
</g>
<g>
</g>
</svg>
