<?xml version="1.0" encoding="iso-8859-1"?>
<!-- Generator: Adobe Illustrator 16.0.0, SVG Export Plug-In . SVG Version: 6.00 Build 0)  -->
<!DOCTYPE svg PUBLIC "-//W3C//DTD SVG 1.1//EN" "http://www.w3.org/Graphics/SVG/1.1/DTD/svg11.dtd">
<svg version="1.1" id="Capa_1" xmlns="http://www.w3.org/2000/svg" xmlns:xlink="http://www.w3.org/1999/xlink" x="0px" y="0px"
	 width="98.954px" height="98.954px" viewBox="0 0 98.954 98.954" style="enable-background:new 0 0 98.954 98.954;"
	 xml:space="preserve">
<g>
	<g>
		<path d="M59.15,58.645v-0.152c0-0.02,0.002-0.04,0.002-0.061V47.614c0-0.081-0.008-0.156-0.014-0.234l0.002-0.002v-0.017v-0.03
			c-0.01-8.661-5.834-14.479-14.495-14.479h-0.002c-7.993,0-14.497,6.502-14.497,14.492c0,7.993,6,14.245,13.993,14.245
			c4.107,0,7.392-1.928,7.392-4.962v-4.72c-0.39,0.303-2.682,3.411-6.887,3.411c-4.397,0-7.972-3.576-7.972-7.974
			c0-4.396,3.575-7.972,7.972-7.972c7.388,0,7.968,6.097,7.973,7.962v0.026c0,0.078,0.005,0.155,0.009,0.233
			c0,0.007-0.002,0.012-0.002,0.02v9.024c0,6.059,7.971,5.064,7.971,5.064S59.15,60.73,59.15,58.645z"/>
		<path d="M98.954,61.703c0,0-1.447-0.973-1.447-3.059v-0.152c0-0.02,0.003-0.04,0.003-0.061V47.614
			c0-0.081-0.008-0.156-0.015-0.234l0.002-0.002v-0.017v-0.03c-0.011-8.661-5.835-14.479-14.494-14.479h-0.002
			c-7.993,0-14.495,6.502-14.495,14.492c0,7.993,5.998,14.245,13.991,14.245c4.106,0,7.392-1.928,7.392-4.962v-4.72
			c-0.392,0.303-2.682,3.411-6.887,3.411c-4.396,0-7.971-3.576-7.971-7.974c0-4.396,3.574-7.972,7.969-7.972
			c7.391,0,7.971,6.097,7.973,7.962v0.026c0,0.078,0.004,0.155,0.01,0.233v0.02v9.024C90.986,62.695,98.954,61.703,98.954,61.703z"
			/>
		<path d="M63.881,34.753c-1.932,0-3.5,1.568-3.5,3.501v20.057c0,1.933,1.568,3.498,3.5,3.498c1.936,0,3.5-1.565,3.5-3.498V38.254
			C67.381,36.322,65.814,34.753,63.881,34.753z"/>
		<path d="M63.93,33.373c1.957,0,3.545-1.585,3.545-3.543c0-1.961-1.588-3.549-3.545-3.549c-1.961,0-3.551,1.588-3.551,3.549
			C60.379,31.788,61.969,33.373,63.93,33.373z"/>
		<path d="M29.117,47.429v-0.028c-0.009-8.701-5.861-14.545-14.556-14.545C6.531,32.856,0,39.389,0,47.413
			c0,8.028,5.973,14.31,13.662,14.31c4.603,0,7.814-2.311,7.814-4.682v-4.904c-0.392,0.305-2.694,3.284-6.916,3.284
			c-4.415,0-8.01-3.591-8.01-8.008c0-4.414,3.595-8.005,8.01-8.005c7.42,0,8.005,6.12,8.005,7.995v0.026
			c0,0.078,0.007,0.155,0.014,0.233c0,0.005-0.002,0.015-0.002,0.02c0,0,0.007,9.16,0.007,9.212c0,3.853-1.417,9.228-11.329,9.228
			c-1.809,0-3.274,1.467-3.274,3.274c0,1.812,1.464,3.276,3.274,3.276c16.192,0,17.873-11.155,17.873-14.125V47.682
			c0-0.081-0.005-0.161-0.012-0.236L29.117,47.429L29.117,47.429z"/>
		<path d="M63.714,64.045c-2.333,0-4.028,1.893-4.028,4.273c0,2.396,1.694,4.287,4.028,4.287c2.319,0,4.015-1.893,4.015-4.287
			C67.727,65.938,66.033,64.045,63.714,64.045z M63.713,71.127c-1.363,0-2.451-1.27-2.451-2.809c0-1.527,1.088-2.795,2.451-2.795
			c1.352,0,2.438,1.268,2.438,2.795C66.152,69.857,65.064,71.127,63.713,71.127z"/>
		<path d="M71.828,64.045c-0.844,0-1.6,0.295-2.146,0.838c-0.533,0.535-0.828,1.293-0.828,2.135v5.447h1.565v-5.482
			c0-0.877,0.532-1.408,1.409-1.408c0.888,0,1.418,0.531,1.418,1.408v5.482h1.564v-5.449c0-0.84-0.295-1.598-0.83-2.133
			C73.436,64.34,72.68,64.045,71.828,64.045z"/>
		<path d="M77.771,69.846v-5.601h-1.562v5.624c0,1.576,0.9,2.596,2.579,2.596h2.489v-1.541h-2.475
			C78.059,70.924,77.771,70.609,77.771,69.846z"/>
		<rect x="82.273" y="64.244" width="1.563" height="8.223"/>
		<path d="M88.325,64.045c-0.843,0-1.599,0.295-2.144,0.838c-0.535,0.535-0.828,1.293-0.828,2.135v5.447h1.562v-5.482
			c0-0.877,0.532-1.408,1.409-1.408c0.891,0,1.42,0.531,1.42,1.408v5.482h1.563v-5.449c0-0.84-0.295-1.598-0.828-2.133
			C89.936,64.34,89.178,64.045,88.325,64.045z"/>
		<path d="M92.766,66.861v2.984c0,1.576,0.903,2.617,2.596,2.617h2.902v-1.539H95.37c-0.743,0-1.04-0.297-1.04-1.055v-0.795h3.327
			v-1.455H94.33v-0.792c0-0.757,0.297-1.043,1.04-1.043h2.894v-1.538h-2.902C93.669,64.246,92.766,65.289,92.766,66.861z"/>
	</g>
</g>
<g>
</g>
<g>
</g>
<g>
</g>
<g>
</g>
<g>
</g>
<g>
</g>
<g>
</g>
<g>
</g>
<g>
</g>
<g>
</g>
<g>
</g>
<g>
</g>
<g>
</g>
<g>
</g>
<g>
</g>
</svg>
