<?xml version="1.0" encoding="iso-8859-1"?>
<!-- Generator: Adobe Illustrator 16.0.0, SVG Export Plug-In . SVG Version: 6.00 Build 0)  -->
<!DOCTYPE svg PUBLIC "-//W3C//DTD SVG 1.1//EN" "http://www.w3.org/Graphics/SVG/1.1/DTD/svg11.dtd">
<svg version="1.1" id="Capa_1" xmlns="http://www.w3.org/2000/svg" xmlns:xlink="http://www.w3.org/1999/xlink" x="0px" y="0px"
	 width="98.509px" height="98.509px" viewBox="0 0 98.509 98.509" style="enable-background:new 0 0 98.509 98.509;"
	 xml:space="preserve">
<g>
	<g>
		<path d="M17.059,41.389c-0.849-0.015-1.698-0.004-2.547-0.004c-1.729,0.001-2.008,0.236-2.271,1.928
			c-0.021,0.136-0.038,0.271-0.169,0.329c-0.177,0.079-0.281-0.054-0.375-0.175c-0.08-0.104-0.149-0.214-0.223-0.322
			c-2.274-3.378-7.802-2.879-9.747,0.161c-2.3,3.593-2.17,7.354-0.391,11.095c2.112,4.442,8.766,4.073,10.27,0.509
			c0.021-0.047,0.146-0.285,0.216-0.5c-0.035,1.131,0.031,2.508-0.078,3.561c-0.146,1.414-0.887,2.416-2.194,2.9
			c-1.358,0.504-2.647,0.321-3.742-0.729c-0.345-0.331-0.696-0.665-1.09-0.93c-0.747-0.5-2.042-0.395-2.625,0.168
			c-0.568,0.547-0.644,1.471-0.152,2.361c0.517,0.936,1.314,1.58,2.318,1.895c2.574,0.805,5.193,0.842,7.773,0.104
			c1.915-0.548,3.306-1.805,4.023-3.703c0.421-1.113,0.479-2.291,0.479-3.47c0.003-3.767,0.003-7.532-0.002-11.299
			c0-0.478,0.048-0.839,0.671-0.886c0.961-0.073,1.495-0.69,1.459-1.569C18.627,41.92,18.061,41.406,17.059,41.389z M11.132,52.955
			c-0.703,1.066-1.691,1.606-2.979,1.502c-1.235-0.1-2.006-0.846-2.508-1.914c-0.417-0.888-0.601-1.99-0.602-3.437
			c-0.002-1.252,0.159-2.469,0.802-3.576c1.199-2.062,3.813-2.162,5.166-0.201C12.39,47.331,12.453,50.953,11.132,52.955z"/>
		<path d="M66.899,54.771c-0.933-0.188-0.935-0.188-0.937-1.166c-0.008-2.722,0.029-5.442-0.03-8.161
			c-0.05-2.242-1.251-3.808-3.224-4.412c-2.236-0.685-4.548-0.026-5.839,1.648c-0.208,0.27-0.701,0.97-0.701,0.97
			s-0.01-0.589-0.011-0.797l0.013-6.856c-0.011-0.931-0.412-1.513-1.153-1.609c-1.556-0.203-3.128-0.184-4.688-0.018
			c-0.697,0.075-1.083,0.669-1.077,1.416c0.004,0.749,0.457,1.395,1.144,1.444c1.01,0.072,0.991,0.321,0.991,1.211l-0.005,15.541
			c-0.001,0.479-0.163,0.76-0.721,0.784c-0.884,0.037-1.404,0.617-1.411,1.467c-0.006,0.827,0.473,1.467,1.32,1.492l6.137,0.011
			c0.763-0.017,1.187-0.599,1.22-1.433c0.032-0.793-0.395-1.44-1.113-1.526c-0.557-0.065-0.688-0.366-0.687-0.83l0.007-5.942
			c0.012-0.782,0.181-1.554,0.467-2.289c0.502-1.29,1.523-1.928,2.79-1.758c0.979,0.131,1.601,0.909,1.73,2.294
			c0.246,2.605,0.072,5.219,0.111,7.829c0.006,0.389-0.146,0.631-0.602,0.688c-0.766,0.099-1.208,0.728-1.167,1.55
			c0.041,0.83,0.472,1.404,1.234,1.419l6.071-0.007c0.793-0.02,1.245-0.594,1.274-1.383C68.078,55.504,67.656,54.924,66.899,54.771z
			"/>
		<path d="M35.094,54.777c-0.734-0.014-0.868-0.393-0.859-1c0.017-1.197,0.005-2.395,0.005-3.593c-0.004,0-0.009,0-0.013,0
			c0-1.197,0.034-2.396-0.007-3.592c-0.101-2.924-1.388-4.719-3.906-5.425c-1.79-0.502-3.618-0.513-5.435-0.172
			c-1.506,0.282-2.762,1.038-3.684,2.282c-0.407,0.55-0.703,1.157-0.542,1.878c0.151,0.678,0.688,1.138,1.424,1.247
			c1.166,0.172,1.818-0.066,2.252-0.871c0.281-0.523,0.56-1.026,1.122-1.312c2.255-1.142,4.431,0.169,4.442,2.674
			c0.002,0.545-0.193,0.8-0.773,0.766c-0.868-0.052-1.741-0.097-2.609-0.069c-1.483,0.048-2.979,0.21-4.299,0.909
			c-2.004,1.061-2.926,3.418-2.427,5.782c0.36,1.705,1.287,2.982,2.961,3.512c2.53,0.797,5.307,0.66,7.06-1.881
			c0.117-0.17,0.234-0.476,0.451-0.412c0.264,0.078,0.176,0.404,0.19,0.635c0.061,0.894,0.306,1.361,0.995,1.494
			c1.286,0.246,2.6,0.234,3.888,0.021c0.72-0.119,1.08-0.767,1.02-1.528C36.291,55.373,35.81,54.791,35.094,54.777z M29.769,51.771
			c-0.293,1.481-0.878,2.756-2.495,3.188c-2.05,0.547-3.511-0.9-2.975-2.924c0.195-0.736,0.697-1.189,1.382-1.449
			c0.887-0.334,1.817-0.418,2.757-0.433C30.024,50.135,30.081,50.198,29.769,51.771z"/>
		<path d="M79.825,41.226c-1.152-0.377-2.34-0.509-3.541-0.412c-2.556,0.206-4.627,1.128-5.926,3.908
			c-1.419,3.035-1.501,6.15-0.248,9.232c0.701,1.723,1.979,2.979,3.718,3.643c2.188,0.834,4.425,0.841,6.625,0.025
			c1.077-0.4,2.008-1.052,2.621-2.057c0.399-0.654,0.638-1.383,0.189-2.087c-0.432-0.681-1.218-0.786-1.939-0.621
			c-0.521,0.119-0.842,0.41-1.127,0.804c-0.397,0.551-0.807,1.094-1.523,1.25c-3.006,0.654-4.751-0.974-5.15-3.597
			c-0.067-0.444,0.081-0.614,0.558-0.604c1.458,0.028,2.916,0.01,4.375,0.01v-0.002c1.479,0,2.961,0.017,4.44-0.006
			c1.028-0.016,1.563-0.566,1.58-1.587c0.024-1.543-0.286-3.022-0.891-4.441C82.852,42.962,81.605,41.806,79.825,41.226z
			 M79.747,47.972c-0.954-0.011-1.909-0.003-2.865-0.003c-0.935,0-1.867-0.003-2.802,0c-0.31,0.001-0.547-0.035-0.566-0.441
			c-0.063-1.281,1.078-2.978,2.32-3.412c1.435-0.501,3,0,3.853,1.254c0.411,0.604,0.616,1.28,0.637,2.018
			C80.335,47.812,80.161,47.978,79.747,47.972z"/>
		<path d="M48.07,52.643c-0.16-0.527-0.479-0.873-1.056-0.905c-0.562-0.03-0.875,0.304-1.086,0.772
			c-0.208,0.468-0.19,0.98-0.295,1.469c-0.163,0.756-0.54,1.107-1.161,1.061c-0.603-0.045-1.014-0.492-1.019-1.214l-0.006-8.75
			c-0.002-0.506,0.219-0.696,0.706-0.686l1.892-0.005c0.879-0.075,1.347-0.671,1.328-1.566c-0.016-0.828-0.528-1.37-1.385-1.421
			c-0.499-0.03-1.001-0.01-1.502-0.012c-1.011-0.003-1.043-0.045-1.061-1.084c-0.017-0.978,0.06-1.957-0.078-2.934
			c-0.071-0.507-0.334-0.697-0.803-0.579c-0.988,0.248-1.96,0.553-2.898,0.954c-0.622,0.265-0.936,0.753-0.949,1.429
			c-0.009,0.479-0.015,0.958-0.011,1.436c0.004,0.537-0.23,0.774-0.789,0.788c-1.025,0.024-1.512,0.529-1.51,1.473
			c0.002,0.947,0.491,1.488,1.488,1.51c0.647,0.015,0.823,0.308,0.816,0.889l0.046,8.552c0.153,2.522,1.384,3.911,3.658,4.306
			c0.624,0.108,1.261,0.088,1.889,0.029C47.003,57.904,48.849,55.205,48.07,52.643z"/>
		<path d="M98.207,41.63c-0.24-0.564-0.739-0.848-1.363-0.831c-1.768,0.047-3.041,0.918-3.91,2.413
			c-0.247,0.425-0.412,0.898-0.615,1.35c-0.028-0.001-0.057-0.003-0.085-0.004c0-0.499,0.01-0.999-0.002-1.498
			c-0.027-1.123-0.521-1.638-1.641-1.665c-1.022-0.025-2.047-0.021-3.069-0.002c-0.942,0.018-1.459,0.506-1.501,1.365
			c-0.047,0.964,0.407,1.554,1.367,1.619c0.517,0.036,0.696,0.272,0.697,0.73c0.002,2.982,0.012,5.965,0.007,8.947
			c0,0.463-0.195,0.695-0.713,0.714c-0.87,0.032-1.346,0.571-1.361,1.426c-0.018,0.903,0.444,1.526,1.317,1.542l6.726-0.003
			c0.554-0.007,0.975-0.329,1.18-0.884c0.403-1.09-0.226-2.043-1.392-2.096c-0.976-0.043-1.014-0.082-1.018-1.056
			c-0.003-0.915,0-1.829-0.001-2.743c-0.001-0.957-0.009-1.917,0.248-2.853c0.506-1.839,1.991-2.937,3.892-2.849
			c0.541,0.025,0.935-0.177,1.168-0.656C98.61,43.623,98.629,42.615,98.207,41.63z"/>
	</g>
</g>
<g>
</g>
<g>
</g>
<g>
</g>
<g>
</g>
<g>
</g>
<g>
</g>
<g>
</g>
<g>
</g>
<g>
</g>
<g>
</g>
<g>
</g>
<g>
</g>
<g>
</g>
<g>
</g>
<g>
</g>
</svg>
