<?xml version="1.0" encoding="iso-8859-1"?>
<!-- Generator: Adobe Illustrator 16.0.0, SVG Export Plug-In . SVG Version: 6.00 Build 0)  -->
<!DOCTYPE svg PUBLIC "-//W3C//DTD SVG 1.1//EN" "http://www.w3.org/Graphics/SVG/1.1/DTD/svg11.dtd">
<svg version="1.1" id="Capa_1" xmlns="http://www.w3.org/2000/svg" xmlns:xlink="http://www.w3.org/1999/xlink" x="0px" y="0px"
	 width="98.25px" height="98.25px" viewBox="0 0 98.25 98.25" style="enable-background:new 0 0 98.25 98.25;" xml:space="preserve"
	>
<g>
	<g>
		<polygon points="97.541,54.839 97.537,54.839 97.546,45.884 88.495,45.928 88.499,64.836 97.52,64.834 		"/>
		<path d="M85.249,40.303c-0.834-2.274-2.254-3.938-4.483-4.883c-1.854-0.785-3.814-1.023-5.799-0.897
			c-3.317,0.209-6.062,1.516-7.863,4.448c-0.038,0.063-0.083,0.133-0.202,0.069l0.007-3.843l-8.67,0.014l-0.009,8.318
			c-0.176-0.23-0.266-0.477-0.359-0.723c-1.563-4.03-4.344-6.757-8.553-7.907c-2.732-0.746-5.505-0.885-8.237-0.223
			c-5.889,1.425-9.932,5.044-11.544,11.04l-0.148,0.617l-12.052-0.01l-0.002,6.083l4.9-0.015l-0.019,0.614
			c-0.036,1.036-0.042,2.074,0.003,3.109c0.019,0.407-0.165,0.583-0.457,0.761c-1.678,1.035-3.522,1.348-5.451,1.195
			c-3.808-0.299-6.312-3.052-7.01-6.698c-0.246-1.278-0.211-2.567-0.132-3.856c0.041-0.17,0.09-0.338,0.12-0.51
			c0.324-1.852,1.067-3.477,2.449-4.801c1.295-1.242,2.845-2.098,4.623-2.189c2.984-0.155,5.73,0.542,7.984,2.691
			c0.188,0.178,0.295,0.171,0.463-0.026c1.471-1.718,2.947-3.431,4.432-5.136c0.216-0.247,0.142-0.375-0.077-0.551
			c-1.056-0.853-2.195-1.571-3.466-2.048c-4.872-1.829-9.836-2.066-14.828-0.622c-3.668,1.06-6.63,3.174-8.648,6.47
			c-1.259,2.054-1.986,4.295-2.1,6.717c-0.222,1.522-0.112,3.037,0.136,4.545c0.514,3.137,1.861,5.866,4.131,8.096
			c1.871,1.84,4.132,3.052,6.643,3.801c2.913,0.867,5.886,0.958,8.887,0.704c3.415-0.289,6.697-1.079,9.81-2.539
			c0.182-0.084,0.413-0.23,0.413-0.23l0.009-5.646c0-0.182,0.015-0.364,0.03-0.685c0.157,0.314,0.253,0.497,0.343,0.683
			c1.121,2.312,2.728,4.2,4.863,5.646c3.351,2.271,7.091,3.116,11.059,2.857c2.702-0.177,5.273-0.943,7.554-2.523
			c1.195-0.828,2.363-1.674,3.322-2.783l0.341-0.363c-1.877-1.339-4.497-3.277-6.352-4.648l-0.288,0.395
			c-0.354,0.494-0.791,0.917-1.242,1.323c-3.524,3.17-9.91,2.313-11.507-3.058l-0.194-0.689c6.279,0,13.861,0.008,20.143-0.016
			l-0.009,12.465c2.62-0.021,6.44-0.022,9.061,0.001l-0.017-14.866c-0.002-1.059,0.041-2.11,0.203-3.157
			c0.061-0.245,0.106-0.494,0.18-0.736c0.289-0.962,0.656-1.87,1.443-2.568c1.164-1.032,2.563-1.198,4.007-1.124
			c1.875,0.096,3.149,1.065,3.751,2.863c0.442,1.205,0.503,3.433,0.503,3.842c0.002,4.846,0.006,10.917-0.009,15.762h9.001
			l0.01-16.989C86.331,45.298,86.15,42.763,85.249,40.303z M44.029,46.307c-1.78,0-4.232-0.009-6.013,0.006l0.131-0.645
			c1.076-5.574,8.336-5.585,10.662-2.813c0.751,0.897,1.046,1.972,1.175,3.107l0.028,0.342
			C48.195,46.309,45.846,46.307,44.029,46.307z"/>
		<path d="M93.007,44.479c2.883,0.028,5.243-2.326,5.243-5.188c0.001-2.875-2.354-5.212-5.241-5.2
			c-2.896,0.01-5.215,2.34-5.211,5.228C87.732,41.793,89.814,44.448,93.007,44.479z"/>
	</g>
</g>
<g>
</g>
<g>
</g>
<g>
</g>
<g>
</g>
<g>
</g>
<g>
</g>
<g>
</g>
<g>
</g>
<g>
</g>
<g>
</g>
<g>
</g>
<g>
</g>
<g>
</g>
<g>
</g>
<g>
</g>
</svg>
