<?xml version="1.0" encoding="iso-8859-1"?>
<!-- Generator: Adobe Illustrator 16.0.0, SVG Export Plug-In . SVG Version: 6.00 Build 0)  -->
<!DOCTYPE svg PUBLIC "-//W3C//DTD SVG 1.1//EN" "http://www.w3.org/Graphics/SVG/1.1/DTD/svg11.dtd">
<svg version="1.1" id="Capa_1" xmlns="http://www.w3.org/2000/svg" xmlns:xlink="http://www.w3.org/1999/xlink" x="0px" y="0px"
	 width="97.91px" height="97.911px" viewBox="0 0 97.91 97.911" style="enable-background:new 0 0 97.91 97.911;"
	 xml:space="preserve">
<g>
	<g>
		<path d="M91.898,50.692c-0.986-9.855-4.881-18.384-11.654-25.601c-3.351-3.568-7.229-6.44-11.57-8.688
			c-0.004-0.013-0.008-0.024-0.012-0.034l-0.022,0.006C63.625,7.182,56.969,1.794,48.85,0.372c-2.608-0.458-5.15-0.462-7.528-0.177
			c-0.023,0-0.046,0-0.069,0c-0.01,0.004-0.021,0.006-0.03,0.01c-0.907,0.111-1.789,0.263-2.641,0.449
			c-2.705,0.521-5.622,1.815-5.633,1.822c-2.22,0.965-3.96,2.05-5.018,2.924c-0.004,0.002-0.008,0.004-0.012,0.008
			c-2.961,2.062-5.333,4.671-7.179,7.761c-2.045,3.423-3.265,7.131-3.601,11.104c-0.092,1.082-0.447,1.912-1.158,2.75
			c-4.954,5.84-8.085,12.562-9.468,20.092c-0.288,1.576-0.483,3.164-0.574,4.767c-0.005,0.082,0.037,0.189-0.091,0.226
			c0,1.773,0,3.544,0,5.318c0.128,0.035,0.086,0.144,0.091,0.225c0.176,2.792,0.624,5.539,1.353,8.24
			c2.081,7.717,5.978,14.375,11.741,19.908c7.398,7.102,16.243,11.07,26.453,11.956c3.926,0.339,7.843,0.128,11.712-0.641
			c8.252-1.638,15.475-5.318,21.533-11.152c7.697-7.414,12.096-16.469,13.168-27.124c0.037-0.378-0.033-0.779,0.164-1.136
			c0-1.928,0-3.854,0-5.78C91.865,51.533,91.938,51.101,91.898,50.692z M50.056,0.826l0.206,0.23
			c0.299,0.353,0.609,0.695,0.893,1.062c2.254,2.903,3.055,6.287,3.209,9.874c0.057,1.325-0.016,2.649-0.162,3.973
			c-0.225,2.001-0.551,3.981-1.178,5.899c-1.23,3.759-2.785,7.389-4.358,11.009c-1.899,4.381-3.894,8.719-5.941,13.031
			c-0.179,0.379-0.499,1.181-0.499,1.181c1.306-0.144,2.648-0.372,4.014-0.032c-0.557-0.98-1.343-1.63-2.321-2.147
			c1.195-0.19,2.293-0.155,3.387,0.046c-0.547-0.977-1.313-1.751-2.284-2.432c1.352-0.094,2.61-0.082,3.923,0.479
			c-0.651-1.225-1.393-2.158-2.492-2.781c1.301,0.1,2.573,0.249,3.79,0.699c0.018,0.018,0.034,0.036,0.053,0.054
			c0.006-0.012,0.01-0.026,0.015-0.038c-0.021-0.008-0.042-0.014-0.063-0.02c0.045-0.228-0.129-0.366-0.229-0.525
			c-0.613-0.972-1.373-1.788-2.491-2.22c0.518-0.135,1.029-0.111,1.543-0.067c0.879,0.077,1.713,0.332,2.536,0.631
			c0.021,0.018,0.054,0.056,0.06,0.052c0.049-0.032,0.033-0.072,0.002-0.109c-0.791-1.169-1.897-1.975-3.176-2.68
			c1.592-0.403,3.092-0.38,4.598,0.128c-0.717-1.392-1.877-2.243-3.28-2.891c1.696-0.227,3.315-0.107,4.92,0.391
			c-0.996-1.388-2.452-2.164-3.86-3.014c1.717,0.01,3.414,0.1,5.158,0.428c-0.973-1.682-2.39-2.667-4.092-3.323
			c1.911-0.49,3.77-0.153,5.697,0.28c-1.055-1.604-2.545-2.468-4.361-3.065c1.904-0.531,3.678-0.565,5.516-0.046
			c-1.055-1.722-2.725-2.318-4.572-2.816c1.885-0.661,3.685-0.786,5.535-0.346c-1.223-1.483-2.883-2.142-4.709-2.568
			c1.849-0.788,3.682-0.732,5.604-0.103c-1.402-1.805-3.328-2.384-5.336-2.82c1.926-0.696,3.82-0.244,5.833,0.132
			c-1.485-1.813-3.379-2.53-5.604-2.822c1.012-0.195,1.914-0.322,2.834-0.324c0.93,0,1.834,0.181,2.799,0.376
			c-1.408-1.931-3.621-2.04-5.67-2.745c1.886-0.342,3.641-0.351,5.365,0.287c0.034,0.051,0.098,0.081,0.137,0.041
			c0.053-0.054-0.033-0.079-0.059-0.119c-0.656-0.784-1.512-1.266-2.46-1.604c-0.971-0.346-1.978-0.531-2.998-0.708
			c0.787-0.324,1.603-0.438,2.443-0.366c0.845,0.071,1.661,0.284,2.489,0.491C59.84,8.265,59.194,7.764,58.5,7.318
			c-1.123-0.716-2.371-1.009-3.684-1.103c1.621-0.223,3.227-0.288,4.79,0.331c-1.918-1.459-3.933-2.67-6.541-2.655
			c0.13-0.086,0.519-0.203,0.568-0.212c2.267-0.491,3.507,0.305,3.649,0.363c2.035,1.289,3.938,2.92,5.709,4.88
			c1.432,2.337,2.244,4.889,2.365,7.657c0.148,3.432-0.266,6.795-1.49,10.027c-1.701,4.492-4.173,8.549-7.027,12.385
			c-2.942,3.949-6.256,7.546-10.169,10.562c0.11,0.124,0.257,0.074,0.388,0.076c0.828,0.01,1.544,0.299,2.162,0.844
			c0.094,0.086,0.161,0.23,0.346,0.195c-0.033-0.784-0.185-1.543-0.528-2.314c0.897,0.123,1.654,0.344,2.317,0.994
			c-0.111-0.804-0.201-1.527-0.607-2.154c-0.188-0.288-0.082-0.307,0.186-0.324c0.859-0.058,1.605,0.267,2.338,0.653
			c0.005,0.012,0.008,0.025,0.018,0.033c0.004,0.006,0.018,0.004,0.026,0.004c-0.015-0.012-0.028-0.025-0.042-0.039
			c-0.045-0.849-0.482-1.573-0.77-2.379c0.939,0.144,1.771,0.439,2.527,1.131c-0.086-1.054-0.445-1.886-1.063-2.697
			c1.088,0.01,2.022,0.177,2.771,0.961c-0.279-0.965-0.693-1.835-1.24-2.699c0.926,0.151,1.774,0.383,2.662,0.699
			c-0.31-0.934-0.855-1.633-1.472-2.325c0.583-0.087,1.076-0.004,1.554,0.176c0.463,0.173,0.885,0.436,1.426,0.75
			c-0.359-1.118-0.947-1.965-1.527-2.888c1.09,0.047,2.1,0.093,3.133,0.577c-0.439-1.033-0.918-1.937-1.447-2.843
			c1.194-0.173,2.131,0.454,3.231,0.955c-0.604-1.152-1.146-2.165-1.8-3.185c1.074,0.034,2.043,0.251,3.104,0.575
			c-0.547-1.108-1.281-1.938-2.037-2.859c1.269,0.02,2.314,0.493,3.478,0.975c-0.584-1.271-1.169-2.362-2.408-2.926
			c0.144-0.151,0.296-0.137,0.44-0.163c0.849-0.151,1.666-0.02,2.475,0.235c0.1,0.031,0.215,0.102,0.3,0.012
			c0.093-0.098-0.015-0.199-0.056-0.289c-0.219-0.481-0.567-0.861-0.93-1.238c-0.418-0.436-0.918-0.77-1.496-1.193
			c1.285-0.195,2.309,0.246,3.408,0.782c-0.578-1.348-1.188-2.509-2.285-3.364c1.068-0.09,2.045,0.165,2.969,0.653
			c-0.102-0.723-0.534-1.274-0.954-1.831c-0.429-0.567-0.954-1.033-1.64-1.457c1.104-0.107,1.916,0.352,2.815,0.861
			c-0.388-1.557-1.28-2.607-2.585-3.416c1.09-0.175,1.92,0.371,2.855,0.799c-0.532-1.672-1.666-2.783-2.984-3.894
			c0.92-0.008,1.604,0.274,2.275,0.661c-0.614-1.647-1.422-3.142-3.121-4.047c0.3-0.073,0.471-0.033,0.652,0.004
			c1.242,0.331,2.318,2.698,2.726,3.834c0,0.002,0,0.004,0.001,0.006c0.088,0.219,0.177,0.439,0.265,0.659
			c6.798,20.294-9.815,31.575-10.526,32.045c-0.219,0.128-0.438,0.255-0.655,0.385c-0.47,0.276-0.954,0.562-1.438,0.821
			c-1.693,0.904-3.539,1.521-5.324,2.118c-0.434,0.146-0.866,0.291-1.303,0.442l-2.013,0.768c-1.189,0.55-2.276,1.294-3.322,2.271
			c-0.823,0.771-1.589,1.614-2.329,2.431l-0.345,0.377c-0.05-0.408-0.335-0.685-0.685-0.914c-1.108-0.73-2.352-1.063-3.66-1.178
			c-0.268-0.024-0.539-0.006-0.936-0.006c0.831-0.808,1.814-0.979,2.847-1.306c-0.91-0.522-1.829-0.551-2.861-0.652
			c0.898-0.681,1.898-0.787,2.924-1.053c-1.069-0.538-2.121-0.737-3.35-0.627c0.919-0.868,1.923-1.271,3.045-1.457
			c-1.055-0.301-2.126-0.41-3.286-0.199c0.901-0.964,1.919-1.44,3.582-1.756c-1.066-0.288-2.147-0.366-3.261-0.209
			c0.999-0.764,2.164-1.13,3.447-1.511c-1.432-0.349-2.757-0.249-4.095-0.06c1.075-1.089,2.504-1.266,3.895-1.559
			c-0.502-0.077-0.986-0.187-1.494-0.209c1.486-0.865,3.05-1.417,4.826-1.329c-0.811-0.623-1.795-0.916-3.864-1.141
			c1.368-0.932,2.749-1.407,4.319-1.374c-1.331-0.936-2.907-1.032-4.562-1.293c1.898-0.86,3.765-1.388,5.76-1.505
			c-1.646-0.995-3.522-1.045-5.355-1.32c1.884-0.495,3.693-1.304,5.705-1.229c-1.882-0.953-3.877-1.493-6.05-1.684
			c2.201-1.242,4.521-1.79,7.08-1.949c-2.374-1.093-4.781-1.16-7.213-1.196c2.34-1.21,4.778-2.149,7.371-2.705
			c-0.427-0.487-2.591-0.905-3.547-1.015c-1.241-0.144-2.488-0.098-3.85-0.104c2.373-1.942,5.164-2.273,7.922-2.689
			c-0.643-0.719-4.281-1.586-7.677-1.809c0.54-0.345,1.08-0.529,1.617-0.695c1.361-0.422,2.774-0.541,4.186-0.675
			c1.13-0.107,2.259-0.229,3.396-0.418c-2.681-1.455-5.468-2.483-8.578-2.412c3.162-1.256,6.473-1.427,9.955-1.236
			c-1.488-0.812-2.901-1.511-4.421-1.974c-1.531-0.467-3.103-0.621-4.703-0.582c3.239-0.985,6.543-1.379,9.932-1.12
			c-2.85-1.967-6.049-2.387-9.402-2.216c3.135-1.365,6.442-1.196,9.83-1.108c-2.651-1.777-5.51-2.534-8.771-2.291
			c0.628-0.491,1.234-0.675,1.839-0.844c1.579-0.442,3.203-0.589,4.834-0.651c0.884-0.033,1.765-0.152,2.666-0.131
			c-1.198-0.655-2.47-1.081-3.806-1.346c-1.362-0.269-2.729-0.195-4.18-0.107c1.149-0.696,2.362-0.969,3.594-1.158
			c1.237-0.191,2.485-0.209,3.741-0.119c-1.755-0.938-3.637-1.229-5.609-1.115c1.822-0.798,3.738-1.015,5.705-0.985
			c-0.417-0.474-1.586-0.732-3.707-0.828C46.833,1.116,50.056,0.826,50.056,0.826z M45.594,66.353
			c-0.068,0.029-0.131,0.073-0.209,0.015c-0.137-0.104-0.301-0.866-0.215-1.021c0.108-0.189,0.205-0.294,0.459-0.143
			c0.524,0.311,0.687,0.255,1.114-0.251c0.441-0.525,0.442-0.525,0.962-0.067c0.136,0.121,0.267,0.246,0.44,0.407
			C47.269,65.659,46.432,66.007,45.594,66.353z M48.613,65.977c0.21,0.009,0.895,0.393,0.89,0.592
			c-0.006,0.213-0.208,0.311-0.37,0.359c-0.99,0.294-1.986,0.567-2.981,0.848c-0.009-0.024-0.018-0.05-0.026-0.074
			c0.599-0.392,1.183-0.806,1.802-1.161C48.191,66.387,48.204,65.963,48.613,65.977z M46.917,61.912
			c-0.886-0.35-1.438-0.038-1.769,0.933c-0.169,0.498-0.161,0.488-0.566,0.189c-0.318-0.235-0.651-0.454-0.994-0.651
			c-0.329-0.188-0.68-0.342-1.058-0.527c2.026-2.752,4.049-5.501,6.072-8.25L49.4,53.3c0.43-0.147,0.861-0.292,1.292-0.438
			c1.802-0.603,3.663-1.226,5.384-2.145c0.492-0.263,0.98-0.552,1.453-0.828c0.217-0.13,0.436-0.257,0.665-0.39
			c0.011-0.009,0.027-0.021,0.048-0.032c-1.131,1.308-2.257,2.619-3.394,3.923c-2.429,2.783-4.864,5.559-7.289,8.34
			C47.367,61.955,47.222,62.031,46.917,61.912z M31.769,59.097c0.018,0.069,0.022,0.146,0.04,0.262
			c-0.395-0.187-0.675-0.482-1.09-0.623c0.049,0.48,0.204,0.925,0.201,1.391c-0.002,0.287-0.039,0.439-0.382,0.456
			c-0.617,0.03-1.231,0.113-1.929,0.184c0.653,0.527,1.336,0.851,2.029,1.148c0.547,0.233,1.105,0.438,1.688,0.567
			c0.221,0.051,0.333,0.171,0.382,0.388c0.114,0.506,0.238,1.009,0.368,1.511c0.074,0.284,0.084,0.347,0.084,0.347
			c-1.559-0.174-3.489,0.276-3.489,0.276s-0.086-0.187-0.158-0.396c-0.742-2.144-1.488-4.286-2.234-6.431
			c-1.807-5.195-3.615-10.391-5.421-15.583c-0.041-0.115-0.07-0.235-0.104-0.351c0.024-0.016,0.047-0.033,0.067-0.054
			c0.995,1.292,2.007,2.569,3.154,3.738c1.136,1.156,2.328,2.249,3.646,3.194c0.597,0.428,0.948,0.936,1.118,1.678
			C30.375,53.574,31.087,56.332,31.769,59.097z M41.494,61.541c-1.389-0.445-2.827-0.587-4.279-0.656
			c-1.232-0.056-2.466-0.109-3.674-0.42c-0.683-0.174-1.054-0.502-1.221-1.252c-0.591-2.646-1.275-5.27-1.926-7.902
			c-0.017-0.068-0.038-0.137-0.054-0.207c0.771,0.808,1.328,1.787,1.831,2.733c0.655,1.233,1.101,2.556,1.536,3.917
			c0.144,0.445,0.403,0.794,0.797,1.063c0.903,0.619,1.958,0.983,3.42,1.18c0.375,0.052,0.724,0.075,1.055,0.075
			c0.511,0,0.978-0.061,1.427-0.182c0.378-0.104,0.793-0.269,1.017-0.711l0.466-0.512c0.736-0.812,1.497-1.647,2.308-2.408
			c1.017-0.949,2.07-1.67,3.21-2.199l0.316-0.119c-0.046,0.073-0.114,0.138-0.164,0.205c-1.747,2.372-3.506,4.736-5.242,7.117
			C42.08,61.588,41.879,61.665,41.494,61.541z M43.358,63.635c-0.722-0.003-1.447-0.247-2.186,0.175
			c0.279-0.633,0.349-0.673,0.904-0.564C42.518,63.331,42.959,63.401,43.358,63.635z M40.896,63.125
			c-0.344,0.547-0.659,0.949-1.299,1.122c-1.055,0.285-2.958,0.859-2.958,0.859c-0.478-0.146-2.93-0.328-2.93-0.328
			s0,0.042-0.05-0.167c-0.128-0.533-0.257-1.064-0.389-1.597c-0.058-0.234,0.033-0.309,0.258-0.261
			c1.46,0.305,2.942,0.265,4.419,0.261C38.909,63.016,39.867,63.063,40.896,63.125z M34.598,70.415
			c-0.507-0.104-1.021-0.003-1.626-0.099c1.146-0.658,2.338-0.773,3.542-0.932c-0.36-0.289-0.358-0.303-1.578-0.464
			c-0.559-0.071-1.119,0.138-1.83,0.025c1.258-0.63,2.522-0.621,3.847-0.788c-1.157-0.68-2.345-0.537-3.507-0.587
			c1.192-0.598,2.478-0.748,3.91-0.826c-1.291-0.623-2.536-0.671-3.828-0.6c1.6-1.114,7.354-0.79,10.059,2.331l0.392,0.915
			l-3.563,4.988c-0.168-0.351-0.49-0.583-0.808-0.797c-1.265-0.842-2.707-1.243-4.17-1.572c-0.901-0.201-1.814-0.33-2.743-0.438
			c1.063-0.583,2.26-0.577,3.47-0.796C35.627,70.555,35.104,70.515,34.598,70.415z M35.087,6.715
			c1.202-0.462,2.47-0.644,3.735-0.872c-1.858-1.183-3.762-0.834-5.727-0.125c1.386-1.213,4.674-2.735,8.913-3.38
			c-0.988-0.182-1.887-0.144-2.783-0.142c-1.432,0.006-2.808,0.349-4.186,0.685c-0.016-0.018-0.031-0.033-0.046-0.052
			c0.903-0.677,1.957-1.026,3.018-1.342c3.368-1.172,7.58-1.118,8.881-0.992c-2.869,1.191-4.874,3.35-6.47,5.951
			c-1.615,2.633-2.548,5.529-3.194,8.524c-0.711,3.286-1.06,6.618-1.219,9.974c-0.125,2.63-0.13,5.257-0.045,7.883
			c0.108,3.34,0.351,6.674,0.776,9.991c0.124,0.968,0.252,1.937,0.368,2.904c0.02,0.163,0.111,0.398-0.206,0.392
			c-1.053-0.018-2.099,0.044-3.257,0.26c0.727-0.976,1.613-1.537,2.684-2.043c-1.202-0.177-2.299-0.197-3.504,0.122
			c0.752-1.316,1.958-1.909,3.158-2.709c-1.317,0.033-2.481,0.146-3.597,0.616c0.832-1.098,1.91-1.858,3.147-2.447
			c-1.267-0.215-2.507-0.128-3.728,0.274c-0.012-0.014-0.022-0.03-0.032-0.044c0.701-0.836,1.626-1.35,2.598-1.795
			c0.287-0.132,0.576-0.257,0.857-0.429c-1.397-0.225-2.778-0.175-4.151,0.147c-0.001,0.004-0.003,0.006-0.004,0.01l-0.008-0.008
			c0.004-0.002,0.008-0.002,0.012-0.002c0.1-0.37,0.405-0.583,0.656-0.828c0.882-0.867,1.943-1.467,3.046-2.002
			c0.146-0.072,0.289-0.147,0.535-0.274c-1.722-0.191-3.293-0.116-4.817,0.505c1.245-1.401,2.88-2.23,4.465-3.154
			c-1.72-0.199-3.377,0.149-5.048,0.514c1.436-1.316,2.857-2.636,4.809-3.353c-1.359-0.225-2.591-0.071-3.791,0.383
			c-0.441,0.169-0.876,0.353-1.313,0.529c-0.02-0.022-0.041-0.042-0.062-0.062c0.489-0.615,1.127-1.063,1.764-1.507
			c1.188-0.828,2.453-1.524,3.891-2.174c-0.912-0.083-1.7-0.065-2.489,0.014c-1.115,0.114-2.164,0.466-3.193,0.888
			c-0.029-0.027-0.058-0.054-0.086-0.081c0.728-0.842,1.614-1.485,2.565-2.048c0.945-0.56,1.97-0.939,3.113-1.314
			c-2.347-0.464-4.552-0.436-6.741,0.279c0.835-0.88,1.887-1.399,2.968-1.871c1.088-0.474,2.214-0.844,3.436-1.188
			c-0.539-0.271-1.05-0.326-1.555-0.396c-1.525-0.211-3.011-0.002-4.473,0.444c-0.072,0.021-0.15,0.029-0.225,0.042
			c-0.02-0.021-0.037-0.04-0.056-0.06c0.879-0.807,1.94-1.313,3.005-1.806c1.256-0.585,2.562-1.039,4.022-1.451
			c-2.331-0.191-4.519-0.305-6.634,0.52c-0.054,0.021-0.119,0.014-0.18,0.021l-0.014-0.021c0.344-0.52,0.854-0.857,1.348-1.206
			c1.631-1.16,3.48-1.802,5.409-2.251c0.071-0.017,0.144-0.032,0.353-0.08c-1.146-0.525-2.247-0.497-3.338-0.501
			c-1.098-0.004-2.184,0.133-3.261,0.368c2.139-1.888,4.755-2.521,7.487-2.893c-1.215-0.589-2.462-1.009-3.842-0.813
			c-0.94,0.133-1.826,0.465-2.727,0.746c-0.022-0.026-0.044-0.05-0.066-0.076c1.194-1.074,2.635-1.686,4.138-2.171
			c1.206-0.391,2.443-0.649,3.793-0.874c-2.078-1.091-4.12-1.035-6.214-0.336C32.804,7.79,33.901,7.173,35.087,6.715z
			 M20.532,23.132c0,0-0.025-0.024-0.024-0.024c0.41-0.73,1.057-1.248,1.655-1.805c0.588-0.546,1.252-0.997,2.021-1.527
			c-0.757-0.083-1.354,0.056-1.953,0.191c-0.61,0.138-1.163,0.43-1.756,0.671c0.114-0.339,0.392-0.621,1.141-1.254
			c0.432-0.362,0.853-0.736,1.321-1.053c0.472-0.32,0.936-0.649,1.392-1.012c-0.637,0-1.261,0.044-1.864,0.245
			c-0.432,0.144-0.865,0.282-1.297,0.424l-0.006-0.006c0.432-0.836,1.144-1.403,1.877-1.948c0.512-0.381,1.089-0.651,1.646-0.974
			c-1.063-0.237-1.953,0.334-3.001,0.667c0.965-1.179,2.095-1.941,3.513-2.5c-0.903-0.277-1.617,0.025-2.451,0.305
			c0.827-1.265,1.974-1.965,3.096-2.745c-0.54-0.284-1.017-0.018-1.553,0.048c0.75-1.093,1.861-1.7,2.852-2.521
			c-0.56-0.146-0.975,0.154-1.511,0.246c0.778-0.92,1.684-1.524,2.644-2.072c-0.126-0.125-0.657-0.037-0.874-0.1
			c0.794-0.493,1.54-0.957,2.286-1.423c-0.206-0.029-0.402-0.006-0.593,0.04c0.674-0.466,1.499-0.961,2.454-1.451
			c-2.08,1.563-3.622,3.583-4.712,5.997c-1.078,2.389-1.636,4.9-1.924,7.494c-0.239,2.147-0.247,4.304-0.136,6.449
			c0.303,5.833,1.579,11.458,3.868,16.841c0.915,2.151,1.967,4.235,3.248,6.197c0.16,0.243,0.194,0.381-0.125,0.496
			c-0.592,0.211-1.102,0.575-1.688,1.003c0.058-1.015,0.374-1.871,0.75-2.811c-0.786,0.305-1.537,0.476-2.143,1.139
			c0.165-1.156,0.494-2.144,1.084-3.175c-0.88,0.27-1.608,0.558-2.265,1.202c0.118-1.218,0.428-2.227,1.296-3.112
			c-1.166,0.145-2.017,0.702-2.876,1.4c0.179-1.404,0.797-2.52,1.623-3.557c-1.022,0.285-1.938,0.767-2.846,1.304
			c0.476-1.216,1.326-2.163,2.319-3.11c-1.438-0.226-2.612,0.203-3.738,0.846c-0.001,0.002-0.003,0.006-0.004,0.01l-0.005-0.006
			c0.003-0.002,0.006-0.004,0.009-0.004c0.237-0.734,0.807-1.236,1.301-1.775c0.541-0.592,1.157-1.117,1.692-1.736
			c-1.375,0.066-2.563,0.58-3.698,1.284c0.589-1.561,1.806-2.642,2.897-3.885c-1.516,0.075-2.83,0.503-3.984,1.425
			c0.789-1.547,2.063-2.621,3.55-3.687c-0.658-0.002-1.166,0.063-1.671,0.174c-0.756,0.165-1.438,0.495-2.093,0.894
			c-0.117,0.069-0.245,0.121-0.366,0.181c-0.012-0.012-0.023-0.023-0.036-0.036c0.881-1.425,2.054-2.562,3.443-3.482
			c0.051-0.034,0.102-0.066,0.216-0.14c-0.585-0.092-1.093-0.01-1.602,0.104c-0.84,0.183-1.612,0.548-2.395,0.89l-0.03-0.033
			c0.534-1.117,1.384-1.957,2.365-2.676c0.416-0.303,0.854-0.575,1.273-0.905c-0.676-0.038-1.323,0.107-1.97,0.282
			c-0.661,0.18-1.258,0.512-1.9,0.763c1.018-1.509,2.332-2.682,3.935-3.551C22.889,22.184,21.72,22.696,20.532,23.132z
			 M17.185,30.996c0.216,0.944,0.392,1.85,0.63,2.737c0.521,1.937,1.287,3.778,2.231,5.547c0.648,1.217,0.983,2.56,1.436,3.854
			c2.51,7.18,4.998,14.367,7.508,21.549c0.12,0.342,0.165,0.481,0.165,0.481l-1.462,0.691c0,0,0.032,0.151,0.149,0.758
			c0.39,2.033,0.689,4.084,1.031,6.128c0.077,0.456,0.403,0.742,0.76,0.99c1.135,0.788,2.425,1.204,3.747,1.531
			c1.881,0.463,3.783,0.706,5.714,0.403c0.443-0.069,0.906-0.157,1.207-0.499l0.014,0.012l4.098-5.74l-0.146-0.339
			c0.271,0.193,0.516,0.425,0.779,0.625c0.212,0.161,0.375,0.193,0.615,0.078c1.181-0.573,2.372-1.123,3.551-1.698
			c0.322-0.156,0.527-0.495,0.935-0.555c0.266-0.04,0.45-0.036,0.656,0.157c1.191,1.118,2.4,2.219,3.597,3.332
			c0.433,0.4,0.586,0.416,1.038,0.024c0.176-0.152,0.309-0.338,0.408-0.547c0.156-0.325,0.148-0.577-0.202-0.813
			c-1.304-0.88-2.587-1.789-3.879-2.689c-0.16-0.11-0.315-0.198-0.371-0.43c-0.054-0.226-0.3-0.294-0.506-0.347
			c-0.519-0.13-0.943-0.361-1.214-0.855c-0.116-0.213-0.342-0.39-0.586-0.41c-0.631-0.052-1.002-0.543-1.499-0.817
			c-0.177-0.098-0.095-0.224-0.03-0.351c0.185-0.364,0.276-0.744,0.125-1.146c-0.091-0.241,0.091-0.364,0.217-0.511
			c1.798-2.061,3.598-4.119,5.396-6.18c2.281-2.609,4.562-5.222,6.843-7.835c0.077-0.087,0.204-0.157,0.196-0.3
			c0.016-0.013,0.029-0.026,0.043-0.038c0.021-0.004,0.035-0.017,0.041-0.034c0.022-0.021,0.048-0.042,0.072-0.063
			c0.01-0.002,0.02-0.004,0.029-0.006c-0.004-0.004-0.008-0.006-0.012-0.01c4.168-3.663,12.193-12.731,9.473-26.542
			c3.002,1.847,5.682,4.09,8.073,6.678c3.823,4.13,6.644,8.865,8.463,14.193c0.591,1.731,1.043,3.499,1.396,5.294
			c0.026,0.13,0.01,0.269,0.013,0.402c-0.003,0.008-0.001,0.014-0.003,0.021c-0.006-0.011-0.008-0.017-0.008-0.017
			c-0.235,0.024-0.438-0.094-0.648-0.161c-2.07-0.659-4.172-0.967-6.299-0.336c-2.963,0.879-4.77,2.957-5.779,5.792
			c-0.156,0.438-0.268,0.434-0.624,0.203c-1.577-1.025-3.29-1.587-5.17-1.104c-2.785,0.712-4.577,2.507-5.396,5.259
			c-0.086,0.284-0.166,0.405-0.453,0.232c-0.116-0.07-0.248-0.12-0.373-0.173c-1.11-0.465-2.252-0.707-3.426-0.309
			c-2.332,0.788-3.289,2.741-4.11,4.867c0.171,0.013,0.274,0.025,0.381,0.025c10.636,0,31.908-0.004,31.908-0.004
			c-0.286,1.854-0.785,3.661-1.386,5.433c-1.414,4.181-3.473,8.018-6.164,11.515c-0.092,0.122-0.201,0.229-0.303,0.341
			c-0.007,0.008-0.013,0.016-0.019,0.022c-0.429-0.171-1.567-0.479-1.567-0.479c-0.879-0.238-1.781-0.312-2.688-0.257
			c-1.127,0.064-2.172,0.466-3.164,0.984c-1.311,0.688-2.637,1.351-3.911,2.097c-1.132,0.663-2.302,1.097-3.563,1.141
			c-1.41-0.187-2.393-0.42-2.727-0.564c-0.958-0.314-1.874-0.772-2.762-1.215c-0.607-0.305-1.235-0.616-1.885-0.89
			c-3.483-1.499-7.086-0.892-8.639-0.558c-1.761,0.381-3.371,1.137-4.991,1.889c-1.611,0.749-3.271,1.362-5.096,1.296
			c0,0.015-0.693-0.28-1.562-0.677c-2.019-0.921-5.59-2.553-7.561-3.443c-1.447-0.605-6.118-1.819-10.724,0.578
			c-0.148,0.079-0.293,0.165-0.435,0.254c-0.587,0.375-0.59,0.379-1.033-0.189c-4.199-5.374-6.878-11.415-7.975-18.153
			c-0.401-2.464-0.594-4.941-0.512-7.434c0.274-8.29,2.841-15.798,7.744-22.498C17.054,31.138,17.105,31.085,17.185,30.996z
			 M22.825,81.374l-0.014-0.016c0.468-0.617,1.186-0.868,1.907-1.272c-0.965-0.021-1.803,0.211-2.657,0.402
			c0.967-0.79,2.185-1.015,3.353-1.464c-0.417-0.121-0.772,0.031-1.13,0.073c-0.36,0.044-0.715,0.141-1.067,0.235
			c-0.587,0.155-1.17,0.328-1.754,0.495c-0.013-0.015-0.025-0.027-0.039-0.04c1.829-2.276,7.023-1.363,8.368-0.798
			c1.966,0.888,5.536,2.521,7.555,3.44c0.871,0.398,1.453,0.663,1.496,0.684c1.66,0.888,5.771,1.9,6.286,2.062
			c1.225,0.386,2.35,0.244,3.462-0.402c1.085-0.629,2.105-1.383,3.299-1.835c-0.095-0.023-0.183-0.021-0.271-0.023
			c-1.033-0.021-2.014,0.279-3.008,0.492c-0.013-0.015-0.025-0.028-0.037-0.042c1.063-0.872,2.248-1.516,3.705-1.907
			c-0.513,0.004-0.89,0.017-1.271,0.053c-0.884,0.081-1.725,0.359-2.594,0.507l-0.017-0.02c1.408-0.918,2.89-1.66,4.591-1.873
			c-0.729-0.082-1.438,0.008-2.146,0.104c-0.955,0.132-1.864,0.441-2.788,0.692c-0.014-0.016-0.025-0.031-0.039-0.046
			c0.124-0.165,0.307-0.246,0.48-0.338c1.675-0.876,3.684-1.262,5.3-1.067c1.615,0.197,2.58,0.484,3.857,1.019
			c0.629,0.263,1.25,0.574,1.852,0.874c0.9,0.448,1.83,0.8,2.797,1.115c2.667,0.885,10.021,1.543,12.754-0.46
			c-0.502-0.096-1.012,0.126-1.648,0.061c1.299-0.621,2.573-0.869,3.842-1.174c-0.89-0.266-1.789-0.382-2.709-0.398
			c1.293-0.392,2.641-0.42,3.957-0.66c-0.896-0.281-1.807-0.452-2.748-0.462c1.896-0.805,3.738,0.075,4.112,0.157
			c-1.073,1.431-2.192,2.633-3.483,3.867c-1.834,1.754-3.814,3.332-5.955,4.703c-4.539,2.909-9.461,4.824-14.78,5.748
			c-2.995,0.52-6.007,0.648-9.027,0.504c-3.066-0.147-6.079-0.69-9.022-1.58c-3.886-1.173-7.515-2.888-10.878-5.161
			c-1.609-1.087-3.111-2.309-4.567-3.591c-0.199-0.177-0.255-0.287-0.012-0.484c0.556-0.457,0.991-1.036,1.475-1.566
			c0.268-0.292,0.544-0.576,0.92-0.836C23.891,80.961,23.374,81.299,22.825,81.374z M81.312,80.509
			c-6.025,7.582-13.83,12.442-23.281,14.618c-3.5,0.804-7.051,1.128-10.637,0.975c-9.141-0.392-17.319-3.415-24.427-9.18
			c-7.395-5.999-12.164-13.684-14.338-22.955c-0.813-3.462-1.148-6.984-1.011-10.541c0.354-9.156,3.371-17.335,9.068-24.519
			c0.064-0.083,0.137-0.161,0.209-0.244c0.254,0.569,0.191,1.135-0.156,1.594c-3.892,5.144-6.437,10.878-7.602,17.228
			c-0.557,3.035-0.771,6.093-0.611,9.163c0.469,9.063,3.571,17.128,9.412,24.082c5.667,6.748,12.808,11.192,21.371,13.316
			c3.877,0.963,7.814,1.327,11.804,1.097c9.237-0.537,17.383-3.812,24.362-9.874c6.426-5.58,10.661-12.542,12.731-20.807
			c0.916-3.65,1.316-7.36,1.158-11.116c-0.416-9.859-3.914-18.483-10.525-25.825c-2.648-2.941-5.688-5.418-9.088-7.444
			c-0.096-0.408-0.201-0.82-0.316-1.236c2.411,1.346,4.646,2.944,6.719,4.771c5.983,5.269,10.156,11.71,12.454,19.353
			c0.917,3.049,1.47,6.162,1.636,9.343C90.795,62.825,87.863,72.268,81.312,80.509z M87.957,47.788
			c0.013,0.008,0.026,0.012,0.045,0.014c0.008,0.042,0.014,0.083,0.021,0.125C87.996,47.869,87.974,47.821,87.957,47.788z"/>
		<path d="M68.252,24.974c-0.012-0.006-0.021-0.012-0.033-0.018c-0.002-0.002-0.006-0.002-0.008-0.004
			c0,0.002,0.002,0.006,0.002,0.008C68.227,24.965,68.238,24.97,68.252,24.974z"/>
		<path d="M47.36,44.997c-0.018-0.014-0.036-0.028-0.054-0.042c0.006,0.019,0.012,0.038,0.018,0.058
			C47.336,45.006,47.35,45,47.36,44.997z"/>
		<rect x="47.304" y="44.952" width="0.004" height="0.003"/>
	</g>
</g>
<g>
</g>
<g>
</g>
<g>
</g>
<g>
</g>
<g>
</g>
<g>
</g>
<g>
</g>
<g>
</g>
<g>
</g>
<g>
</g>
<g>
</g>
<g>
</g>
<g>
</g>
<g>
</g>
<g>
</g>
</svg>
