<?xml version="1.0" encoding="iso-8859-1"?>
<!-- Generator: Adobe Illustrator 16.0.0, SVG Export Plug-In . SVG Version: 6.00 Build 0)  -->
<!DOCTYPE svg PUBLIC "-//W3C//DTD SVG 1.1//EN" "http://www.w3.org/Graphics/SVG/1.1/DTD/svg11.dtd">
<svg version="1.1" id="Capa_1" xmlns="http://www.w3.org/2000/svg" xmlns:xlink="http://www.w3.org/1999/xlink" x="0px" y="0px"
	 width="96.155px" height="96.155px" viewBox="0 0 96.155 96.155" style="enable-background:new 0 0 96.155 96.155;"
	 xml:space="preserve">
<g>
	<path d="M95.196,44.118c0-0.06-0.058-0.216-0.116-0.365l-45.17,0.014l0.04,16.763c0.135,0.01,0.269,0.021,0.4,0.028l18.554,0.033
		c0,0,0.23,1.543-0.021,2.979c-0.966,5.936-4.22,10.184-9.674,12.627c-3.059,1.373-6.479,2.098-9.891,2.098
		c-7.13,0-13.526-3.002-18.011-8.453c-2.022-2.457-3.578-5.115-4.625-7.899c-3.568-9.496-3.322-19.027,0.73-28.329
		c1.388-3.184,3.439-6.104,6.098-8.681c3.926-3.804,9.504-5.985,15.305-5.985c7.942,0,14.721,3.965,18.6,10.879
		c0.237,0.424,0.459,0.858,0.68,1.292c0.206,0.405,0.41,0.811,0.634,1.207c0.141,0.251,0.309,0.499,0.515,0.797l20.076-8.363
		c0.185-0.077,0.453-0.155,0.681-0.328c-0.058-0.201-0.181-0.441-0.249-0.579C84.242,12.692,75.729,5.377,64.446,2.109
		C59.614,0.709,54.655,0,49.708,0c-5.265,0-10.646,0.802-15.994,2.387C18.951,6.76,8.936,16.263,3.95,30.633
		c-3.429,9.881-3.927,20.1-1.48,30.372C6.124,76.344,15.251,86.975,29.601,92.6c8.407,3.297,17.471,4.311,26.872,3.002
		c17.771-2.472,29.82-12.303,35.815-29.226C95.039,58.604,95.288,50.398,95.196,44.118z"/>
</g>
<g>
</g>
<g>
</g>
<g>
</g>
<g>
</g>
<g>
</g>
<g>
</g>
<g>
</g>
<g>
</g>
<g>
</g>
<g>
</g>
<g>
</g>
<g>
</g>
<g>
</g>
<g>
</g>
<g>
</g>
</svg>
