<?xml version="1.0" encoding="iso-8859-1"?>
<!-- Generator: Adobe Illustrator 16.0.0, SVG Export Plug-In . SVG Version: 6.00 Build 0)  -->
<!DOCTYPE svg PUBLIC "-//W3C//DTD SVG 1.1//EN" "http://www.w3.org/Graphics/SVG/1.1/DTD/svg11.dtd">
<svg version="1.1" id="Capa_1" xmlns="http://www.w3.org/2000/svg" xmlns:xlink="http://www.w3.org/1999/xlink" x="0px" y="0px"
	 width="96.108px" height="96.108px" viewBox="0 0 96.108 96.108" style="enable-background:new 0 0 96.108 96.108;"
	 xml:space="preserve">
<g>
	<g>
		<path d="M6.58,24.941c4.345-3.066,8.928-5.042,13.733-7.224c4.477-2.032,9.164-2.854,14.013-2.903
			c7.461-0.073,14.129,1.776,20.855,4.868c1.058,0.486,2.953,1.175,4.043,1.037c-0.526-3.175-2.86-5.586-5.254-7.198
			c-4.393-2.955-9.369-4.499-14.537-4.949c-7.396-0.643-14.43,0.511-21.227,3.596C8.95,16.432,5.855,22.242,5.301,24.317
			C4.922,25.742,6.048,25.392,6.58,24.941z"/>
		<path d="M15.199,33.826c5.34-5.21,11.438-8.482,18.438-10.896c1.099-0.381,2.945-1.192,3.636-2.046
			c-2.574-1.931-5.926-2.061-8.77-1.57c-5.219,0.899-9.882,3.223-13.928,6.471C8.786,30.43,4.971,36.125,2.193,43.052
			c-3.395,8.594-1.636,16.708-1.089,17.702c0.673,1.225,1.006-0.092,1.042-0.433c1.02-5.22,2.967-9.815,4.932-14.714
			C8.908,41.044,11.728,37.212,15.199,33.826z"/>
		<path d="M17.173,74.895c-1.911-4.527-2.607-9.235-2.527-14.084c0.125-7.459,2.154-14.076,5.425-20.719
			c0.513-1.043,1.253-2.92,1.144-4.012c-3.188,0.441-5.66,2.708-7.336,5.059c-3.072,4.313-4.748,9.245-5.336,14.399
			c-0.84,7.375,0.46,14.107,3.362,20.982c3.64,8.49,10.6,13.016,11.688,13.338c1.34,0.396,0.65-0.772,0.435-1.041
			C21.078,84.393,19.226,79.758,17.173,74.895z"/>
		<path d="M63.051,93.559c-5.281-0.621-10.013-2.213-15.045-3.801c-4.688-1.479-8.725-3.998-12.364-7.203
			c-5.6-4.93-9.483-10.762-12.423-17.559c-0.461-1.066-1.443-3.967-2.157-3.941c-2.087-0.473-1.605,6.537-0.9,9.336
			c1.293,5.135,3.963,9.608,7.508,13.396c5.073,5.419,11.042,8.791,18.159,11.035c8.828,2.731,16.783,0.362,17.734-0.259
			C64.732,93.799,63.395,93.567,63.051,93.559z"/>
		<path d="M91.192,69.4c-4.138,3.343-8.585,5.609-13.238,8.098c-4.335,2.318-8.96,3.443-13.795,3.807
			c-7.44,0.558-14.324-0.746-21.238-3.396c-1.086-0.416-3.845-1.742-4.327-1.214c-1.798,1.162,3.552,5.717,6.046,7.171
			c4.575,2.666,9.641,3.884,14.827,3.997c7.422,0.162,14.004-1.747,20.586-5.266c8.125-4.4,11.994-11.746,12.215-12.86
			C92.538,68.367,91.438,69.161,91.192,69.4z"/>
		<path d="M94.812,34.687c-0.707-1.206-1.004,0.119-1.029,0.461c-0.881,5.245-2.705,9.892-4.539,14.84
			c-1.708,4.609-4.423,8.518-7.803,11.994c-5.199,5.351-11.217,8.941-18.148,11.544c-1.088,0.407-4.033,1.243-4.045,1.958
			c-0.572,2.062,6.451,1.927,9.281,1.361c5.191-1.039,9.792-3.485,13.75-6.84c5.662-4.802,9.324-10.596,11.916-17.595
			C97.36,43.731,95.387,35.667,94.812,34.687z"/>
		<path d="M78.604,20.912c1.986,4.499,2.759,9.193,2.755,14.043c-0.005,7.46-1.821,14.229-4.984,20.924
			c-0.495,1.049-2.026,3.701-1.536,4.223c1.023,1.879,5.971-3.11,7.605-5.488c3.003-4.359,4.602-9.32,5.104-14.483
			c0.721-7.388-0.687-14.097-3.701-20.925C80.07,10.772,73.037,6.361,71.944,6.056c-1.349-0.374-0.638,0.784-0.418,1.047
			C74.547,11.48,76.473,16.085,78.604,20.912z"/>
		<path d="M34.505,2.223c5.252,0.839,9.914,2.625,14.875,4.419c4.625,1.671,8.555,4.354,12.059,7.704
			c5.394,5.156,9.031,11.145,11.689,18.055c0.418,1.085,1.278,4.023,1.993,4.028c2.065,0.558,1.872-6.466,1.283-9.291
			c-1.08-5.184-3.563-9.764-6.951-13.693C64.61,7.822,58.784,4.205,51.766,1.67C43.06-1.423,35.013,0.617,34.037,1.197
			C32.836,1.914,34.162,2.201,34.505,2.223z"/>
	</g>
</g>
<g>
</g>
<g>
</g>
<g>
</g>
<g>
</g>
<g>
</g>
<g>
</g>
<g>
</g>
<g>
</g>
<g>
</g>
<g>
</g>
<g>
</g>
<g>
</g>
<g>
</g>
<g>
</g>
<g>
</g>
</svg>
