<?xml version="1.0" encoding="iso-8859-1"?>
<!-- Generator: Adobe Illustrator 16.0.0, SVG Export Plug-In . SVG Version: 6.00 Build 0)  -->
<!DOCTYPE svg PUBLIC "-//W3C//DTD SVG 1.1//EN" "http://www.w3.org/Graphics/SVG/1.1/DTD/svg11.dtd">
<svg version="1.1" id="Capa_1" xmlns="http://www.w3.org/2000/svg" xmlns:xlink="http://www.w3.org/1999/xlink" x="0px" y="0px"
	 width="93.941px" height="93.941px" viewBox="0 0 93.941 93.941" style="enable-background:new 0 0 93.941 93.941;"
	 xml:space="preserve">
<g>
	<path d="M80.873,16.888L66.798,3.437C64.475,1.38,63.501,0,61.01,0H14.578c-2.397,0-2.397,2.417-2.397,2.417v72.284
		c0,2.369,2.397,4.784,2.397,4.784L26.82,91.52c2.401,2.416,2.401,2.416,4.856,2.416h47.112c0.013,0,0.021,0.006,0.033,0.006
		c0.008,0,0.021-0.006,0.033-0.006h0.037c0-0.004,0-0.006,0-0.008c0.348-0.008,0.689-0.063,1.023-0.199
		c1.103-0.445,1.824-1.516,1.824-2.705l0.021-72.036C81.763,18.196,81.441,17.438,80.873,16.888z M17.042,69.863V7.244
		c0-2.41,0-2.41,2.438-2.41h14.047c2.438,0,2.438,0,2.438,2.41v19.271c0,2.414,0.614,2.414,3.053,2.414s3.052,0,3.052-2.414V7.244
		c0-2.41,0-2.41,2.439-2.41h14.037c2.447,0,2.447,0,2.447,2.41v62.619c0,2.413,0,2.413-2.447,2.413H44.509
		c-2.439,0-2.439,0-2.439-2.413V50.6c0-2.408-0.613-2.408-3.052-2.408s-3.053,0-3.053,2.408v19.263c0,2.413,0,2.413-2.438,2.413
		H19.48C17.042,72.276,17.042,72.276,17.042,69.863z M47.557,89.135h-14.64c-1.228,0-1.228,0-2.447-1.201l-9.771-9.639
		c-1.22-1.203-1.22-1.203,0-1.203h14.656c1.224,0,1.224,0,2.446,1.203l9.755,9.639C48.781,89.135,48.781,89.135,47.557,89.135z
		 M71.98,89.135H57.328c-1.219,0-1.219,0-2.447-1.201l-9.762-9.639c-1.215-1.203-1.215-1.203,0-1.203h14.647
		c1.229,0,1.229,0,2.441,1.203l5.1,5.031l5.516,5.7C72.744,89.115,72.494,89.135,71.98,89.135z M76.71,84.348L65.875,73.444
		l0.024-62.913l10.833,10.227L76.71,84.348z"/>
</g>
<g>
</g>
<g>
</g>
<g>
</g>
<g>
</g>
<g>
</g>
<g>
</g>
<g>
</g>
<g>
</g>
<g>
</g>
<g>
</g>
<g>
</g>
<g>
</g>
<g>
</g>
<g>
</g>
<g>
</g>
</svg>
