<?xml version="1.0" encoding="iso-8859-1"?>
<!-- Generator: Adobe Illustrator 16.0.0, SVG Export Plug-In . SVG Version: 6.00 Build 0)  -->
<!DOCTYPE svg PUBLIC "-//W3C//DTD SVG 1.1//EN" "http://www.w3.org/Graphics/SVG/1.1/DTD/svg11.dtd">
<svg version="1.1" id="Capa_1" xmlns="http://www.w3.org/2000/svg" xmlns:xlink="http://www.w3.org/1999/xlink" x="0px" y="0px"
	 width="97.403px" height="97.403px" viewBox="0 0 97.403 97.403" style="enable-background:new 0 0 97.403 97.403;"
	 xml:space="preserve">
<g>
	<g>
		<path d="M81.284,38.547c-0.67,0-1.12,0.441-1.12,0.885v12.369c0,0.443,0.45,0.884,1.12,0.884s1.12-0.44,1.12-0.884V39.433
			C82.404,38.99,81.954,38.547,81.284,38.547z"/>
		<path d="M45.116,42.968c0.895,0,1.567-0.442,1.567-1.326v-1.768c0-0.885-0.673-1.326-1.567-1.326c-0.671,0-0.671,0-0.671,0.886
			v2.651C44.445,42.968,44.445,42.968,45.116,42.968z"/>
		<path d="M27.76,46.5c1.348,0,1.119,0,1.119-0.885v-6.182c0-0.444-0.447-0.885-1.119-0.885c-0.671,0-1.119,0.441-1.119,0.885v6.182
			C26.64,46.5,26.417,46.5,27.76,46.5z"/>
		<path d="M45.116,52.687c0.895,0,1.567-0.439,1.567-1.326v-1.766c0-0.885-0.673-1.327-1.567-1.327c-0.671,0-0.671,0-0.671,0.884
			v2.65C44.445,52.687,44.445,52.687,45.116,52.687z"/>
		<path d="M62.926,52.687c0.894,0,1.564-0.439,1.564-1.326v-1.766c0-0.885-0.672-1.327-1.564-1.327c-0.674,0-0.674,0-0.674,0.884
			v2.65C62.252,52.687,62.252,52.687,62.926,52.687z"/>
		<path d="M96.518,40.32l-6.937-7.056l-0.104-0.125c-1.01-0.992-2.356-1.667-3.702-1.667h-8.968c-1.729,0-3.467,1.118-4.476,2.606
			c-1.022-1.488-2.752-2.606-4.478-2.606h-13.33c-0.899,0-0.899,0.887-0.899,0.887v0.674c-0.989-0.94-2.282-1.562-3.573-1.562
			h-13.34c-0.878,0-0.878,0.887-0.878,0.887v0.674c-1.007-0.94-2.301-1.562-3.594-1.562h-8.948c-1.171,0-2.321,0.498-3.252,1.261
			c-0.612-0.516-1.55-1.261-2.125-1.261H0.878C0,31.47,0,32.356,0,32.356v26.521c0,0.867,0.878,1.754,0.878,1.754l4.493,4.416
			c0.881,0.886,0.881,0.886,1.781,0.886h48.27c1.15,0,2.281-0.479,3.217-1.224l0.36,0.336c0.896,0.887,0.896,0.887,1.794,0.887
			H73.23c1.924,0,3.863-1.365,4.8-3.139l2.353,2.252c0.9,0.887,1.797,0.887,2.696,0.887h8.949c2.696,0,5.373-2.643,5.375-5.303
			V42.958C97.402,42.091,97.328,41.26,96.518,40.32z M55.422,34.128c0-0.884,0-0.884,0.893-0.884h10.639l0,0
			c2.688,0,4.48,1.768,4.48,4.418v4.422c0,3.53-2.689,2.646-2.689,3.53c0,0.885,2.689,0,2.689,3.539v4.42
			c0,2.65-1.795,4.416-4.48,4.416H56.314c-0.895,0-0.895,0-0.895-0.886V34.128H55.422z M37.616,34.128c0-0.884,0-0.884,0.896-0.884
			h10.637l0,0c2.69,0,4.479,1.768,4.479,4.418v4.422c0,3.53-2.691,2.646-2.691,3.53c0,0.885,2.691,0,2.691,3.539v4.42
			c0,2.65-1.789,4.416-4.479,4.416H38.512c-0.896,0-0.896,0-0.896-0.886V34.128z M19.699,37.663c0-2.65,1.791-4.418,4.479-4.418
			h7.168c2.687,0,4.478,1.768,4.478,4.418v19.441c0,0.886,0,0.886-0.896,0.886h-5.147c-0.9,0-0.9,0-0.9-0.886v-5.301
			c0-0.882-0.223-0.882-1.119-0.882c-0.895,0-1.119,0-1.119,0.882v5.301c0,0.886,0,0.886-0.896,0.886h-5.15
			c-0.896,0-0.896,0-0.896-0.886V37.663H19.699z M1.783,57.104V34.128c0-0.884,0-0.884,0.896-0.884h5.153
			c0.894,0,0.894,0,0.894,0.884v7.07c0,0.886,0.226,0.886,1.121,0.886c0.894,0,1.12,0,1.12-0.886v-7.07c0-0.884,0-0.884,0.894-0.884
			h5.15c0.897,0,0.897,0,0.897,0.884v22.975c0,0.886,0,0.886-0.897,0.886h-5.15c-0.894,0-0.894,0-0.894-0.886v-7.067
			c0-0.883-0.227-0.883-1.12-0.883c-0.896,0-1.121,0-1.121,0.883v7.067c0,0.886,0,0.886-0.894,0.886H2.679
			C1.783,57.989,1.783,57.989,1.783,57.104z M12.978,64.173H7.607c-0.45,0-0.45,0-0.897-0.439l-3.585-3.535
			c-0.446-0.441-0.446-0.441,0-0.441h5.377c0.449,0,0.449,0,0.898,0.441l3.578,3.535C13.428,64.173,13.428,64.173,12.978,64.173z
			 M21.939,64.173h-5.376c-0.447,0-0.447,0-0.897-0.439l-3.582-3.535c-0.445-0.441-0.445-0.441,0-0.441h5.375
			c0.449,0,0.449,0,0.896,0.441l3.585,3.535C22.389,64.173,22.389,64.173,21.939,64.173z M30.897,64.173h-5.376
			c-0.449,0-0.449,0-0.897-0.439l-3.58-3.535c-0.449-0.441-0.449-0.441,0-0.441h5.373c0.448,0,0.448,0,0.896,0.441l3.585,3.535
			C31.346,64.173,31.346,64.173,30.897,64.173z M39.853,64.173H34.48c-0.448,0-0.448,0-0.896-0.439l-3.581-3.535
			c-0.448-0.441-0.448-0.441,0-0.441h5.371c0.449,0,0.449,0,0.896,0.441l3.583,3.535C40.301,64.173,40.301,64.173,39.853,64.173z
			 M54.523,64.175H43.438c-0.449,0-0.449,0-0.896-0.441l-3.586-3.535c-0.439-0.438-0.444-0.441-0.009-0.441h11.096
			c1.299,0,2.59-0.615,3.586-1.551v0.668c0,0.883,0,0.883,0.896,1.767l2.765,2.726C56.551,63.886,55.61,64.175,54.523,64.175z
			 M72.326,64.173H61.24c-0.191,0-0.297,0-0.396-0.032c-0.131-0.046-0.242-0.153-0.5-0.407l-3.582-3.535
			c-0.447-0.443-0.447-0.443,0-0.443h11.086c1.732,0.002,3.47-1.102,4.479-2.596c0.279,0.41,0.611,0.793,0.986,1.129l3.236,3.098
			C75.963,63.106,74.416,64.173,72.326,64.173z M73.221,53.573V37.663c0-2.65,1.793-4.418,4.481-4.418h7.169
			c2.686,0,4.477,1.768,4.477,4.418v15.909c0,2.651-1.791,4.416-4.477,4.416h-7.169C75.012,57.989,73.221,56.224,73.221,53.573z
			 M95.615,59.757c0,2.65-1.79,4.418-4.479,4.418h-7.166c-0.896,0-1.793,0-2.687-0.883l-3.136-3.094
			c-0.444-0.438-0.446-0.441-0.008-0.441h7.625c2.687,0,5.371-2.653,5.371-5.301V38.105l0,0c0-0.442,0-0.442,0.459-0.008
			l3.215,3.043c0.805,0.944,0.805,1.827,0.805,2.709V59.757z"/>
		<path d="M62.926,42.968c0.894,0,1.564-0.442,1.564-1.326v-1.768c0-0.885-0.672-1.326-1.564-1.326c-0.674,0-0.674,0-0.674,0.886
			v2.651C62.252,42.968,62.252,42.968,62.926,42.968z"/>
	</g>
</g>
<g>
</g>
<g>
</g>
<g>
</g>
<g>
</g>
<g>
</g>
<g>
</g>
<g>
</g>
<g>
</g>
<g>
</g>
<g>
</g>
<g>
</g>
<g>
</g>
<g>
</g>
<g>
</g>
<g>
</g>
</svg>
