<?xml version="1.0" encoding="iso-8859-1"?>
<!-- Generator: Adobe Illustrator 16.0.0, SVG Export Plug-In . SVG Version: 6.00 Build 0)  -->
<!DOCTYPE svg PUBLIC "-//W3C//DTD SVG 1.1//EN" "http://www.w3.org/Graphics/SVG/1.1/DTD/svg11.dtd">
<svg version="1.1" id="Capa_1" xmlns="http://www.w3.org/2000/svg" xmlns:xlink="http://www.w3.org/1999/xlink" x="0px" y="0px"
	 width="98.389px" height="98.39px" viewBox="0 0 98.389 98.39" style="enable-background:new 0 0 98.389 98.39;"
	 xml:space="preserve">
<g>
	<g>
		<path d="M49.256,33.075c-18.034-0.049-32.676,14.67-32.615,32.787c0.063,17.972,14.596,32.512,32.513,32.528
			c18.107,0.019,32.641-14.579,32.61-32.758C81.735,47.695,67.185,33.125,49.256,33.075z M49.14,83.006
			c-9.563-0.018-17.184-7.654-17.196-17.236c-0.014-9.549,7.63-17.279,17.144-17.341c9.651-0.063,17.402,7.745,17.338,17.47
			C66.361,75.523,58.785,83.023,49.14,83.006z"/>
		<path d="M83.909,9.817C73.402,3.323,61.987,0.033,49.457,0C36.901,0.009,25.172,3.454,14.461,10.315
			c-3.088,1.979-3.919,4.495-2.511,6.988c1.532,2.711,4.322,3.271,7.476,1.305c8.11-5.06,16.849-8.142,26.429-8.738
			c11.809-0.734,22.742,2.001,32.857,8.121c3.521,2.13,6.633,1.521,7.917-1.531C87.909,13.417,86.458,11.391,83.909,9.817z"/>
		<path d="M31.906,30.799c8.287-4.175,16.997-5.331,26.006-3.277c3.352,0.764,6.552,2.237,9.771,3.515
			c3.953,1.567,7.719-0.505,7.844-4.425c0.035-2.848-1.695-4.394-4.043-5.503c-14.771-6.982-29.524-6.935-44.214,0.218
			c-3.923,1.911-5.193,4.755-3.696,7.726C25.092,32.076,28.072,32.729,31.906,30.799z"/>
	</g>
</g>
<g>
</g>
<g>
</g>
<g>
</g>
<g>
</g>
<g>
</g>
<g>
</g>
<g>
</g>
<g>
</g>
<g>
</g>
<g>
</g>
<g>
</g>
<g>
</g>
<g>
</g>
<g>
</g>
<g>
</g>
</svg>
