<?xml version="1.0" encoding="iso-8859-1"?>
<!-- Generator: Adobe Illustrator 16.0.0, SVG Export Plug-In . SVG Version: 6.00 Build 0)  -->
<!DOCTYPE svg PUBLIC "-//W3C//DTD SVG 1.1//EN" "http://www.w3.org/Graphics/SVG/1.1/DTD/svg11.dtd">
<svg version="1.1" id="Capa_1" xmlns="http://www.w3.org/2000/svg" xmlns:xlink="http://www.w3.org/1999/xlink" x="0px" y="0px"
	 width="97.258px" height="97.258px" viewBox="0 0 97.258 97.258" style="enable-background:new 0 0 97.258 97.258;"
	 xml:space="preserve">
<g>
	<path d="M77.469,69.872c-5.003,0.075-9.86,0.085-14.521,0l5.759-50.148c8.888-2.232,18.163-4.191,27.264-5.879
		c-0.905,0.022-1.819,0.048-2.739,0.082c-7.041,0.262-14.199,0.549-21.814,1.646c-0.766,0.109-1.517,0.225-2.272,0.339L70.971,0
		h-7.338l-3.618,17.411c-12.284,2.208-23.275,5-32.332,8.49l-2.576-12.298l-5.636,0.639l1.74,14.444
		C8.061,34.98,0.499,43.211,1.354,53.896c0.84,10.486,10.233,16.299,25.129,18.563l1.842,15.303l12.046-1.235l-2.732-13.053
		c3.398,0.137,6.972,0.152,10.717,0.039L43.721,95.82l16.082,1.438l2.832-24.648c4.925-0.461,10.042-1.08,15.314-1.838
		c0,0,2.71-0.348,2.528-0.642C80.296,69.838,77.289,69.87,77.469,69.872z M14.127,52.966c-0.897-5.462,2.279-10.428,8.209-14.913
		l3.212,26.662C19.115,62.127,15.015,58.365,14.127,52.966z M36.428,67.697L29.301,33.64c7.888-4.275,18.237-8.047,29.69-11.32
		l-9.754,46.943C44.62,68.915,40.319,68.409,36.428,67.697z"/>
</g>
<g>
</g>
<g>
</g>
<g>
</g>
<g>
</g>
<g>
</g>
<g>
</g>
<g>
</g>
<g>
</g>
<g>
</g>
<g>
</g>
<g>
</g>
<g>
</g>
<g>
</g>
<g>
</g>
<g>
</g>
</svg>
