<?xml version="1.0" encoding="iso-8859-1"?>
<!-- Generator: Adobe Illustrator 16.0.0, SVG Export Plug-In . SVG Version: 6.00 Build 0)  -->
<!DOCTYPE svg PUBLIC "-//W3C//DTD SVG 1.1//EN" "http://www.w3.org/Graphics/SVG/1.1/DTD/svg11.dtd">
<svg version="1.1" id="Capa_1" xmlns="http://www.w3.org/2000/svg" xmlns:xlink="http://www.w3.org/1999/xlink" x="0px" y="0px"
	 width="97.712px" height="97.712px" viewBox="0 0 97.712 97.712" style="enable-background:new 0 0 97.712 97.712;"
	 xml:space="preserve">
<g>
	<g>
		<rect x="46.477" y="30.874" width="10.671" height="7.193"/>
		<path d="M35.648,48.183c0-2.461-1.073-8.66-8.228-8.66c-5.051,0-8.1,2.467-10.348,6.09V28.186H0v8.221h3.398v23.871H0v8.062
			h18.654v-8.062h-1.581v-5.186c0-7.662,5.262-9.301,5.262-4.66v9.846h-1.792v8.062h18.731v-8.062h-3.626V48.183z"/>
		<polygon points="57.148,40.013 40.075,40.013 40.075,48.263 43.474,48.263 43.474,60.277 40.154,60.277 40.154,68.34 
			60.546,68.34 60.546,60.277 57.148,60.277 		"/>
		<path d="M84.281,40.54c-2.875,0-5.998,0.787-8.604,1.943l0.415-3.467h18.129l0.495-10.829H67.247l-3.821,20.684l10.085,1.359
			c1.324-1.618,2.716-2.059,3.886-2.045c2.885,0.033,4.172,3.075,4.035,6.205c-0.146,3.33-2.301,6.593-5.135,6.593
			c-1.87,0-3.804-0.979-2.786-3.926c0.81-4.377-1.608-6.083-5.442-6.076c-5.875,0.011-7.769,6.878-5.354,11.327
			c2.335,4.307,8.822,7.219,16.646,7.219c12,0,18.338-7.348,18.338-15.098C98.055,44.383,91.902,40.54,84.281,40.54z"/>
	</g>
</g>
<g>
</g>
<g>
</g>
<g>
</g>
<g>
</g>
<g>
</g>
<g>
</g>
<g>
</g>
<g>
</g>
<g>
</g>
<g>
</g>
<g>
</g>
<g>
</g>
<g>
</g>
<g>
</g>
<g>
</g>
</svg>
