<?xml version="1.0" encoding="iso-8859-1"?>
<!-- Generator: Adobe Illustrator 16.0.0, SVG Export Plug-In . SVG Version: 6.00 Build 0)  -->
<!DOCTYPE svg PUBLIC "-//W3C//DTD SVG 1.1//EN" "http://www.w3.org/Graphics/SVG/1.1/DTD/svg11.dtd">
<svg version="1.1" id="Capa_1" xmlns="http://www.w3.org/2000/svg" xmlns:xlink="http://www.w3.org/1999/xlink" x="0px" y="0px"
	 width="96.293px" height="96.293px" viewBox="0 0 96.293 96.293" style="enable-background:new 0 0 96.293 96.293;"
	 xml:space="preserve">
<g>
	<g>
		<path d="M76.273,55.402c0-15.54-12.594-28.132-28.127-28.132c-15.534,0-28.128,12.594-28.128,28.132
			c0,15.535,12.594,28.129,28.128,28.129C63.68,83.531,76.273,70.938,76.273,55.402z M32.073,55.402
			c0-8.867,7.21-16.079,16.073-16.079s16.073,7.21,16.073,16.079c0,8.863-7.21,16.074-16.073,16.074S32.073,64.266,32.073,55.402z"
			/>
		<path d="M48.146,85.02c-6.618,0-12.734-2.187-17.665-5.875H0v0.953c0,8.945,7.251,16.195,16.195,16.195h63.901
			c8.943,0,16.194-7.25,16.194-16.195v-0.953H65.811C60.88,82.833,54.764,85.02,48.146,85.02z"/>
		<path d="M80.096,0h-63.9C7.252,0,0.001,7.252,0.001,16.196v14.491h32.094c4.625-3.006,10.136-4.761,16.052-4.761
			c5.916,0,11.427,1.754,16.053,4.761h32.093V16.196C96.292,7.252,89.04,0,80.096,0z M48.287,22.584
			c-4.796,0-8.686-3.89-8.686-8.687c0-4.798,3.889-8.687,8.686-8.687c4.798,0,8.688,3.889,8.688,8.687
			C56.973,18.694,53.084,22.584,48.287,22.584z"/>
	</g>
</g>
<g>
</g>
<g>
</g>
<g>
</g>
<g>
</g>
<g>
</g>
<g>
</g>
<g>
</g>
<g>
</g>
<g>
</g>
<g>
</g>
<g>
</g>
<g>
</g>
<g>
</g>
<g>
</g>
<g>
</g>
</svg>
