<?xml version="1.0" encoding="iso-8859-1"?>
<!-- Generator: Adobe Illustrator 16.0.0, SVG Export Plug-In . SVG Version: 6.00 Build 0)  -->
<!DOCTYPE svg PUBLIC "-//W3C//DTD SVG 1.1//EN" "http://www.w3.org/Graphics/SVG/1.1/DTD/svg11.dtd">
<svg version="1.1" id="Capa_1" xmlns="http://www.w3.org/2000/svg" xmlns:xlink="http://www.w3.org/1999/xlink" x="0px" y="0px"
	 width="95.813px" height="95.813px" viewBox="0 0 95.813 95.813" style="enable-background:new 0 0 95.813 95.813;"
	 xml:space="preserve">
<g>
	<path d="M64.653,26.417c-15.143,0-23.28,9.528-23.28,13.553v-26.16c0-9.958-10.346-14.025-19.403-13.802
		c-8.968,0-11.596,5.966-11.596,5.965v74.343c0,8.562,6.94,15.497,15.497,15.497c8.562,0,15.502-6.937,15.502-15.497V56.353
		c0,0,0.474-6.966,6.34-6.966c5.866,0,6.729,6.759,6.729,6.759v24.171c0,8.562,6.939,15.497,15.499,15.497
		c8.562,0,15.499-6.937,15.499-15.497V46.41C85.44,37.852,78.967,27.248,64.653,26.417z"/>
</g>
<g>
</g>
<g>
</g>
<g>
</g>
<g>
</g>
<g>
</g>
<g>
</g>
<g>
</g>
<g>
</g>
<g>
</g>
<g>
</g>
<g>
</g>
<g>
</g>
<g>
</g>
<g>
</g>
<g>
</g>
</svg>
