<?xml version="1.0" encoding="iso-8859-1"?>
<!-- Generator: Adobe Illustrator 16.0.0, SVG Export Plug-In . SVG Version: 6.00 Build 0)  -->
<!DOCTYPE svg PUBLIC "-//W3C//DTD SVG 1.1//EN" "http://www.w3.org/Graphics/SVG/1.1/DTD/svg11.dtd">
<svg version="1.1" id="Capa_1" xmlns="http://www.w3.org/2000/svg" xmlns:xlink="http://www.w3.org/1999/xlink" x="0px" y="0px"
	 width="96.515px" height="96.515px" viewBox="0 0 96.515 96.515" style="enable-background:new 0 0 96.515 96.515;"
	 xml:space="preserve">
<g>
	<g>
		<path d="M46.215,57.297c-0.085-0.081-0.153-0.177-0.208-0.285c-0.052-0.107-0.083-0.225-0.091-0.35v-2.053h0.951v-0.712h-0.951
			v-0.895h-0.71v0.895h-0.684v0.712h0.684v2.053c0.009,0.223,0.056,0.431,0.146,0.624c0.093,0.194,0.213,0.363,0.363,0.508
			c0.149,0.146,0.324,0.259,0.521,0.342c0.199,0.084,0.408,0.126,0.634,0.127v-0.706c-0.127,0-0.248-0.021-0.36-0.069
			C46.399,57.441,46.301,57.379,46.215,57.297z"/>
		<path d="M50.025,54.367c-0.149-0.146-0.324-0.26-0.521-0.344c-0.198-0.082-0.408-0.126-0.629-0.126
			c-0.354,0-0.672,0.102-0.96,0.302v-1.908h-0.712v5.972h0.712V55.5c0.009-0.122,0.038-0.237,0.092-0.346
			c0.053-0.108,0.123-0.201,0.208-0.283c0.088-0.078,0.188-0.145,0.3-0.191c0.112-0.047,0.231-0.069,0.36-0.069
			c0.123,0,0.242,0.021,0.354,0.069c0.11,0.049,0.209,0.113,0.295,0.191c0.084,0.082,0.153,0.175,0.209,0.283
			c0.053,0.107,0.086,0.224,0.098,0.346v2.763h0.712V55.5c-0.011-0.221-0.063-0.427-0.152-0.622
			C50.296,54.682,50.176,54.514,50.025,54.367z"/>
		<path d="M54.429,54.543c-0.196-0.2-0.431-0.355-0.692-0.473c-0.265-0.115-0.545-0.173-0.846-0.173
			c-0.604,0-1.117,0.215-1.543,0.643c-0.427,0.426-0.639,0.939-0.639,1.541c0,0.604,0.212,1.118,0.639,1.545
			c0.426,0.425,0.939,0.637,1.543,0.637c0.239,0,0.467-0.033,0.686-0.108c0.219-0.073,0.418-0.176,0.598-0.308
			c0.182-0.131,0.34-0.287,0.475-0.467c0.137-0.181,0.24-0.376,0.313-0.587h-0.776c-0.062,0.11-0.138,0.212-0.229,0.307
			c-0.092,0.095-0.191,0.176-0.303,0.241c-0.111,0.069-0.23,0.12-0.359,0.158c-0.129,0.04-0.262,0.058-0.4,0.058
			c-0.174,0-0.338-0.027-0.494-0.085c-0.156-0.059-0.295-0.137-0.422-0.236c-0.125-0.101-0.234-0.218-0.322-0.354
			c-0.086-0.135-0.15-0.281-0.192-0.439h3.585c0.011-0.063,0.02-0.123,0.025-0.185c0.004-0.061,0.008-0.118,0.008-0.175
			c0-0.297-0.059-0.579-0.174-0.844C54.787,54.974,54.629,54.742,54.429,54.543z M51.46,55.727c0.042-0.159,0.106-0.308,0.196-0.444
			c0.088-0.135,0.197-0.254,0.322-0.354c0.127-0.098,0.266-0.175,0.422-0.232c0.155-0.058,0.318-0.085,0.489-0.085
			s0.333,0.027,0.489,0.085c0.154,0.059,0.294,0.136,0.421,0.234c0.124,0.104,0.231,0.222,0.324,0.355
			c0.092,0.138,0.155,0.286,0.196,0.44L51.46,55.727L51.46,55.727z"/>
		<rect y="44.557" width="1.637" height="13.748"/>
		<path d="M9.223,49.339c-0.345-0.337-0.746-0.601-1.202-0.795c-0.455-0.193-0.938-0.291-1.45-0.291c-0.83,0-1.575,0.241-2.236,0.72
			v-0.72H2.696v10.052h1.639v-6.363h0.027c0.02-0.281,0.09-0.546,0.21-0.796c0.124-0.25,0.284-0.467,0.483-0.649
			c0.198-0.187,0.43-0.331,0.688-0.439c0.258-0.109,0.535-0.164,0.828-0.164c0.288,0,0.561,0.052,0.818,0.157
			c0.259,0.106,0.487,0.255,0.683,0.439c0.198,0.188,0.359,0.406,0.483,0.656c0.125,0.25,0.195,0.515,0.215,0.796v6.363h1.639
			l0.008-6.363c-0.024-0.507-0.143-0.98-0.355-1.427C9.85,50.069,9.569,49.675,9.223,49.339z"/>
		<path d="M16.653,52.464h-3.65c-0.094,0-0.168-0.027-0.225-0.089c-0.057-0.058-0.086-0.15-0.086-0.274
			c0-0.3,0.06-0.586,0.175-0.852c0.115-0.269,0.273-0.504,0.473-0.708c0.198-0.202,0.435-0.363,0.703-0.477
			c0.268-0.115,0.553-0.174,0.858-0.174c0.264,0,0.513,0.046,0.75,0.136c0.237,0.092,0.452,0.215,0.646,0.368
			c0.194,0.157,0.356,0.344,0.491,0.559c0.134,0.214,0.225,0.446,0.277,0.687h1.655c-0.056-0.473-0.195-0.916-0.421-1.327
			c-0.225-0.412-0.508-0.771-0.848-1.076c-0.339-0.308-0.729-0.546-1.165-0.722c-0.435-0.174-0.897-0.262-1.386-0.262
			c-0.521,0-1.02,0.102-1.486,0.304c-0.468,0.204-0.876,0.479-1.226,0.829c-0.351,0.351-0.627,0.759-0.829,1.227
			c-0.203,0.469-0.305,0.964-0.305,1.488c0,0.66,0.159,1.159,0.479,1.497c0.317,0.337,0.799,0.507,1.439,0.507h3.688
			c0.299,0,0.448,0.109,0.448,0.335c0,0.306-0.058,0.596-0.172,0.865c-0.116,0.271-0.273,0.509-0.474,0.712
			c-0.199,0.202-0.433,0.362-0.701,0.48c-0.269,0.119-0.556,0.18-0.862,0.18c-0.269,0-0.521-0.043-0.761-0.132
			c-0.242-0.087-0.457-0.21-0.646-0.37c-0.191-0.158-0.353-0.344-0.483-0.557c-0.131-0.211-0.222-0.445-0.271-0.703h-1.657
			c0.056,0.475,0.193,0.918,0.412,1.331c0.219,0.41,0.495,0.77,0.832,1.076c0.338,0.306,0.726,0.545,1.167,0.72
			c0.439,0.176,0.909,0.263,1.406,0.263c0.525,0,1.021-0.103,1.49-0.307c0.468-0.201,0.876-0.477,1.227-0.825
			c0.347-0.351,0.623-0.759,0.827-1.227c0.202-0.469,0.305-0.965,0.305-1.488c0-0.661-0.176-1.158-0.524-1.494
			C17.874,52.631,17.35,52.464,16.653,52.464z"/>
		<path d="M20.192,44.557c-0.543,0-0.813,0.275-0.813,0.823c0,0.543,0.271,0.813,0.813,0.813c0.548,0,0.822-0.271,0.822-0.813
			C21.014,44.832,20.739,44.557,20.192,44.557z"/>
		<rect x="19.378" y="48.253" width="1.636" height="10.052"/>
		<path d="M29.812,49.564c-0.969-0.875-2.103-1.312-3.398-1.312c-1.384,0-2.572,0.493-3.557,1.479
			c-0.979,0.979-1.47,2.163-1.47,3.547c0,1.391,0.491,2.577,1.47,3.557c0.981,0.979,2.166,1.47,3.557,1.47
			c1.296,0,2.43-0.438,3.398-1.312v1.312h1.636V44.557h-1.636V49.564z M29.538,54.599c-0.182,0.41-0.425,0.772-0.735,1.081
			c-0.309,0.309-0.668,0.552-1.08,0.73c-0.413,0.177-0.848,0.267-1.31,0.267c-0.468,0-0.906-0.09-1.314-0.267
			c-0.41-0.18-0.768-0.423-1.076-0.73c-0.311-0.309-0.554-0.671-0.731-1.081c-0.176-0.411-0.266-0.852-0.266-1.319
			c0-0.462,0.09-0.896,0.266-1.311c0.178-0.412,0.421-0.771,0.731-1.082c0.309-0.308,0.666-0.55,1.076-0.729
			c0.408-0.177,0.847-0.267,1.314-0.267c0.462,0,0.896,0.09,1.31,0.267c0.412,0.18,0.771,0.422,1.08,0.729
			c0.311,0.311,0.554,0.67,0.735,1.082c0.181,0.413,0.273,0.849,0.273,1.311C29.812,53.747,29.719,54.188,29.538,54.599z"/>
		<path d="M40.741,49.736c-0.457-0.459-0.991-0.819-1.601-1.087c-0.608-0.264-1.256-0.396-1.94-0.396
			c-1.387,0-2.571,0.493-3.557,1.479c-0.98,0.979-1.47,2.163-1.47,3.547c0,1.391,0.489,2.577,1.47,3.557
			c0.979,0.979,2.163,1.47,3.557,1.47c0.547,0,1.074-0.085,1.576-0.254c0.501-0.168,0.962-0.402,1.376-0.706
			c0.414-0.301,0.779-0.662,1.089-1.075c0.313-0.415,0.554-0.866,0.723-1.354h-1.788c-0.145,0.258-0.321,0.492-0.529,0.708
			c-0.209,0.215-0.441,0.399-0.697,0.556c-0.257,0.156-0.531,0.279-0.829,0.366c-0.295,0.089-0.604,0.132-0.92,0.132
			c-0.4,0-0.779-0.066-1.137-0.197c-0.361-0.132-0.686-0.313-0.975-0.543s-0.537-0.503-0.739-0.814
			c-0.202-0.311-0.352-0.651-0.445-1.018h8.255c0.025-0.146,0.044-0.286,0.057-0.425c0.012-0.137,0.019-0.271,0.019-0.4
			c0-0.688-0.136-1.333-0.401-1.942C41.565,50.729,41.2,50.195,40.741,49.736z M33.904,52.464c0.094-0.368,0.245-0.709,0.449-1.022
			c0.206-0.316,0.454-0.587,0.745-0.814c0.29-0.229,0.615-0.408,0.974-0.539c0.357-0.131,0.734-0.195,1.128-0.195
			s0.767,0.064,1.122,0.195c0.356,0.131,0.679,0.313,0.969,0.543c0.291,0.231,0.539,0.504,0.749,0.818
			c0.208,0.316,0.36,0.654,0.453,1.016L33.904,52.464L33.904,52.464z"/>
		<path d="M64.55,49.321c-0.347-0.334-0.747-0.6-1.203-0.792c-0.454-0.19-0.938-0.29-1.45-0.29c-0.811,0-1.546,0.232-2.207,0.694
			v-4.39h-1.64v13.746h1.64v-6.362c0.019-0.28,0.09-0.546,0.209-0.796c0.121-0.249,0.281-0.466,0.48-0.649
			c0.201-0.186,0.43-0.33,0.689-0.439c0.258-0.108,0.535-0.164,0.826-0.164c0.287,0,0.561,0.056,0.816,0.164
			c0.253,0.109,0.48,0.255,0.679,0.439c0.195,0.185,0.354,0.4,0.481,0.649c0.123,0.25,0.199,0.516,0.224,0.796v6.362h1.638v-6.362
			c-0.024-0.506-0.143-0.981-0.351-1.433C65.172,50.047,64.896,49.654,64.55,49.321z"/>
		<path d="M74.594,49.725c-0.458-0.46-0.99-0.822-1.602-1.087c-0.607-0.264-1.256-0.398-1.94-0.398
			c-1.387,0-2.571,0.494-3.556,1.479c-0.98,0.98-1.471,2.16-1.471,3.548c0,1.392,0.489,2.575,1.471,3.557
			c0.979,0.979,2.162,1.468,3.556,1.468c0.687,0,1.335-0.131,1.947-0.398c0.61-0.264,1.146-0.623,1.604-1.079
			c0.459-0.453,0.819-0.987,1.086-1.596c0.264-0.606,0.397-1.26,0.397-1.95c0-0.688-0.136-1.335-0.402-1.941
			C75.416,50.716,75.053,50.183,74.594,49.725z M74.177,54.587c-0.181,0.41-0.424,0.771-0.733,1.08
			c-0.31,0.308-0.668,0.552-1.08,0.729c-0.412,0.179-0.849,0.267-1.312,0.267c-0.468,0-0.907-0.088-1.315-0.267
			c-0.408-0.178-0.766-0.422-1.076-0.729c-0.307-0.311-0.551-0.67-0.729-1.08c-0.179-0.413-0.266-0.854-0.266-1.32
			c0-0.463,0.087-0.898,0.266-1.311c0.178-0.412,0.422-0.771,0.729-1.082c0.312-0.309,0.668-0.552,1.076-0.729
			c0.408-0.178,0.849-0.268,1.315-0.268c0.463,0,0.897,0.089,1.312,0.268c0.412,0.178,0.771,0.421,1.08,0.729
			c0.311,0.311,0.555,0.67,0.733,1.082c0.183,0.411,0.271,0.848,0.271,1.311C74.447,53.733,74.359,54.174,74.177,54.587z"/>
		<path d="M80.154,56.065c-0.196-0.188-0.356-0.406-0.478-0.655c-0.121-0.25-0.192-0.52-0.211-0.805v-4.728h2.188v-1.639h-2.188
			V46.18h-1.64v2.059h-1.571v1.639h1.571v4.728c0.02,0.511,0.135,0.988,0.343,1.435c0.21,0.448,0.487,0.837,0.833,1.171
			c0.347,0.335,0.748,0.595,1.203,0.786c0.455,0.19,0.939,0.288,1.459,0.294v-1.628c-0.293,0-0.57-0.053-0.828-0.158
			C80.576,56.398,80.351,56.252,80.154,56.065z"/>
		<path d="M90.584,49.725c-0.46-0.46-0.993-0.822-1.602-1.087c-0.607-0.264-1.256-0.398-1.942-0.398
			c-1.384,0-2.569,0.494-3.556,1.479c-0.979,0.98-1.469,2.16-1.469,3.548c0,1.392,0.488,2.575,1.469,3.557
			c0.979,0.979,2.164,1.468,3.556,1.468c0.55,0,1.073-0.083,1.579-0.252c0.502-0.169,0.959-0.404,1.373-0.706
			c0.416-0.304,0.779-0.662,1.092-1.076s0.552-0.866,0.721-1.354h-1.787c-0.143,0.257-0.32,0.491-0.527,0.709
			c-0.211,0.213-0.441,0.398-0.698,0.555c-0.257,0.157-0.532,0.277-0.828,0.364c-0.295,0.09-0.604,0.132-0.923,0.132
			c-0.396,0-0.776-0.064-1.137-0.196c-0.357-0.131-0.684-0.312-0.973-0.543c-0.291-0.23-0.537-0.502-0.738-0.813
			c-0.205-0.313-0.354-0.65-0.445-1.021h8.255c0.022-0.143,0.042-0.282,0.054-0.42c0.014-0.137,0.02-0.271,0.02-0.401
			c0-0.688-0.133-1.335-0.401-1.941C91.404,50.716,91.042,50.183,90.584,49.725z M83.746,52.452c0.094-0.369,0.244-0.71,0.449-1.024
			c0.207-0.315,0.453-0.587,0.744-0.812c0.291-0.229,0.613-0.408,0.975-0.539c0.357-0.133,0.734-0.197,1.126-0.197
			c0.394,0,0.769,0.064,1.125,0.197c0.354,0.131,0.677,0.312,0.968,0.543c0.29,0.23,0.539,0.504,0.747,0.817
			c0.211,0.313,0.362,0.653,0.454,1.017L83.746,52.452L83.746,52.452z"/>
		<path d="M95.684,56.504c-0.262-0.105-0.492-0.252-0.688-0.438c-0.196-0.188-0.356-0.406-0.477-0.655
			c-0.123-0.25-0.191-0.52-0.212-0.805V44.544h-1.639v10.062c0.021,0.511,0.133,0.988,0.342,1.435
			c0.21,0.448,0.487,0.837,0.833,1.171c0.346,0.335,0.75,0.595,1.207,0.786c0.459,0.19,0.947,0.288,1.464,0.294v-1.628
			C96.225,56.662,95.945,56.61,95.684,56.504z"/>
		<path d="M45.477,42.879c0,0,0.199,0,0.541,0c0.352-4.991-4.27-4.625-4.239-4.625c-5.888-0.479-5.858,3.02-5.858,3.02l-2.394,6.892
			l2.572-3.469c0.209,2.273,2.69,2.536,2.69,2.536l2.721-0.009c0.048,0.002,0.092,0,0.137,0.002l0.063-2.434
			C41.71,44.792,41.928,42.778,45.477,42.879z"/>
		<path d="M55.113,43.291c-0.963-0.354-7.188-0.403-9.097-0.412c-0.006,0.091-0.013,0.184-0.023,0.279c0,0-0.05,4.198-4.348,4.067
			l-0.037,1.293c0.169,2.278,3.592,2.067,3.592,2.067c2.558,0.104,8.895-0.312,8.895-0.312l2.542,1.63l-1.032-2.361
			c0.814-0.297,1.158-1.214,1.197-1.286c0.418-0.852,0.404-3.229,0.404-3.229C57.296,43.77,55.113,43.291,55.113,43.291z"/>
	</g>
</g>
<g>
</g>
<g>
</g>
<g>
</g>
<g>
</g>
<g>
</g>
<g>
</g>
<g>
</g>
<g>
</g>
<g>
</g>
<g>
</g>
<g>
</g>
<g>
</g>
<g>
</g>
<g>
</g>
<g>
</g>
</svg>
