<?xml version="1.0" encoding="iso-8859-1"?>
<!-- Generator: Adobe Illustrator 16.0.0, SVG Export Plug-In . SVG Version: 6.00 Build 0)  -->
<!DOCTYPE svg PUBLIC "-//W3C//DTD SVG 1.1//EN" "http://www.w3.org/Graphics/SVG/1.1/DTD/svg11.dtd">
<svg version="1.1" id="Capa_1" xmlns="http://www.w3.org/2000/svg" xmlns:xlink="http://www.w3.org/1999/xlink" x="0px" y="0px"
	 width="96.502px" height="96.502px" viewBox="0 0 96.502 96.502" style="enable-background:new 0 0 96.502 96.502;"
	 xml:space="preserve">
<g>
	<g>
		<path d="M42.197,39.703C24.507,38.899,9.305,55.545,9.305,55.545c-5.548-13.029,6.916-28.308,6.916-28.308
			c-13.669,6.675-15.68,23.4-15.68,23.4C-2.355,74.522,23.459,82,23.459,82C-1.39,54.817,42.197,39.703,42.197,39.703z"/>
		<circle cx="19.261" cy="37.79" r="6.835"/>
		<path d="M57.112,41.882c0.806-17.691-15.839-32.89-15.839-32.89c13.027-5.548,28.306,6.915,28.306,6.915
			C62.903,2.237,46.178,0.227,46.178,0.227c-23.884-2.895-31.362,22.92-31.362,22.92C41.997-1.704,57.112,41.882,57.112,41.882z"/>
		<path d="M52.192,18.945c0,3.775,3.058,6.836,6.835,6.836c3.772,0,6.834-3.062,6.834-6.836s-3.062-6.836-6.834-6.836
			C55.25,12.109,52.192,15.17,52.192,18.945z"/>
		<path d="M73.042,14.501c24.85,27.183-18.736,42.299-18.736,42.299c17.691,0.804,32.893-15.843,32.893-15.843
			c5.548,13.029-6.917,28.305-6.917,28.305c13.67-6.673,15.68-23.399,15.68-23.399C98.855,21.98,73.042,14.501,73.042,14.501z"/>
		<circle cx="77.241" cy="58.713" r="6.834"/>
		<path d="M39.389,54.617C38.582,72.312,55.229,87.51,55.229,87.51c-13.027,5.551-28.306-6.916-28.306-6.916
			c6.676,13.672,23.401,15.682,23.401,15.682c23.883,2.896,31.362-22.919,31.362-22.919C54.504,98.205,39.389,54.617,39.389,54.617z
			"/>
		<path d="M37.474,84.391c3.777,0,6.834-3.059,6.834-6.835c0-3.772-3.057-6.833-6.834-6.833c-3.772,0-6.834,3.061-6.834,6.833
			C30.64,81.332,33.701,84.391,37.474,84.391z"/>
	</g>
</g>
<g>
</g>
<g>
</g>
<g>
</g>
<g>
</g>
<g>
</g>
<g>
</g>
<g>
</g>
<g>
</g>
<g>
</g>
<g>
</g>
<g>
</g>
<g>
</g>
<g>
</g>
<g>
</g>
<g>
</g>
</svg>
