<?xml version="1.0" encoding="iso-8859-1"?>
<!-- Generator: Adobe Illustrator 16.0.0, SVG Export Plug-In . SVG Version: 6.00 Build 0)  -->
<!DOCTYPE svg PUBLIC "-//W3C//DTD SVG 1.1//EN" "http://www.w3.org/Graphics/SVG/1.1/DTD/svg11.dtd">
<svg version="1.1" id="Capa_1" xmlns="http://www.w3.org/2000/svg" xmlns:xlink="http://www.w3.org/1999/xlink" x="0px" y="0px"
	 width="95.595px" height="95.595px" viewBox="0 0 95.595 95.595" style="enable-background:new 0 0 95.595 95.595;"
	 xml:space="preserve">
<g>
	<g>
		<path d="M8.77,24.631c0.033-0.063,0.061-0.638,0.078-0.731c0.082-0.426,0.227-0.837,0.334-1.258
			c0.581-2.238,2.057-3.579,4.29-3.943c4.549-0.743,9.135-1.213,13.722-1.642c3.973-0.37,7.954-0.637,11.941-0.81
			c5.683-0.246,11.368-0.251,17.053-0.002c4.812,0.21,9.613,0.569,14.405,1.062c3.701,0.381,7.399,0.781,11.07,1.377
			c2.239,0.363,3.636,1.734,4.278,3.892c0.141,0.475,0.274,0.954,0.362,1.439c0.021,0.111,0.05,0.704,0.085,0.783h8.939
			c0.01-0.074,0.011-0.659,0.004-0.763c-0.071-1.033-0.198-2.056-0.379-3.073c-0.896-5.01-3.479-8.367-8.735-9.417
			c-3.998-0.8-8.012-1.405-12.06-1.84C67.866,9.031,61.555,8.566,55.231,8.4C41.404,8.04,27.62,8.619,13.915,10.612
			c-2.553,0.371-5.094,0.84-7.532,1.726c-2.036,0.739-3.552,2.112-4.59,3.979c-1.324,2.387-1.658,5.021-1.771,7.697
			c-0.002,0.047,0.002,0.581,0.007,0.615L8.77,24.631L8.77,24.631z"/>
		<path d="M14.255,63.376c0.458,1.969,1.771,3.147,3.547,3.943c3.468,1.555,7.129,1.623,10.82,1.448
			c0.355-0.017,0.501-0.007,0.556,0.398c0.264,1.907,1.229,2.968,3.098,3.388c1.919,0.431,3.872,0.178,5.81,0.205
			c0.457,0.008,0.665-0.355,0.663-0.812c-0.002-0.848,0.002-1.693,0-2.541c-0.002-0.896-0.201-1.099-1.083-1.104
			c-1.094-0.008-2.19,0-3.284-0.035c-0.299-0.01-0.739-0.055-0.793-0.362c-0.052-0.301,0.4-0.338,0.638-0.455
			c2.525-1.227,3.862-3.105,3.803-6.037c-0.095-4.73-0.014-9.464-0.008-14.196c-0.009-0.228-0.024-0.454-0.024-0.681
			c-0.001-4.176-0.078-8.354,0.025-12.527c0.077-3.115-1.961-5.211-4.31-6.054c-3.11-1.116-6.321-1.35-9.589-1.159
			c-2.055,0.119-4.053,0.481-5.961,1.289c-1.346,0.568-2.436,1.464-3.27,2.64c-0.633,0.895-0.733,1.957-0.731,3.038
			c0.008,9.035,0.007,18.07,0.005,27.104c0,0.247-0.015,0.494-0.023,0.742C14.204,62.194,14.119,62.791,14.255,63.376z
			 M23.163,33.277c0.142-0.827,0.619-1.334,1.421-1.529c1.041-0.253,2.082-0.234,3.124,0.028c0.712,0.18,1.089,0.639,1.223,1.321
			c0.067,0.343,0.115,0.694,0.115,1.042c0.01,4.174,0.007,8.347,0.007,12.52c0,0.103-0.017,0.205-0.025,0.308
			c0.004,4.959,0.023,9.919,0.002,14.879c-0.005,1.495-0.67,2.141-2.156,2.234c-0.533,0.033-1.075,0.037-1.609-0.003
			c-1.395-0.107-2.137-0.898-2.153-2.294c-0.017-1.426-0.007-2.854-0.004-4.278c0.005-3.554,0.011-7.106,0.017-10.662
			c-0.007-3.925-0.018-7.849-0.02-11.772C23.104,34.474,23.06,33.874,23.163,33.277z"/>
		<path d="M82.371,29.311c0.409-1.132,0.175-1.464-1.039-1.465c-2.211,0-4.424,0.024-6.635-0.013
			c-0.71-0.013-1.027,0.262-1.227,0.924c-0.994,3.295-2.037,6.579-3.045,9.872c-0.382,1.246-0.716,2.508-1.096,3.853
			c-1.264-4.704-2.731-9.235-4.144-13.785c-0.188-0.607-0.501-0.866-1.148-0.86c-2.314,0.026-4.631,0.009-6.946,0.013
			c-0.883,0.002-1.16,0.396-0.863,1.226c0.41,1.146,0.843,2.283,1.248,3.43c1.365,3.868,2.8,7.711,4.186,11.571
			c1.015,2.828,2.048,5.654,3.141,8.456c0.209,0.536,0.295,1.067,0.212,1.632c0.007,4.221,0.014,8.438,0.022,12.656
			c0,0.885,0.115,0.996,1.008,0.998c2.193,0.004,4.385,0.002,6.577,0.001c0.94-0.001,1.115-0.179,1.116-1.124
			c0.008-3.557,0.014-7.113,0.02-10.668c0.034-1.188-0.198-2.381,0.228-3.556C76.789,44.753,79.578,37.03,82.371,29.311z"/>
		<path d="M51.414,27.847c-2.272-0.001-4.549-0.002-6.822,0c-1.02,0.001-1.132,0.113-1.132,1.137c-0.002,5.871,0,11.741,0,17.613
			c0,0.247-0.017,0.494-0.025,0.741c0.006,0.248,0.018,0.495,0.018,0.742c0.001,6.238,0.001,12.476,0.005,18.713
			c0,0.931,0.091,1.022,1.018,1.023c2.271,0.002,4.543,0,6.816,0c1.252,0,1.353-0.099,1.354-1.323
			c0.004-4.069,0.012-8.138,0.019-12.207c-0.01-0.247-0.025-0.495-0.025-0.741c0-8.166,0.003-16.331,0.003-24.498
			C52.64,27.992,52.489,27.847,51.414,27.847z"/>
		<path d="M95.571,51.684c-0.001-7.563,0-15.13,0-22.692c0.002-0.97-0.177-1.145-1.163-1.145c-2.191-0.001-4.381-0.001-6.572,0
			c-1.09,0-1.215,0.123-1.215,1.207c0.001,8.785,0.003,17.568,0.003,26.353c0,0.248-0.021,0.495-0.031,0.741
			c0.009,3.615,0.018,7.23,0.025,10.847c0.001,0.836,0.222,1.056,1.068,1.057c2.209,0.003,4.421,0.002,6.63,0.002
			c1.09-0.001,1.258-0.17,1.26-1.246c0.006-4.793,0.013-9.587,0.019-14.38C95.587,52.178,95.571,51.931,95.571,51.684z"/>
		<path d="M1.051,68.05c2.19,0.004,4.382,0.003,6.573,0c0.856-0.001,1.083-0.235,1.085-1.11c0.008-1.9,0.012-3.804,0.019-5.704
			c-0.008-0.247-0.023-0.494-0.023-0.742c0-6.408,0-12.817,0-19.227c0-0.187,0.016-0.374-0.006-0.558
			c-0.047-0.424-0.27-0.695-0.719-0.696c-2.398-0.005-4.797-0.006-7.194,0c-0.524,0.001-0.784,0.283-0.763,0.816
			c0.009,0.248,0.001,0.498,0,0.745C0.014,45.398,0.007,49.221,0,53.045c0.007,4.651,0.013,9.302,0.021,13.952
			C0.021,67.89,0.174,68.048,1.051,68.05z"/>
		<path d="M0.004,32.282c0.002,1.197-0.007,2.394,0.003,3.591c0.007,0.786,0.13,0.906,0.881,0.906
			c2.291,0.002,4.583,0.005,6.873-0.002c0.683-0.002,0.94-0.254,0.942-0.931c0.008-2.353,0.008-4.707,0.001-7.061
			c-0.003-0.673-0.271-0.938-0.932-0.939c-2.313-0.004-4.625,0.014-6.938-0.011C0.201,27.83-0.007,28.106,0,28.688
			c0.003,0.3,0.005,0.599,0.006,0.897C0.011,30.486,0.004,31.382,0.004,32.282z"/>
		<path d="M86.367,71.548c-0.021,0.041-0.061,0.062-0.07,0.113c-0.096,0.451-0.261,0.881-0.37,1.321
			c-0.526,2.125-1.884,3.396-3.975,3.868c-1.085,0.245-2.202,0.358-3.307,0.502c-4.981,0.646-9.979,1.162-14.985,1.548
			c-5.467,0.418-10.941,0.644-16.422,0.635c-5.874-0.011-11.739-0.285-17.595-0.779c-5.295-0.447-10.57-1.039-15.831-1.777
			c-1.788-0.25-3.225-1.089-4.15-2.688c-0.459-0.794-0.572-1.701-0.828-2.56c-0.02-0.066-0.039-0.627-0.063-0.683H0.026
			c-0.005,0.045-0.01,0.089-0.005,0.148c0.063,0.711,0.003,1.924,0.142,2.636c0.237,1.229,0.374,2.479,0.83,3.659
			c1.17,3.021,3.111,5.229,6.35,6.092c0.597,0.16,1.188,0.345,1.791,0.485c5.168,1.198,10.432,1.743,15.7,2.199
			c7.562,0.655,15.137,1.115,22.568,1.014c3.455,0.031,6.742-0.003,10.027-0.158c6.258-0.298,12.508-0.718,18.731-1.445
			c3.488-0.406,6.966-0.884,10.383-1.729c2.197-0.542,4.247-1.309,5.75-3.156c2.185-2.685,2.814-5.854,3.037-9.174
			c0.002-0.029-0.005-0.047-0.006-0.071H86.367z"/>
	</g>
</g>
<g>
</g>
<g>
</g>
<g>
</g>
<g>
</g>
<g>
</g>
<g>
</g>
<g>
</g>
<g>
</g>
<g>
</g>
<g>
</g>
<g>
</g>
<g>
</g>
<g>
</g>
<g>
</g>
<g>
</g>
</svg>
