<?xml version="1.0" encoding="iso-8859-1"?>
<!-- Generator: Adobe Illustrator 16.0.0, SVG Export Plug-In . SVG Version: 6.00 Build 0)  -->
<!DOCTYPE svg PUBLIC "-//W3C//DTD SVG 1.1//EN" "http://www.w3.org/Graphics/SVG/1.1/DTD/svg11.dtd">
<svg version="1.1" id="Capa_1" xmlns="http://www.w3.org/2000/svg" xmlns:xlink="http://www.w3.org/1999/xlink" x="0px" y="0px"
	 width="97.848px" height="97.847px" viewBox="0 0 97.848 97.847" style="enable-background:new 0 0 97.848 97.847;"
	 xml:space="preserve">
<g>
	<g>
		<path d="M74.773,62.297c-0.334,0.006-2.048,0-2.595,0l-1.54,5.719c-0.08,0.331-0.109,0.611,0.383,0.733
			c2.332,0.578,3.947-0.32,4.588-2.639c0.198-0.721,0.354-1.457,0.469-2.198C76.232,62.926,75.91,62.271,74.773,62.297z"/>
		<path d="M85.932,51.872l11.916-25.089l-1.191-6.46l-13.61,0.69l-46.038-3.138L0,23.522l7.025,29.543h11.854v2.76l-9.974,1.441
			l4.265,18.691l13.423-0.188l0.126,2.194l21.012,2.008l0.063-4.141l32.866,0.502l2.384-20.198l-5.331-0.689l0.312-1.756
			L85.932,51.872z M49.1,41.68c0.305-6.463,0.775-12.917,1.133-19.377c0.043-0.778,0.305-1.017,1.072-0.938l2.873,0.082
			c1.333-0.155,1.719,0.624,2.066,1.65c1.26,3.712,2.543,7.414,3.85,11.108c0.331,0.936,0.773,1.832,1.295,3.049
			c0.571-1.258,1.082-2.223,1.454-3.235c1.267-3.451,2.279-6.982,3.12-10.557c0.201-0.85,0.562-1.132,1.357-1.022
			c0.123,0.017,0.252,0.009,0.373,0.034c3.885,0.825,3.25-0.059,3.429,3.726c0.282,6.01,0.887,11.992,1.876,17.927
			c0.158,0.953,0.021,1.314-0.989,1.192l-2.994-0.25c-1.245,0.027-1.543-0.583-1.575-1.663c-0.074-2.464-0.213-4.923-0.334-7.384
			c-0.022-0.452,0.01-0.923-0.382-1.482c-1.032,2.356-1.401,4.748-1.878,7.105c-0.349,1.729-0.602,2.015-2.382,2.048
			c-4.358,0.079-3.657,0.692-4.669-3.422c-0.488-1.979-1.214-3.889-2.125-5.975c-0.581,2.534-0.186,4.872-0.186,7.197
			c0,3.771,0.344,3.496-3,3.496C48.527,44.99,48.919,45.489,49.1,41.68z M71.35,50.82l-0.791,2.789l-5.835-0.014l0.007,1.217
			l5.66-0.021l-0.316,0.939l-0.608,1.768c-1.167-0.008-3.865,0.064-5.028-0.129c-2.049-0.344-3.246-1.686-3.05-3.74
			c0.39-4.066,2.086-6.286,6.253-6.565l4.721-0.02l-0.549,2.543c-1.086-0.039-3.049-0.027-4.133-0.004
			c-0.814,0.015-1.582,0.164-2.074,1.245C67.367,50.828,69.734,50.844,71.35,50.82z M53.494,46.854c1.588,0,3.178-0.029,4.763,0.008
			c2.506,0.058,3.29,0.966,2.987,3.439c-0.248,2.03-0.986,5.276-1.391,7.28l-3.436-0.02l1.844-7.811
			c-0.18-0.014-2.186-0.045-2.367-0.061l-0.205,0.963c-0.357,1.922-1.091,4.828-1.496,6.742l-3.562-0.007
			c0.386-1.534,1.317-5.05,1.655-6.596l0.266-1.123l-2.311-0.002l-0.198,0.671c-0.522,1.932-1.368,5.057-1.733,7.02l-3.317,0.004
			l2.389-9.667c0.15-0.635,0.427-0.88,1.102-0.859C50.154,46.886,51.824,46.854,53.494,46.854z M25.968,53.919
			c0.134,0.32,0.368,0.689,0.676,0.714l3.496,0.01l0.175-1.407c-0.334-0.002-1.421-0.002-1.754-0.002
			c-1.755,0-2.102-0.615-1.278-2.211c0.192-0.373,0.476-0.406,0.823-0.406c1.713,0.005,4.228,0.02,5.94-0.008l-0.208,0.812
			c-0.454,1.648-0.873,3.307-1.238,4.977l-0.212,0.754c-1.921-0.024-4.671,0.023-6.592-0.02c-1.817-0.044-3.094-1.303-3.051-3.116
			c0.068-2.803,0.902-5.248,3.562-6.717c1.539-0.849,3.208-0.276,4.597-0.522c1.244,0,2.289,0.015,3.334-0.006
			c0.54-0.011,0.695,0.103,0.571,0.714l-0.468,1.838h-5.515C26.379,49.404,25.259,52.238,25.968,53.919z M37.292,51.051
			c1.375-0.239,2.704-0.149,4.112-0.183c0.32-0.008,0.839,0.121,0.823-0.519c-0.012-0.495-0.169-0.646-0.548-0.702l-5.878-0.053
			l0.766-2.771l5.886,0.027c2.52,0.084,3.253,1.011,2.938,3.504c-0.256,2.029-0.725,4.016-1.14,6.012
			c-0.166,0.803-0.461,1.242-1.395,1.152l-6.748-0.113c-1.561-0.144-2.192-0.955-2.171-2.496
			C33.967,52.83,35.234,51.41,37.292,51.051z M40.881,39.217c-0.256-1.167-0.945-2.03-1.894-2.706
			c-1.526-1.091-3.05-2.184-4.596-3.251c-1.592-1.1-2.445-2.547-2.396-4.528c0.038-1.421,0.009-2.841,0.386-4.227
			c0.641-2.355,1.991-3.532,4.414-3.765l8.222,0.1c1.731,0.525,2.728,1.791,3.021,3.584c0.321,1.961,0.147,3.91-0.021,5.868
			c-0.048,0.558-0.235,0.81-0.853,0.771c-1.417-0.089-2.825-0.205-4.225-0.474c-0.908-0.174-1.29-0.478-1.05-1.493
			c0.23-0.965,0.303-1.983,0.182-2.987c-0.152-1.273-0.763-1.693-1.982-1.291c-1.075,0.355-2.164,0.722-2.336,2.118
			c-0.176,1.438,0.124,2.544,1.492,3.394c2.196,1.365,4.288,2.886,6.241,4.604c2.375,2.089,2.611,4.571,1.544,7.658
			c-0.894,2.584-3.238,3.07-5.608,3.157c-2.801,0.103-5.453-0.705-8.023-1.724c-1.825-0.723-2.381-2.322-2.526-4.134
			c-0.298-3.682-0.398-3.106,2.713-2.871c0.621,0.048,1.237,0.181,1.856,0.272c1.065,0.156,1.934,0.325,1.927,1.829
			c-0.005,1.229,2.18,1.934,3.233,1.202C41.046,40.016,40.974,39.634,40.881,39.217z M6.504,26.503
			c-0.068-0.495,0.054-0.802,0.586-0.89c1.354-0.227,2.706-0.471,4.061-0.706c0.648-0.071,0.881,0.206,0.916,0.854
			c0.08,1.454,0.243,2.905,0.585,4.326c0.192,0.799-0.014,1.252-0.909,1.337c-1.202,0.113-2.397,0.295-3.595,0.459
			c-0.626,0.085-1.005-0.027-1.072-0.793C6.94,29.556,6.715,28.029,6.504,26.503z M12.961,48.862
			c-1.066,0.185-2.129,0.39-3.203,0.584c-0.839-0.035-1.086-0.52-1.134-1.312c-0.276-4.611-0.43-9.24-1.363-13.784
			c-0.158-0.77,0.316-0.934,0.752-1.021c1.466-0.303,2.947-0.544,4.432-0.739c0.564-0.075,0.999,0.087,1.019,0.882
			c0.105,4.177,0.947,8.269,1.579,12.381C15.438,48.437,15.492,48.423,12.961,48.862z M18.362,29.979
			c-0.946,0.165-1.907,0.253-2.844,0.452c-0.837,0.176-1.272-0.007-1.295-0.943c-0.036-1.42-0.118-2.838-0.219-4.256
			c-0.062-0.882,0.29-1.295,1.186-1.363c3.581-0.277,7.16-0.591,10.74-0.885c1.248-0.103,2.501-0.177,3.746-0.3
			c0.734-0.069,1.08,0.193,1.127,0.951c0.064,1.083,0.201,2.161,0.31,3.241c0.069,0.69-0.259,1.007-0.937,1.019
			c-1.045,0.02-2.09,0.087-3.133,0.062c-0.945-0.022-1.238,0.361-1.139,1.29c0.513,4.816,0.896,9.65,1.773,14.418
			c0.195,1.054-0.03,1.458-1.112,1.446c-0.959-0.009-1.917,0.105-3.113,0.179c-0.014,0-0.265,0.02-0.513,0.052
			c-1.109,0.146-1.628-0.237-1.751-1.455c-0.43-4.278-1.003-8.541-1.459-12.818C19.629,30.114,19.249,29.82,18.362,29.979z
			 M23.31,71.949l-0.045-6.977l-3.669,6.901l-3.699,0.006l-0.088-0.777l-0.847-11.971l3.512-0.021l0.349,7.416
			c0,0,0.08,0.037,0.205-0.304c0.974-1.921,1.996-3.821,2.897-5.776l0.591-1.262l4.085,0.02l0.03,7.396
			c1.188-2.256,2.143-4.189,3.182-6.107l0.676-1.234l3.542,0.012L27.15,71.865L23.31,71.949z M41.276,76.656
			c-2.876-0.691-5.747-1.405-8.611-2.146c-1.304-0.336-1.628-0.916-1.314-2.206c0.995-4.088,1.994-8.176,3.002-12.26
			c0.389-1.572,0.912-1.869,2.525-1.473c1.618,0.396,3.234,0.806,4.851,1.209c0.585,0.146,1.115,0.307,1.371-0.547
			c0.156-0.519,0.694-0.717,1.243-0.595c0.561,0.124,0.923,0.588,0.846,1.091c-0.103,0.661,0.07,0.938,0.68,1.151
			c0.563,0.198,0.751,0.741,0.789,1.39c-0.384,1.598-0.775,3.258-1.18,4.918c-0.654,2.67-1.32,5.338-1.977,8.008
			C43.159,76.572,42.592,76.976,41.276,76.656z M55.812,67.792l1.379,4.073c-0.043-0.004-3.724-0.004-3.765,0l-0.853-2.571
			c-0.123-0.399-0.532-1.544-0.602-1.953h-2.195l-0.197,0.867l-0.756,3.457l-3.491,0.012l3.095-12.465
			c1.004,0.01,2.836,0.003,4.016,0.003c1.157,0.035,2.496-0.079,3.828,0.138c1.446,0.235,2.192,0.947,2.279,2.382
			c0.119,1.98-0.554,3.658-2.295,4.688C55.557,66.836,55.578,67.179,55.812,67.792z M61.021,71.841
			c-2.056-0.212-2.838-1.236-2.689-3.258c0.216-2.961,0.98-5.828,1.638-8.715l0.122-0.657l3.543-0.009l-1.986,7.977
			c-0.259,0.98-0.361,1.551,0.709,1.589c1.043,0.037,3.213,0.097,4.256,0.097c0.088,0,0.143,0.006,0.152,0.084l-0.014-0.004
			l-0.678,2.896H61.021z M79.811,63.765c-0.339,2.879-1.031,5.688-3.973,7.221c-1.266,0.66-2.602,0.854-3.982,0.875
			c-1.502,0.021-5.633,0.021-5.633,0.021l3.073-12.684c1.915,0.069,4.847-0.053,6.75,0.119
			C78.722,59.559,80.117,61.127,79.811,63.765z M76.906,49.146c-1.099,0.014-1.129-0.509-0.987-1.324
			c0.579-3.329,1.049-6.675,1.351-10.044c0.07-0.785-0.003-1.466-0.363-2.165c-1.492-2.888-2.916-5.814-4.455-8.68
			c-0.536-0.999-0.328-1.429,0.697-1.677c1.053-0.255,2.135-0.46,3.135-0.856c1.313-0.52,1.961,0.048,2.397,1.17
			c0.668,1.708,1.327,3.42,1.996,5.129c0.149,0.384,0.322,0.761,0.542,1.271c1.475-1.729,2.807-3.434,3.794-5.341
			c0.654-1.268,1.552-1.447,2.567-0.873c0.939,0.531,2.193,1.42,2.193,1.42c0.735,0.596-0.858,2.473-1.564,3.697
			c-0.688,1.188-1.436,2.376-2.346,3.396c-1.711,1.919-2.248,4.195-2.455,6.646c-0.211,2.494-0.531,4.981-0.717,7.476
			c-0.063,0.853-0.373,1.054-1.162,0.989C79.992,49.25,78.447,49.123,76.906,49.146z"/>
		<path d="M54.16,62.367c-0.323-0.049-2.445-0.033-2.688-0.041c-1.244-0.041-1.556,0.94-1.551,1.729l3.586,0.031
			C54.365,63.831,54.689,62.298,54.16,62.367z"/>
		<path d="M44.197,61.918c-2.424-0.599-4.846-1.199-7.271-1.791c-0.523-0.128-1.024-0.13-1.19,0.534
			c-0.686,2.746-1.363,5.49-2.045,8.238c-0.112,0.729,0.339,0.933,0.928,1.072c2.347,0.566,4.696,1.122,7.023,1.755
			c0.884,0.241,1.215-0.067,1.406-0.87c0.605-2.551,1.236-5.095,1.883-7.635C45.114,62.512,44.904,62.092,44.197,61.918z
			 M44.109,63.164c-0.631,2.552-1.229,4.894-1.778,7.246c-0.142,0.604-0.481,0.578-0.919,0.47c-2.103-0.522-4.201-1.063-6.307-1.569
			c-0.604-0.146-0.658-0.43-0.513-0.986c0.58-2.217,1.116-4.446,1.644-6.676c0.137-0.58,0.292-0.85,1.002-0.649
			c2.044,0.575,4.115,1.063,6.181,1.563C43.875,62.672,44.245,62.777,44.109,63.164z"/>
		<path d="M37.427,71.724c-1.114-0.215-0.978,0.848-1.086,1.428c-0.205,1.096,0.832,0.871,1.452,1.137
			c1.051,0.043,0.955-0.869,1.059-1.473C39.043,71.703,38.005,71.837,37.427,71.724z"/>
		<path d="M40.64,72.533c-0.953-0.088-0.747,0.875-0.96,1.408c-0.092,1.141,0.861,1.062,1.443,1.137
			c1.163,0.148,1.002-0.979,1.06-1.57C42.284,72.477,41.221,72.585,40.64,72.533z"/>
		<path d="M34.261,70.917c-1.186-0.198-1.102,0.73-1.241,1.347c-0.23,1.009,0.626,0.989,1.242,1.134
			c1.094,0.26,1.075-0.611,1.229-1.27C35.756,71,34.795,71.141,34.261,70.917z"/>
		<path d="M38.216,54.838c0.372,0.022,0.748,0.005,1.122,0.005c0-0.002,0-0.003,0-0.005c0.457,0,1.541,0.005,1.998-0.002
			l0.205-1.437c-1.032,0.014-2.579-0.178-3.594,0.157c-0.397,0.13-0.642,0.411-0.598,0.839
			C37.404,54.953,37.87,54.818,38.216,54.838z"/>
	</g>
</g>
<g>
</g>
<g>
</g>
<g>
</g>
<g>
</g>
<g>
</g>
<g>
</g>
<g>
</g>
<g>
</g>
<g>
</g>
<g>
</g>
<g>
</g>
<g>
</g>
<g>
</g>
<g>
</g>
<g>
</g>
</svg>
