<?xml version="1.0" encoding="iso-8859-1"?>
<!-- Generator: Adobe Illustrator 16.0.0, SVG Export Plug-In . SVG Version: 6.00 Build 0)  -->
<!DOCTYPE svg PUBLIC "-//W3C//DTD SVG 1.1//EN" "http://www.w3.org/Graphics/SVG/1.1/DTD/svg11.dtd">
<svg version="1.1" id="Capa_1" xmlns="http://www.w3.org/2000/svg" xmlns:xlink="http://www.w3.org/1999/xlink" x="0px" y="0px"
	 width="96.914px" height="96.915px" viewBox="0 0 96.914 96.915" style="enable-background:new 0 0 96.914 96.915;"
	 xml:space="preserve">
<g>
	<g>
		<path d="M65.68,18.102c-5.94,0-12.144,1.668-17.128,4.747c-3.255-2.484-6.921-3.861-11.124-3.861
			c-8.348,0-14.81,5.377-17.127,12.922C9.11,34.052,0,43.69,0,55.043c0,13.002,10.886,23.58,24.246,23.58l41.414,0.188h0.02
			c17.223,0,31.234-13.616,31.234-30.354C96.914,31.719,82.902,18.102,65.68,18.102z M65.688,71.04l-41.424-0.188
			c-8.971,0-16.268-7.091-16.268-15.81c0-8.29,7.392-15.215,15.895-15.771l2.982-0.194c-0.292-0.983-0.457-2.021-0.457-3.095
			c0-6.163,4.407-10.793,10.75-10.793c5.32,0,9.416,3.155,10.72,7.926l2.825-2.222c4.177-3.284,9.593-5.021,14.97-5.021
			c12.812,0,23.237,10.131,23.237,22.584C88.918,60.907,78.497,71.036,65.688,71.04z"/>
	</g>
</g>
<g>
</g>
<g>
</g>
<g>
</g>
<g>
</g>
<g>
</g>
<g>
</g>
<g>
</g>
<g>
</g>
<g>
</g>
<g>
</g>
<g>
</g>
<g>
</g>
<g>
</g>
<g>
</g>
<g>
</g>
</svg>
