<?xml version="1.0" encoding="iso-8859-1"?>
<!-- Generator: Adobe Illustrator 16.0.0, SVG Export Plug-In . SVG Version: 6.00 Build 0)  -->
<!DOCTYPE svg PUBLIC "-//W3C//DTD SVG 1.1//EN" "http://www.w3.org/Graphics/SVG/1.1/DTD/svg11.dtd">
<svg version="1.1" id="Capa_1" xmlns="http://www.w3.org/2000/svg" xmlns:xlink="http://www.w3.org/1999/xlink" x="0px" y="0px"
	 width="99.055px" height="99.055px" viewBox="0 0 99.055 99.055" style="enable-background:new 0 0 99.055 99.055;"
	 xml:space="preserve">
<g>
	<g>
		<path d="M34.947,38.84c0,1.735,0,3.405,0,5.236c1.391,0,2.703,0,4.042,0c0.027,0.601,0.06,0.983,0.06,1.364
			c0,5.882,0,11.761-0.013,17.644c-0.004,2.207-0.594,2.814-2.811,2.926c-0.609,0.031-1.22,0.006-2.021,0.006
			c0-1.66,0-3.117,0-4.677c-2.15,0.458-4.095,0.873-6.109,1.304c0-1.953,0-3.65,0-5.516c1.971,0,3.831,0,5.733,0
			c0-1.816,0-3.463,0-5.266c-1.979,0-3.837,0-5.727,0c0-1.475,0-2.783,0-4.252c1.973,0,3.827,0,5.667,0c0-1.82,0-3.475,0-5.301
			c-1.973,0-3.824,0-5.696,0c0-1.451,0-2.729,0-4.173c1.939,0,3.794,0,5.728,0c0-1.824,0-3.478,0-5.299c-1.945,0-3.799,0-5.809,0
			c0-1.774,0-3.391,0-5.059c-2.196,0-4.231,0-6.406,0c0,1.743,0,3.359,0,5.13c-2,0-3.861,0-5.723,0c0,1.813,0,3.463,0,5.283
			c1.986,0,3.839,0,5.714,0c0,1.456,0,2.733,0,4.202c-2.217,0-4.358,0-6.488,0c0,1.853,0,3.507,0,5.3c2.213,0,4.315,0,6.466,0
			c0,1.459,0,2.772,0,4.261c-1.96,0-3.813,0-5.689,0c0,1.791,0,3.404,0,5.201c1.957,0,3.815,0,5.689,0c0,2.229,0,4.271,0,6.427
			c-2.624,0.256-5.151,0.497-7.794,0.756c0.274,2.224,1.919,6.198,1.919,6.198s4.357-0.67,5.821-0.949
			c3.772-0.725,7.537-1.489,11.452-2.27c0,0.541,0,3.642,0,4.162c0,0,0.005,0.028,2.641,0.268c5.812,0.527,9.823-1.752,9.823-8.33
			l-0.013-19.35l3.153,0.004c0,0,0-3.563,0-5.229C43.998,38.84,39.459,38.84,34.947,38.84z"/>
		<path d="M93.992,53.248v-5.204l-16.266,0.021l-0.416-2.23c-2.059,0-4.061,0-6.089,0c0.063,0.706,0.123,1.36,0.201,2.203
			c-6.119,0-12.114,0-18.144,0c0,1.832,0,3.485,0,5.309c3.688,0,7.271,0,10.959,0c-0.166,7.596-4.765,11.184-11.256,13.18
			c0.5,1.705,0.971,3.305,1.465,4.996c5.988-1.371,10.764-4.219,13.81-9.543l0.591-1.019l15.875,0.013
			c0,0.703,0.008,1.469-0.001,2.088c-0.003,0.352-0.021,1.469-0.021,1.469s-0.713,0.992-2.227,1.312
			c-0.791,0.169-1.625,0.24-2.434,0.21c-1.773-0.063-3.469-0.231-5.426-0.368l0.002,5.268c2.231,0.639,5.714,1.172,8.173,1.045
			c4.577-0.237,7.853-2.611,8.308-6.413l-0.002-9.962c-6.792,0-20.615,0-20.615,0l0.151-2.365L93.992,53.248z"/>
		<path d="M91.388,36.626v2.209h-5.485l1.604-2.994c0,0,4.9,0,6.264,0v-5.237L77.66,30.606l-0.32-2.384h-6.104
			c0.064,0.805,0.121,1.511,0.194,2.421c-5.655,0-11.17,0-16.723,0c0,1.809,0,3.421,0,5.198h5.821l1.893,3.149
			c-2.939,0-6.314,0-9.229,0v7.927h5.235l0.001-2.601c11.012,0,22.053,0,32.956,0l0.017,2.528c2.638-1.776,5.08-3.423,7.652-5.158
			C96.395,39.929,93.965,38.327,91.388,36.626z M79.779,38.904c-3.373,0.048-11.502-0.012-11.502-0.012l-1.569-2.937
			c4.929,0,9.705,0,14.713,0L79.779,38.904z"/>
		<path d="M12.282,71.79c-2.152,0-4.113,0-6.274,0c0-4.803,0-14.828,0-14.828s-1.458,1.562-2.144,2.305
			C2.59,58.138,1.349,57.039,0,55.845c6.979-8.616,8.979-17.299,8.979-17.299l-0.596,0.666c-1.351,1.614-2.777,3.274-4.381,4.793
			c-1.352-1.782-2.295-2.896-3.381-4.333c3.726-3.49,6.035-7.833,7.91-12.633c1.964,0.744,3.866,1.468,6.069,2.305
			c-1.779,3.638-3.244,6.226-5.434,9.069c1.827,0.395,3.884,0.856,6.063,1.326c-0.825,2.141-2.344,6.141-2.344,6.141l-0.58,1.411
			c0,0-0.024,15.564-0.024,22.74C12.282,70.555,12.282,71.077,12.282,71.79z"/>
		<path d="M46.87,29.123c-1.707,3.192-3.332,6.23-5.096,9.528c-1.785-3.271-3.448-6.322-5.197-9.528
			C40.047,29.123,43.334,29.123,46.87,29.123z"/>
	</g>
</g>
<g>
</g>
<g>
</g>
<g>
</g>
<g>
</g>
<g>
</g>
<g>
</g>
<g>
</g>
<g>
</g>
<g>
</g>
<g>
</g>
<g>
</g>
<g>
</g>
<g>
</g>
<g>
</g>
<g>
</g>
</svg>
