<?xml version="1.0" encoding="iso-8859-1"?>
<!-- Generator: Adobe Illustrator 16.0.0, SVG Export Plug-In . SVG Version: 6.00 Build 0)  -->
<!DOCTYPE svg PUBLIC "-//W3C//DTD SVG 1.1//EN" "http://www.w3.org/Graphics/SVG/1.1/DTD/svg11.dtd">
<svg version="1.1" id="Capa_1" xmlns="http://www.w3.org/2000/svg" xmlns:xlink="http://www.w3.org/1999/xlink" x="0px" y="0px"
	 width="94.84px" height="94.84px" viewBox="0 0 94.84 94.84" style="enable-background:new 0 0 94.84 94.84;" xml:space="preserve"
	>
<g>
	<g>
		<path d="M85.23,76.638c-0.049-0.211-0.057-0.399-0.045-0.584c6.053-7.963,9.654-17.884,9.654-28.635
			c0-26.146-21.271-47.417-47.416-47.417C21.274,0.002,0,21.273,0,47.419c0,26.147,21.273,47.419,47.424,47.419
			c10.936,0,21.012-3.732,29.041-9.979c0.26-0.037,0.529-0.015,0.844,0.074c3.135,0.879,6.285,1.711,9.432,2.555
			c0.291,0.078,0.591,0.135,0.982,0.223c-0.068-0.4-0.104-0.703-0.172-0.999C86.783,83.354,86.023,79.992,85.23,76.638z
			 M71.445,60.508c-0.031,2.589-0.543,5.104-1.529,7.508c-1.752,4.271-4.824,7.184-9.26,8.414c-5.81,1.614-11.41,1.075-16.374-2.599
			c-1.504-1.113-2.754-2.638-3.906-4.14c-0.953-1.241-1.014-2.78-0.148-4.162c0.795-1.269,2.041-1.909,3.529-1.651
			c0.76,0.131,1.506,0.569,2.16,1.013c1.061,0.721,2,1.616,3.059,2.334c2.492,1.682,5.295,2.026,8.201,1.648
			c2.736-0.355,4.621-1.923,5.254-4.572c0.523-2.201,0.799-4.503,0.867-6.77c0.129-4.446,0.043-8.899,0.035-13.351
			c-0.004-1.743-0.365-2.098-2.096-2.112c-1.226-0.01-2.447,0.02-3.67-0.013c-1.404-0.037-2.053-0.708-2.07-2.111
			c-0.018-1.223-0.025-2.445,0.006-3.667c0.027-1.207,0.742-1.937,1.949-1.942c4.012-0.02,8.021-0.02,12.035-0.001
			c1.309,0.007,1.984,0.769,1.988,2.198c0.01,4.105,0.006,8.212,0.006,12.317c-0.011,0-0.019,0-0.025,0
			C71.457,52.736,71.492,56.622,71.445,60.508z M35.885,37.782c0.008-4.308,3.469-7.794,7.754-7.814
			c4.338-0.02,7.869,3.468,7.886,7.791c0.019,4.334-3.473,7.839-7.815,7.848C39.361,45.615,35.875,42.13,35.885,37.782z"/>
		<path d="M48.359,37.929c0.045-2.583-2.017-4.708-4.588-4.733c-2.539-0.024-4.631,2.01-4.676,4.55
			c-0.047,2.589,2,4.701,4.586,4.732C46.213,42.509,48.314,40.467,48.359,37.929z"/>
	</g>
</g>
<g>
</g>
<g>
</g>
<g>
</g>
<g>
</g>
<g>
</g>
<g>
</g>
<g>
</g>
<g>
</g>
<g>
</g>
<g>
</g>
<g>
</g>
<g>
</g>
<g>
</g>
<g>
</g>
<g>
</g>
</svg>
