<?xml version="1.0" encoding="iso-8859-1"?>
<!-- Generator: Adobe Illustrator 16.0.0, SVG Export Plug-In . SVG Version: 6.00 Build 0)  -->
<!DOCTYPE svg PUBLIC "-//W3C//DTD SVG 1.1//EN" "http://www.w3.org/Graphics/SVG/1.1/DTD/svg11.dtd">
<svg version="1.1" id="Capa_1" xmlns="http://www.w3.org/2000/svg" xmlns:xlink="http://www.w3.org/1999/xlink" x="0px" y="0px"
	 width="94.411px" height="94.411px" viewBox="0 0 94.411 94.411" style="enable-background:new 0 0 94.411 94.411;"
	 xml:space="preserve">
<g>
	<g>
		<path d="M51.537,38.117c-0.61,2.933,0.197,5.582,1.805,5.914c1.607,0.335,3.404-1.772,4.016-4.704
			c0.611-2.933-0.197-5.581-1.806-5.914C53.944,33.078,52.147,35.185,51.537,38.117z M55.674,36.118
			c-0.206,0.612-0.754,0.977-1.221,0.818c-0.467-0.16-0.676-0.785-0.467-1.396c0.207-0.611,0.756-0.978,1.221-0.817
			C55.674,34.882,55.883,35.507,55.674,36.118z"/>
		<path d="M42.392,27.811c-1.583-0.437-3.511,1.551-4.311,4.437c-0.798,2.888-0.162,5.582,1.421,6.019
			c1.581,0.436,3.511-1.55,4.309-4.436C44.609,30.942,43.977,28.249,42.392,27.811z M42.338,30.519
			c-0.245,0.597-0.817,0.927-1.271,0.738c-0.456-0.19-0.625-0.827-0.378-1.423c0.249-0.598,0.817-0.927,1.272-0.737
			C42.418,29.287,42.587,29.923,42.338,30.519z"/>
		<path d="M70.629,65.02c2.222-0.802,24.295-11.801,23.773-22.561c0,0,0.01-3.463-6.418-5.378
			c-5.896-1.757-22.387-4.338-22.387-4.338s-0.094-0.45-0.254-1.225c-0.834-4.062-3.475-17.052-3.911-20.986
			C60.912,5.85,56.572-3.7,47.207,2.376C35.069,10.245,27.77,17.821,26.729,19.9c-9.023-3.112-11.606-4.237-15.555-5.864
			C6.231,12,0.183,12.787,0.007,19.728c-0.175,6.94,2.775,21.518,8.676,28.111c0,0,1.907,1.735,0.868,4.513
			c-1.041,2.775-4.256,15.022-2.604,25.161c1.592,9.764,5.206,12.318,8.502,12.318c3.297,0,6.768-2.082,17.179-10.236
			c0,0,1.737-2.43,3.473-0.692c1.735,1.733,15.439,15.095,29.669,15.095c0,0,5.843,0,5.554-7.114
			c-0.238-5.895-1.908-19.606-1.908-19.606C69.369,66.865,68.987,65.612,70.629,65.02z M58.223,58.458L56.74,57.79
			c-0.002-0.001-0.004-0.002-0.006-0.002c-4.324,3.99-18.97,12.516-26.358,7.589c-6.636-4.422-7.952-16.218-8.17-18.919
			l-1.098-0.562c-0.276-0.142-0.249-0.241,0.06-0.224c0,0,0.884,0.055,1.481-0.262c0.6-0.315,1.801-1.432,1.801-1.432
			c0.228-0.211,0.274-0.171,0.107,0.09l-1.405,2.188c0.103,1.631,1.042,12.142,8.475,16.756c7.592,4.71,23.053-4.975,24.869-6.146
			c0.213-0.549,0.889-2.29,0.936-2.433c0,0-0.436,1.633-0.102,2.473c0.332,0.841,0.983,1.411,0.983,1.411
			C58.547,58.522,58.504,58.584,58.223,58.458z M58.232,44.19c-1.995,7.848-7.064,13.331-11.324,12.25
			c-3.344-0.854-5.185-5.508-4.857-11.268c-2.581,4.412-6.144,6.964-9.195,6.1c-4.225-1.202-5.86-8.487-3.648-16.276
			c2.21-7.79,7.429-13.13,11.657-11.93c3.178,0.902,4.888,5.248,4.603,10.66c2.432-4.092,5.74-6.448,8.667-5.704
			C58.392,29.104,60.228,36.345,58.232,44.19z"/>
	</g>
</g>
<g>
</g>
<g>
</g>
<g>
</g>
<g>
</g>
<g>
</g>
<g>
</g>
<g>
</g>
<g>
</g>
<g>
</g>
<g>
</g>
<g>
</g>
<g>
</g>
<g>
</g>
<g>
</g>
<g>
</g>
</svg>
