<?xml version="1.0" encoding="iso-8859-1"?>
<!-- Generator: Adobe Illustrator 16.0.0, SVG Export Plug-In . SVG Version: 6.00 Build 0)  -->
<!DOCTYPE svg PUBLIC "-//W3C//DTD SVG 1.1//EN" "http://www.w3.org/Graphics/SVG/1.1/DTD/svg11.dtd">
<svg version="1.1" id="Capa_1" xmlns="http://www.w3.org/2000/svg" xmlns:xlink="http://www.w3.org/1999/xlink" x="0px" y="0px"
	 width="98.018px" height="98.019px" viewBox="0 0 98.018 98.019" style="enable-background:new 0 0 98.018 98.019;"
	 xml:space="preserve">
<g>
	<g>
		<path d="M80.591,49.847L44.058,28.66l16.804-9.204c4.527-2.529,5.903-9.438,3.375-13.966s-8.944-7.008-13.478-4.479l-33.875,18.99
			c-3.736,2.087-4.282,5.954-4.282,10.313l0.123,58.737c-0.169,4.267,5.378,11.89,13.454,7.794
			c2.711-1.146,54.724-31.243,54.724-31.243c2.848-1.634,4.578-4.688,4.512-7.972C85.35,54.349,83.5,51.365,80.591,49.847z
			 M63.442,59.525l-33.566,19.04c-0.283,0.159-0.598,0.239-0.913,0.239c-0.32,0-0.642-0.084-0.93-0.251
			c-0.568-0.331-0.917-0.938-0.917-1.597v-38.22c0-0.659,0.351-1.27,0.92-1.601c0.569-0.33,1.271-0.332,1.844-0.006l33.568,19.18
			c0.576,0.33,0.933,0.944,0.932,1.607C64.378,58.584,64.019,59.197,63.442,59.525z"/>
		<polygon points="30.354,74.24 59.405,57.762 30.354,41.163 		"/>
	</g>
</g>
<g>
</g>
<g>
</g>
<g>
</g>
<g>
</g>
<g>
</g>
<g>
</g>
<g>
</g>
<g>
</g>
<g>
</g>
<g>
</g>
<g>
</g>
<g>
</g>
<g>
</g>
<g>
</g>
<g>
</g>
</svg>
