<?xml version="1.0" encoding="iso-8859-1"?>
<!-- Generator: Adobe Illustrator 16.0.0, SVG Export Plug-In . SVG Version: 6.00 Build 0)  -->
<!DOCTYPE svg PUBLIC "-//W3C//DTD SVG 1.1//EN" "http://www.w3.org/Graphics/SVG/1.1/DTD/svg11.dtd">
<svg version="1.1" id="Capa_1" xmlns="http://www.w3.org/2000/svg" xmlns:xlink="http://www.w3.org/1999/xlink" x="0px" y="0px"
	 width="97.616px" height="97.617px" viewBox="0 0 97.616 97.617" style="enable-background:new 0 0 97.616 97.617;"
	 xml:space="preserve">
<g>
	<g>
		<path d="M24.03,11.896C9.551,11.896,0,22.651,0,37.837C0,74.404,39.438,61.841,46.793,85.72c0-3.453,0-9.988,0-13.178
			c-5.852-14.392-36.745-7.004-36.745-31.692h36.745C46.792,24.359,41.114,11.896,24.03,11.896z M10.047,33.811
			c0.705-6.631,4.519-14.275,13.778-14.275c8.141,0,12.766,6.43,12.766,14.275H10.047z"/>
		<path d="M73.584,11.896c-17.094,0-22.764,12.463-22.764,28.954h36.744c0,24.688-30.904,17.302-36.744,31.692
			c0,3.189,0,9.725,0,13.178c7.363-23.879,46.796-11.316,46.796-47.883C97.617,22.651,88.062,11.896,73.584,11.896z M61.023,33.811
			c0-7.845,4.621-14.275,12.762-14.275c9.249,0,13.064,7.644,13.779,14.275H61.023z"/>
	</g>
</g>
<g>
</g>
<g>
</g>
<g>
</g>
<g>
</g>
<g>
</g>
<g>
</g>
<g>
</g>
<g>
</g>
<g>
</g>
<g>
</g>
<g>
</g>
<g>
</g>
<g>
</g>
<g>
</g>
<g>
</g>
</svg>
