<?xml version="1.0" encoding="iso-8859-1"?>
<!-- Generator: Adobe Illustrator 16.0.0, SVG Export Plug-In . SVG Version: 6.00 Build 0)  -->
<!DOCTYPE svg PUBLIC "-//W3C//DTD SVG 1.1//EN" "http://www.w3.org/Graphics/SVG/1.1/DTD/svg11.dtd">
<svg version="1.1" id="Capa_1" xmlns="http://www.w3.org/2000/svg" xmlns:xlink="http://www.w3.org/1999/xlink" x="0px" y="0px"
	 width="94.811px" height="94.811px" viewBox="0 0 94.811 94.811" style="enable-background:new 0 0 94.811 94.811;"
	 xml:space="preserve">
<g>
	<g>
		<path d="M93.737,58.707c-1.888-2.705-5.608-3.37-8.314-1.484c-43.659,30.43-73.307-10.919-74.547-12.694
			c-1.88-2.703-5.596-3.375-8.302-1.5c-2.713,1.877-3.389,5.596-1.511,8.309c0.66,0.953,16.472,23.408,42.905,28.171
			c3.265,0.589,6.539,0.882,9.819,0.882c12.808,0,25.706-4.477,38.465-13.369C94.958,65.136,95.623,61.414,93.737,58.707z"/>
		<circle cx="68.343" cy="30.47" r="9.518"/>
		<circle cx="32.136" cy="23.938" r="9.518"/>
	</g>
</g>
<g>
</g>
<g>
</g>
<g>
</g>
<g>
</g>
<g>
</g>
<g>
</g>
<g>
</g>
<g>
</g>
<g>
</g>
<g>
</g>
<g>
</g>
<g>
</g>
<g>
</g>
<g>
</g>
<g>
</g>
</svg>
