<?xml version="1.0" encoding="iso-8859-1"?>
<!-- Generator: Adobe Illustrator 16.0.0, SVG Export Plug-In . SVG Version: 6.00 Build 0)  -->
<!DOCTYPE svg PUBLIC "-//W3C//DTD SVG 1.1//EN" "http://www.w3.org/Graphics/SVG/1.1/DTD/svg11.dtd">
<svg version="1.1" id="Capa_1" xmlns="http://www.w3.org/2000/svg" xmlns:xlink="http://www.w3.org/1999/xlink" x="0px" y="0px"
	 width="98.201px" height="98.201px" viewBox="0 0 98.201 98.201" style="enable-background:new 0 0 98.201 98.201;"
	 xml:space="preserve">
<g>
	<g>
		<path d="M87.107,19.037c0,0-15.748-1.77-38.772-1.77c-23.023,0-34.903,1.77-34.903,1.77C2.554,19.99,0,28.491,0,33.176v6.927
			v1.761v12.353c0,5.058,1.873,13.108,11.094,14.172c0,0,0.978,0.108,2.801,0.274v12.271l11.452-11.451
			c6.475,0.362,14.852,0.674,24.519,0.674c23.024,0,34.903-1.77,34.903-1.77c10.877-0.953,13.432-9.469,13.432-14.172V41.864v-1.761
			v-6.927C98.202,28.14,96.329,20.1,87.107,19.037z M28.193,58.274h-4.714V43.867L13.435,28.933h5.681l6.653,9.893l6.223-9.893
			h5.569l-9.368,14.894V58.274z M44.271,58.155c-5.634,0-10.201-4.565-10.201-10.2c0-5.635,4.567-10.201,10.201-10.201
			c5.633,0,10.202,4.566,10.202,10.201C54.473,53.589,49.904,58.155,44.271,58.155z M73.617,56.721c0,0-0.027,1.51-1.364,1.51
			s-8.748,0-8.748,0c-3.409,0-6.72-1.846-6.72-5.731V38.387h4.479v11.635c0,1.854,0.336,4.185,3.947,4.185l3.719,0.004
			l-0.006-15.822h4.715L73.617,56.721z M87.352,42.807c0,0-2.309-0.012-3.898-0.012c-1.594,0-3.201,1.01-3.201,2.532
			c0,1.693,0,12.947,0,12.947H75.42V45.146c0,0-0.414-7.014,6.729-7.014c3.354,0,4.627-0.001,5.086-0.001l0,0c0,0,0.277,0,0,0
			c0.043,0,0.089,0,0.117,0V42.807L87.352,42.807z"/>
		<path d="M44.271,42.468c-3.025,0-5.487,2.461-5.487,5.487c0,3.025,2.461,5.486,5.487,5.486s5.487-2.461,5.487-5.486
			C49.758,44.929,47.296,42.468,44.271,42.468z"/>
	</g>
</g>
<g>
</g>
<g>
</g>
<g>
</g>
<g>
</g>
<g>
</g>
<g>
</g>
<g>
</g>
<g>
</g>
<g>
</g>
<g>
</g>
<g>
</g>
<g>
</g>
<g>
</g>
<g>
</g>
<g>
</g>
</svg>
