<?xml version="1.0" encoding="iso-8859-1"?>
<!-- Generator: Adobe Illustrator 16.0.0, SVG Export Plug-In . SVG Version: 6.00 Build 0)  -->
<!DOCTYPE svg PUBLIC "-//W3C//DTD SVG 1.1//EN" "http://www.w3.org/Graphics/SVG/1.1/DTD/svg11.dtd">
<svg version="1.1" id="Capa_1" xmlns="http://www.w3.org/2000/svg" xmlns:xlink="http://www.w3.org/1999/xlink" x="0px" y="0px"
	 width="97.246px" height="97.246px" viewBox="0 0 97.246 97.246" style="enable-background:new 0 0 97.246 97.246;"
	 xml:space="preserve">
<g>
	<g>
		<polygon points="97.077,70.21 79.503,70.21 74.069,53.491 68.644,70.21 51.075,70.21 65.286,80.533 59.858,97.246 74.069,86.919 
			88.287,97.246 82.86,80.533 		"/>
		<path d="M40.403,66.74c0,0,22.022,0,25.716,0c1.149-3.522,7.95-24.468,7.95-24.468s6.808,20.945,7.947,24.468
			c1.799,0,7.922,0,13.738,0L74.069,0L56.625,53.698H0.169l56.739,41.397c1.819-5.584,3.739-11.515,4.299-13.238
			C58.218,79.684,40.403,66.74,40.403,66.74z"/>
	</g>
</g>
<g>
</g>
<g>
</g>
<g>
</g>
<g>
</g>
<g>
</g>
<g>
</g>
<g>
</g>
<g>
</g>
<g>
</g>
<g>
</g>
<g>
</g>
<g>
</g>
<g>
</g>
<g>
</g>
<g>
</g>
</svg>
