<?xml version="1.0" encoding="iso-8859-1"?>
<!-- Generator: Adobe Illustrator 16.0.0, SVG Export Plug-In . SVG Version: 6.00 Build 0)  -->
<!DOCTYPE svg PUBLIC "-//W3C//DTD SVG 1.1//EN" "http://www.w3.org/Graphics/SVG/1.1/DTD/svg11.dtd">
<svg version="1.1" id="Capa_1" xmlns="http://www.w3.org/2000/svg" xmlns:xlink="http://www.w3.org/1999/xlink" x="0px" y="0px"
	 width="97.211px" height="97.21px" viewBox="0 0 97.211 97.21" style="enable-background:new 0 0 97.211 97.21;"
	 xml:space="preserve">
<g>
	<g>
		<path d="M29.119,41.438c-2.499,0-4.237,0.648-5.812,1.839c-1.087,0.812-2.119,1.947-2.936,3.408h-0.106
			c-1.143-3.084-3.858-5.248-7.444-5.248c-4.347,0-6.79,2.326-8.258,4.814H4.401l-0.218-4.22H0c0.163,2.165,0.217,4.382,0.217,7.088
			v19.096H4.89V52.42c0-0.812,0.108-1.623,0.38-2.327c0.762-2.38,2.934-4.76,5.923-4.76c3.639,0,5.486,3.029,5.486,7.195v15.688
			h4.673V52.042c0-0.865,0.163-1.731,0.38-2.38c0.814-2.327,2.933-4.328,5.649-4.328c3.857,0,5.705,3.029,5.705,8.061v14.822h4.673
			V52.798C37.758,43.71,32.597,41.438,29.119,41.438z"/>
		<path d="M50.738,28.994c-1.739,0-2.989,1.713-2.989,3.927c0,2.141,1.196,3.854,2.879,3.854c1.903,0,3.097-1.713,3.043-3.854
			C53.67,30.708,52.531,28.994,50.738,28.994z"/>
		<path d="M94.166,36.775c1.902,0,3.096-1.713,3.043-3.854c0-2.214-1.141-3.927-2.934-3.927c-1.738,0-2.988,1.713-2.988,3.927
			C91.287,35.062,92.482,36.775,94.166,36.775z"/>
		<rect x="48.345" y="42.033" width="4.781" height="26.184"/>
		<path d="M84.146,42.033h-5.162l-3.694,5.572c-0.867,1.408-1.737,2.759-2.606,4.328h-0.162c-0.871-1.461-1.687-2.812-2.662-4.273
			l-3.75-5.627h-5.324l8.91,12.823l-9.344,13.361h5.269l3.805-5.896c0.978-1.568,1.899-2.977,2.771-4.543h0.109
			c0.922,1.568,1.793,3.029,2.824,4.543l3.855,5.896h5.435l-9.235-13.523L84.146,42.033z"/>
		<rect x="91.857" y="42.033" width="4.781" height="26.184"/>
	</g>
</g>
<g>
</g>
<g>
</g>
<g>
</g>
<g>
</g>
<g>
</g>
<g>
</g>
<g>
</g>
<g>
</g>
<g>
</g>
<g>
</g>
<g>
</g>
<g>
</g>
<g>
</g>
<g>
</g>
<g>
</g>
</svg>
