<?xml version="1.0" encoding="iso-8859-1"?>
<!-- Generator: Adobe Illustrator 16.0.0, SVG Export Plug-In . SVG Version: 6.00 Build 0)  -->
<!DOCTYPE svg PUBLIC "-//W3C//DTD SVG 1.1//EN" "http://www.w3.org/Graphics/SVG/1.1/DTD/svg11.dtd">
<svg version="1.1" id="Capa_1" xmlns="http://www.w3.org/2000/svg" xmlns:xlink="http://www.w3.org/1999/xlink" x="0px" y="0px"
	 width="97.156px" height="97.156px" viewBox="0 0 97.156 97.156" style="enable-background:new 0 0 97.156 97.156;"
	 xml:space="preserve">
<g>
	<g>
		<path d="M70.722,30.438c1.903,1.06,3.385,0.509,3.825-1.594c0.396-1.89,0.599-3.871,0.515-5.796
			c-0.127-2.824-1.906-4.339-4.41-4.139c-2.436,0.193-3.635,1.73-3.611,5.547C67.097,26.468,68.041,28.945,70.722,30.438z"/>
		<path d="M70.358,65.655c-2.356,0.146-4.061,2.114-3.95,4.755c0.101,2.438,0.785,4.662,2.801,6.291
			c2.476,2,4.267,1.473,4.978-1.577c0.26-1.106,0.271-2.269,0.32-2.703c0-1.241,0.018-1.772-0.004-2.303
			C74.397,67.398,72.642,65.516,70.358,65.655z"/>
		<path d="M80.802,48.678c9.42-3.613,16.109-12.735,16.109-23.428c0-13.857-11.232-25.09-25.089-25.09
			c-10.406,0-19.331,6.334-23.133,15.357C44.928,6.41,35.961,0,25.496,0C11.639,0,0.406,11.232,0.406,25.09
			c0,10.68,6.676,19.795,16.078,23.416C6.996,52.085,0.245,61.244,0.245,71.985c0,13.856,11.233,25.091,25.089,25.091
			c10.451,0,19.405-6.391,23.178-15.475c3.754,9.127,12.729,15.555,23.209,15.555c13.856,0,25.09-11.232,25.09-25.09
			C96.812,61.413,90.168,52.317,80.802,48.678z M59.767,12.119c7.725-3.336,15.539-3.231,23.166,0.43
			c2.92,1.404,3.875,3.991,3.492,6.297c-0.365,6.094-1.1,11.267-2.897,16.236c-0.421,1.164-0.927,2.32-1.558,3.385
			c-3.633,6.119-7.699,7.55-13.264,2.552c-5.959-5.353-10.41-11.962-12.843-19.733C54.502,16.933,55.625,13.908,59.767,12.119z
			 M13.93,29.904c-0.565,2.04-0.774,4.18-1.146,6.273c-0.125,0.697-0.217,1.405-0.41,2.082c-0.365,1.266-0.587,2.926-2.164,3.012
			c-1.74,0.095-1.724-1.732-2.146-2.899c-1.648-4.547-1.561-9.325-1.762-13.532c0.012-5.066,0.111-9.604,1.787-13.906
			c1.65-4.237,4.773-4.871,7.914-1.572c2.527,2.652,4.197,5.934,6.229,8.95c3.579,5.314,5.374,5.311,8.67-0.122
			c1.558-2.566,3.054-5.178,4.407-7.855c0.778-1.541,1.987-2.824,3.477-2.854c1.854-0.037,2.298,1.906,2.753,3.446
			c2.452,8.309,2.69,16.758,1.562,25.286c-0.092,0.697-0.297,1.396-0.566,2.046c-0.369,0.884-0.684,1.931-1.875,2.011
			c-1.426,0.097-1.596-1.166-2.057-2.079c-0.916-1.815-0.834-3.883-1.439-5.771c-0.394-1.225-0.575-2.771-2.312-2.867
			c-1.636-0.092-2.249,1.252-2.845,2.426c-0.883,1.735-1.617,3.547-2.477,5.295c-0.428,0.871-0.906,1.746-1.516,2.493
			c-1.941,2.384-4.066,2.213-5.363-0.568c-1.229-2.64-2.141-5.425-3.242-8.126c-0.296-0.729-0.67-1.469-1.176-2.063
			C16.533,27.017,14.634,27.367,13.93,29.904z M36.67,68.018c-2.924-0.06-5.841-0.49-8.764-0.517
			c-4.957-0.044-7.371,3.513-5.703,8.238c1.182,3.348,3.78,5.526,6.461,7.61c1.613,1.254,3.27,2.449,4.899,3.681
			c0.481,0.364,1.173,0.684,0.906,1.438c-0.267,0.75-1.033,0.594-1.614,0.572c-6.335-0.24-11.922-2.643-17.031-6.189
			c-3.895-2.707-7.1-5.948-6.492-11.153C9.1,61.469,16.105,55.893,23.486,54.838c6.123-0.876,13.979,4.001,15.684,9.926
			C39.752,66.79,38.883,68.062,36.67,68.018z M48.544,62.451c-2.616-6.361-7.769-11.405-14.198-13.882
			c6.439-2.429,11.618-7.426,14.281-13.747c2.611,6.319,7.729,11.335,14.115,13.814C56.324,51.1,51.175,56.118,48.544,62.451z
			 M85.777,66.57c-0.286,5.074-0.998,10.043-2.577,14.875c-0.303,0.924-0.676,1.839-1.132,2.695
			c-4.189,7.863-8.29,8.901-14.707,2.984c-5.226-4.816-9.152-10.71-11.417-17.552c-2.18-6.576-0.414-9.775,6.273-11.742
			c2.672-0.786,5.385-1.041,7.81-1.001c4.278-0.029,8.131,0.391,11.7,2.23C85.192,60.848,85.996,62.682,85.777,66.57z"/>
	</g>
</g>
<g>
</g>
<g>
</g>
<g>
</g>
<g>
</g>
<g>
</g>
<g>
</g>
<g>
</g>
<g>
</g>
<g>
</g>
<g>
</g>
<g>
</g>
<g>
</g>
<g>
</g>
<g>
</g>
<g>
</g>
</svg>
