<?xml version="1.0" encoding="iso-8859-1"?>
<!-- Generator: Adobe Illustrator 16.0.0, SVG Export Plug-In . SVG Version: 6.00 Build 0)  -->
<!DOCTYPE svg PUBLIC "-//W3C//DTD SVG 1.1//EN" "http://www.w3.org/Graphics/SVG/1.1/DTD/svg11.dtd">
<svg version="1.1" id="Capa_1" xmlns="http://www.w3.org/2000/svg" xmlns:xlink="http://www.w3.org/1999/xlink" x="0px" y="0px"
	 width="98.209px" height="98.209px" viewBox="0 0 98.209 98.209" style="enable-background:new 0 0 98.209 98.209;"
	 xml:space="preserve">
<g>
	<g>
		<g>
			<path d="M3.255,76.038c2.475,1.069,4.974,0.88,7.383-0.248c3.419-1.603,6.095-4.211,8.757-6.778
				c6.234-6.021,13.708-9.789,21.929-12.186c5.006-1.458,10.162-2.158,15.364-2.491c8.741-0.565,17.388,0.313,25.99,1.815
				c3.521,0.613,6.984,1.488,10.402,2.521c6.192,1.868,6.021-1.5,3.44-2.733c-0.758-0.363-1.042-0.533-1.811-0.881
				c-6.116-2.785-12.557-4.562-19.136-5.808c-6.538-1.238-13.156-1.944-19.838-1.847c-2.264,0.013-4.526,0.044-6.792,0.21
				c-10.363,0.744-20.494,2.549-30.134,6.568c-5.487,2.284-10.62,5.15-14.806,9.465c-1.558,1.604-2.877,3.392-3.61,5.549
				C-0.637,72.27,0.363,74.787,3.255,76.038z"/>
			<circle cx="26.286" cy="33.257" r="11.794"/>
		</g>
	</g>
</g>
<g>
</g>
<g>
</g>
<g>
</g>
<g>
</g>
<g>
</g>
<g>
</g>
<g>
</g>
<g>
</g>
<g>
</g>
<g>
</g>
<g>
</g>
<g>
</g>
<g>
</g>
<g>
</g>
<g>
</g>
</svg>
