<?xml version="1.0" encoding="iso-8859-1"?>
<!-- Generator: Adobe Illustrator 16.0.0, SVG Export Plug-In . SVG Version: 6.00 Build 0)  -->
<!DOCTYPE svg PUBLIC "-//W3C//DTD SVG 1.1//EN" "http://www.w3.org/Graphics/SVG/1.1/DTD/svg11.dtd">
<svg version="1.1" id="Capa_1" xmlns="http://www.w3.org/2000/svg" xmlns:xlink="http://www.w3.org/1999/xlink" x="0px" y="0px"
	 width="97.646px" height="97.646px" viewBox="0 0 97.646 97.646" style="enable-background:new 0 0 97.646 97.646;"
	 xml:space="preserve">
<g>
	<path d="M69.302,0c8.681,0,15.713,7.03,15.713,15.705c0,8.681-7.034,15.714-15.713,15.714c-8.669,0-15.707-7.033-15.705-15.714
		C53.597,7.032,60.634,0,69.302,0z M39.546,4.646c6.403,0,11.598,5.188,11.598,11.591c0,6.399-5.195,11.587-11.598,11.587
		c-6.398,0-11.588-5.188-11.588-11.587C27.958,9.834,33.148,4.646,39.546,4.646z M17.162,7.595c4.608,0,8.341,3.735,8.341,8.344
		c0,4.607-3.733,8.342-8.341,8.342s-8.344-3.735-8.344-8.342C8.818,11.332,12.554,7.595,17.162,7.595z M92.103,97.646H47.437V76.708
		H23.409V59.449H5.543V37.206h0.018c0.219-6.361,5.43-11.45,11.841-11.45c5.371,0,9.899,3.569,11.36,8.466
		c2.936-2.691,6.833-4.348,11.125-4.348c6.773,0,12.584,4.083,15.119,9.92c3.938-3.478,9.095-5.607,14.761-5.607
		c12.078,0,21.888,9.594,22.296,21.564h0.041L92.103,97.646L92.103,97.646z"/>
</g>
<g>
</g>
<g>
</g>
<g>
</g>
<g>
</g>
<g>
</g>
<g>
</g>
<g>
</g>
<g>
</g>
<g>
</g>
<g>
</g>
<g>
</g>
<g>
</g>
<g>
</g>
<g>
</g>
<g>
</g>
</svg>
