<?xml version="1.0" encoding="iso-8859-1"?>
<!-- Generator: Adobe Illustrator 16.0.0, SVG Export Plug-In . SVG Version: 6.00 Build 0)  -->
<!DOCTYPE svg PUBLIC "-//W3C//DTD SVG 1.1//EN" "http://www.w3.org/Graphics/SVG/1.1/DTD/svg11.dtd">
<svg version="1.1" id="Capa_1" xmlns="http://www.w3.org/2000/svg" xmlns:xlink="http://www.w3.org/1999/xlink" x="0px" y="0px"
	 width="99.371px" height="99.372px" viewBox="0 0 99.371 99.372" style="enable-background:new 0 0 99.371 99.372;"
	 xml:space="preserve">
<g>
	<g id="Layer_1_1_">
		<g>
			<path d="M32.114,42.395c-2.363,0-3.481,1.85-3.481,1.85s-0.906-1.85-3.12-1.85c-1.862,0-3.213,1.741-3.213,1.741V42.65h-2.428
				v10.405H22.3v-5.896c0-1.128,0.577-2.602,2.253-2.602c1.274,0,2.08,0.885,2.08,2.602v5.896h2.428v-5.723
				c0-1.58,0.691-2.774,2.255-2.774c1.511,0,2.08,1.082,2.08,2.774v5.723h2.428v-6.416C35.823,44.29,34.864,42.395,32.114,42.395z"
				/>
			<polygon points="43.581,42.65 41.404,49.816 38.803,42.65 36.169,42.65 40.355,53.01 38.998,57.216 41.448,57.216 46.149,42.65 
							"/>
			<path d="M48.737,45.416c0-0.573,0.364-0.996,1.336-0.996c1.526,0,2.812,1.013,2.812,1.013l1.092-1.905
				c0,0-1.64-1.155-3.783-1.155c-2.232,0-3.788,1.509-3.788,3.135c0,3.852,5.457,2.6,5.457,4.689c0,0.807-0.736,0.991-1.461,0.991
				c-1.598,0-3.257-1.264-3.257-1.264l-1.052,1.997c0,0,1.82,1.324,4.248,1.324c2.173,0,3.892-1.203,3.892-3.294
				C54.232,46.477,48.737,47.107,48.737,45.416z"/>
			<path d="M61.355,42.393c-2.289,0-3.512,1.896-3.512,1.896v-1.636h-2.429v14.565h2.429v-5.782c0,0,1.229,1.842,3.444,1.842
				c2.209,0,4.937-1.617,4.937-5.396C66.225,45.39,64.744,42.393,61.355,42.393z M60.796,51.208c-1.801,0-3.065-1.562-3.065-3.371
				c0-1.655,1.188-3.375,3.002-3.375c1.84,0,3.027,1.599,3.027,3.396C63.76,49.668,62.594,51.208,60.796,51.208z"/>
			<path d="M75.699,44.289c0,0-1.225-1.896-3.514-1.896c-3.388,0-4.869,2.997-4.869,5.489c0,3.778,2.727,5.396,4.938,5.396
				c2.215,0,3.445-1.842,3.445-1.842v1.619h2.428V42.653h-2.428V44.289z M72.746,51.208c-1.799,0-2.965-1.542-2.965-3.35
				c0-1.797,1.189-3.396,3.027-3.396c1.813,0,3.002,1.721,3.002,3.375C75.811,49.646,74.544,51.208,72.746,51.208z"/>
			<path d="M84.801,51.196c-2,0-3.119-1.706-3.119-3.372c0-1.864,1.475-3.35,3.063-3.35c1.746,0,2.647,1.379,2.647,1.379
				l1.578-1.631c0,0-1.449-1.839-4.184-1.839c-3.625,0-5.475,2.86-5.475,5.495c0,3.156,2.457,5.41,5.463,5.41
				c2.613,0,4.248-1.896,4.248-1.896l-1.5-1.479C87.527,49.915,86.576,51.196,84.801,51.196z"/>
			<path d="M99.371,47.725c0-2.924-1.861-5.343-5-5.343c-3.184,0-5.148,2.578-5.148,5.5c0,2.754,1.824,5.396,5.439,5.396
				c2.375,0,3.395-0.988,4.281-1.853l-1.465-1.397c-0.217,0.203-1.197,1.333-2.746,1.333c-1.793,0-3.066-1.406-3.066-2.627h7.705
				V47.725z M91.656,47.161c0-1.022,0.895-2.796,2.691-2.796c1.744,0,2.684,1.721,2.684,2.796H91.656z"/>
			<circle cx="2.593" cy="46.564" r="2.337"/>
			<circle cx="8.456" cy="45.879" r="2.614"/>
			<ellipse cx="14.933" cy="45.043" rx="2.867" ry="2.89"/>
			<path d="M2.568,49.238C1.029,49.238,0,50.624,0,51.883v0.859c0,0.187,0.125,0.309,0.306,0.309h4.523
				c0.183,0,0.306-0.121,0.306-0.309v-0.859C5.134,50.42,3.972,49.238,2.568,49.238z"/>
			<path d="M8.454,48.889c-1.475,0-2.796,1.226-2.796,2.896v0.963c0,0.184,0.122,0.303,0.302,0.303h5.021
				c0.181,0,0.304-0.119,0.304-0.303v-0.963C11.285,50.352,10.173,48.889,8.454,48.889z"/>
			<path d="M14.969,48.393c-1.506,0-3.146,1.213-3.146,3.203v1.148c0,0.187,0.122,0.308,0.304,0.308h5.663
				c0.182,0,0.304-0.12,0.304-0.308v-1.148C18.094,49.894,16.764,48.393,14.969,48.393z"/>
		</g>
	</g>
</g>
<g>
</g>
<g>
</g>
<g>
</g>
<g>
</g>
<g>
</g>
<g>
</g>
<g>
</g>
<g>
</g>
<g>
</g>
<g>
</g>
<g>
</g>
<g>
</g>
<g>
</g>
<g>
</g>
<g>
</g>
</svg>
