<?xml version="1.0" encoding="iso-8859-1"?>
<!-- Generator: Adobe Illustrator 16.0.0, SVG Export Plug-In . SVG Version: 6.00 Build 0)  -->
<!DOCTYPE svg PUBLIC "-//W3C//DTD SVG 1.1//EN" "http://www.w3.org/Graphics/SVG/1.1/DTD/svg11.dtd">
<svg version="1.1" id="Capa_1" xmlns="http://www.w3.org/2000/svg" xmlns:xlink="http://www.w3.org/1999/xlink" x="0px" y="0px"
	 width="97.156px" height="97.157px" viewBox="0 0 97.156 97.157" style="enable-background:new 0 0 97.156 97.157;"
	 xml:space="preserve">
<g>
	<path d="M22.021,60.312c0,0.25-0.056,0.328-0.316,0.324c-1.323-0.012-2.648-0.011-3.971-0.002
		c-0.204,0.002-0.339-0.055-0.467-0.213c-2.308-2.838-4.62-5.672-6.934-8.505c-1.659-2.036-3.321-4.07-4.998-6.122
		c-0.082,0.128-0.047,0.256-0.047,0.374c0,4.695-0.002,9.388,0.009,14.081c0,0.31-0.072,0.394-0.389,0.392
		C3.27,60.624,1.637,60.631,0,60.631c0-8.03,0-16.06,0-24.092c1.388,0.002,2.778,0.009,4.164,0.004c0.234,0,0.389,0.058,0.545,0.249
		c3.93,4.825,7.862,9.639,11.799,14.457c0.05,0.062,0.104,0.121,0.21,0.244c0-0.203,0-0.317,0-0.432
		c0-4.715,0.007-9.431-0.004-14.146c0-0.292,0.067-0.377,0.371-0.374c1.537,0.016,3.077,0.013,4.615,0.002
		c0.26-0.004,0.32,0.072,0.32,0.323C22.016,44.681,22.017,52.497,22.021,60.312z M35.191,60.638
		c-1.537-0.016-3.075-0.012-4.613-0.001c-0.224,0-0.288-0.054-0.288-0.285c0.009-7.843,0.009-15.688,0-23.53
		c0-0.203,0.043-0.281,0.265-0.279c1.572,0.008,3.143,0.012,4.711-0.002c0.293-0.002,0.271,0.146,0.271,0.338
		c0,3.907,0,7.813,0,11.718c0,3.896-0.002,7.791,0.007,11.686C35.543,60.558,35.486,60.642,35.191,60.638z M66.383,60.337
		c0,0.253-0.078,0.299-0.311,0.299c-1.325-0.011-2.648-0.011-3.973,0c-0.219,0.001-0.353-0.071-0.484-0.234
		c-3.094-3.796-6.186-7.587-9.283-11.379c-0.807-0.991-1.617-1.984-2.427-2.976c-0.062-0.071-0.106-0.16-0.257-0.208
		c0,0.19,0,0.35,0,0.511c0,4.639-0.004,9.277,0.008,13.917c0,0.294-0.074,0.374-0.373,0.372c-1.538-0.016-3.076-0.012-4.615-0.001
		c-0.236,0.001-0.304-0.055-0.304-0.301c0.004-7.826,0.004-15.65,0-23.476c-0.005-0.256,0.067-0.322,0.323-0.318
		c1.299,0.011,2.603,0.011,3.906,0c0.205-0.002,0.327,0.071,0.456,0.226c3.914,4.803,7.834,9.601,11.75,14.401
		c0.065,0.075,0.133,0.142,0.211,0.231c0.094-0.129,0.055-0.261,0.055-0.378c0.004-4.682,0.004-9.364,0.004-14.046
		c0-0.499-0.025-0.429,0.435-0.429c1.521-0.002,3.036,0.005,4.552-0.005c0.252-0.002,0.328,0.064,0.328,0.322
		C66.379,44.689,66.379,52.514,66.383,60.337z M97.155,57.315c0,0.194-0.062,0.311-0.22,0.423c-2.599,1.823-5.479,2.933-8.61,3.42
		c-0.396,0.062-2.253,0.369-4.729,0c-5.274-0.827-9.685-4.597-10.754-10.001c-0.854-4.309,0.245-8.128,3.291-11.324
		c2.205-2.321,4.959-3.568,8.125-3.94c1.77-0.174,3.475-0.005,4.319,0.189c3.112,0.608,5.878,1.952,8.36,3.904
		c0.149,0.12,0.149,0.192,0.016,0.318c-1.061,0.993-2.119,1.988-3.168,2.99c-0.146,0.139-0.225,0.077-0.346-0.022
		c-2.038-1.7-4.402-2.63-7.029-2.841c-3.646-0.292-6.838,1.876-7.918,5.373c-0.863,2.776-0.566,5.433,1.121,7.844
		c1.256,1.8,3.054,2.774,5.216,3.042c2.226,0.276,4.375-0.061,6.425-0.974c0.98-0.438,0.977-0.443,0.977-1.513
		c0-0.904-0.014-1.809,0.011-2.71c0.007-0.313-0.101-0.363-0.382-0.363c-2.16,0.01-4.327,0-6.487,0.01
		c-0.274,0.004-0.366-0.046-0.364-0.345c0.021-1.247,0.016-2.497,0-3.744c0-0.248,0.076-0.303,0.314-0.303
		c3.839,0.007,7.686,0.007,11.525,0c0.236,0,0.309,0.052,0.309,0.299C97.145,50.471,97.148,53.893,97.155,57.315z"/>
</g>
<g>
</g>
<g>
</g>
<g>
</g>
<g>
</g>
<g>
</g>
<g>
</g>
<g>
</g>
<g>
</g>
<g>
</g>
<g>
</g>
<g>
</g>
<g>
</g>
<g>
</g>
<g>
</g>
<g>
</g>
</svg>
