<?xml version="1.0" encoding="iso-8859-1"?>
<!-- Generator: Adobe Illustrator 16.0.0, SVG Export Plug-In . SVG Version: 6.00 Build 0)  -->
<!DOCTYPE svg PUBLIC "-//W3C//DTD SVG 1.1//EN" "http://www.w3.org/Graphics/SVG/1.1/DTD/svg11.dtd">
<svg version="1.1" id="Capa_1" xmlns="http://www.w3.org/2000/svg" xmlns:xlink="http://www.w3.org/1999/xlink" x="0px" y="0px"
	 width="94.153px" height="94.154px" viewBox="0 0 94.153 94.154" style="enable-background:new 0 0 94.153 94.154;"
	 xml:space="preserve">
<g>
	<g>
		<path d="M34.432,32.432c-4.77,0.061-9.314,1.472-13.688,3.354c-1.819,0.78-3.607,1.637-5.455,2.479
			c-0.106-0.318-0.168-0.482-0.216-0.649c-0.828-2.91-2.538-4.221-5.531-4.228c-1.921-0.004-3.843-0.001-5.764-0.001
			c-0.961,0-1.922,0-2.977,0C0.526,36.696,0.271,39.779,0,43.033c1.276,0,2.326,0,3.442,0c-1.137,12.939-2.261,25.72-3.391,38.557
			c4.215,0,8.226,0,12.442,0c0.078-1.092,0.129-2.064,0.218-3.035c0.851-9.244,1.72-18.487,2.542-27.733
			c0.04-0.45,0.115-1.156,0.115-1.156s0.574-0.337,0.901-0.496c1.68-0.825,3.287-1.795,4.958-2.637
			c2.515-1.268,5.068-2.511,7.961-2.61c2.506-0.087,3.383,0.809,3.237,3.287c-0.091,1.56-0.339,3.105-0.48,4.663
			c-0.819,9.021-1.63,18.041-2.439,27.062c-0.077,0.865-0.125,1.732-0.187,2.611c4.267,0,8.354,0,12.496,0
			c0.283-3.104,0.563-6.123,0.834-9.142c0.499-5.558,1.072-11.106,1.465-16.67c0.339-4.799,0.916-9.64,0.586-14.406
			C44.247,34.703,39.916,32.362,34.432,32.432z"/>
		<path d="M61.5,12.474c-2.457-0.021-4.914-0.003-7.371-0.003l-2.808-0.004l-0.929,9.681c1.252,0,2.34,0,3.552,0
			c-1.813,19.921-3.612,39.65-5.417,59.462c4.294,0,8.428,0,12.652,0c0.1-0.841,0.213-1.626,0.28-2.416
			c0.396-4.577,0.771-9.154,1.171-13.73c0.498-5.687,1.014-11.37,1.52-17.056c0.406-4.575,0.816-9.151,1.218-13.728
			c0.487-5.555,1.034-11.104,1.435-16.666C67.035,14.785,64.753,12.5,61.5,12.474z"/>
		<path d="M92.221,35.989c0.578-0.823,1.332-1.83,1.933-2.712L79.79,33.28c-0.599,0.006-0.979,0.406-1.228,0.788
			c-4.791,7.418-9.56,14.852-14.28,22.312c-0.265,0.418-0.315,1.224-0.093,1.656c3.918,7.601,7.904,15.167,11.847,22.756
			c0.364,0.702,0.819,0.91,1.574,0.896l12.309-0.01l-12.1-23.211c-0.472-0.893-0.418-1.44,0.146-2.235
			C82.744,49.505,87.477,42.744,92.221,35.989z"/>
	</g>
</g>
<g>
</g>
<g>
</g>
<g>
</g>
<g>
</g>
<g>
</g>
<g>
</g>
<g>
</g>
<g>
</g>
<g>
</g>
<g>
</g>
<g>
</g>
<g>
</g>
<g>
</g>
<g>
</g>
<g>
</g>
</svg>
