<?xml version="1.0" encoding="iso-8859-1"?>
<!-- Generator: Adobe Illustrator 16.0.0, SVG Export Plug-In . SVG Version: 6.00 Build 0)  -->
<!DOCTYPE svg PUBLIC "-//W3C//DTD SVG 1.1//EN" "http://www.w3.org/Graphics/SVG/1.1/DTD/svg11.dtd">
<svg version="1.1" id="Capa_1" xmlns="http://www.w3.org/2000/svg" xmlns:xlink="http://www.w3.org/1999/xlink" x="0px" y="0px"
	 width="97.59px" height="97.59px" viewBox="0 0 97.59 97.59" style="enable-background:new 0 0 97.59 97.59;" xml:space="preserve"
	>
<g>
	<g>
		<path d="M10.828,0C7.699,0,5.161,2.535,5.161,5.666v86.258c0,3.129,2.537,5.666,5.667,5.666h58.24
			c3.129,0,5.667-2.537,5.667-5.666V15.623L58.482,0H10.828z M70.957,91.924c0,1.041-0.848,1.889-1.889,1.889h-58.24
			c-1.041,0-1.889-0.848-1.889-1.889V5.666c0-1.043,0.848-1.889,1.889-1.889h46.001v13.969h14.127L70.957,91.924L70.957,91.924z
			 M60.607,7.281l6.957,6.688h-6.957V7.281z"/>
		<rect x="11.851" y="25.42" width="55.721" height="2.125"/>
		<rect x="11.851" y="35.336" width="55.721" height="2.125"/>
		<rect x="11.851" y="44.779" width="55.721" height="2.125"/>
		<rect x="11.851" y="54.342" width="55.721" height="2.125"/>
		<rect x="11.851" y="63.551" width="55.721" height="2.125"/>
		<polygon points="53.042,82.482 46.935,77.439 44.53,80.354 53.298,87.592 68.913,71.848 66.231,69.188 		"/>
		<path d="M89.063,36.387l0.822-0.088l-0.539-3.963c0.42,0.723,1.715,1.697,2.281,0.639c1.797-3.365-0.666-6.818-0.377-6.479
			c0.149-11.107-2.88-20.971-4.752-21.182l-0.134-1.219L74.255,5.42l3.522,32.203l0.862-0.096
			c0.92,7.238,7.197,55.813,11.881,55.301C95.206,92.318,89.89,43.639,89.063,36.387z M87.296,12.619
			c2.4,2.061,2.299,14.061,2.299,14.061c-0.58,0.742-0.398,1.734-0.57,2.717L87.296,12.619z"/>
	</g>
</g>
<g>
</g>
<g>
</g>
<g>
</g>
<g>
</g>
<g>
</g>
<g>
</g>
<g>
</g>
<g>
</g>
<g>
</g>
<g>
</g>
<g>
</g>
<g>
</g>
<g>
</g>
<g>
</g>
<g>
</g>
</svg>
