<?xml version="1.0" encoding="iso-8859-1"?>
<!-- Generator: Adobe Illustrator 16.0.0, SVG Export Plug-In . SVG Version: 6.00 Build 0)  -->
<!DOCTYPE svg PUBLIC "-//W3C//DTD SVG 1.1//EN" "http://www.w3.org/Graphics/SVG/1.1/DTD/svg11.dtd">
<svg version="1.1" id="Capa_1" xmlns="http://www.w3.org/2000/svg" xmlns:xlink="http://www.w3.org/1999/xlink" x="0px" y="0px"
	 width="94.987px" height="94.987px" viewBox="0 0 94.987 94.987" style="enable-background:new 0 0 94.987 94.987;"
	 xml:space="preserve">
<g>
	<g>
		<path d="M4.916,49.596v4.363c0,0.604,0.049,1.014,0.145,1.23c0.098,0.217,0.247,0.375,0.446,0.477c0.202,0.1,0.593,0.15,1.18,0.15
			v0.465H0v-0.465c0.519-0.018,0.903-0.164,1.153-0.438c0.168-0.192,0.251-0.69,0.251-1.493V41.504c0-0.828-0.096-1.357-0.289-1.587
			C0.924,39.688,0.552,39.557,0,39.522v-0.466h4.916v1.542c0.41-0.601,0.829-1.036,1.256-1.304c0.609-0.394,1.275-0.589,1.995-0.589
			c0.86,0,1.645,0.271,2.352,0.816c0.706,0.543,1.243,1.293,1.61,2.249c0.368,0.959,0.553,1.989,0.553,3.094
			c0,1.188-0.191,2.271-0.571,3.255c-0.38,0.984-0.931,1.73-1.655,2.246c-0.723,0.514-1.527,0.771-2.413,0.771
			c-0.646,0-1.247-0.143-1.809-0.428C5.815,50.495,5.377,50.123,4.916,49.596z M4.916,48.328c0.721,1.022,1.489,1.532,2.31,1.532
			c0.45,0,0.822-0.238,1.115-0.717c0.436-0.703,0.652-2.039,0.652-4.014c0-2.024-0.237-3.408-0.714-4.151
			c-0.318-0.495-0.745-0.742-1.278-0.742c-0.846,0-1.541,0.612-2.085,1.832V48.328z"/>
		<path d="M21.291,49.057c-1.431,1.263-2.714,1.894-3.853,1.894c-0.669,0-1.224-0.22-1.668-0.659
			c-0.443-0.438-0.665-0.986-0.665-1.648c0-0.895,0.385-1.698,1.154-2.416c0.769-0.714,2.447-1.665,5.031-2.853v-1.18
			c0-0.886-0.049-1.444-0.145-1.674c-0.096-0.23-0.278-0.43-0.547-0.602c-0.268-0.172-0.568-0.257-0.902-0.257
			c-0.544,0-0.99,0.121-1.343,0.363c-0.217,0.15-0.325,0.325-0.325,0.526c0,0.177,0.117,0.394,0.351,0.652
			c0.318,0.359,0.478,0.706,0.478,1.041c0,0.41-0.152,0.759-0.458,1.048c-0.307,0.289-0.706,0.434-1.198,0.434
			c-0.527,0-0.967-0.159-1.324-0.479c-0.354-0.316-0.533-0.69-0.533-1.115c0-0.604,0.24-1.177,0.716-1.726
			c0.477-0.548,1.142-0.969,1.995-1.26c0.853-0.293,1.738-0.439,2.658-0.439c1.113,0,1.992,0.236,2.641,0.71
			c0.648,0.472,1.068,0.983,1.262,1.536c0.115,0.351,0.175,1.157,0.175,2.42v4.554c0,0.534,0.021,0.873,0.063,1.012
			c0.04,0.138,0.104,0.238,0.188,0.306c0.082,0.067,0.18,0.103,0.288,0.103c0.217,0,0.44-0.156,0.665-0.466l0.376,0.302
			c-0.418,0.619-0.85,1.068-1.298,1.35c-0.448,0.277-0.956,0.419-1.523,0.419c-0.669,0-1.191-0.155-1.567-0.47
			C21.602,50.166,21.373,49.692,21.291,49.057z M21.291,48.141v-3.927c-1.012,0.593-1.766,1.229-2.259,1.906
			c-0.325,0.452-0.489,0.907-0.489,1.368c0,0.385,0.139,0.722,0.415,1.016c0.208,0.225,0.501,0.338,0.877,0.338
			C20.254,48.842,20.738,48.608,21.291,48.141z"/>
		<path d="M32.682,39.058V40.6c0.644-0.701,1.241-1.191,1.789-1.472c0.546-0.28,1.147-0.421,1.8-0.421
			c0.752,0,1.383,0.177,1.895,0.527c0.51,0.35,0.901,0.886,1.178,1.604c0.669-0.752,1.313-1.296,1.927-1.631
			c0.614-0.334,1.255-0.502,1.925-0.502c0.812,0,1.457,0.188,1.938,0.559c0.48,0.372,0.815,0.844,1.003,1.417
			c0.188,0.574,0.282,1.485,0.282,2.741v4.805c0,0.901,0.083,1.463,0.244,1.681c0.164,0.219,0.504,0.36,1.024,0.427v0.452h-6.06
			v-0.452c0.477-0.042,0.829-0.226,1.054-0.553c0.151-0.225,0.226-0.743,0.226-1.555v-5.042c0-1.045-0.043-1.71-0.125-1.995
			c-0.083-0.284-0.215-0.495-0.396-0.633s-0.391-0.208-0.633-0.208c-0.359,0-0.723,0.132-1.093,0.395
			c-0.367,0.264-0.739,0.659-1.115,1.186v6.297c0,0.847,0.07,1.377,0.213,1.594c0.193,0.311,0.561,0.48,1.104,0.515v0.452H34.79
			v-0.452c0.327-0.017,0.585-0.098,0.771-0.243c0.189-0.146,0.314-0.324,0.376-0.527c0.063-0.204,0.096-0.649,0.096-1.336v-5.042
			c0-1.063-0.043-1.728-0.125-1.995c-0.085-0.268-0.224-0.476-0.421-0.626c-0.198-0.151-0.408-0.228-0.634-0.228
			c-0.335,0-0.639,0.089-0.915,0.263c-0.394,0.262-0.812,0.704-1.256,1.33v6.298c0,0.828,0.083,1.373,0.246,1.638
			c0.162,0.264,0.504,0.419,1.022,0.47v0.452h-6.047v-0.452c0.493-0.051,0.846-0.208,1.054-0.476
			c0.143-0.187,0.213-0.729,0.213-1.632v-6.623c0-0.887-0.081-1.438-0.244-1.655c-0.164-0.219-0.504-0.361-1.022-0.427v-0.466
			L32.682,39.058L32.682,39.058z"/>
		<path d="M55.844,49.057c-1.431,1.263-2.713,1.894-3.853,1.894c-0.667,0-1.224-0.22-1.668-0.659
			c-0.444-0.438-0.665-0.986-0.665-1.648c0-0.895,0.385-1.698,1.152-2.416c0.771-0.714,2.449-1.665,5.031-2.853v-1.18
			c0-0.886-0.049-1.444-0.145-1.674s-0.278-0.43-0.546-0.602c-0.269-0.172-0.567-0.257-0.903-0.257
			c-0.544,0-0.988,0.121-1.343,0.363c-0.218,0.15-0.324,0.325-0.324,0.526c0,0.177,0.116,0.394,0.351,0.652
			c0.318,0.359,0.479,0.706,0.479,1.041c0,0.41-0.152,0.759-0.459,1.048s-0.705,0.434-1.198,0.434c-0.526,0-0.967-0.159-1.323-0.479
			c-0.354-0.316-0.531-0.69-0.531-1.115c0-0.604,0.238-1.177,0.715-1.726c0.477-0.548,1.141-0.969,1.995-1.26
			c0.852-0.293,1.737-0.439,2.657-0.439c1.112,0,1.992,0.236,2.642,0.71c0.647,0.472,1.067,0.983,1.262,1.536
			c0.117,0.351,0.175,1.157,0.175,2.42v4.554c0,0.534,0.021,0.873,0.063,1.012c0.04,0.138,0.104,0.238,0.187,0.306
			c0.084,0.067,0.182,0.103,0.289,0.103c0.217,0,0.439-0.156,0.666-0.466l0.375,0.302c-0.418,0.619-0.85,1.068-1.298,1.35
			c-0.448,0.277-0.956,0.419-1.522,0.419c-0.67,0-1.192-0.155-1.568-0.47C56.159,50.166,55.926,49.692,55.844,49.057z
			 M55.844,48.141v-3.927c-1.012,0.593-1.767,1.229-2.26,1.906c-0.324,0.452-0.488,0.907-0.488,1.368
			c0,0.385,0.14,0.722,0.414,1.016c0.209,0.225,0.502,0.338,0.879,0.338C54.807,48.842,55.291,48.608,55.844,48.141z"/>
		<path d="M67.237,39.058V40.6c0.644-0.701,1.237-1.191,1.786-1.472c0.549-0.28,1.146-0.421,1.8-0.421
			c0.752,0,1.386,0.177,1.896,0.527c0.51,0.35,0.902,0.886,1.18,1.604c0.666-0.752,1.312-1.296,1.925-1.631
			c0.614-0.334,1.256-0.502,1.925-0.502c0.812,0,1.458,0.188,1.938,0.559c0.481,0.372,0.815,0.844,1.005,1.417
			c0.188,0.574,0.28,1.485,0.28,2.741v4.805c0,0.901,0.084,1.463,0.246,1.681c0.162,0.219,0.504,0.36,1.021,0.427v0.452H76.18
			v-0.452c0.476-0.042,0.828-0.226,1.054-0.553c0.149-0.225,0.226-0.743,0.226-1.555v-5.042c0-1.045-0.041-1.71-0.126-1.995
			c-0.083-0.284-0.215-0.495-0.396-0.633c-0.178-0.138-0.391-0.208-0.633-0.208c-0.359,0-0.724,0.132-1.09,0.395
			c-0.369,0.264-0.742,0.659-1.117,1.186v6.297c0,0.847,0.069,1.377,0.211,1.594c0.193,0.311,0.562,0.48,1.105,0.515v0.452h-6.07
			v-0.452c0.326-0.017,0.584-0.098,0.772-0.243c0.187-0.146,0.312-0.324,0.376-0.527c0.062-0.204,0.094-0.649,0.094-1.336v-5.042
			c0-1.063-0.043-1.728-0.126-1.995c-0.083-0.267-0.223-0.476-0.421-0.626c-0.195-0.151-0.406-0.228-0.633-0.228
			c-0.334,0-0.641,0.089-0.916,0.263c-0.393,0.262-0.812,0.704-1.253,1.33v6.298c0,0.828,0.08,1.373,0.243,1.638
			c0.162,0.264,0.504,0.419,1.021,0.47v0.452h-6.046v-0.452c0.492-0.051,0.847-0.208,1.054-0.476
			c0.143-0.187,0.213-0.729,0.213-1.632v-6.623c0-0.887-0.08-1.438-0.244-1.655c-0.161-0.219-0.504-0.361-1.021-0.427v-0.466
			L67.237,39.058L67.237,39.058z"/>
		<path d="M89.454,38.708c1.021,0,1.97,0.264,2.847,0.79c0.881,0.527,1.545,1.275,2.002,2.246c0.457,0.969,0.685,2.031,0.685,3.185
			c0,1.666-0.423,3.058-1.267,4.177c-1.021,1.354-2.432,2.033-4.229,2.033c-1.766,0-3.123-0.619-4.077-1.856
			c-0.954-1.236-1.43-2.673-1.43-4.303c0-1.68,0.485-3.146,1.462-4.396C86.42,39.333,87.756,38.708,89.454,38.708z M89.506,39.599
			c-0.428,0-0.793,0.161-1.1,0.484c-0.307,0.32-0.506,0.956-0.602,1.905c-0.096,0.95-0.145,2.27-0.145,3.958
			c0,0.895,0.057,1.729,0.176,2.507c0.092,0.597,0.287,1.046,0.59,1.356c0.301,0.31,0.644,0.465,1.027,0.465
			c0.376,0,0.689-0.106,0.941-0.314c0.324-0.285,0.543-0.682,0.65-1.191c0.168-0.795,0.252-2.4,0.252-4.816
			c0-1.421-0.078-2.398-0.238-2.93c-0.159-0.531-0.394-0.918-0.703-1.16C90.141,39.687,89.855,39.599,89.506,39.599z"/>
	</g>
</g>
<g>
</g>
<g>
</g>
<g>
</g>
<g>
</g>
<g>
</g>
<g>
</g>
<g>
</g>
<g>
</g>
<g>
</g>
<g>
</g>
<g>
</g>
<g>
</g>
<g>
</g>
<g>
</g>
<g>
</g>
</svg>
