<?xml version="1.0" encoding="iso-8859-1"?>
<!-- Generator: Adobe Illustrator 16.0.0, SVG Export Plug-In . SVG Version: 6.00 Build 0)  -->
<!DOCTYPE svg PUBLIC "-//W3C//DTD SVG 1.1//EN" "http://www.w3.org/Graphics/SVG/1.1/DTD/svg11.dtd">
<svg version="1.1" id="Capa_1" xmlns="http://www.w3.org/2000/svg" xmlns:xlink="http://www.w3.org/1999/xlink" x="0px" y="0px"
	 width="96.275px" height="96.275px" viewBox="0 0 96.275 96.275" style="enable-background:new 0 0 96.275 96.275;"
	 xml:space="preserve">
<g>
	<path d="M87.289,20.446c-0.921-3.604-2.697-6.907-5.334-9.907c-2.643-3-6.343-5.502-11.102-7.518C66.091,1.006,59.925,0,52.353,0
		H7.613v96.275h28.91V62.287h12.737c7.228,0,13.336-0.749,18.324-2.249c4.991-1.495,9.061-4.765,12.219-7.481
		c3.152-2.719,5.42-5.95,6.797-9.697c1.379-3.745,2.063-7.867,2.063-12.366C88.663,27.402,88.204,24.054,87.289,20.446z
		 M57.538,34.337c-0.379,1.358-1.083,2.531-2.112,3.521c-1.031,0.987-2.416,1.788-4.146,2.407c-1.734,0.618-3.956,0.926-6.666,0.926
		h-7.478V18.1h6.992c2.705,0,4.981,0.309,6.826,0.926c1.841,0.617,3.275,1.463,4.309,2.533c1.027,1.07,1.76,2.326,2.194,3.765
		c0.433,1.441,0.649,3.025,0.649,4.754C58.108,31.559,57.916,32.976,57.538,34.337z"/>
</g>
<g>
</g>
<g>
</g>
<g>
</g>
<g>
</g>
<g>
</g>
<g>
</g>
<g>
</g>
<g>
</g>
<g>
</g>
<g>
</g>
<g>
</g>
<g>
</g>
<g>
</g>
<g>
</g>
<g>
</g>
</svg>
