<?xml version="1.0" encoding="iso-8859-1"?>
<!-- Generator: Adobe Illustrator 16.0.0, SVG Export Plug-In . SVG Version: 6.00 Build 0)  -->
<!DOCTYPE svg PUBLIC "-//W3C//DTD SVG 1.1//EN" "http://www.w3.org/Graphics/SVG/1.1/DTD/svg11.dtd">
<svg version="1.1" id="Capa_1" xmlns="http://www.w3.org/2000/svg" xmlns:xlink="http://www.w3.org/1999/xlink" x="0px" y="0px"
	 width="96.28px" height="96.28px" viewBox="0 0 96.28 96.28" style="enable-background:new 0 0 96.28 96.28;" xml:space="preserve"
	>
<g>
	<g>
		<path d="M82.846,0H13.434C6.015,0,0,6.016,0,13.435v7.464h96.28v-7.464C96.28,6.016,90.264,0,82.846,0z"/>
		<path d="M44.836,80.065c0.211,0.047,0.434,0.07,0.66,0.07h0.002c0.938,0,1.995-0.437,2.994-1.201
			c-0.598,1.31-1.302,2.627-2.051,3.912h24.276V35.255H25.563v47.591h16.281c0.684-1.068,1.346-2.164,1.942-3.25
			C44.122,79.815,44.471,79.983,44.836,80.065z M64.678,53.42c1.062,1.729-0.414,5.608-3.869,7.73
			c-3.457,2.125-8.647-0.035-8.647-0.035s0.414-5.605,3.872-7.73C59.488,51.26,63.617,51.695,64.678,53.42z M34.579,50.529
			c1.061-1.726,5.19-2.163,8.645-0.038c3.457,2.125,3.872,7.73,3.872,7.73s-5.19,2.164-8.647,0.037
			C34.992,56.133,33.517,52.254,34.579,50.529z M28.264,71.242C26.945,57.293,42.91,60.838,42.91,60.838
			c-7.96,1.588-7.325,5.701-7.325,5.701c4.523,2.645,7.566-0.73,8.975-2.51c-6.043,0.148,2.405-4.68,2.405-4.68
			c0.282-1.442,0.542-2.58,0.786-3.479c-1.987-2.587-7.987-11.744,1.979-16.969c0,0,12.664,5.822,3.519,16.857l-0.421,0.572
			c0.916-6.602-2.754-8.948-2.754-8.948c-3.634,2.434-2.962,6.083-2.215,8.106c2.12-7.378,2.757,4.58,2.757,4.58
			c1.354,1.234,2.254,2.174,2.815,2.891c0.836-0.195,2.047-0.414,3.187-0.369c1.979,0.08,10.946,4.627,7.694,13.168
			c0,0-10.305,6.475-13.996-8.74c0,0,4.984,4.427,8.966,4.019c-0.188-1.752-2.956-4.909-5.082-6.642
			c0.099,1.68-5.744-0.824-5.744-0.824c-1.535,0.268-2.714,0.404-3.616,0.447C44.091,66.725,39.984,78.838,28.264,71.242z
			 M42.201,71.07c0.885-3.96,6.053-6.175,6.053-6.175s3.73,4.205,2.848,8.162c-0.887,3.959-4.077,6.617-6.053,6.176
			C43.07,78.79,41.316,75.029,42.201,71.07z"/>
		<path d="M0,26.123v56.724C0,90.264,6.015,96.28,13.434,96.28h69.412c7.418,0,13.434-6.016,13.434-13.434V26.123H0z M74.076,86.205
			H22.205V31.896h51.871V86.205z"/>
	</g>
</g>
<g>
</g>
<g>
</g>
<g>
</g>
<g>
</g>
<g>
</g>
<g>
</g>
<g>
</g>
<g>
</g>
<g>
</g>
<g>
</g>
<g>
</g>
<g>
</g>
<g>
</g>
<g>
</g>
<g>
</g>
</svg>
