<?xml version="1.0" encoding="iso-8859-1"?>
<!-- Generator: Adobe Illustrator 16.0.0, SVG Export Plug-In . SVG Version: 6.00 Build 0)  -->
<!DOCTYPE svg PUBLIC "-//W3C//DTD SVG 1.1//EN" "http://www.w3.org/Graphics/SVG/1.1/DTD/svg11.dtd">
<svg version="1.1" id="Capa_1" xmlns="http://www.w3.org/2000/svg" xmlns:xlink="http://www.w3.org/1999/xlink" x="0px" y="0px"
	 width="98.106px" height="98.105px" viewBox="0 0 98.106 98.105" style="enable-background:new 0 0 98.106 98.105;"
	 xml:space="preserve">
<g>
	<path d="M49.04,0C33.03,0,20.03,13.001,20.03,29.038c0,10.452,5.537,19.585,13.82,24.699c-2.734,9.008-14.988,50.194-8.729,43.672
		c5.566-5.801,17.43-32.434,20.545-39.547c1.111,0.129,2.232,0.215,3.373,0.215c16.037,0,29.037-13.001,29.037-29.039
		C78.076,13.001,65.077,0,49.04,0z M49.47,10.867c-8.395,0.36-15.506,4.445-18.844,10.097c-0.008-0.184-0.035-0.363-0.035-0.548
		c0-8.152,8.443-14.76,18.834-14.76c9.3,0,17.007,5.271,18.557,12.203C63.932,13.352,57.102,10.536,49.47,10.867z"/>
</g>
<g>
</g>
<g>
</g>
<g>
</g>
<g>
</g>
<g>
</g>
<g>
</g>
<g>
</g>
<g>
</g>
<g>
</g>
<g>
</g>
<g>
</g>
<g>
</g>
<g>
</g>
<g>
</g>
<g>
</g>
</svg>
