<?xml version="1.0" encoding="iso-8859-1"?>
<!-- Generator: Adobe Illustrator 16.0.0, SVG Export Plug-In . SVG Version: 6.00 Build 0)  -->
<!DOCTYPE svg PUBLIC "-//W3C//DTD SVG 1.1//EN" "http://www.w3.org/Graphics/SVG/1.1/DTD/svg11.dtd">
<svg version="1.1" id="Capa_1" xmlns="http://www.w3.org/2000/svg" xmlns:xlink="http://www.w3.org/1999/xlink" x="0px" y="0px"
	 width="96.5px" height="96.5px" viewBox="0 0 96.5 96.5" style="enable-background:new 0 0 96.5 96.5;" xml:space="preserve">
<g>
	<path d="M87.404,24.688c-3.43-10.74-10.241-18.263-21.116-21.813c-6.654-2.172-13.553-2.583-20.491-2.869L11.81,0
		C9.065,0.033,7.474,1.71,7.475,4.465L7.472,92.13c0.001,2.878,1.463,4.365,4.296,4.367c5.875,0.003,11.75,0.004,17.625-0.001
		c2.646-0.002,4.264-1.624,4.267-4.271c0.007-6.082,0.007-12.166,0.013-18.248L33.66,17.555c0.001-2.668,1.006-3.955,3.678-4.161
		c4.132-0.318,8.242-0.115,12.174,1.436c3.911,1.541,7.026,4.091,9.192,7.675c3.114,5.16,4.781,10.769,4.649,16.84
		c-0.056,2.564-0.504,5.07-1.524,7.445c-0.162,0.378-0.271,0.785-0.572,1.091c-0.125,0.196-0.266,0.381-0.369,0.587
		c-1.116,2.212-2.725,4.054-4.639,5.556c-2.524,1.983-5.405,3.365-8.45,4.416c-2.604,0.898-5.188,1.871-6.997,4.137
		c-0.803,1.006-1.27,2.182-1.065,3.419c0.418,2.542,2.693,4.591,5.375,4.819c8.461,0.727,15.463,0.006,23.195-3.889
		c8.381-4.22,15.238-9.929,18.633-19.031c1.169-3.533,1.902-7.151,2.055-10.872C89.167,32.824,88.684,28.686,87.404,24.688z"/>
</g>
<g>
</g>
<g>
</g>
<g>
</g>
<g>
</g>
<g>
</g>
<g>
</g>
<g>
</g>
<g>
</g>
<g>
</g>
<g>
</g>
<g>
</g>
<g>
</g>
<g>
</g>
<g>
</g>
<g>
</g>
</svg>
