<?xml version="1.0" encoding="iso-8859-1"?>
<!-- Generator: Adobe Illustrator 16.0.0, SVG Export Plug-In . SVG Version: 6.00 Build 0)  -->
<!DOCTYPE svg PUBLIC "-//W3C//DTD SVG 1.1//EN" "http://www.w3.org/Graphics/SVG/1.1/DTD/svg11.dtd">
<svg version="1.1" id="Capa_1" xmlns="http://www.w3.org/2000/svg" xmlns:xlink="http://www.w3.org/1999/xlink" x="0px" y="0px"
	 width="96.521px" height="96.521px" viewBox="0 0 96.521 96.521" style="enable-background:new 0 0 96.521 96.521;"
	 xml:space="preserve">
<g>
	<g>
		<path d="M36.588,13.886C16.381,13.886,0,29.244,0,48.189c0,18.945,16.381,34.446,36.588,34.446
			c20.206,0,36.588-15.5,36.588-34.446C73.176,29.243,56.794,13.886,36.588,13.886z M36.588,63.003
			c-8.143,0-14.743-6.6-14.743-14.742c0-8.142,6.601-14.742,14.743-14.742s14.742,6.6,14.742,14.742
			C51.33,56.404,44.73,63.003,36.588,63.003z"/>
		<polygon points="91.404,59.005 95.447,30.199 95.447,15.171 79.6,15.171 79.6,30.116 84.121,59.005 		"/>
		<circle cx="87.668" cy="73.14" r="8.854"/>
	</g>
</g>
<g>
</g>
<g>
</g>
<g>
</g>
<g>
</g>
<g>
</g>
<g>
</g>
<g>
</g>
<g>
</g>
<g>
</g>
<g>
</g>
<g>
</g>
<g>
</g>
<g>
</g>
<g>
</g>
<g>
</g>
</svg>
