<?xml version="1.0" encoding="iso-8859-1"?>
<!-- Generator: Adobe Illustrator 16.0.0, SVG Export Plug-In . SVG Version: 6.00 Build 0)  -->
<!DOCTYPE svg PUBLIC "-//W3C//DTD SVG 1.1//EN" "http://www.w3.org/Graphics/SVG/1.1/DTD/svg11.dtd">
<svg version="1.1" id="Capa_1" xmlns="http://www.w3.org/2000/svg" xmlns:xlink="http://www.w3.org/1999/xlink" x="0px" y="0px"
	 width="96.949px" height="96.949px" viewBox="0 0 96.949 96.949" style="enable-background:new 0 0 96.949 96.949;"
	 xml:space="preserve">
<g>
	<path d="M32.714,21.392C50.643-1.922,61.702-7.425,83.168,11.087c-3.053,5.078-6.197,10.305-9.658,16.061
		c-2.35-1.53-4.402-2.847-6.438-4.193c-11.404-7.533-22.288-5.862-28.751,6.188c-3.571,6.667-5.184,14.943-5.623,22.606
		c-0.848,14.899-0.249,29.883-0.249,45.2c-6.764,0-12.582,0-18.667,0c0-31.617,0-62.713,0-94.306c6.162,0,11.987,0,18.933,0
		C32.714,8.704,32.714,14.38,32.714,21.392z"/>
</g>
<g>
</g>
<g>
</g>
<g>
</g>
<g>
</g>
<g>
</g>
<g>
</g>
<g>
</g>
<g>
</g>
<g>
</g>
<g>
</g>
<g>
</g>
<g>
</g>
<g>
</g>
<g>
</g>
<g>
</g>
</svg>
