<?xml version="1.0" encoding="iso-8859-1"?>
<!-- Generator: Adobe Illustrator 16.0.0, SVG Export Plug-In . SVG Version: 6.00 Build 0)  -->
<!DOCTYPE svg PUBLIC "-//W3C//DTD SVG 1.1//EN" "http://www.w3.org/Graphics/SVG/1.1/DTD/svg11.dtd">
<svg version="1.1" id="Capa_1" xmlns="http://www.w3.org/2000/svg" xmlns:xlink="http://www.w3.org/1999/xlink" x="0px" y="0px"
	 width="96.147px" height="96.146px" viewBox="0 0 96.147 96.146" style="enable-background:new 0 0 96.147 96.146;"
	 xml:space="preserve">
<g>
	<g>
		<path d="M82.613,28.269c0-4.218-3.431-7.648-7.647-7.648c-2,0-3.855,0.807-5.271,2.173c-5.212-3.45-12.273-5.65-20.09-5.93
			l4.27-13.5l11.561,2.723c-0.002,0.057-0.018,0.11-0.018,0.167c0,3.449,2.807,6.255,6.256,6.255c3.447,0,6.252-2.806,6.252-6.255
			C77.924,2.805,75.12,0,71.672,0c-2.647,0-4.904,1.658-5.814,3.987L53.397,1.052c-0.539-0.13-1.1,0.187-1.268,0.718l-4.763,15.056
			c-8.174,0.099-15.578,2.311-21.021,5.86c-1.407-1.3-3.241-2.065-5.168-2.065c-4.215,0-7.644,3.431-7.644,7.648
			c0,2.729,1.467,5.225,3.787,6.586c-0.146,0.806-0.244,1.623-0.244,2.458c0,7.646,6.342,14.317,15.704,17.842
			c-0.021,0.13-0.038,0.259-0.058,0.39c-4.573,2.057-7.618,7.2-7.618,13.079c0,6.716,3.939,12.368,9.346,13.718
			c0.476,1.502,1.011,2.928,1.604,4.248c-0.343-0.035-0.684-0.086-1.036-0.086c-4.668,0-8.465,3.17-8.465,7.066
			c0,0.578,0.103,1.177,0.315,1.829c0.144,0.44,0.554,0.739,1.018,0.739h12.208h2.059h1.86l0.015,0.008h7.8l0.014-0.008h1.944h2.358
			h11.914c0.467,0,0.879-0.301,1.021-0.746c0.209-0.651,0.31-1.248,0.31-1.822c0-3.896-3.797-7.066-8.467-7.066
			c-0.379,0-0.75,0.047-1.121,0.088c0.596-1.324,1.131-2.75,1.607-4.258c5.49-1.32,9.443-6.992,9.443-13.71
			c0-5.938-3.09-11.104-7.728-13.128c-0.018-0.113-0.034-0.226-0.053-0.341c9.362-3.522,15.708-10.193,15.708-17.842
			c0-0.785-0.082-1.555-0.211-2.317C81.049,33.677,82.613,31.131,82.613,28.269z M71.672,2.14c2.266,0,4.109,1.845,4.109,4.113
			s-1.844,4.114-4.109,4.114c-2.27,0-4.117-1.846-4.117-4.114S69.403,2.14,71.672,2.14z M15.676,28.269
			c0-3.036,2.469-5.508,5.503-5.508c1.239,0,2.427,0.438,3.392,1.194c-3.199,2.468-5.521,5.443-6.667,8.718
			C16.528,31.65,15.676,30.032,15.676,28.269z M61.018,55.854c0.476,3.019,0.73,6.164,0.731,9.386
			c0,13.344-4.376,25.354-10.44,28.759h-6.757c-6.064-3.404-10.441-15.415-10.441-28.759c0-3.219,0.273-6.356,0.751-9.378
			c3.974,1.24,8.393,1.957,13.068,1.957C52.612,57.818,57.037,57.1,61.018,55.854z M27.246,68.624c0-4.479,2.006-8.442,5.126-10.476
			c-0.26,2.314-0.403,4.685-0.403,7.091c0,5.212,0.637,10.176,1.765,14.578C29.924,78.196,27.246,73.801,27.246,68.624z
			 M28.727,93.998c-0.021-0.146-0.031-0.289-0.031-0.428c0-2.717,2.837-4.925,6.325-4.925c0.783,0,1.533,0.13,2.25,0.345
			c1.117,2.002,2.379,3.698,3.763,5.008h-0.936H28.727z M60.924,88.646c3.488,0,6.328,2.208,6.328,4.925
			c0,0.139-0.012,0.279-0.033,0.428h-11.07h-1.32c1.38-1.308,2.641-2.994,3.755-4.994C59.326,88.772,60.111,88.646,60.924,88.646z
			 M68.715,68.624c0,5.212-2.705,9.673-6.605,11.261c1.139-4.418,1.781-9.406,1.781-14.646c-0.002-2.431-0.148-4.817-0.412-7.153
			C66.627,60.104,68.715,64.161,68.715,68.624z M47.929,55.678c-15.832,0-28.711-8.238-28.711-18.363
			c0-10.126,12.879-18.365,28.711-18.365c15.832,0,28.712,8.239,28.712,18.365C76.641,47.438,63.76,55.678,47.929,55.678z
			 M78.018,32.836c-1.108-3.293-3.404-6.286-6.582-8.773c0.982-0.827,2.216-1.301,3.529-1.301c3.037,0,5.508,2.472,5.508,5.508
			C80.471,30.146,79.532,31.83,78.018,32.836z"/>
		<path d="M42.142,33.521c0-2.512-2.041-4.553-4.55-4.553c-2.51,0-4.553,2.041-4.553,4.553c0,2.51,2.043,4.55,4.553,4.55
			C40.101,38.07,42.142,36.03,42.142,33.521z"/>
		<path d="M58.574,28.968c-2.509,0-4.55,2.041-4.55,4.553c0,2.51,2.041,4.55,4.55,4.55c2.508,0,4.549-2.04,4.549-4.55
			C63.124,31.009,61.083,28.968,58.574,28.968z"/>
		<path d="M57.604,45.502c-1.873,1.87-4.979,2.781-9.493,2.781c-0.013,0-0.025,0.008-0.038,0.008s-0.025-0.008-0.038-0.008
			c-4.516,0-7.621-0.911-9.492-2.781c-0.418-0.419-1.096-0.419-1.514,0c-0.418,0.417-0.418,1.095-0.001,1.513
			c2.293,2.295,5.894,3.409,11.007,3.409c0.013,0,0.025-0.007,0.038-0.007s0.025,0.007,0.038,0.007c5.11,0,8.712-1.113,11.006-3.409
			c0.418-0.418,0.418-1.096,0.001-1.513C58.7,45.083,58.022,45.083,57.604,45.502z"/>
	</g>
</g>
<g>
</g>
<g>
</g>
<g>
</g>
<g>
</g>
<g>
</g>
<g>
</g>
<g>
</g>
<g>
</g>
<g>
</g>
<g>
</g>
<g>
</g>
<g>
</g>
<g>
</g>
<g>
</g>
<g>
</g>
</svg>
