<?xml version="1.0" encoding="iso-8859-1"?>
<!-- Generator: Adobe Illustrator 16.0.0, SVG Export Plug-In . SVG Version: 6.00 Build 0)  -->
<!DOCTYPE svg PUBLIC "-//W3C//DTD SVG 1.1//EN" "http://www.w3.org/Graphics/SVG/1.1/DTD/svg11.dtd">
<svg version="1.1" id="Capa_1" xmlns="http://www.w3.org/2000/svg" xmlns:xlink="http://www.w3.org/1999/xlink" x="0px" y="0px"
	 width="93.74px" height="93.74px" viewBox="0 0 93.74 93.74" style="enable-background:new 0 0 93.74 93.74;" xml:space="preserve"
	>
<g>
	<g>
		<path d="M74.381,60.496C87.166,55.46,86.26,41.819,86.262,42.008c-0.172-18.918-19.773-17.809-19.5-17.82H37.266l6.586,10.266
			h19.496c11.473,0,10.803,9.073,10.803,9.073c0,8.179-7.295,8.359-7.295,8.359h-10.94l24.078,37.041H93.74L74.381,60.496z"/>
		<path d="M42.643,42.659c-0.688,0.345-1.36,0.708-2.021,1.094c2.209,1.509,4.167,3.354,5.771,5.493
			c-1.116,1.223-2.608,2.404-4.463,3.508c-4.746,2.824-11.32,4.752-18.037,5.291c-1.935,0.154-3.838,0.182-5.693,0.107
			c-0.383,0.688-0.749,1.362-1.1,2.016c0.965,0.059,1.939,0.099,2.93,0.099c1.327,0,2.673-0.056,4.029-0.161
			c7.02-0.562,13.919-2.595,18.928-5.574c1.848-1.101,3.384-2.291,4.596-3.541c2.358,3.776,3.728,8.233,3.728,13.006
			c0,1.799-0.199,3.554-0.566,5.242c-5.849,3.691-14.16,6.361-22.75,7.182c-9.189,0.877-18.053-0.455-24.224-3.44
			c-1.096-2.784-1.703-5.813-1.703-8.983c0-2.562,0.395-5.035,1.124-7.361c0.576,0.309,1.183,0.605,1.828,0.882
			c0.324,0.138,0.664,0.263,1,0.392c-0.557-0.979-1.073-1.963-1.551-2.941c-0.189-0.1-0.382-0.193-0.563-0.295
			c0.063-0.152,0.14-0.299,0.204-0.447c-0.396-0.844-0.768-1.682-1.113-2.508C1.086,55.391,0,59.565,0,63.994
			c0,14.739,11.948,26.688,26.688,26.688c14.739,0,26.688-11.949,26.688-26.688C53.376,55.25,49.146,47.519,42.643,42.659z
			 M26.688,88.617c-9.295,0-17.401-5.179-21.591-12.799c4.828,1.902,10.764,2.943,17.177,2.943c1.936,0,3.915-0.096,5.915-0.286
			c8.122-0.776,15.809-3.063,21.733-6.347C46.556,81.72,37.414,88.617,26.688,88.617z"/>
		<path d="M35.332,34.349H23.408c0,0,9.298-22.254,31.165-22.383c-0.085,0.002,35.845-2.186,37.912,38.873l0.303,4.752
			c0.242-0.521,4.356-19.174-6.812-34.955c0,0-10.312-17.578-33.557-17.578c-24.965,0-35.75,17.631-36.416,18.854
			c-2.496,3.355-5.509,12.366-5.509,12.366L0.078,34.222c0,0,1.68,18.08,12.914,30.605C12.992,64.828,26.464,37.017,35.332,34.349z"
			/>
	</g>
</g>
<g>
</g>
<g>
</g>
<g>
</g>
<g>
</g>
<g>
</g>
<g>
</g>
<g>
</g>
<g>
</g>
<g>
</g>
<g>
</g>
<g>
</g>
<g>
</g>
<g>
</g>
<g>
</g>
<g>
</g>
</svg>
