<?xml version="1.0" encoding="iso-8859-1"?>
<!-- Generator: Adobe Illustrator 16.0.0, SVG Export Plug-In . SVG Version: 6.00 Build 0)  -->
<!DOCTYPE svg PUBLIC "-//W3C//DTD SVG 1.1//EN" "http://www.w3.org/Graphics/SVG/1.1/DTD/svg11.dtd">
<svg version="1.1" id="Capa_1" xmlns="http://www.w3.org/2000/svg" xmlns:xlink="http://www.w3.org/1999/xlink" x="0px" y="0px"
	 width="98.229px" height="98.228px" viewBox="0 0 98.229 98.228" style="enable-background:new 0 0 98.229 98.228;"
	 xml:space="preserve">
<g>
	<path d="M18.371,96.006c1.368-4.229,2.663-8.253,3.968-12.272c2.453-7.554,4.895-15.111,7.388-22.652
		c0.29-0.873,0.051-1.279-0.639-1.775c-9.41-6.773-18.799-13.577-28.193-20.373C0.589,38.712,0.285,38.489,0,38.004
		c0.853,0,1.704,0,2.556,0c11.063,0,22.128-0.016,33.192,0.025c1.103,0.003,1.572-0.318,1.916-1.391
		c3.577-11.165,7.215-22.31,10.839-33.459c0.082-0.252,0.191-0.495,0.372-0.957c0.191,0.486,0.333,0.805,0.442,1.135
		c3.676,11.092,7.366,22.179,10.996,33.287c0.348,1.065,0.827,1.387,1.929,1.384C73.764,38,85.288,38.029,96.811,38.042
		c0.375,0,0.746,0,1.418,0c-0.526,0.417-0.828,0.674-1.147,0.906c-9.353,6.788-18.694,13.59-28.079,20.334
		c-0.943,0.679-1.127,1.217-0.762,2.322c3.645,11.022,7.221,22.065,10.816,33.104c0.103,0.314,0.191,0.633,0.371,1.214
		c-0.582-0.404-0.949-0.651-1.306-0.91c-9.28-6.756-18.569-13.503-27.827-20.29c-0.872-0.639-1.448-0.691-2.36-0.027
		c-9.528,6.934-19.096,13.816-28.654,20.713C19.046,95.578,18.797,95.727,18.371,96.006z"/>
</g>
<g>
</g>
<g>
</g>
<g>
</g>
<g>
</g>
<g>
</g>
<g>
</g>
<g>
</g>
<g>
</g>
<g>
</g>
<g>
</g>
<g>
</g>
<g>
</g>
<g>
</g>
<g>
</g>
<g>
</g>
</svg>
