<?xml version="1.0" encoding="iso-8859-1"?>
<!-- Generator: Adobe Illustrator 16.0.0, SVG Export Plug-In . SVG Version: 6.00 Build 0)  -->
<!DOCTYPE svg PUBLIC "-//W3C//DTD SVG 1.1//EN" "http://www.w3.org/Graphics/SVG/1.1/DTD/svg11.dtd">
<svg version="1.1" id="Capa_1" xmlns="http://www.w3.org/2000/svg" xmlns:xlink="http://www.w3.org/1999/xlink" x="0px" y="0px"
	 width="95.034px" height="95.034px" viewBox="0 0 95.034 95.034" style="enable-background:new 0 0 95.034 95.034;"
	 xml:space="preserve">
<g>
	<path d="M95.034,53.666v-4.09c0-7.574-7.112-13.736-15.836-13.736c-5.75,0-10.767,2.677-13.53,6.665v-6.648H45.301l0.759-3.07
		h-9.507l-3.036,9.903h-0.462l-2.839-9.903H19.785l1.285,3.528c-2.811,0.318-7.463,0.076-10.571,6.251v-5.273H0v24.896h11.924
		l-0.04-8.291c0-4.557,3.878-4.82,3.878-4.82h5.806l0.021-11.036l5.259,14.685c1.354,3.07-0.957,3.039-0.957,3.039h-4.259v6.463
		h14.987l6.437-18.54h9.473v0.026l-11.202,10.86l-0.033,7.672c0,0,50.259-0.013,51.183-0.013c0.926,0,2.147-5.967,2.147-5.967
		L83.256,56.27c0,1.594-2.021,2.231-3.982,2.231c-5.438,0-4.885-4.836-4.885-4.836L95.034,53.666L95.034,53.666z M79.327,43.028
		c2.685,0,4.858,1.979,4.858,4.419h-9.719C74.467,45.006,76.643,43.028,79.327,43.028z M63.402,49.557v3.516v1.072h-8.926
		L65.258,43.11C64.076,45.032,63.402,47.225,63.402,49.557z"/>
</g>
<g>
</g>
<g>
</g>
<g>
</g>
<g>
</g>
<g>
</g>
<g>
</g>
<g>
</g>
<g>
</g>
<g>
</g>
<g>
</g>
<g>
</g>
<g>
</g>
<g>
</g>
<g>
</g>
<g>
</g>
</svg>
