<?xml version="1.0" encoding="iso-8859-1"?>
<!-- Generator: Adobe Illustrator 16.0.0, SVG Export Plug-In . SVG Version: 6.00 Build 0)  -->
<!DOCTYPE svg PUBLIC "-//W3C//DTD SVG 1.1//EN" "http://www.w3.org/Graphics/SVG/1.1/DTD/svg11.dtd">
<svg version="1.1" id="Capa_1" xmlns="http://www.w3.org/2000/svg" xmlns:xlink="http://www.w3.org/1999/xlink" x="0px" y="0px"
	 width="98.421px" height="98.421px" viewBox="0 0 98.421 98.421" style="enable-background:new 0 0 98.421 98.421;"
	 xml:space="preserve">
<g>
	<g>
		<path d="M61.188,49.958c-0.078-1.368-0.275-2.717-0.875-3.97c-1.16-2.431-4.478-3.114-6.441-1.331
			c-0.316,0.288-0.555,0.645-0.868,1.069l0.001-1.635l-3.805-0.001l0.008,4.691c0,0.11-0.009,0.219-0.014,0.329
			c-0.13-0.554-0.223-1.105-0.373-1.644c-0.474-1.688-1.415-2.952-3.162-3.483c-0.665-0.202-1.352-0.274-2.04-0.286
			c-1.038-0.018-2.067,0.046-3.048,0.433c-1.713,0.677-2.562,2.052-3.01,3.748c-0.161,0.613-0.24,1.242-0.361,1.868
			c-0.121-0.746-0.211-1.49-0.408-2.217c-0.539-1.996-1.728-3.319-3.824-3.701c-0.923-0.168-1.856-0.18-2.784-0.081
			c-2.448,0.26-3.912,1.508-4.592,3.886c-0.129,0.45-0.332,1.371-0.332,1.371s-0.036,0.05-0.048,0
			c-0.025-0.177-0.044-0.409-0.069-0.586c-0.277-1.953-1.125-3.509-3.039-4.3c-1.064-0.439-2.188-0.474-3.313-0.379
			c-1.92,0.165-3.437,0.989-4.342,2.757c-0.512,1.001-0.758,2.081-0.874,3.19c-0.069,0.669-0.096,1.343-0.143,2.015
			c-0.265-0.613-0.551-1.201-1.004-1.693c-0.831-0.907-1.9-1.438-3.004-1.917c-1.156-0.501-2.317-0.99-3.456-1.524
			c-1.463-0.687-1.824-1.894-1.396-3.507c0.167-0.634,0.623-1.056,1.262-1.216c1.45-0.363,2.688,0.002,3.035,1.76
			c0.048,0.25,0.096,0.509,0.081,0.76L8.94,44.745l3.994-0.001l-0.016-0.872c-0.043-2.475-1.357-4.229-3.7-4.871
			c-1.577-0.433-3.181-0.472-4.772-0.084c-1.957,0.477-3.314,1.644-3.884,3.612c-0.364,1.258-0.379,2.541-0.112,3.824
			c0.245,1.173,0.858,2.111,1.804,2.841c0.763,0.59,1.623,1.001,2.515,1.351c1.019,0.398,2.079,0.691,3.037,1.238
			c0.784,0.447,1.312,1.064,1.446,1.992c0.169,1.158-0.227,2.199-1.092,2.707c-0.647,0.379-1.348,0.41-2.074,0.289
			c-0.958-0.158-1.557-0.692-1.804-1.635c-0.153-0.587-0.161-1.186-0.148-1.785l0.012-0.265h-4.13L0,53.326
			c0.01,0.664-0.016,1.328,0.083,1.988c0.322,2.16,1.451,3.645,3.611,4.213c2.11,0.556,4.227,0.521,6.293-0.188
			c1.781-0.611,2.918-1.861,3.363-3.708c0.081-0.334,0.131-0.677,0.195-1.015c0.172,0.52,0.268,1.051,0.418,1.566
			c0.467,1.603,1.346,2.853,3.021,3.375c1.165,0.364,2.358,0.383,3.562,0.256c2.425-0.256,3.934-1.607,4.451-3.994
			c0.076-0.348,0.129-0.703,0.193-1.055c0.179,0.479,0.278,0.971,0.413,1.448c0.524,1.858,1.667,3.099,3.601,3.499
			c1.147,0.238,2.306,0.232,3.463,0.042c1.923-0.317,3.209-1.403,3.892-3.215c0.317-0.838,0.493-1.709,0.564-2.625
			c0.169,0.063,0.122,0.169,0.131,0.246c0.073,0.596,0.161,1.188,0.311,1.771c0.472,1.822,1.451,3.189,3.363,3.705
			c0.819,0.221,1.658,0.266,2.504,0.25c2.947-0.051,4.672-1.365,5.429-4.156c0.125-0.459,0.202-0.933,0.302-1.399
			c0.015,0.002,0.03,0.004,0.045,0.006v0.419c0,3.109,0.004,6.666-0.005,9.773h3.984c-0.012-1.857-0.006-4.166-0.006-6.022v-0.459
			c0.107,0.136,0.156,0.187,0.193,0.245c1.498,2.334,5.779,2.174,6.984-0.795c0.123-0.307,0.252-0.614,0.344-0.93
			C61.318,54.398,61.314,52.18,61.188,49.958z M25.182,49.971c-0.101,1.067-0.111,2.139-0.036,3.209l0.018,0.404
			c-0.982-0.027-2.779,0.002-3.762-0.018l0.013,0.388c0.005,0.676-0.061,1.35-0.291,1.993c-0.295,0.822-0.82,1.224-1.605,1.229
			c-0.829,0.007-1.363-0.37-1.673-1.192c-0.343-0.912-0.359-1.871-0.402-2.824c-0.019-0.42-0.003-0.842-0.003-1.262
			c0.002-1.234-0.033-2.477,0.275-3.688c0.283-1.114,0.906-1.63,1.911-1.638c0.688-0.006,1.162,0.314,1.449,0.927
			c0.259,0.554,0.348,1.151,0.334,1.749l-0.008,0.384l3.802,0.002L25.182,49.971z M32.959,55.443
			c-0.061,0.287-0.169,0.558-0.303,0.82c-0.309,0.603-0.802,0.904-1.474,0.909c-0.665,0.005-1.184-0.266-1.514-0.854
			c-0.384-0.687-0.474-1.448-0.534-2.209c-0.062-0.775-0.099-1.553-0.072-2.332c0.013-1.248-0.014-2.5,0.297-3.723
			c0.168-0.658,0.44-1.258,1.131-1.534c0.903-0.361,1.815,0.01,2.228,0.907c0.258,0.562,0.38,1.163,0.431,1.772
			C33.319,51.289,33.393,53.375,32.959,55.443z M45.145,54.779c-0.062,0.416-0.156,0.826-0.313,1.217
			c-0.318,0.795-0.846,1.179-1.608,1.18c-0.803,0-1.36-0.398-1.673-1.207c-0.267-0.686-0.355-1.408-0.384-2.133
			c-0.028-0.688-0.076-1.376-0.076-2.064c-0.032-1.235,0.002-2.476,0.309-3.687c0.189-0.755,0.513-1.422,1.365-1.632
			c0.837-0.207,1.556,0.114,1.95,0.884c0.435,0.85,0.517,1.785,0.558,2.711C45.344,51.626,45.375,53.208,45.145,54.779z
			 M57.023,55.135c-0.041,0.25-0.138,0.493-0.242,0.723c-0.297,0.638-0.801,0.969-1.512,0.975c-0.719,0.007-1.25-0.292-1.569-0.946
			c-0.314-0.642-0.421-1.336-0.457-2.036c-0.091-1.783-0.177-3.567,0.179-5.335c0.049-0.248,0.135-0.491,0.23-0.725
			c0.289-0.7,0.838-1.049,1.582-1.052c0.711-0.002,1.244,0.323,1.549,0.984c0.337,0.733,0.387,1.521,0.431,2.311
			c0.033,0.597,0.034,1.197,0.034,1.797C57.262,52.939,57.201,54.023,57.023,55.135z"/>
		<polygon points="62.459,54.998 62.459,59.482 66.268,59.482 66.268,54.993 		"/>
		<path d="M67.752,33.877v30.667h30.669V33.877H67.752z M74.425,38.805c1.121,0.009,2.779,0.012,3.9-0.001l-0.003,3.396h-3.904
			L74.425,38.805z M86.577,46.757l-2.285-0.001l0.011,8.712c0.004,0.874,0.405,1.244,1.28,1.274c0.09,0.003,0.903,0.003,0.993,0
			l-0.006,2.712c-1.348,0.146-2.879,0.28-4.221,0.015c-1.218-0.24-1.777-0.918-1.943-2.23c-0.057-0.457-0.086-0.914-0.086-1.375
			l0.005-9.11l-1.987,0.001l0.012,12.691h-3.938l-0.001-7.709l-0.008-7.699l5.932,0.001l-0.006-5.236l3.967,0.001l-0.005,5.249
			l2.288,0.002L86.577,46.757z M91.746,59.441h-3.96v-3.809h3.965L91.746,59.441z M91.754,43.086L91.219,53.77
			c-0.791-0.006-2.1-0.012-2.891,0.002l-0.541-10.646L87.785,38.8l3.979,0.001L91.754,43.086z"/>
	</g>
</g>
<g>
</g>
<g>
</g>
<g>
</g>
<g>
</g>
<g>
</g>
<g>
</g>
<g>
</g>
<g>
</g>
<g>
</g>
<g>
</g>
<g>
</g>
<g>
</g>
<g>
</g>
<g>
</g>
<g>
</g>
</svg>
