<?xml version="1.0" encoding="iso-8859-1"?>
<!-- Generator: Adobe Illustrator 16.0.0, SVG Export Plug-In . SVG Version: 6.00 Build 0)  -->
<!DOCTYPE svg PUBLIC "-//W3C//DTD SVG 1.1//EN" "http://www.w3.org/Graphics/SVG/1.1/DTD/svg11.dtd">
<svg version="1.1" id="Capa_1" xmlns="http://www.w3.org/2000/svg" xmlns:xlink="http://www.w3.org/1999/xlink" x="0px" y="0px"
	 width="96.721px" height="96.721px" viewBox="0 0 96.721 96.721" style="enable-background:new 0 0 96.721 96.721;"
	 xml:space="preserve">
<g>
	<g>
		<path d="M75.302,68.443c-0.034-9.977-0.95-20.823-25.901-29.14C33.1,33.87,31.651,29.342,31.651,25.72
			c0-3.623,3.441-9.6,11.23-9.6c7.788,0,9.6,1.992,9.6,1.992c0,15.033,9.961,14.128,12.68,14.128
			c2.717,0,10.143-2.174,10.143-10.868C75.303,12.679,66.79,0,44.15,0S12.453,13.766,12.453,27.35
			c0,13.585,5.977,19.019,21.735,26.444c15.757,7.426,22.641,10.323,22.641,16.302c0,5.977-6.158,9.963-14.31,9.963
			c-8.15,0-11.592-3.262-11.592-3.262s1.268-2.535,1.268-4.348c0-1.812-1.448-10.506-11.592-10.506
			c-10.143,0-11.773,9.058-11.773,11.773c0,2.717,4.527,23.004,33.236,23.004c8.982,0,15.597-1.63,20.447-4.188
			c-1.135-2.258-1.792-4.797-1.792-7.494C60.721,76.541,67.089,69.516,75.302,68.443z"/>
		<circle cx="76.208" cy="83.59" r="11.684"/>
	</g>
</g>
<g>
</g>
<g>
</g>
<g>
</g>
<g>
</g>
<g>
</g>
<g>
</g>
<g>
</g>
<g>
</g>
<g>
</g>
<g>
</g>
<g>
</g>
<g>
</g>
<g>
</g>
<g>
</g>
<g>
</g>
</svg>
