<?xml version="1.0" encoding="iso-8859-1"?>
<!-- Generator: Adobe Illustrator 16.0.0, SVG Export Plug-In . SVG Version: 6.00 Build 0)  -->
<!DOCTYPE svg PUBLIC "-//W3C//DTD SVG 1.1//EN" "http://www.w3.org/Graphics/SVG/1.1/DTD/svg11.dtd">
<svg version="1.1" id="Capa_1" xmlns="http://www.w3.org/2000/svg" xmlns:xlink="http://www.w3.org/1999/xlink" x="0px" y="0px"
	 width="98.325px" height="98.325px" viewBox="0 0 98.325 98.325" style="enable-background:new 0 0 98.325 98.325;"
	 xml:space="preserve">
<g>
	<g>
		<path d="M13.07,81.027c8.465,4.406,17.615,5.775,27.047,5.998c2.582-0.193,5.172-0.356,7.75-0.581
			c9.87-0.86,19.266-3.417,28.105-7.907c4.861-2.472,9.267-5.602,12.707-9.884c6.357-7.917,6.894-16.615,2.869-25.646
			c-1.422-3.196-1.129-5.706,1.146-8.26c1.535-1.725,2.932-3.599,4.19-5.535c0.881-1.354,2.214-2.967,0.869-4.6
			c-1.224-1.486-5.021-0.508-4.895-0.548c-4.306,1.115-7.871,3.574-11.41,6.128c-1.226,0.884-2.621,1.697-4.062,2.067
			c-2.186,0.565-3.553-0.817-2.817-2.96c0.942-2.753,2.379-5.335,3.537-8.021c0.602-1.394,1.215-2.816,1.528-4.289
			c0.285-1.337-2.016-2.221-3.518-2.053c-2.11,0.236-2.822,0.854-4.416,2.093c-3.525,2.739-6.643,6.005-9.963,9.016
			c-1.234,1.121-2.461,2.343-3.91,3.099c-0.822,0.431-2.389,0.398-3.072-0.131c-0.692-0.535-1.119-2.014-0.951-2.953
			c0.431-2.394,1.275-4.71,1.925-7.067c0.424-1.54,0.969-3.077,1.131-4.651c0.217-2.15-1.896-3.477-3.978-2.91
			c-2.105,0.573-3.438,1.598-4.85,3.086c-3.299,3.484-6.051,7.488-9.082,11.236c-1.395,1.727-2.717,3.619-4.449,4.943
			c-1.924,1.473-3.721,0.316-3.736-2.131c-0.01-1.963,0.18-3.934,0.09-5.891c-0.084-1.897-2.012-2.553-3.613-1.55
			c-1.213,0.756-1.674,1.767-2.355,2.978c-1.676,2.979-3.027,6.142-4.523,9.224c-0.611,1.257-1.115,2.597-1.932,3.708
			c-0.408,0.56-1.457,1.035-2.107,0.923c-0.617-0.106-1.447-0.966-1.564-1.607c-0.283-1.562-0.152-3.19-0.303-4.782
			c-0.068-0.717,0.088-1.67-0.609-2.109c-0.838-0.528-2.131-0.083-2.639,0.691c-0.997,1.521-1.699,3.166-2.721,5.164
			c-2.547,4.981-4.428,10.285-6.463,15.5c-1.809,4.641-2.523,9.504-1.666,14.441C1.679,72.81,6.566,77.639,13.07,81.027z
			 M14.269,54.85c4.859-6.277,11.551-9.781,19.018-11.736c15.789-4.072,28.792-0.116,33.42,2.404
			c4.531,2.468,8.244,5.763,9.314,11.066c1.332,6.611-1.791,11.59-6.504,15.72c-6.685,5.856-14.775,8.467-23.421,9.582
			c-7.209,0.934-14.355,0.508-21.148-2.16c-3.084-1.212-6.135-2.907-8.686-5.01C9.818,69.41,9.148,61.46,14.269,54.85z"/>
		<path d="M32.445,77.2c10.131,3.722,22.42-4.796,22.48-15.582c0.029-5.269-3.102-9.692-8.064-11.384
			c-8.869-3.024-19.799,3.11-21.891,12.29C23.47,69.097,26.484,75.008,32.445,77.2z M41.519,60.662c0.848,0,1.531,0.687,1.531,1.534
			c0,0.846-0.684,1.533-1.531,1.533c-0.85,0-1.533-0.688-1.533-1.533C39.986,61.348,40.67,60.662,41.519,60.662z M36,61.674
			c2.307,0.003,4.158,2.004,4.117,4.447c-0.053,3.014-2.785,5.762-5.658,5.696c-2.303-0.052-4.012-1.871-4.016-4.279
			C30.435,64.587,33.201,61.668,36,61.674z"/>
	</g>
</g>
<g>
</g>
<g>
</g>
<g>
</g>
<g>
</g>
<g>
</g>
<g>
</g>
<g>
</g>
<g>
</g>
<g>
</g>
<g>
</g>
<g>
</g>
<g>
</g>
<g>
</g>
<g>
</g>
<g>
</g>
</svg>
