<?xml version="1.0" encoding="iso-8859-1"?>
<!-- Generator: Adobe Illustrator 16.0.0, SVG Export Plug-In . SVG Version: 6.00 Build 0)  -->
<!DOCTYPE svg PUBLIC "-//W3C//DTD SVG 1.1//EN" "http://www.w3.org/Graphics/SVG/1.1/DTD/svg11.dtd">
<svg version="1.1" id="Capa_1" xmlns="http://www.w3.org/2000/svg" xmlns:xlink="http://www.w3.org/1999/xlink" x="0px" y="0px"
	 width="99.297px" height="99.297px" viewBox="0 0 99.297 99.297" style="enable-background:new 0 0 99.297 99.297;"
	 xml:space="preserve">
<g>
	<g>
		<g>
			<path d="M47.233,59.541c-1.401-2.996-3.623-5.191-6.649-6.58c-2.501-1.146-5.086-2.006-7.765-2.639l-12.267-3.323
				c-1.912-0.552-3.75-1.307-5.278-2.641c-1.021-0.891-1.658-1.981-1.66-3.381c-0.005-3.054,1.852-5.516,4.948-6.421
				c2.885-0.844,5.823-0.81,8.756-0.266c3.206,0.595,5.668,2.18,7.15,5.219c0.983,2.018,1.03,3.043,1.03,3.043l11.104-0.012
				l0.003-0.402c-0.045-1.021-0.155-2.006-0.365-3.004c-1.381-6.573-5.022-11.245-11.468-13.512
				c-4.183-1.472-8.519-1.698-12.9-1.473c-3.124,0.161-6.191,0.632-9.144,1.71c-4.121,1.504-7.343,4.052-9.268,8.072
				c-1.372,2.864-1.71,5.909-1.589,9.047c0.105,2.708,0.917,5.19,2.135,7.581c1.475,2.896,4.028,4.475,6.869,5.691
				c3.542,1.518,7.353,2.122,11.045,3.126c2.572,0.698,5.173,1.288,7.669,2.241c1.926,0.736,3.789,1.592,5.391,2.934
				c1.713,1.436,2.261,3.213,1.709,5.377c-0.617,2.418-2.251,3.881-4.514,4.568c-4.511,1.369-9.208,1.271-13.604-0.525
				c-1.859-0.76-3.387-1.98-4.353-3.804c-0.578-1.093-0.941-2.254-1.159-3.464c0,0-0.11-0.613-0.102-0.809c0,0-4.258,0-5.946,0
				c-1.838,0-4.194,0.01-6.031-0.006l0.037,0.493c0.212,3.046,0.821,5.996,2.278,8.699c2.671,4.952,6.928,7.847,12.287,9.241
				c3.692,0.959,7.46,1.177,11.254,1.056c3.217-0.103,6.392-0.507,9.467-1.508c3.605-1.175,6.753-3.021,9.032-6.152
				c1.894-2.603,2.868-5.538,3.204-8.709C48.889,65.745,48.641,62.55,47.233,59.541z"/>
			<path d="M65.904,61.335l32.412-23.448l-40.105,0.01L45.868,0l-7.034,21.398l0.419,0.201c2.663,1.261,4.964,3.008,6.906,5.219
				c3.165,3.603,4.988,7.811,5.666,12.544c0.28,1.952,0.293,3.915,0.384,5.875l0.024,0.722c6.533-0.021,14.636-0.015,21.169-0.01
				l-17.077,12.28l5.796,17.666c0.221,0.678,0.731,2.223,0.731,2.223s-6.112-4.401-9.106-6.564
				c-0.484,2.725-1.457,5.284-2.758,7.463l-0.218,0.369c7.864,5.682,16.149,11.68,24.009,17.365c1.118,0.809,3.51,2.547,3.51,2.547
				l-6.147-18.844L65.904,61.335z"/>
		</g>
	</g>
</g>
<g>
</g>
<g>
</g>
<g>
</g>
<g>
</g>
<g>
</g>
<g>
</g>
<g>
</g>
<g>
</g>
<g>
</g>
<g>
</g>
<g>
</g>
<g>
</g>
<g>
</g>
<g>
</g>
<g>
</g>
</svg>
