<?xml version="1.0" encoding="iso-8859-1"?>
<!-- Generator: Adobe Illustrator 16.0.0, SVG Export Plug-In . SVG Version: 6.00 Build 0)  -->
<!DOCTYPE svg PUBLIC "-//W3C//DTD SVG 1.1//EN" "http://www.w3.org/Graphics/SVG/1.1/DTD/svg11.dtd">
<svg version="1.1" id="Capa_1" xmlns="http://www.w3.org/2000/svg" xmlns:xlink="http://www.w3.org/1999/xlink" x="0px" y="0px"
	 width="97.5px" height="97.5px" viewBox="0 0 97.5 97.5" style="enable-background:new 0 0 97.5 97.5;" xml:space="preserve">
<g>
	<g>
		<path d="M0,0v97.5h97.5V0H0z M48.75,85.367c-20.224,0-36.616-16.395-36.616-36.617c0-20.223,16.392-36.617,36.616-36.617
			c20.225,0,36.616,16.394,36.616,36.617C85.366,68.973,68.975,85.367,48.75,85.367z M81.727,19.329
			c-2.033,0-3.683-1.648-3.683-3.681c0-2.034,1.649-3.682,3.683-3.682s3.683,1.648,3.683,3.682
			C85.408,17.681,83.76,19.329,81.727,19.329z"/>
		<circle cx="48.75" cy="48.75" r="9.854"/>
		<path d="M60.146,21.763c-3.605-1.525-7.44-2.298-11.396-2.298s-7.791,0.773-11.397,2.298c-3.486,1.475-6.618,3.587-9.31,6.279
			c-2.693,2.691-4.805,5.824-6.279,9.311c-1.525,3.605-2.299,7.44-2.299,11.396s0.773,7.791,2.299,11.396
			c1.475,3.486,3.586,6.621,6.279,9.312c2.691,2.692,5.823,4.805,9.31,6.278c3.606,1.525,7.441,2.299,11.397,2.299
			s7.791-0.773,11.396-2.299c3.485-1.475,6.619-3.586,9.311-6.278c2.693-2.69,4.805-5.825,6.279-9.312
			c1.525-3.604,2.299-7.439,2.299-11.396s-0.773-7.791-2.299-11.396c-1.475-3.487-3.586-6.62-6.279-9.311
			C66.766,25.351,63.633,23.238,60.146,21.763z M48.75,70.648c-12.094,0-21.899-9.805-21.899-21.898s9.805-21.899,21.899-21.899
			c12.094,0,21.898,9.804,21.898,21.899S60.844,70.648,48.75,70.648z"/>
	</g>
</g>
<g>
</g>
<g>
</g>
<g>
</g>
<g>
</g>
<g>
</g>
<g>
</g>
<g>
</g>
<g>
</g>
<g>
</g>
<g>
</g>
<g>
</g>
<g>
</g>
<g>
</g>
<g>
</g>
<g>
</g>
</svg>
