<?xml version="1.0" encoding="iso-8859-1"?>
<!-- Generator: Adobe Illustrator 16.0.0, SVG Export Plug-In . SVG Version: 6.00 Build 0)  -->
<!DOCTYPE svg PUBLIC "-//W3C//DTD SVG 1.1//EN" "http://www.w3.org/Graphics/SVG/1.1/DTD/svg11.dtd">
<svg version="1.1" id="Capa_1" xmlns="http://www.w3.org/2000/svg" xmlns:xlink="http://www.w3.org/1999/xlink" x="0px" y="0px"
	 width="96.488px" height="96.488px" viewBox="0 0 96.488 96.488" style="enable-background:new 0 0 96.488 96.488;"
	 xml:space="preserve">
<g>
	<g>
		<path d="M70.291,67.886c0.123,12.218-8.094,24.09-20.604,27.445c-4.586,1.23-9.168,1.577-13.793,0.563
			c-8.099-1.775-14.254-6.274-18.412-13.478c-1.88-3.256-3.021-6.817-4.351-10.304c-0.482-1.268-0.938-2.544-1.42-3.812
			c-0.205-0.538-0.156-0.814,0.495-1.042c3.438-1.204,6.858-2.458,10.264-3.751c0.691-0.263,0.915-0.129,1.159,0.542
			c1.474,4.044,2.938,8.104,5.104,11.84c2.689,4.632,6.88,7.03,12.14,7.36c5.707,0.358,10.417-1.754,13.671-6.554
			c2.75-4.059,3.254-8.527,1.972-13.244c-0.94-3.462-2.129-6.837-3.429-10.175c-0.219-0.562-0.204-0.909,0.47-1.146
			c3.52-1.243,7.029-2.513,10.528-3.812c0.479-0.179,0.631-0.072,0.78,0.352c1.752,4.994,3.805,9.891,5.015,15.062
			C70.253,65.325,70.267,66.969,70.291,67.886z"/>
		<path d="M84.259,1.571c0.63,0.228,0.769,0.422,0.488,1.071c-1.526,3.547-3.023,7.107-4.477,10.687
			c-0.271,0.669-0.531,0.738-1.175,0.534c-5.638-1.797-10.854-0.846-15.234,3.063c-4.604,4.106-5.972,9.409-4.574,15.416
			c0.877,3.775,2.277,7.381,3.622,11.002c0.261,0.706,0.045,0.861-0.534,1.069c-3.492,1.255-6.978,2.533-10.458,3.82
			c-0.425,0.156-0.67,0.203-0.862-0.333c-1.55-4.316-3.254-8.586-4.509-12.999c-1.704-5.995-1.323-11.949,1.229-17.624
			C57.853-5.158,80.328,0.152,84.259,1.571z"/>
		<path d="M32.88,49.586c0.36-0.086,0.416,0.188,0.496,0.405c1.827,5.005,3.65,10.01,5.476,15.016
			c0.217,0.595,0.441,1.186,0.659,1.777c0.161,0.442,0.192,0.72-0.415,0.933c-2.499,0.869-4.977,1.808-7.446,2.761
			c-0.659,0.255-0.839-0.063-1.024-0.576c-1.351-3.732-2.714-7.461-4.075-11.189c-0.651-1.78-1.29-3.566-1.972-5.338
			c-0.177-0.459-0.166-0.71,0.336-0.89c2.579-0.925,5.151-1.867,7.726-2.804C32.724,49.647,32.808,49.613,32.88,49.586z"/>
		<path d="M51.632,62.787c0.09,0.325-0.133,0.41-0.372,0.498c-2.601,0.948-5.204,1.893-7.797,2.86
			c-0.605,0.227-0.649-0.217-0.777-0.563c-0.899-2.429-1.795-4.858-2.684-7.291c-1.063-2.908-2.153-5.81-3.166-8.736
			c-0.473-1.366-0.708-1.139,0.664-1.646c2.371-0.877,4.749-1.736,7.119-2.613c0.399-0.148,0.616-0.164,0.799,0.341
			c2.018,5.575,4.067,11.142,6.106,16.711C51.576,62.488,51.597,62.641,51.632,62.787z"/>
	</g>
</g>
<g>
</g>
<g>
</g>
<g>
</g>
<g>
</g>
<g>
</g>
<g>
</g>
<g>
</g>
<g>
</g>
<g>
</g>
<g>
</g>
<g>
</g>
<g>
</g>
<g>
</g>
<g>
</g>
<g>
</g>
</svg>
