<?xml version="1.0" encoding="iso-8859-1"?>
<!-- Generator: Adobe Illustrator 16.0.0, SVG Export Plug-In . SVG Version: 6.00 Build 0)  -->
<!DOCTYPE svg PUBLIC "-//W3C//DTD SVG 1.1//EN" "http://www.w3.org/Graphics/SVG/1.1/DTD/svg11.dtd">
<svg version="1.1" id="Capa_1" xmlns="http://www.w3.org/2000/svg" xmlns:xlink="http://www.w3.org/1999/xlink" x="0px" y="0px"
	 width="97.188px" height="97.188px" viewBox="0 0 97.188 97.188" style="enable-background:new 0 0 97.188 97.188;"
	 xml:space="preserve">
<g>
	<g>
		<path d="M97.187,43.691c0.203,20.232-13.404,39.891-34.121,45.45c-7.594,2.037-15.182,2.611-22.841,0.934
			c-13.412-2.939-23.605-10.391-30.49-22.316C6.621,62.366,4.731,56.467,2.53,50.695c-0.8-2.1-1.556-4.214-2.353-6.312
			c-0.339-0.892-0.258-1.349,0.821-1.726c5.692-1.994,11.357-4.07,16.996-6.212c1.146-0.433,1.515-0.211,1.919,0.898
			c2.441,6.696,4.865,13.421,8.454,19.605c4.454,7.671,11.394,11.645,20.104,12.19c9.451,0.593,17.25-2.904,22.638-10.854
			c4.555-6.721,5.388-14.12,3.265-21.932c-1.558-5.733-3.523-11.322-5.677-16.85c-0.361-0.931-0.339-1.506,0.777-1.9
			c5.828-2.059,11.641-4.159,17.436-6.312c0.795-0.296,1.044-0.12,1.292,0.582c2.901,8.271,6.302,16.377,8.305,24.942
			C97.123,39.451,97.147,42.172,97.187,43.691z"/>
		<path d="M35.234,13.387c0.596-0.143,0.689,0.312,0.821,0.671c3.026,8.289,6.045,16.576,9.068,24.864
			c0.358,0.985,0.729,1.964,1.091,2.945c0.268,0.733,0.319,1.191-0.687,1.543c-4.139,1.44-8.242,2.993-12.331,4.571
			c-1.093,0.423-1.389-0.104-1.698-0.954c-2.236-6.181-4.494-12.354-6.748-18.53c-1.079-2.949-2.136-5.907-3.266-8.839
			c-0.292-0.76-0.274-1.175,0.558-1.474c4.271-1.531,8.53-3.092,12.793-4.643C34.976,13.489,35.115,13.433,35.234,13.387z"/>
		<path d="M66.287,35.248c0.149,0.538-0.22,0.679-0.616,0.824c-4.307,1.57-8.617,3.133-12.911,4.737
			c-1.003,0.375-1.076-0.359-1.288-0.932c-1.49-4.021-2.973-8.047-4.444-12.073c-1.761-4.818-3.566-9.621-5.243-14.47
			c-0.783-2.263-1.172-1.884,1.099-2.725c3.926-1.452,7.864-2.876,11.791-4.328c0.661-0.246,1.02-0.271,1.321,0.564
			c3.343,9.234,6.736,18.451,10.113,27.673C66.194,34.753,66.229,35.004,66.287,35.248z"/>
	</g>
</g>
<g>
</g>
<g>
</g>
<g>
</g>
<g>
</g>
<g>
</g>
<g>
</g>
<g>
</g>
<g>
</g>
<g>
</g>
<g>
</g>
<g>
</g>
<g>
</g>
<g>
</g>
<g>
</g>
<g>
</g>
</svg>
