<?xml version="1.0" encoding="iso-8859-1"?>
<!-- Generator: Adobe Illustrator 16.0.0, SVG Export Plug-In . SVG Version: 6.00 Build 0)  -->
<!DOCTYPE svg PUBLIC "-//W3C//DTD SVG 1.1//EN" "http://www.w3.org/Graphics/SVG/1.1/DTD/svg11.dtd">
<svg version="1.1" id="Capa_1" xmlns="http://www.w3.org/2000/svg" xmlns:xlink="http://www.w3.org/1999/xlink" x="0px" y="0px"
	 width="97.754px" height="97.754px" viewBox="0 0 97.754 97.754" style="enable-background:new 0 0 97.754 97.754;"
	 xml:space="preserve">
<g>
	<g>
		<circle cx="49.043" cy="48.711" r="14.913"/>
		<path d="M48.877,0C21.884,0,0,21.883,0,48.877s21.884,48.877,48.877,48.877s48.877-21.883,48.877-48.877S75.87,0,48.877,0z
			 M49.043,74.75c-5.458,0-10.526-1.665-14.726-4.516l-10.944,3.394l4.154-10.084c-2.988-4.262-4.742-9.453-4.742-15.053
			c0-14.502,11.757-26.259,26.259-26.259s26.259,11.757,26.259,26.259C75.303,62.993,63.545,74.75,49.043,74.75z"/>
	</g>
</g>
<g>
</g>
<g>
</g>
<g>
</g>
<g>
</g>
<g>
</g>
<g>
</g>
<g>
</g>
<g>
</g>
<g>
</g>
<g>
</g>
<g>
</g>
<g>
</g>
<g>
</g>
<g>
</g>
<g>
</g>
</svg>
