<?xml version="1.0" encoding="iso-8859-1"?>
<!-- Generator: Adobe Illustrator 16.0.0, SVG Export Plug-In . SVG Version: 6.00 Build 0)  -->
<!DOCTYPE svg PUBLIC "-//W3C//DTD SVG 1.1//EN" "http://www.w3.org/Graphics/SVG/1.1/DTD/svg11.dtd">
<svg version="1.1" id="Capa_1" xmlns="http://www.w3.org/2000/svg" xmlns:xlink="http://www.w3.org/1999/xlink" x="0px" y="0px"
	 width="98.611px" height="98.611px" viewBox="0 0 98.611 98.611" style="enable-background:new 0 0 98.611 98.611;"
	 xml:space="preserve">
<g>
	<g>
		<path d="M29.955,48.942c-1.689,3.053-3.962,5.78-5.197,9.028c3.638-0.066,7.21-0.781,10.782-1.493
			c0.585,3.115,1.494,6.233,2.858,9.156c3.118-2.403,5.716-5.326,8.25-8.313c3.312,1.561,6.755,2.857,10.327,3.442
			c0.261-3.379,0.131-6.756-0.26-10.069c3.834-1.168,7.6-2.532,11.107-4.479c-2.6-2.145-5.521-3.898-8.51-5.393
			c1.949-2.856,3.769-5.716,5.002-8.898c-3.766,0.259-7.469,0.974-11.107,1.818c-0.779-2.533-1.492-5.195-3.117-7.405
			c-3.054,1.69-5.197,4.614-7.601,7.081c-2.857-1.104-5.911-1.947-9.028-2.403c-0.325,2.859-0.455,5.716-0.26,8.573
			c-3.442,1.105-6.821,2.403-9.938,4.158C25.213,45.887,27.681,47.317,29.955,48.942z"/>
		<path d="M98.611,48.032c-1.17-1.43-2.663-2.469-4.094-3.442c-5.391-3.509-11.105-6.432-16.953-8.964
			c4.158-6.104,8.314-12.405,10.459-19.485c-8.379,0.454-16.629,2.469-24.747,4.677c-1.494-5.263-3.88-10.962-6.999-15.51
			L55.61,5.813c-5.651,4.224-10.522,9.55-15.198,14.876c-5.845-1.95-11.951-4.29-18.187-4.158
			c-1.754,5.519-1.494,11.431-1.364,17.147c-7.146,2.208-14.096,5.065-20.721,8.571L0,42.321l0.14,0.188
			c3.573,4.741,8.574,7.988,13.446,11.173c-3.313,4.157-6.301,8.509-9.093,12.99c-1.364,2.208-2.729,4.481-3.573,7.015
			c1.494,0.324,2.988,0.324,4.482,0.195c6.366-0.454,12.666-1.561,18.902-2.986c0.779,6.301,2.013,12.471,4.026,18.445
			c0.521,1.43,0.975,2.923,2.079,3.963c7.34-5.197,12.925-12.471,18.771-19.227c2.599,0.453,4.871,2.272,7.405,3.246
			c5.716,2.338,11.497,5.067,17.796,5.717c0.844-8.248-0.193-16.627-1.818-24.682c6.886-2.016,13.705-4.287,20.266-7.211
			C94.842,50.241,96.855,49.331,98.611,48.032z M68.473,45.044c-0.584,0.844-0.713,1.884-0.521,2.923
			c0.584,3.442,2.079,6.625,3.638,9.81c-4.287,0.52-8.638,0.973-12.796,2.272c-1.624,0.521-2.987,1.688-3.962,3.053
			c-2.208,2.923-3.961,6.104-5.585,9.353c-3.054-2.271-5.977-4.937-9.549-6.365c-1.364-0.648-2.988-0.26-4.417,0
			c-3.507,0.91-6.819,2.273-10.197,3.638c0.195-2.923,0.325-5.844,0.195-8.767c-0.129-1.234-0.26-2.664-1.299-3.574
			c-2.663-2.076-5.975-2.793-8.963-4.092c2.663-3.247,6.17-5.78,8.25-9.547c0.389-3.313-0.715-6.562-1.624-9.68
			c3.897-0.713,7.924-1.169,11.562-2.857c3.313-2.337,5.131-6.17,7.339-9.483c3.118,1.625,6.042,3.898,9.55,4.353
			c4.416-0.52,8.442-2.599,12.535-4.221c0.129,2.923,0.129,5.909,1.038,8.703c0.392,1.298,1.495,2.013,2.663,2.532
			c3.184,1.364,6.626,2.079,10.003,2.923C73.604,38.873,70.551,41.537,68.473,45.044z"/>
	</g>
</g>
<g>
</g>
<g>
</g>
<g>
</g>
<g>
</g>
<g>
</g>
<g>
</g>
<g>
</g>
<g>
</g>
<g>
</g>
<g>
</g>
<g>
</g>
<g>
</g>
<g>
</g>
<g>
</g>
<g>
</g>
</svg>
