<?xml version="1.0" encoding="iso-8859-1"?>
<!-- Generator: Adobe Illustrator 16.0.0, SVG Export Plug-In . SVG Version: 6.00 Build 0)  -->
<!DOCTYPE svg PUBLIC "-//W3C//DTD SVG 1.1//EN" "http://www.w3.org/Graphics/SVG/1.1/DTD/svg11.dtd">
<svg version="1.1" id="Capa_1" xmlns="http://www.w3.org/2000/svg" xmlns:xlink="http://www.w3.org/1999/xlink" x="0px" y="0px"
	 width="97.668px" height="97.668px" viewBox="0 0 97.668 97.668" style="enable-background:new 0 0 97.668 97.668;"
	 xml:space="preserve">
<g>
	<g>
		<path d="M48.834,0C21.864,0,0,21.863,0,48.834c0,26.971,21.864,48.834,48.834,48.834c26.971,0,48.834-21.863,48.834-48.834
			C97.668,21.863,75.805,0,48.834,0z M48.834,93.334c-24.537,0-44.499-19.963-44.499-44.5S24.297,4.335,48.834,4.335
			s44.5,19.962,44.5,44.499S73.371,93.334,48.834,93.334z"/>
		<path d="M48.809,7.588c-22.78,0-41.246,18.466-41.246,41.246c0,22.779,18.466,41.246,41.246,41.246
			c22.779,0,41.246-18.467,41.246-41.246C90.055,26.054,71.588,7.588,48.809,7.588z M38.767,68.427c0,0.943-0.765,1.707-1.707,1.707
			h-8.957c-0.942,0-1.707-0.764-1.707-1.707v-8.958c0-0.941,0.765-1.705,1.707-1.705h8.957c0.942,0,1.707,0.764,1.707,1.705V68.427z
			 M38.767,53.422c0,0.943-0.765,1.707-1.707,1.707h-8.957c-0.942,0-1.707-0.764-1.707-1.707v-8.958
			c0-0.941,0.765-1.706,1.707-1.706h8.957c0.942,0,1.707,0.765,1.707,1.706V53.422z M38.767,38.428c0,0.943-0.765,1.706-1.707,1.706
			h-8.957c-0.942,0-1.707-0.763-1.707-1.706v-8.957c0-0.942,0.765-1.707,1.707-1.707h8.957c0.942,0,1.707,0.765,1.707,1.707V38.428z
			 M55.164,68.427c0,0.943-0.764,1.707-1.707,1.707H44.5c-0.942,0-1.707-0.764-1.707-1.707v-8.958c0-0.941,0.765-1.705,1.707-1.705
			h8.957c0.943,0,1.707,0.764,1.707,1.705V68.427z M55.164,53.422c0,0.943-0.764,1.707-1.707,1.707H44.5
			c-0.942,0-1.707-0.764-1.707-1.707v-8.958c0-0.941,0.765-1.706,1.707-1.706h8.957c0.943,0,1.707,0.765,1.707,1.706V53.422z
			 M55.164,38.428c0,0.943-0.764,1.706-1.707,1.706H44.5c-0.942,0-1.707-0.763-1.707-1.706v-8.957c0-0.942,0.765-1.707,1.707-1.707
			h8.957c0.943,0,1.707,0.765,1.707,1.707V38.428z M71.598,68.427c0,0.943-0.765,1.707-1.707,1.707h-8.957
			c-0.941,0-1.707-0.764-1.707-1.707v-8.958c0-0.941,0.766-1.705,1.707-1.705h8.957c0.943,0,1.707,0.764,1.707,1.705V68.427
			L71.598,68.427z M71.598,53.422c0,0.943-0.765,1.707-1.707,1.707h-8.957c-0.941,0-1.707-0.764-1.707-1.707v-8.958
			c0-0.941,0.766-1.706,1.707-1.706h8.957c0.943,0,1.707,0.765,1.707,1.706V53.422L71.598,53.422z M71.598,38.428
			c0,0.943-0.765,1.706-1.707,1.706h-8.957c-0.941,0-1.707-0.763-1.707-1.706v-8.957c0-0.942,0.766-1.707,1.707-1.707h8.957
			c0.943,0,1.707,0.765,1.707,1.707V38.428L71.598,38.428z"/>
	</g>
</g>
<g>
</g>
<g>
</g>
<g>
</g>
<g>
</g>
<g>
</g>
<g>
</g>
<g>
</g>
<g>
</g>
<g>
</g>
<g>
</g>
<g>
</g>
<g>
</g>
<g>
</g>
<g>
</g>
<g>
</g>
</svg>
