<?xml version="1.0" encoding="iso-8859-1"?>
<!-- Generator: Adobe Illustrator 16.0.0, SVG Export Plug-In . SVG Version: 6.00 Build 0)  -->
<!DOCTYPE svg PUBLIC "-//W3C//DTD SVG 1.1//EN" "http://www.w3.org/Graphics/SVG/1.1/DTD/svg11.dtd">
<svg version="1.1" id="Capa_1" xmlns="http://www.w3.org/2000/svg" xmlns:xlink="http://www.w3.org/1999/xlink" x="0px" y="0px"
	 width="98.226px" height="98.225px" viewBox="0 0 98.226 98.225" style="enable-background:new 0 0 98.226 98.225;"
	 xml:space="preserve">
<g>
	<g>
		<path d="M50.634,47.586h-9.047l-1.318,3.874h2.471c-0.449,0.819-1.305,1.291-2.348,1.291c-0.113,0-0.23-0.007-0.35-0.017
			c-1.168-0.113-1.818-0.84-1.736-1.945c0.15-2.003,0.961-3.565,2.406-4.645c1.484-1.108,2.822-0.926,3.869,0.526l0.1,0.138
			l5.781-1.941l-0.035-0.196c-0.277-1.514-1.404-2.902-2.873-3.537c-0.979-0.423-2.016-0.628-3.168-0.628
			c-0.766,0-1.574,0.091-2.473,0.278c-5.209,1.082-9.43,5.829-9.824,11.044c-0.184,2.434,1.229,4.611,3.514,5.418
			c0.354,0.125,0.725,0.221,1.088,0.314l0.012,0.002c0.527,0.104,1.102,0.156,1.711,0.156c0.742,0,1.33-0.079,1.563-0.113
			c2.818-0.412,5.273-1.729,7.496-4.027c1.438-1.484,2.416-3.295,3.08-5.7L50.634,47.586z"/>
		<path d="M24.109,40.883l-6.191,9.803l-4.164,6.575l0.389,0.022c0.088,0.004,0.168,0.008,0.246,0.009h0.059
			c0.422,0,0.854-0.007,1.266-0.015l4.557,0.015l0.748-2.015l4.66-0.008l-0.135,1.991h6.252V40.893l-7.672-0.009H24.109z
			 M26.394,47.387c-0.104,1.148-0.213,2.334-0.336,3.538c-0.014,0.132-0.158,0.353-0.256,0.356
			c-0.385,0.018-0.771,0.021-1.064,0.021c-0.164,0-0.328-0.001-0.502-0.002h-0.053c-0.16,0-0.322-0.002-0.488-0.002l2.781-4.795
			L26.394,47.387z"/>
		<path d="M68.66,47.586h-9.047l-1.318,3.874h2.471c-0.449,0.819-1.305,1.291-2.344,1.291c-0.115,0-0.234-0.007-0.354-0.017
			c-1.168-0.113-1.816-0.84-1.734-1.945c0.15-2.003,0.961-3.565,2.408-4.645c1.481-1.108,2.817-0.926,3.867,0.526l0.1,0.138
			l5.783-1.941l-0.037-0.196c-0.275-1.514-1.402-2.902-2.873-3.537c-0.98-0.423-2.016-0.628-3.168-0.628
			c-0.766,0-1.576,0.091-2.473,0.278c-5.207,1.082-9.431,5.829-9.825,11.044c-0.182,2.434,1.229,4.611,3.514,5.418
			c0.354,0.125,0.725,0.221,1.088,0.314l0.014,0.002c0.523,0.104,1.101,0.156,1.711,0.156c0.742,0,1.33-0.079,1.56-0.113
			c2.819-0.412,5.272-1.729,7.5-4.027c1.437-1.484,2.414-3.295,3.08-5.7L68.66,47.586z"/>
		<path d="M14.074,46.304l5.273,0.007l1.84-3.059l1.432-2.356l-8.682-0.002c-4.648,0-8.572,0.003-12,0.01H1.812l-1.24,1.923
			L0,43.672l1.422,2.106l0.324,0.53L8.16,46.3L4.41,57.268l5.875-0.003l0.199-0.487c0.637-1.895,1.295-3.817,1.934-5.678l0.01-0.031
			c0.496-1.447,0.99-2.896,1.479-4.334L14.074,46.304z"/>
		<path d="M80.191,52.836h-7.088l0.543-1.734l5.903,0.002l1.455-4.238h-5.871l0.51-1.486l6.982-0.008l1.514-4.493L71.4,40.882
			l-2.486,7.248l-0.115,0.338c-0.736,2.147-1.471,4.296-2.205,6.444c-0.01,0.025-0.02,0.054-0.033,0.089
			c-0.01,0.032-0.029,0.081-0.043,0.12l-0.043,0.135l0.1,0.1c0.605,0.598,1.234,1.189,1.843,1.762l0.192,0.176l0.099-0.004h3.215
			c2.006,0,4.353-0.002,6.56-0.012h0.164l1.229-3.513L80.191,52.836z"/>
		<path d="M95.763,41.817c-0.92-0.569-2.008-0.923-3.532-0.981l-7.398,0.025l-0.145,0.445c-0.285,0.847-0.572,1.712-0.861,2.581
			c-0.486,1.455-0.988,2.959-1.471,4.369c-0.332,0.959-0.662,1.919-0.99,2.878c-0.467,1.369-0.935,2.737-1.424,4.177l-0.72,2.112
			l0.336-0.015c0.859-0.037,1.711-0.062,2.537-0.088h0.019c0.424-0.013,0.846-0.022,1.262-0.033c1.68-0.041,3.27-0.08,4.885-0.268
			c4.666-0.547,8.895-4.547,9.832-9.306C98.582,45.225,97.711,43.021,95.763,41.817z M90.701,50.875
			c-0.846,0.9-2.068,1.375-3.541,1.375c-0.101,0-0.199-0.002-0.305-0.006l0.393-1.149l1.793-5.159
			c0.363,0.018,1.23,0.078,1.777,0.245c0.596,0.182,1.176,0.746,1.125,1.594C91.871,48.995,91.431,50.096,90.701,50.875z"/>
	</g>
</g>
<g>
</g>
<g>
</g>
<g>
</g>
<g>
</g>
<g>
</g>
<g>
</g>
<g>
</g>
<g>
</g>
<g>
</g>
<g>
</g>
<g>
</g>
<g>
</g>
<g>
</g>
<g>
</g>
<g>
</g>
</svg>
