<?xml version="1.0" encoding="iso-8859-1"?>
<!-- Generator: Adobe Illustrator 16.0.0, SVG Export Plug-In . SVG Version: 6.00 Build 0)  -->
<!DOCTYPE svg PUBLIC "-//W3C//DTD SVG 1.1//EN" "http://www.w3.org/Graphics/SVG/1.1/DTD/svg11.dtd">
<svg version="1.1" id="Capa_1" xmlns="http://www.w3.org/2000/svg" xmlns:xlink="http://www.w3.org/1999/xlink" x="0px" y="0px"
	 width="98.226px" height="98.225px" viewBox="0 0 98.226 98.225" style="enable-background:new 0 0 98.226 98.225;"
	 xml:space="preserve">
<g>
	<g>
		<path d="M95.856,25.993c-4.313-6.474-13.06-8.233-19.541-3.907L49.112,40.217L21.91,22.086
			c-6.482-4.329-15.231-2.573-19.541,3.907c-4.32,6.474-2.566,15.222,3.909,19.539l21.141,14.098v36.057l0.877,0.018l19.266-12.54
			L67.76,95.77l1.053-0.016V60.957l23.137-15.425C98.424,41.215,100.176,32.467,95.856,25.993z"/>
		<path d="M48.407,31.22c7.94,0,14.386-6.438,14.386-14.383c0-7.939-6.445-14.381-14.386-14.381
			c-7.946,0-14.387,6.441-14.387,14.381C34.021,24.782,40.461,31.22,48.407,31.22z"/>
	</g>
</g>
<g>
</g>
<g>
</g>
<g>
</g>
<g>
</g>
<g>
</g>
<g>
</g>
<g>
</g>
<g>
</g>
<g>
</g>
<g>
</g>
<g>
</g>
<g>
</g>
<g>
</g>
<g>
</g>
<g>
</g>
</svg>
