<?xml version="1.0" encoding="iso-8859-1"?>
<!-- Generator: Adobe Illustrator 16.0.0, SVG Export Plug-In . SVG Version: 6.00 Build 0)  -->
<!DOCTYPE svg PUBLIC "-//W3C//DTD SVG 1.1//EN" "http://www.w3.org/Graphics/SVG/1.1/DTD/svg11.dtd">
<svg version="1.1" id="Capa_1" xmlns="http://www.w3.org/2000/svg" xmlns:xlink="http://www.w3.org/1999/xlink" x="0px" y="0px"
	 width="98.625px" height="98.625px" viewBox="0 0 98.625 98.625" style="enable-background:new 0 0 98.625 98.625;"
	 xml:space="preserve">
<g>
	<g>
		<polygon points="0,46.122 4.296,46.122 4.296,57.812 8.638,57.812 8.638,46.122 12.936,46.122 12.936,41.896 0,41.896 		"/>
		<path d="M23.12,41.67c-3.719,0-0.173,0-4.64,0s-4.342,5.18-4.342,5.18v10.962h4.774v-5.016H22.7v5.016h4.776V46.851
			C27.477,46.851,27.477,41.67,23.12,41.67z M22.701,49.635h-3.788v-3.289h3.788V49.635z"/>
		<path d="M87.587,41.67c-3.719,0-0.173,0-4.64,0s-4.342,5.18-4.342,5.18v10.962h4.773v-5.016h3.789v5.016h4.775V46.851
			C91.945,46.851,91.945,41.67,87.587,41.67z M87.169,49.635H83.38v-3.289h3.789V49.635z"/>
		<path d="M41.414,48.37c0-3.452,0-3.526,0-3.526s-0.479-2.949-3.308-2.949s-8.698,0-8.698,0v15.918h4.342v-3.908h1.339l1.836,3.908
			h4.696L39.37,52.48C39.37,52.48,41.414,51.82,41.414,48.37z M37.183,49.332h-3.601v-3.378h3.602L37.183,49.332L37.183,49.332z"/>
		<rect x="43.16" y="41.896" width="4.342" height="15.917"/>
		<polygon points="63.059,41.896 58.762,41.896 58.762,50.244 54.018,41.896 49.376,41.896 49.376,57.812 53.689,57.812 
			53.689,49.474 58.418,57.812 63.074,57.812 63.059,57.793 		"/>
		<path d="M76.125,46.125h-0.003c0.001,0.021,0.003,0.044,0.003,0.063V46.125z"/>
		<path d="M70.348,51.328h2.342v2.707h-4.071v-7.914l7.504,0.004l-0.005-4.231c0,0-2.872,0-7.484,0
			c-4.611,0-4.355,4.227-4.355,4.227v8.773c0,0,0.631,2.918,5.554,2.918c0.411,0,0.703,0,0.907,0c0.314,0,0.419,0,0.419,0
			c0.2,0,0.487,0,0.891,0c4.697,0,5.025-2.938,5.025-2.938v-6.496H70.35v2.949H70.348z"/>
		<rect x="94.314" y="40.812" width="4.311" height="11.589"/>
		<rect x="94.314" y="53.312" width="4.31" height="4.501"/>
	</g>
</g>
<g>
</g>
<g>
</g>
<g>
</g>
<g>
</g>
<g>
</g>
<g>
</g>
<g>
</g>
<g>
</g>
<g>
</g>
<g>
</g>
<g>
</g>
<g>
</g>
<g>
</g>
<g>
</g>
<g>
</g>
</svg>
