<?xml version="1.0" encoding="iso-8859-1"?>
<!-- Generator: Adobe Illustrator 16.0.0, SVG Export Plug-In . SVG Version: 6.00 Build 0)  -->
<!DOCTYPE svg PUBLIC "-//W3C//DTD SVG 1.1//EN" "http://www.w3.org/Graphics/SVG/1.1/DTD/svg11.dtd">
<svg version="1.1" id="Capa_1" xmlns="http://www.w3.org/2000/svg" xmlns:xlink="http://www.w3.org/1999/xlink" x="0px" y="0px"
	 width="95.333px" height="95.333px" viewBox="0 0 95.333 95.333" style="enable-background:new 0 0 95.333 95.333;"
	 xml:space="preserve">
<g>
	<path d="M73.104,0H22.228C9.952,0,0,9.952,0,22.228v50.877c0,12.275,9.951,22.228,22.228,22.228h50.875
		c12.277,0,22.229-9.952,22.229-22.228V22.228C95.332,9.952,85.381,0,73.104,0z M65.209,52.786
		c-9.312,4.825-18.619,9.657-27.896,14.544c-2.105,1.109-4.021,1.062-5.922-0.32c-1.429-1.037-1.947-2.482-1.938-4.21
		c0.024-4.964,0.008-9.929,0.007-14.894c0-4.903-0.03-9.806,0.008-14.708c0.039-5.035,3.896-7.409,8.34-5.07
		c9.224,4.857,18.406,9.792,27.606,14.694c2.029,1.081,3.543,2.485,3.467,5.041C68.805,50.389,67.255,51.725,65.209,52.786z"/>
</g>
<g>
</g>
<g>
</g>
<g>
</g>
<g>
</g>
<g>
</g>
<g>
</g>
<g>
</g>
<g>
</g>
<g>
</g>
<g>
</g>
<g>
</g>
<g>
</g>
<g>
</g>
<g>
</g>
<g>
</g>
</svg>
