<?xml version="1.0" encoding="iso-8859-1"?>
<!-- Generator: Adobe Illustrator 16.0.0, SVG Export Plug-In . SVG Version: 6.00 Build 0)  -->
<!DOCTYPE svg PUBLIC "-//W3C//DTD SVG 1.1//EN" "http://www.w3.org/Graphics/SVG/1.1/DTD/svg11.dtd">
<svg version="1.1" id="Capa_1" xmlns="http://www.w3.org/2000/svg" xmlns:xlink="http://www.w3.org/1999/xlink" x="0px" y="0px"
	 width="94.115px" height="94.115px" viewBox="0 0 94.115 94.115" style="enable-background:new 0 0 94.115 94.115;"
	 xml:space="preserve">
<g>
	<g>
		<path d="M25.9,9.362C11.619,9.362,0,20.979,0,35.262c0.001,4.788,1.297,9.406,3.765,13.455l0.865,1.353l4.619-3.407L8.53,45.257
			c-1.75-3.029-2.665-6.451-2.665-9.994c0-11.049,8.987-20.035,20.035-20.035c11.048,0,20.036,8.986,20.036,20.035
			c0,11.045-8.988,20.033-20.036,20.033c-2.009,0-3.988-0.297-5.886-0.878l-1.72,5.604c2.455,0.755,5.013,1.138,7.605,1.138
			c14.282,0,25.902-11.619,25.902-25.897C51.801,20.979,40.182,9.362,25.9,9.362z"/>
		<path d="M22.208,43.433l0.647-0.529c1.049,0.479,2.206,0.762,3.436,0.762c4.588,0,8.308-3.719,8.308-8.308
			c0-4.587-3.72-8.308-8.308-8.308s-8.308,3.721-8.308,8.308c0,1.201,0.265,2.333,0.722,3.363c0,0,0.121,0.645,0.756,1.209
			C4.184,53.137,3.088,69.376,3.078,70.177v17.96h5.864V70.213C8.945,70.052,9.291,54.104,22.208,43.433z"/>
		<path d="M72.887,31.337c-1.932,0.103-3.846-0.297-5.592-1.184c-5.441-2.761-7.623-9.433-4.861-14.878
			c2.761-5.44,9.432-7.625,14.875-4.863c5.441,2.76,7.623,9.434,4.861,14.876c-0.5,0.988-1.142,1.892-1.9,2.682l2.33,2.248
			c0.985-1.022,1.813-2.187,2.461-3.466c3.567-7.034,0.748-15.66-6.287-19.23c-7.034-3.565-15.662-0.745-19.23,6.29
			c-3.568,7.034-0.747,15.661,6.288,19.233c2.358,1.193,4.958,1.706,7.571,1.506l0.881-0.09l-0.525-3.127L72.887,31.337z"/>
		<path d="M85.284,37.37c-0.078-0.041-7.853-4.195-9.878-13.225l-0.1-0.454c0.498-0.397,0.926-0.893,1.233-1.5
			c1.146-2.261,0.243-5.021-2.017-6.168c-2.262-1.147-5.023-0.245-6.168,2.015c-1.146,2.263-0.244,5.023,2.016,6.168
			c0.591,0.302,1.217,0.455,1.839,0.487c0,0,0.349,0.102,0.783-0.07c2.688,10.825,10.415,15.422,10.808,15.626l8.848,4.488
			l1.467-2.891L85.284,37.37z"/>
	</g>
</g>
<g>
</g>
<g>
</g>
<g>
</g>
<g>
</g>
<g>
</g>
<g>
</g>
<g>
</g>
<g>
</g>
<g>
</g>
<g>
</g>
<g>
</g>
<g>
</g>
<g>
</g>
<g>
</g>
<g>
</g>
</svg>
