<?xml version="1.0" encoding="iso-8859-1"?>
<!-- Generator: Adobe Illustrator 16.0.0, SVG Export Plug-In . SVG Version: 6.00 Build 0)  -->
<!DOCTYPE svg PUBLIC "-//W3C//DTD SVG 1.1//EN" "http://www.w3.org/Graphics/SVG/1.1/DTD/svg11.dtd">
<svg version="1.1" id="Capa_1" xmlns="http://www.w3.org/2000/svg" xmlns:xlink="http://www.w3.org/1999/xlink" x="0px" y="0px"
	 width="99.107px" height="99.107px" viewBox="0 0 99.107 99.107" style="enable-background:new 0 0 99.107 99.107;"
	 xml:space="preserve">
<g>
	<path d="M73.785,50.706c-0.333-0.776-0.73-3.031-0.077-4.324c0.783,0.999,1.661,2.278,0.075,4.329 M67.632,37.524
		c-0.952,3.408-1.081,9.313-0.111,11.778c2.658-5.165,0.458-10.839,0.109-11.785 M60.905,47.453c0.204-5.156,0.202-8.83-0.908-10.9
		c-0.946,2.8-0.468,5.722,0.914,10.9 M62.93,52.398c1.74,2.284,2.706,1.062,2.957-0.008c-2.223-8.494-0.741-13.004,0.773-18.158
		c-0.005-0.004-0.009-0.005-0.014-0.009c-0.081-0.058-4.354,1.667-4.806,1.85c3.438,5.521-0.684,11.773,1.091,16.325 M83.7,51.642
		c3.062-2.314,2.8-7.138,3.205-9.66c-0.005-0.003-0.011-0.003-0.015-0.006c0,0-4.764,1.835-5.332,2.054
		c2.455,1.302,3.266,3.964,2.146,7.612 M56.526,51.006c0.963,2.182,2.689,1.295,3.402,0.377c-0.957-1.935-1.205-2.758-1.698-4.299
		c-1.574,0.237-2.774,1.489-1.698,3.918 M76.688,52.5c2.204-2.203,3.375-6.667,3.451-9.005c-0.004-0.001-0.01-0.002-0.014-0.005
		c0,0-4.479,1.721-4.916,1.891c1.846,1.936,1.455,4.203-0.192,7.011c0.482,0.589,1.238,0.387,1.676,0.108 M88.322,45.417
		c0.208,2.048-0.337,3.931-0.929,4.867c1.896,0.223,3.117-2.918,0.936-4.867 M81.249,46.931c0.019,1.509-0.906,3.611-0.906,3.611
		c1.904,1.273,2.778-1.125,0.901-3.611 M72.565,52.197c-1.62-2.986-1.085-6.165,0.364-8.444c-0.003-0.002-0.006-0.004-0.008-0.004
		c0,0-1.728,0.645-2.031,0.756c-0.156,2.563-0.908,5.146-2.144,7.3c0.384,1.162,3.29,1.73,3.814,0.394 M86.256,52.384
		c-2.246,2.133-4.512,2.252-6.853,0.307c-1.231,1.742-2.843,2.485-5.658,1.479c-1.631,1.284-4.786,1.312-6.5-0.259
		c-1.73,2.625-4.452,2.275-6.182-0.396c-1.119,2.132-3.204,2.206-4.891,0.705c-1.531,1.868-3.612,2.046-4.836,0.188
		c-0.531,1.804-2.853,2.884-5.508,1.432c-0.824,1.486-3.431,2.827-6.361,1.604c-3.829,3.646-6.939,3.011-6.878-5.268l-1.569-0.399
		c0,0,0.188,5.266,0.13,5.869c-0.069,1.878-1.572,2.223-2.059,2.366c-1.422,0.419-2.708-0.736-2.886-1.729
		c-0.666-3.712-1.374-7.945-1.57-8.011c-0.97-0.312-1.862,8.882-4.412,10.929c-2.779,2.229-4.628,0.517-6.586-0.734l-1.691,1.79
		c-0.698-3.787-1.197-7.393-0.243-10.853c-1.237,0.315-3.045-0.23-3.307-1.104c0.886-1.22,2.34-1.19,3.136-1.064
		c0.457-1.483,0.571-3.282,0.175-5.184c2.549,0.074,2.721,1.979,2.735,2.519c0.022,1.138-0.277,1.956-0.387,2.306
		c1.167-0.538,2.045-0.276,2.662,0.048c0.618,0.32,0.845,0.9,0.888,1.366c-1.116,0.537-2.276,0.723-3.432,0.654
		c-1.883,4.713,1.12,7.94,3.752,8.688c1.329-8.596,0.575-18.641,2.693-23.31c-0.004-0.004-0.007-0.006-0.01-0.011l-8.424,3.319
		c-0.642,1.462-0.997,3.046-1.215,4.654c-0.225,0.099-7.738,2.918-7.704,3.098c0.285,1.499,0.305,2.981,0,4.455
		c-0.012,0.004-0.025,0.009-0.037,0.013c-1.033,0.416-2.236,0.735-3.063,1.519c-0.675,0.641,0.902,1.209,1.353,1.338
		c0.384,0.103,0.785,0.117,1.178,0.117c0.189-0.012,0.375-0.039,0.559-0.085c-0.07,0.256-0.132,0.513-0.188,0.771
		c-0.235,1.028-0.311,2.087-0.336,3.144c-0.058,2.326,0.35,4.668,0.77,6.945c0.782-0.308,1.563-0.614,2.342-0.922
		c0.145-0.053,0.288-0.105,0.428-0.158c0.601,0.38,1.221,0.743,1.904,0.964c1.48,0.479,3.05-0.399,4.386-0.916
		c1.864-0.724,3.725-1.45,5.573-2.213c0.224,0.351,0.539,0.641,0.99,0.884c1.427,0.757,3.974-0.768,5.151-1.227
		c0.305-0.119,0.612-0.24,0.918-0.359c0.252,0.408,0.568,0.758,0.989,1.009c0.417,0.247,0.917,0.275,1.396,0.213
		c0.267-0.033,0.528-0.125,0.782-0.211c1.35-0.447,2.673-1.008,3.995-1.533c2.102,0.305,3.951-0.596,6.048-1.414
		c0.068-0.028,0.138-0.053,0.206-0.079c0.953,0.218,1.848,0.13,2.739-0.116c-0.001,0.001-0.002,0.001-0.003,0.001
		c0.002,0,0.004-0.001,0.006-0.001c0.79-0.218,1.585-0.555,2.435-0.896c1.177,1.002,4.155-0.464,4.559-0.619
		c1.514,1.121,4.479-0.183,4.858-0.403c1.019,1.136,2.341,1.761,3.94,1.206c0.861-0.299,1.718-0.616,2.57-0.945
		c1.255,0.654,2.734,0.74,4.131,0.378c0.623-0.159,1.242-0.367,1.858-0.598c0.729,0.22,1.454,0.35,2.24,0.315
		c1.31-0.063,2.698-0.816,3.901-1.316c1.58,1.252,4.902,0.277,6.751-0.546c1.834,0.772,3.796,0.976,5.79,0.602
		c0.566-0.104,6.966-2.499,9.963-3.752c-2.479,0.875-5.408,0.891-8.086-0.564 M21.355,40.436l-0.874,12.506
		c1.313-2.056,1.942-9.634,0.88-12.513 M53.255,53.468c0.148,0.54,1.557,0.408,1.724-0.432c-1.594-2.304-2.755-7.546,2.743-8.25
		c-0.855-4.613-0.194-8.051,1.81-11.295c-0.003-0.002-0.005-0.004-0.007-0.006c-0.066-0.058-8.324,3.152-8.426,3.315
		c-1.303,2.151-1.955,4.415-2.104,6.766c-0.001,0-0.004,0.003-0.006,0.003c2.098-0.115,3.02,5.354,4.27,9.904 M28.087,57.571
		c0,0,0.757,1.147,1.353,0.388c0.642-0.793-0.475-8.247-0.492-8.358c-0.005,0-0.011,0-0.017,0c-0.362,0.032-0.936,0.337-1.245,0.457
		c-0.082,0.03-0.164,0.062-0.245,0.093c0.247,0.583,0.422,1.281,0.524,2.097c0.25,1.928,0.116,5.331,0.116,5.331 M33.338,49.117
		c1.664,2.065,2.241,4.291,1.426,7.112c1.047,1.47,1.848,1.295,3.069,0.097c-2.457-1.67-2.293-7.863,1.822-10.167
		c0,0-0.001-0.002-0.002-0.002c0.014-0.01-0.133,0.04-0.153,0.049c-0.995,0.351-6.551,2.293-8.16,3.228
		c-0.033,0.014-0.219,0.128-0.318,0.188c0.5,0.072,0.99,0.175,1.454,0.336L33.338,49.117z M47.639,54.022
		c0.564,0.334,2.27,0.133,2.693-1.713c-0.87-2.829-1.061-3.891-1.463-5.717c-1.878,0.352-2.882,6.46-1.223,7.436 M41.177,55.511
		c0.73,0.438,3.202,0.642,3.5-0.95c-0.848-6.682,2.05-10.31,3.888-10.907c-0.047,0.015-0.093,0.027-0.137,0.044
		c-0.148,0.05-0.444,0.154-0.444,0.154l-7.6,2.651c3.162,1.853,3.304,6.725,0.788,9.008 M39.52,54.319
		c2.467-2.61,1.45-5.423,0.312-5.569c-1.999,1.787-1.626,4.668-0.318,5.569 M93.498,45.271c0.095-0.012,0.132-0.029,0.146-0.04
		c0.036-0.025,0.05-0.064,0.043-0.125c-0.003-0.058-0.022-0.094-0.059-0.106c-0.039-0.021-0.089-0.024-0.16-0.018l-0.228,0.026
		l0.027,0.289l0.229-0.024L93.498,45.271L93.498,45.271z M99.084,42.785c-0.006-0.012-0.011-0.021-0.017-0.03l-4.563,1.732
		c0.184,0.202,0.305,0.467,0.334,0.767c0.078,0.748-0.469,1.423-1.217,1.499c-0.752,0.076-1.422-0.469-1.498-1.217
		c-0.069-0.646,0.325-1.229,0.909-1.43l-0.002-0.002l-2.293,0.873c0.139,0.263,0.262,0.522,0.363,0.803H91.1
		c0.575,1.569,0.538,3.487-0.354,5.558c6.046-0.277,8.679-4.698,8.331-8.553 M93.367,44.27c0.624-0.066,1.178,0.393,1.251,1.019
		c0.064,0.625-0.393,1.186-1.017,1.25c-0.626,0.062-1.184-0.392-1.248-1.015c-0.067-0.629,0.396-1.183,1.005-1.256 M92.989,44.811
		l0.13,1.268l0.227-0.021l-0.054-0.534l0.113-0.016c0.025,0,0.044,0,0.058,0.016c0.007,0,0.029,0.015,0.059,0.067l0.314,0.408
		l0.263-0.028l-0.396-0.51c-0.001-0.004-0.002-0.008-0.004-0.01c0.035-0.017,0.062-0.03,0.083-0.047
		c0.1-0.078,0.143-0.188,0.128-0.322c-0.016-0.143-0.08-0.239-0.19-0.291c-0.068-0.033-0.159-0.043-0.276-0.034L92.989,44.811z"/>
</g>
<g>
</g>
<g>
</g>
<g>
</g>
<g>
</g>
<g>
</g>
<g>
</g>
<g>
</g>
<g>
</g>
<g>
</g>
<g>
</g>
<g>
</g>
<g>
</g>
<g>
</g>
<g>
</g>
<g>
</g>
</svg>
