<?xml version="1.0" encoding="iso-8859-1"?>
<!-- Generator: Adobe Illustrator 16.0.0, SVG Export Plug-In . SVG Version: 6.00 Build 0)  -->
<!DOCTYPE svg PUBLIC "-//W3C//DTD SVG 1.1//EN" "http://www.w3.org/Graphics/SVG/1.1/DTD/svg11.dtd">
<svg version="1.1" id="Capa_1" xmlns="http://www.w3.org/2000/svg" xmlns:xlink="http://www.w3.org/1999/xlink" x="0px" y="0px"
	 width="98.149px" height="98.149px" viewBox="0 0 98.149 98.149" style="enable-background:new 0 0 98.149 98.149;"
	 xml:space="preserve">
<g>
	<g>
		<path d="M37.913,38.954c2.91,2.357,6.438,3.679,9.937,3.719h0.092c4.382,0,7.879-1.084,10.69-3.314
			c5.035-3.995,10.065-7.996,15.116-12.012c4.746-3.773,14.81-11.765,14.81-11.765l-6.99-5.454c0,0-20.069,15.795-29.654,23.414
			c-2.041,1.619-4.715,1.614-6.767-0.016l-3.319-2.639c-3.669-2.916-11.465-9.061-11.465-9.061l-7.007,5.56
			C23.356,27.387,33.218,35.151,37.913,38.954z"/>
		<path d="M30.004,47.874c0.718,0.57,1.136,1.357,1.181,2.21c0.044,0.849-0.286,1.659-0.929,2.29
			c-0.462,0.45-0.983,0.858-1.519,1.276c-0.142,0.11-0.284,0.223-0.424,0.333l-2.067,1.645c-3.562,2.836-11.412,9.057-11.412,9.057
			l7.01,5.584c0,0,12.306-9.731,15.396-12.237c2.533-2.054,3.804-4.672,3.891-8.007l-0.039-0.383
			c-0.038-0.34-0.086-0.758-0.168-1.172c-0.486-2.457-1.789-4.504-3.984-6.255c-5.207-4.146-10.417-8.288-15.628-12.43L11.75,22.18
			c-1.38-1.1-4.712-3.77-4.712-3.77L0,24.031c0,0,4.799,3.799,6.912,5.479l7.731,6.145C19.765,39.727,24.886,43.798,30.004,47.874z"
			/>
		<path d="M71.695,66.955l-0.078-0.062c-3.294-2.639-6.7-5.367-10.111-8.017c-4.654-3.616-10.168-4.465-16.257-2.502
			c-2.234,0.722-3.972,2.113-5.811,3.586l-0.39,0.313c-4.143,3.305-8.29,6.604-12.438,9.902l-4.06,3.229
			c-3.61,2.87-11.4,9.056-11.4,9.056l7.068,5.561c0,0,2.874-2.291,4.142-3.295l0.18-0.142c0.799-0.631,1.598-1.261,2.395-1.896
			l10.37-8.253c4.213-3.355,8.426-6.711,12.64-10.064c0.936-0.742,2.042-1.136,3.199-1.136c1.164,0,2.283,0.399,3.232,1.149
			c4.215,3.33,14.889,11.84,14.889,11.84l7.084-5.549C76.35,70.678,73.057,68.049,71.695,66.955z"/>
		<path d="M88.873,67.035c0,0-16.223-12.92-20.486-16.306c-0.903-0.717-1.403-1.629-1.404-2.578
			c-0.002-0.924,0.477-1.815,1.349-2.518c1.048-0.836,2.103-1.669,3.156-2.507l11.864-9.424l-7.025-5.56
			c0,0-12.305,9.736-15.367,12.208c-2.5,2.019-3.822,4.643-3.93,7.805c-0.006,2.734,1.431,5.758,3.578,7.527
			c1.041,0.857,2.141,1.73,3.109,2.496c0,0,13.926,11.064,16.694,13.27c3.417,2.72,10.763,8.491,10.763,8.491l6.976-5.544
			C98.15,74.395,91.773,69.346,88.873,67.035z"/>
		<path d="M48.177,25.041h0.013c2.661,0,4.678-0.676,6.167-2.059c1.111-1.028,1.736-2.352,1.757-3.723
			c0.021-1.367-0.563-2.704-1.642-3.769c-1.402-1.383-3.496-2.175-5.742-2.175c-2.263,0-4.364,0.802-5.767,2.2
			c-1.038,1.033-1.609,2.336-1.607,3.673c0.001,1.321,0.568,2.612,1.596,3.632C44.847,24.698,47.039,25.015,48.177,25.041z"/>
	</g>
</g>
<g>
</g>
<g>
</g>
<g>
</g>
<g>
</g>
<g>
</g>
<g>
</g>
<g>
</g>
<g>
</g>
<g>
</g>
<g>
</g>
<g>
</g>
<g>
</g>
<g>
</g>
<g>
</g>
<g>
</g>
</svg>
