<?xml version="1.0" encoding="iso-8859-1"?>
<!-- Generator: Adobe Illustrator 16.0.0, SVG Export Plug-In . SVG Version: 6.00 Build 0)  -->
<!DOCTYPE svg PUBLIC "-//W3C//DTD SVG 1.1//EN" "http://www.w3.org/Graphics/SVG/1.1/DTD/svg11.dtd">
<svg version="1.1" id="Capa_1" xmlns="http://www.w3.org/2000/svg" xmlns:xlink="http://www.w3.org/1999/xlink" x="0px" y="0px"
	 width="97.334px" height="97.334px" viewBox="0 0 97.334 97.334" style="enable-background:new 0 0 97.334 97.334;"
	 xml:space="preserve">
<g>
	<g>
		<path d="M17.943,73.193c4.027,3.584,8.759,5.304,14.519,5.365c5.49-0.086,10.538-2.098,14.553-6.479
			c0.775-0.846,0.66-2.178-0.172-2.901c-0.857-0.745-2.108-0.62-2.863,0.353c-0.501,0.646-1.09,1.183-1.731,1.67
			c-4.212,3.201-8.938,4.087-14.052,2.992c-3.097-0.66-5.806-2.107-8.076-4.35c-0.967-0.955-2.042-1.021-2.893-0.232
			c-0.86,0.798-0.822,2,0.103,3C17.521,72.818,17.733,73.008,17.943,73.193z"/>
		<path d="M54.861,39.693c-0.701-0.705-1.504-0.926-2.411-0.456c-0.75,0.39-1.107,1.055-1.044,1.89
			c0.058,0.778,0.589,1.3,1.13,1.795c4.047,3.702,8.843,5.471,14.293,5.548c1.217,0.021,2.421-0.075,3.614-0.288
			c4.423-0.785,8.218-2.751,11.283-6.058c0.885-0.955,0.791-2.331-0.144-3.081c-0.883-0.707-2.044-0.51-2.866,0.462
			c-0.336,0.397-0.685,0.794-1.083,1.127c-4.211,3.514-9.042,4.598-14.368,3.537C60.031,43.524,57.206,42.044,54.861,39.693z"/>
		<path d="M59.223,29.259c1.736-0.031,3.117-1.452,3.104-3.198c-0.013-1.755-1.394-3.123-3.155-3.126
			c-1.749-0.004-3.158,1.377-3.184,3.117C55.963,27.81,57.455,29.288,59.223,29.259z"/>
		<path d="M74.159,29.257c1.71,0.076,3.21-1.292,3.298-3.009c0.089-1.742-1.241-3.222-2.973-3.309
			c-1.782-0.089-3.236,1.184-3.342,2.925C71.034,27.672,72.373,29.177,74.159,29.257z"/>
		<rect x="35.108" y="52.844" width="3.954" height="8.736"/>
		<rect x="24.091" y="52.844" width="3.955" height="8.736"/>
		<path d="M48.667,0c-1.641,0-5.132,0.262-5.156,0.274C19.091,2.856,0,23.573,0,48.667c0,26.836,21.832,48.667,48.667,48.667
			s48.667-21.831,48.667-48.667S75.502,0,48.667,0z M46.7,18.491c-5.153,6.799-6.34,14.45-4.24,22.861
			c-8.121-3.688-16.017-3.563-23.542,0.99c-7.53,4.556-11.333,11.532-12.284,20.215c-2.666-7.609-3.027-15.359-1.391-23.22
			c1.65-7.922,5.28-14.865,10.758-20.784C30.523,2.867,52.223,0.899,67.861,8.667C58.945,8.416,51.906,11.622,46.7,18.491z
			 M87.117,33.982c0.023,11.739-9.35,21.364-20.819,21.381C54.871,55.38,45.5,45.817,45.487,34.127
			c-0.013-11.834,9.21-21.369,20.727-21.431C77.666,12.636,87.093,22.235,87.117,33.982z M31.56,42.676
			c11.591,0.045,20.866,9.612,20.827,21.483c-0.041,11.848-9.407,21.389-20.963,21.354C19.816,85.48,10.543,75.867,10.593,63.92
			C10.641,52.191,20.076,42.634,31.56,42.676z M51.344,79.088c4.823-6.675,5.896-14.133,3.834-22.275
			c8.102,3.645,15.939,3.625,23.469-0.821c7.494-4.427,11.394-11.266,12.506-19.84c1.861,5.385,2.297,10.937,1.772,16.522
			c-1.013,10.797-5.414,20.091-13.161,27.688c-15.134,14.844-35.858,14.961-48.308,9.06C39.865,89.184,46.526,85.76,51.344,79.088z"
			/>
	</g>
</g>
<g>
</g>
<g>
</g>
<g>
</g>
<g>
</g>
<g>
</g>
<g>
</g>
<g>
</g>
<g>
</g>
<g>
</g>
<g>
</g>
<g>
</g>
<g>
</g>
<g>
</g>
<g>
</g>
<g>
</g>
</svg>
