<?xml version="1.0" encoding="iso-8859-1"?>
<!-- Generator: Adobe Illustrator 16.0.0, SVG Export Plug-In . SVG Version: 6.00 Build 0)  -->
<!DOCTYPE svg PUBLIC "-//W3C//DTD SVG 1.1//EN" "http://www.w3.org/Graphics/SVG/1.1/DTD/svg11.dtd">
<svg version="1.1" id="Capa_1" xmlns="http://www.w3.org/2000/svg" xmlns:xlink="http://www.w3.org/1999/xlink" x="0px" y="0px"
	 width="99.296px" height="99.295px" viewBox="0 0 99.296 99.295" style="enable-background:new 0 0 99.296 99.295;"
	 xml:space="preserve">
<g>
	<path d="M89.921,48.516c-1.131,0-2.213,0.205-3.215,0.572l-5.325-8.693c1.422-1.419,2.301-3.381,2.301-5.548
		c0-4.331-3.512-7.842-7.842-7.842c-2.583,0-4.867,1.254-6.296,3.181l-23.271-6.29c0.058-0.367,0.096-0.741,0.096-1.124
		c0-4.021-3.259-7.279-7.278-7.279c-4.021,0-7.279,3.259-7.279,7.279c0,0.475,0.049,0.937,0.136,1.386l-14.383,7.03
		c-1.525-3.035-4.658-5.122-8.286-5.122C4.154,26.066,0,30.22,0,35.345c0,5.124,4.154,9.279,9.279,9.279
		c1.533,0,2.976-0.378,4.25-1.037l15.295,19.427c-0.686,1.728-1.066,3.609-1.066,5.583c0,8.397,6.808,15.206,15.206,15.206
		c7.605,0,13.888-5.588,15.011-12.879l24.019-8.055c1.659,2.635,4.586,4.393,7.931,4.393c5.176,0,9.372-4.196,9.372-9.373
		C99.296,52.711,95.098,48.516,89.921,48.516z M33.688,55.322L18.371,37.195c0.059-0.288,0.102-0.58,0.133-0.876l16.183-7.76
		c1.224,0.933,2.747,1.493,4.404,1.493c2.166,0,4.106-0.952,5.439-2.455l2.855,0.873c-8.946,1.271-15.855,8.959-15.855,18.251
		C31.53,49.833,32.322,52.75,33.688,55.322z M53.48,57.631c-2.73-2.621-6.433-4.24-10.519-4.24c-0.73,0-1.443,0.068-2.146,0.169
		c-1.429-1.911-2.286-4.274-2.286-6.839c0-6.317,5.141-11.457,11.459-11.457s11.458,5.14,11.458,11.457
		C61.447,51.822,58.096,56.151,53.48,57.631z M80.667,56.465l-20.841,5.855c5.173-3.273,8.621-9.038,8.621-15.6
		c0-5.43-2.371-10.303-6.115-13.684l5.671,1.733c-0.001,0.026-0.004,0.05-0.004,0.076c0,4.331,3.511,7.842,7.842,7.842
		c0.353,0,0.696-0.031,1.036-0.076l5.757,9.398C81.62,53.269,80.923,54.793,80.667,56.465z"/>
</g>
<g>
</g>
<g>
</g>
<g>
</g>
<g>
</g>
<g>
</g>
<g>
</g>
<g>
</g>
<g>
</g>
<g>
</g>
<g>
</g>
<g>
</g>
<g>
</g>
<g>
</g>
<g>
</g>
<g>
</g>
</svg>
