<?xml version="1.0" encoding="iso-8859-1"?>
<!-- Generator: Adobe Illustrator 16.0.0, SVG Export Plug-In . SVG Version: 6.00 Build 0)  -->
<!DOCTYPE svg PUBLIC "-//W3C//DTD SVG 1.1//EN" "http://www.w3.org/Graphics/SVG/1.1/DTD/svg11.dtd">
<svg version="1.1" id="Capa_1" xmlns="http://www.w3.org/2000/svg" xmlns:xlink="http://www.w3.org/1999/xlink" x="0px" y="0px"
	 width="96.781px" height="96.781px" viewBox="0 0 96.781 96.781" style="enable-background:new 0 0 96.781 96.781;"
	 xml:space="preserve">
<g>
	<path d="M92.082,24.146c-6.755-9.888-69.533-20.738-81.101-13.068C-0.453,18.664-4.102,78.208,5.557,85.51
		c9.519,7.196,80.739-0.688,86.524-10.795C97.938,64.488,98.745,33.9,92.082,24.146z M54.583,63.78c0,2.504-1.041,4.441-3.12,5.814
		c-2.08,1.375-4.745,2.062-7.997,2.062c-3.01,0-5.625-0.616-7.846-1.849c-2.201-1.231-3.302-3.221-3.302-5.967V35.577h9.542v28.718
		c0,0.869,0.535,1.304,1.605,1.304c1.05,0,1.575-0.435,1.575-1.304V35.577h9.542L54.583,63.78L54.583,63.78z M65.796,62.358
		c-0.571,1.005-7.616,1.789-8.56,1.074c-0.954-0.727-0.595-6.647,0.537-7.401c1.144-0.763,7.354,0.315,8.021,1.299
		C66.456,58.301,66.375,61.342,65.796,62.358z M77.534,54.883h-7.339L66.12,33.786h-2.99v15.061c0,0.726,0.214,1.215,0.64,1.471
		c0.44,0.242,1.395,0.363,2.857,0.363v4.203h-3.839c-2.744,0-4.387-0.414-4.928-1.238c-0.539-0.824-0.811-2.41-0.811-4.756V33.787
		H29.912v37.476h-9.543V33.787h-5.58v-5.996h42.26v-2.665h6.079v2.665h1.832h1.453h4.67l2.865,16.96l2.048-14.633h5.994
		L77.534,54.883z"/>
</g>
<g>
</g>
<g>
</g>
<g>
</g>
<g>
</g>
<g>
</g>
<g>
</g>
<g>
</g>
<g>
</g>
<g>
</g>
<g>
</g>
<g>
</g>
<g>
</g>
<g>
</g>
<g>
</g>
<g>
</g>
</svg>
