<?xml version="1.0" encoding="iso-8859-1"?>
<!-- Generator: Adobe Illustrator 16.0.0, SVG Export Plug-In . SVG Version: 6.00 Build 0)  -->
<!DOCTYPE svg PUBLIC "-//W3C//DTD SVG 1.1//EN" "http://www.w3.org/Graphics/SVG/1.1/DTD/svg11.dtd">
<svg version="1.1" id="Capa_1" xmlns="http://www.w3.org/2000/svg" xmlns:xlink="http://www.w3.org/1999/xlink" x="0px" y="0px"
	 width="95.7px" height="95.7px" viewBox="0 0 95.7 95.7" style="enable-background:new 0 0 95.7 95.7;" xml:space="preserve">
<g>
	<g>
		<path d="M81.785,14.119C72.827,5.053,60.951,0.039,48.346,0h-0.154C35.255,0,23.156,4.944,14.117,13.924
			c-9.039,8.979-14.03,21.02-14.055,33.908C0.037,60.605,4.988,72.617,14.004,81.65c9.019,9.037,21.036,14.023,33.834,14.05h0.092
			c12.75,0,24.728-4.966,33.721-13.985c8.996-9.015,13.962-21.037,13.987-33.847C95.662,35.17,90.741,23.184,81.785,14.119z
			 M47.951,86.713h-0.077C26.385,86.67,8.934,69.221,8.97,47.814C9.01,26.377,26.515,8.94,47.995,8.94h0.057
			c10.296,0.015,20.007,4.082,27.343,11.454c7.389,7.422,11.438,17.25,11.403,27.672C86.725,69.379,69.299,86.717,47.951,86.713z"/>
		<path d="M30.06,32.329c-6.234,0.007-11.81,4.98-11.928,10.637l-0.005,0.237l0.219-0.086c3.215-1.776,7.232-2.262,10.736-2.187
			c-3.373,3.938-3.722,10.281-3.744,10.73c-0.584-1.066-1.715-1.79-3.019-1.79c-1.906,0-3.451,1.542-3.451,3.448
			c0,1.669,1.181,3.061,2.753,3.38c-1.572,0.323-2.753,1.716-2.753,3.381c0,1.905,1.544,3.448,3.451,3.448
			c1.627,0,2.99-1.129,3.352-2.643c0.363,1.514,1.724,2.643,3.353,2.643c1.904,0,3.449-1.543,3.449-3.448
			c0-1.665-1.181-3.058-2.753-3.381c1.572-0.319,2.753-1.711,2.753-3.38c0-1.906-1.544-3.448-3.449-3.448
			c-1.179,0-2.215,0.593-2.837,1.492c1.176-6.121,4.276-9.473,5.143-10.311c1.021,0.094,1.962,0.223,2.778,0.367
			c0.452,0.115,0.971,0.248,1.57,0.389c1.5,0.352,2.969,0.96,4.391,1.55c0.647,0.266,1.316,0.543,1.979,0.794l0.217,0.083
			l-0.005-0.233C42.083,37.457,36.732,32.329,30.06,32.329z M26.937,56.754c0,0.736-0.595,1.334-1.333,1.334
			c-0.737,0-1.332-0.598-1.332-1.334c0-0.734,0.595-1.33,1.332-1.33C26.342,55.424,26.937,56.02,26.937,56.754z"/>
		<path d="M77.755,43.01c-0.542-6.006-5.858-10.71-12.104-10.71c-0.477,0-0.957,0.029-1.433,0.083
			c-3.165,0.359-6.312,2.229-8.422,4.995c-1.672,2.197-2.408,4.599-2.068,6.768l0.033,0.216l0.196-0.101
			c4.181-2.233,8.478-3.362,12.77-3.362c3.531,0,7.168,0.762,10.812,2.272l0.239,0.097L77.755,43.01z"/>
	</g>
</g>
<g>
</g>
<g>
</g>
<g>
</g>
<g>
</g>
<g>
</g>
<g>
</g>
<g>
</g>
<g>
</g>
<g>
</g>
<g>
</g>
<g>
</g>
<g>
</g>
<g>
</g>
<g>
</g>
<g>
</g>
</svg>
