<?xml version="1.0" encoding="iso-8859-1"?>
<!-- Generator: Adobe Illustrator 16.0.0, SVG Export Plug-In . SVG Version: 6.00 Build 0)  -->
<!DOCTYPE svg PUBLIC "-//W3C//DTD SVG 1.1//EN" "http://www.w3.org/Graphics/SVG/1.1/DTD/svg11.dtd">
<svg version="1.1" id="Capa_1" xmlns="http://www.w3.org/2000/svg" xmlns:xlink="http://www.w3.org/1999/xlink" x="0px" y="0px"
	 width="98.411px" height="98.412px" viewBox="0 0 98.411 98.412" style="enable-background:new 0 0 98.411 98.412;"
	 xml:space="preserve">
<g>
	<g>
		<path d="M13.261,39.08c-1.725-0.008-3.449-0.007-5.172,0.004c-3.695,0.021-7.068,2.736-7.805,6.354
			c-0.478,2.342-0.211,4.722-0.197,7.087c0.004,0.428,0.049,0.864,0.141,1.282c0.867,3.917,4.189,6.591,8.195,6.604
			c2.939,0.008,5.877,0.017,8.816-0.011c0.799-0.008,1.602-0.11,2.393-0.233c0.859-0.133,1.348-0.653,1.498-1.506
			c0.063-0.346,0.115-0.699,0.117-1.047c0.012-1.822,0.006-3.645,0.006-5.466c0.006,0,0.014,0,0.02,0
			c0-1.803,0.057-3.606-0.012-5.406C21.102,42.517,17.417,39.1,13.261,39.08z M9.62,52.01c-0.496,1.084-1.016,2.159-1.564,3.218
			c-0.27,0.521-0.854,0.732-1.342,0.58c-0.539-0.167-0.881-0.625-0.881-1.18c0.65-1.344,1.248-2.717,1.979-4.014
			c0.254-0.455,0.973-0.375,1.436-0.031C9.668,50.896,9.857,51.488,9.62,52.01z M8.468,47.98c-0.795,0.011-1.555-0.753-1.539-1.547
			c0.018-0.845,0.717-1.537,1.549-1.53c0.828,0.006,1.543,0.722,1.541,1.539C10.017,47.247,9.29,47.969,8.468,47.98z M14.293,55.042
			c-0.068,0.119-0.146,0.232-0.23,0.34c-0.424,0.548-1.084,0.685-1.611,0.339c-0.531-0.349-0.719-1.021-0.377-1.599
			c0.574-0.969,1.057-1.967,1.217-3.094c0.059-0.425,0.08-0.855,0.119-1.283c-0.004-1.511-0.395-2.903-1.197-4.181
			c-0.471-0.749-0.373-1.465,0.24-1.85c0.613-0.387,1.332-0.175,1.779,0.579C16.343,47.861,16.349,51.449,14.293,55.042z"/>
		<path d="M45.788,44.502c0,2.705-0.004,5.41,0.002,8.115c0.002,0.918-0.164,1.793-0.641,2.59c-0.686,1.146-2.137,1.779-3.561,1.56
			c-1.277-0.196-2.043-0.951-2.342-2.438c-0.141-0.707-0.197-1.438-0.205-2.16l-0.01-8.445h-9.539v-0.694
			c0-1.093-0.01-2.892,0.006-3.983h-4.061l0.008,15.269c0.002,0.686,0.031,1.373,0.1,2.055c0.227,2.328,1.354,3.584,3.502,3.938
			c0.271,0.045,0.541,0.092,0.813,0.127c1.391,0.183,2.715-0.099,4.082-0.508c-0.195-0.933-0.379-1.812-0.566-2.687
			c-0.029-0.129-0.082-0.252-0.125-0.384c-0.439,0.052-0.844,0.119-1.25,0.146c-1.387,0.091-2.35-0.455-2.4-1.674
			c-0.109-2.691-0.033-5.393-0.033-8.127h5.428c0,0.252,0,0.462,0,0.673c0.008,2.235-0.035,4.471,0.039,6.703
			c0.113,3.35,1.586,5.237,4.852,5.935c1.766,0.376,4.678-0.521,5.775-2.646c0.066-0.127,0.162-0.236,0.244-0.354l0.117,0.03v2.568
			h3.779v-16.33h-4.014V44.502z"/>
		<path d="M88.232,39.057h-3.991l-0.009,16.218c0.004,0.719,0.115,1.446,0.273,2.148c0.262,1.175,0.926,2.078,2.08,2.521
			c1.127,0.434,2.305,0.653,3.512,0.512c0.863-0.101,1.715-0.246,2.611-0.41c-0.24-1.12-0.451-2.17-0.672-3.195
			c-0.406,0.048-0.736,0.096-1.064,0.126c-1.824,0.165-2.707-0.595-2.729-2.429l-0.006-7.401l5.538,0.006l-0.02,12.795
			c1.387,0,2.686,0,3.979,0c0-5.425,0-10.785,0-16.198h-9.51L88.232,39.057z"/>
		<path d="M65.013,45.411c-1.842-1.872-4.154-2.353-6.664-1.997c-7.633,1.085-9.166,9.121-5.93,13.468
			c2.26,3.041,5.424,4.033,9.108,3.377c2.05-0.363,3.701-1.426,5.035-3.076c-0.965-0.73-1.91-1.447-2.871-2.176
			c-1.739,1.988-3.807,2.767-6.295,1.789c-1.514-0.594-2.274-1.829-2.494-3.523c4.158,0,8.261,0,12.373,0
			c0-0.809,0.05-1.535-0.008-2.253C67.105,48.919,66.532,46.955,65.013,45.411z M54.982,50.21c-0.112-2.11,1.836-3.886,4.222-3.866
			c2.446,0.021,4.188,1.673,4.026,3.866C60.482,50.21,57.732,50.21,54.982,50.21z"/>
		<path d="M77.06,43.319c-2.022,0.062-3.629,0.877-4.625,2.713c-0.041,0.074-0.137,0.216-0.258,0.399c0-0.938,0-1.804,0-2.617
			l-3.787-0.007c0,5.456,0,10.849,0,16.226c1.34,0,2.639,0,3.979,0c0-0.289,0-0.603,0-0.836l0.021-7.759
			c0.021-0.845,0.16-1.731,0.463-2.515c0.547-1.417,2.047-2.14,3.668-1.941c1.371,0.168,2.148,0.965,2.439,2.604
			c0.127,0.708,0.18,1.438,0.186,2.16c0.023,2.508,0.011,5.11,0.011,7.619c0,0.227,0,0.453,0,0.676c1.387,0,2.684,0,3.987,0
			L83.11,48.847C82.96,45.257,80.595,43.211,77.06,43.319z"/>
		<path d="M95.745,42.697c1.461,0.002,2.668-1.094,2.666-2.421c-0.002-1.301-1.25-2.456-2.66-2.458
			c-1.387-0.003-2.564,1.121-2.568,2.452C93.181,41.62,94.314,42.696,95.745,42.697z"/>
	</g>
</g>
<g>
</g>
<g>
</g>
<g>
</g>
<g>
</g>
<g>
</g>
<g>
</g>
<g>
</g>
<g>
</g>
<g>
</g>
<g>
</g>
<g>
</g>
<g>
</g>
<g>
</g>
<g>
</g>
<g>
</g>
</svg>
