<?xml version="1.0" encoding="iso-8859-1"?>
<!-- Generator: Adobe Illustrator 16.0.0, SVG Export Plug-In . SVG Version: 6.00 Build 0)  -->
<!DOCTYPE svg PUBLIC "-//W3C//DTD SVG 1.1//EN" "http://www.w3.org/Graphics/SVG/1.1/DTD/svg11.dtd">
<svg version="1.1" id="Capa_1" xmlns="http://www.w3.org/2000/svg" xmlns:xlink="http://www.w3.org/1999/xlink" x="0px" y="0px"
	 width="95.397px" height="95.398px" viewBox="0 0 95.397 95.398" style="enable-background:new 0 0 95.397 95.398;"
	 xml:space="preserve">
<g>
	<g>
		<path d="M93.393,27.24H66.568V14.212c0-0.768-0.6-1.39-1.335-1.39H30.344c-0.737,0-1.337,0.622-1.337,1.39V27.24H2.002
			C0.897,27.24,0,28.122,0,29.208v51.401c0,1.087,0.897,1.967,2.002,1.967h91.39c1.109,0,2.005-0.879,2.005-1.967V29.208
			C95.397,28.122,94.502,27.24,93.393,27.24z M47.788,76.817c-12.859,0-23.287-10.426-23.287-23.286
			c0-12.861,10.428-23.286,23.287-23.286c12.863,0,23.287,10.425,23.287,23.286C71.075,66.392,60.651,76.817,47.788,76.817z"/>
		<circle cx="47.788" cy="53.531" r="13.271"/>
	</g>
</g>
<g>
</g>
<g>
</g>
<g>
</g>
<g>
</g>
<g>
</g>
<g>
</g>
<g>
</g>
<g>
</g>
<g>
</g>
<g>
</g>
<g>
</g>
<g>
</g>
<g>
</g>
<g>
</g>
<g>
</g>
</svg>
