<?xml version="1.0" encoding="iso-8859-1"?>
<!-- Generator: Adobe Illustrator 16.0.0, SVG Export Plug-In . SVG Version: 6.00 Build 0)  -->
<!DOCTYPE svg PUBLIC "-//W3C//DTD SVG 1.1//EN" "http://www.w3.org/Graphics/SVG/1.1/DTD/svg11.dtd">
<svg version="1.1" id="Capa_1" xmlns="http://www.w3.org/2000/svg" xmlns:xlink="http://www.w3.org/1999/xlink" x="0px" y="0px"
	 width="97.53px" height="97.53px" viewBox="0 0 97.53 97.53" style="enable-background:new 0 0 97.53 97.53;" xml:space="preserve"
	>
<g>
	<path d="M72.576,22.317c-9.496,0-17.752,5.621-21.971,13.894l13.065,13.514c-0.03-0.32-0.047-0.646-0.047-0.975
		c0-5.208,3.981-9.428,8.896-9.428c4.912,0,8.895,4.22,8.895,9.428c0,5.207-3.982,9.428-8.895,9.428
		c-2.149,0-4.121-0.809-5.658-2.153L42.788,30.268c-4.53-4.903-10.846-7.946-17.833-7.946C11.173,22.322,0,34.162,0,48.768
		c0,14.605,11.173,26.445,24.955,26.445c9.5,0,17.759-5.625,21.975-13.904L33.994,47.926c0.029,0.308,0.044,0.621,0.044,0.938
		c0,5.207-3.982,9.428-8.895,9.428s-8.895-4.221-8.895-9.428c0-5.208,3.982-9.429,8.895-9.429c2.217,0,4.243,0.861,5.8,2.284
		l24.034,25.792c4.513,4.757,10.73,7.696,17.599,7.696c13.782,0,24.955-11.84,24.955-26.445
		C97.531,34.157,86.357,22.317,72.576,22.317z"/>
</g>
<g>
</g>
<g>
</g>
<g>
</g>
<g>
</g>
<g>
</g>
<g>
</g>
<g>
</g>
<g>
</g>
<g>
</g>
<g>
</g>
<g>
</g>
<g>
</g>
<g>
</g>
<g>
</g>
<g>
</g>
</svg>
