<?xml version="1.0" encoding="iso-8859-1"?>
<!-- Generator: Adobe Illustrator 16.0.0, SVG Export Plug-In . SVG Version: 6.00 Build 0)  -->
<!DOCTYPE svg PUBLIC "-//W3C//DTD SVG 1.1//EN" "http://www.w3.org/Graphics/SVG/1.1/DTD/svg11.dtd">
<svg version="1.1" id="Capa_1" xmlns="http://www.w3.org/2000/svg" xmlns:xlink="http://www.w3.org/1999/xlink" x="0px" y="0px"
	 width="97.375px" height="97.375px" viewBox="0 0 97.375 97.375" style="enable-background:new 0 0 97.375 97.375;"
	 xml:space="preserve">
<g>
	<g>
		<path d="M91.381,31.012l-35.51-0.029l-0.003-16.655c0.047-1.665-1.037-5.933-5.976-5.933c-4.938,0-6.133,3.866-6.312,5.85
			l0.004,16.738l-18.056-0.024c0,0-6.684-0.561-6.684,5.909c0,6.47,5.988,6.152,5.988,6.152l18.748-0.035
			c0,6.887,0.008,13.314-0.006,19.742c-0.004,1.13-0.064,2.26-0.141,3.387c-0.477,6.979-4.662,10.626-11.072,12.208
			c-1.625,0.401-3.293,0.667-4.957,0.888c-9.176,1.211-13.273-1.116-12.963-11.432l0.039-31.594
			c-0.025-5.172-4.494-8.294-8.943-6.287c-3.109,1.4-3.953,4.101-3.908,7.261l0.016,38.345c0.166,8.612,6.662,14.461,15.273,14.093
			c6.363-0.272,12.439-0.866,18.666-2.203c12.514-2.688,20.74-10.554,20.449-26.849L56.01,42.984
			c17.516,0,35.225-0.013,35.328-0.013c0,0,5.369-0.115,5.369-5.908C96.708,31.271,91.381,31.012,91.381,31.012z"/>
		<path d="M92.477,80.222c-2.469-0.226-4.965-0.149-7.44-0.327c-5.813-0.418-8.931-3.277-9.356-8.98
			c-0.404-5.387-0.478-10.799-0.64-16.201c-0.113-3.734-2.761-6.685-6.142-6.715c-3.438-0.031-6.198,2.838-6.276,6.61
			c-0.054,2.599-0.011,5.198-0.006,7.796c0,2.6-0.072,5.2,0.012,7.797c0.345,10.613,5.666,16.982,16.174,18.699
			c4.302,0.704,8.755,0.538,13.138,0.643c3.176,0.074,5.233-1.657,5.424-4.307C97.545,82.679,95.525,80.5,92.477,80.222z"/>
		<circle cx="80.387" cy="16.314" r="8.551"/>
		<circle cx="8.098" cy="16.655" r="8.098"/>
	</g>
</g>
<g>
</g>
<g>
</g>
<g>
</g>
<g>
</g>
<g>
</g>
<g>
</g>
<g>
</g>
<g>
</g>
<g>
</g>
<g>
</g>
<g>
</g>
<g>
</g>
<g>
</g>
<g>
</g>
<g>
</g>
</svg>
