<?xml version="1.0" encoding="iso-8859-1"?>
<!-- Generator: Adobe Illustrator 16.0.0, SVG Export Plug-In . SVG Version: 6.00 Build 0)  -->
<!DOCTYPE svg PUBLIC "-//W3C//DTD SVG 1.1//EN" "http://www.w3.org/Graphics/SVG/1.1/DTD/svg11.dtd">
<svg version="1.1" id="Capa_1" xmlns="http://www.w3.org/2000/svg" xmlns:xlink="http://www.w3.org/1999/xlink" x="0px" y="0px"
	 width="96.5px" height="96.5px" viewBox="0 0 96.5 96.5" style="enable-background:new 0 0 96.5 96.5;" xml:space="preserve">
<g>
	<path d="M1.597,0c0,32.17,0,64.335,0,96.5c31.104,0,62.206,0,93.306,0c0-32.168,0-64.337,0-96.5C63.794,0,32.695,0,1.597,0z
		 M14.318,29.294c-0.403-1.319-0.83-2.632-1.226-3.954c-0.472-1.574-0.917-3.156-1.385-4.732c-0.634-2.127-1.276-4.251-1.922-6.373
		c-0.35-1.148-0.724-2.288-1.072-3.436c-0.401-1.331-0.782-2.669-1.179-4C7.349,6.175,7.143,5.557,6.959,4.931
		C6.928,4.825,6.725,4.103,6.725,4.103S7.221,4.65,7.287,4.732l35.869,46.241c0.292,0.383,1.29,1.727,1.29,1.727L16.663,37.022
		c0,0-0.84-2.695-1.11-3.602C15.145,32.044,14.737,30.668,14.318,29.294z M78.937,53.712c-0.042,0.501-0.117,1-0.186,1.499
		c-0.168,1.223-0.297,2.451-0.527,3.662c-0.26,1.363-0.539,2.73-0.939,4.059c-0.521,1.717-1.135,3.409-1.773,5.088
		c-1.074,2.817-2.362,5.539-3.752,8.215c-1.035,1.998-2.121,3.964-3.443,5.785c-1.479,2.041-3.135,3.929-5.1,5.513
		c-1.163,0.938-2.367,1.829-3.6,2.674c-1.877,1.283-3.972,2.082-6.188,2.547c-0.976,0.205-1.97,0.336-2.957,0.478
		c-0.239,0.033-3.758,0.648-9.047-0.631c-1.423-0.338-2.807-0.809-4.072-1.537c-1.22-0.703-2.407-1.473-3.556-2.285
		c-1.747-1.237-3.275-2.725-4.691-4.327c-1.449-1.642-2.674-3.433-3.792-5.312c-1.745-2.932-3.234-5.988-4.55-9.13
		c-0.766-1.829-1.472-3.687-2.124-5.559c-0.642-1.847-1.083-3.751-1.407-5.681c-0.192-1.144-0.385-2.289-0.545-3.438
		c-0.088-0.641-0.143-1.289-0.197-1.934c-0.022-0.254-0.053-0.508-0.089-0.84c0.346,0.33,0.651,0.604,0.938,0.859
		c0.755,0.676,1.498,1.365,2.279,2.009c1.95,1.604,4.17,2.779,6.417,3.892c2.161,1.072,4.351,2.084,6.539,3.1
		c1.664,0.771,3.382,1.407,5.161,1.859c0.931,0.236,1.885,0.379,2.829,0.563c4.185,0.836,10.314,0.942,16.986-0.538
		c1.082-0.316,2.173-0.613,3.226-1.011c1.308-0.493,2.595-1.048,3.864-1.634c1.506-0.694,2.99-1.44,4.473-2.186
		c1.104-0.554,2.213-1.101,3.28-1.72c0.966-0.562,1.888-1.198,2.81-1.833c1.362-0.939,2.674-2.145,3.855-3.4
		C79.056,52.938,78.964,53.361,78.937,53.712z M89.457,5.316C89.03,6.77,88.6,8.222,88.162,9.672
		c-0.25,0.827-0.523,1.649-0.774,2.476c-0.378,1.238-0.743,2.48-1.119,3.719c-0.37,1.22-0.748,2.438-1.118,3.656
		c-0.455,1.493-0.91,2.988-1.357,4.484c-0.692,2.314-1.373,4.634-2.068,6.948l-1.967,6.448L51.762,53.189L89.141,5.127
		c0.062-0.068,0.563-0.73,0.563-0.73S89.481,5.229,89.457,5.316z"/>
</g>
<g>
</g>
<g>
</g>
<g>
</g>
<g>
</g>
<g>
</g>
<g>
</g>
<g>
</g>
<g>
</g>
<g>
</g>
<g>
</g>
<g>
</g>
<g>
</g>
<g>
</g>
<g>
</g>
<g>
</g>
</svg>
