<?xml version="1.0" encoding="iso-8859-1"?>
<!-- Generator: Adobe Illustrator 16.0.0, SVG Export Plug-In . SVG Version: 6.00 Build 0)  -->
<!DOCTYPE svg PUBLIC "-//W3C//DTD SVG 1.1//EN" "http://www.w3.org/Graphics/SVG/1.1/DTD/svg11.dtd">
<svg version="1.1" id="Capa_1" xmlns="http://www.w3.org/2000/svg" xmlns:xlink="http://www.w3.org/1999/xlink" x="0px" y="0px"
	 width="97.667px" height="97.667px" viewBox="0 0 97.667 97.667" style="enable-background:new 0 0 97.667 97.667;"
	 xml:space="preserve">
<g>
	<g>
		<path d="M48.834,17.789c-17.117,0-31.042,13.926-31.042,31.043c0,17.119,13.926,31.047,31.042,31.047s31.043-13.928,31.043-31.047
			C79.877,31.715,65.951,17.789,48.834,17.789z M48.844,74.497c-14.173,0-25.663-11.49-25.663-25.663s11.49-25.663,25.663-25.663
			c14.174,0,25.664,11.49,25.664,25.663S63.018,74.497,48.844,74.497z"/>
		<path d="M48.834,40.598c-4.542,0-8.236,3.695-8.236,8.236s3.694,8.236,8.236,8.236c4.543,0,8.236-3.695,8.236-8.236
			S53.377,40.598,48.834,40.598z M48.834,53.529c-2.593,0-4.696-2.102-4.696-4.695c0-2.593,2.103-4.696,4.696-4.696
			c2.594,0,4.695,2.103,4.695,4.696C53.529,51.428,51.428,53.529,48.834,53.529z"/>
		<path d="M48.834,32.43c-9.06,0-16.404,7.345-16.404,16.404c0,9.061,7.345,16.404,16.404,16.404
			c9.061,0,16.404-7.344,16.404-16.404C65.238,39.774,57.895,32.43,48.834,32.43z M48.834,58.159c-5.15,0-9.325-4.175-9.325-9.325
			c0-5.15,4.175-9.325,9.325-9.325c5.148,0,9.325,4.175,9.325,9.325C58.159,53.984,53.982,58.159,48.834,58.159z"/>
		<path d="M48.834,26.821c-12.138,0-22.013,9.875-22.013,22.013c0,12.139,9.875,22.014,22.013,22.014
			c12.139,0,22.014-9.875,22.014-22.014C70.848,36.696,60.973,26.821,48.834,26.821z M48.834,69.432
			c-11.358,0-20.598-9.24-20.598-20.598c0-11.358,9.24-20.598,20.598-20.598c11.357,0,20.598,9.24,20.598,20.598
			C69.432,60.191,60.191,69.432,48.834,69.432z"/>
		<path d="M81.328,0H16.34C7.317,0,0.002,7.315,0.002,16.338v64.991c0,9.024,7.315,16.338,16.338,16.338h64.987
			c9.024,0,16.338-7.313,16.338-16.338V16.338C97.666,7.315,90.352,0,81.328,0z M48.834,86.414
			c-20.755,0-37.578-16.825-37.578-37.583c0-20.754,16.823-37.578,37.578-37.578c20.752,0,37.578,16.824,37.578,37.578
			C86.412,69.589,69.586,86.414,48.834,86.414z"/>
	</g>
</g>
<g>
</g>
<g>
</g>
<g>
</g>
<g>
</g>
<g>
</g>
<g>
</g>
<g>
</g>
<g>
</g>
<g>
</g>
<g>
</g>
<g>
</g>
<g>
</g>
<g>
</g>
<g>
</g>
<g>
</g>
</svg>
