<?xml version="1.0" encoding="iso-8859-1"?>
<!-- Generator: Adobe Illustrator 16.0.0, SVG Export Plug-In . SVG Version: 6.00 Build 0)  -->
<!DOCTYPE svg PUBLIC "-//W3C//DTD SVG 1.1//EN" "http://www.w3.org/Graphics/SVG/1.1/DTD/svg11.dtd">
<svg version="1.1" id="Capa_1" xmlns="http://www.w3.org/2000/svg" xmlns:xlink="http://www.w3.org/1999/xlink" x="0px" y="0px"
	 width="96.44px" height="96.441px" viewBox="0 0 96.44 96.441" style="enable-background:new 0 0 96.44 96.441;"
	 xml:space="preserve">
<g>
	<g>
		<path d="M95.201,59.938c-2.244,1.424-4.691,1.912-7.307,1.528c-1.488-0.219-2.793-0.802-3.659-2.113
			c-0.073-0.112-0.216-0.223-0.149-0.375c0.073-0.167,0.247-0.093,0.375-0.094c1.051-0.016,2.102-0.056,3.145-0.195
			c2.166-0.293,4.236-0.864,6.025-2.183c2.137-1.574,3.068-3.718,2.748-6.339c-0.334-2.743-1.953-4.503-4.505-5.411
			c-3.901-1.388-8.44-0.117-11.12,3.045c-1.74,2.055-2.699,4.472-3.355,7.04c-0.415,1.624-0.872,3.234-1.692,4.713
			c-0.366,0.661-0.805,1.266-1.47,1.659c-1.122,0.663-2.245,0.251-2.678-0.976c-0.149-0.421-0.234-0.856-0.236-1.305
			c-0.012-2.001-0.023-4.002-0.023-6.003c0-1.072-0.031-2.141-0.205-3.201c-0.593-3.602-2.968-5.612-6.6-5.465
			c-2.915,0.119-5.104,1.595-6.795,3.896c-0.122,0.167-0.249,0.331-0.375,0.496c-0.064-0.013-0.127-0.025-0.191-0.038l-0.004-4.046
			c-1.375,0.018-3.678,0.017-5.053,0.001l-0.016,0.451c-0.034,1.476-0.192,2.942-0.377,4.406c-0.36,2.869-0.846,5.711-1.942,8.408
			c-0.428,1.053-0.953,2.056-1.809,2.838c-1.626,1.484-3.537,1.028-4.205-1.062c-0.299-0.936-0.339-1.953-0.339-2.925l-0.003-12.118
			l-4.955,0.004l-0.18,0.227c-1.986,2.106-4.458,3.247-7.314,3.514c-3.368,0.315-6.209-0.666-8.083-3.652
			c-1.121-1.787-1.428-3.795-1.302-5.877c0.05-0.833,0.203-1.645,0.646-2.373c0.413-0.677,0.978-1.121,1.806-1.15
			c1.182-0.042,2.002,0.686,2.329,2.11c0.419,1.827,0.134,3.618-0.37,5.38c-0.051,0.18-0.146,0.56-0.146,0.56
			s0.242,0.275,0.417,0.451c1.218,1.226,2.722,1.505,4.359,1.374c0.256-0.021,0.614-0.054,0.614-0.054s0.165-0.409,0.229-0.586
			c0.88-2.409,1.244-4.877,0.981-7.438c-0.375-3.655-2.313-6.837-6.975-7.31c-4.171-0.423-7.631,1.499-9.083,5.481
			c-0.833,2.286-0.875,4.63-0.452,6.991c0.709,3.947,2.565,7.154,6.119,9.215c0.355,0.206,0.36,0.368,0.187,0.696
			c-1.444,2.749-3.169,5.302-5.257,7.604c-0.9,0.992-0.893,0.982-1.738-0.087c-4.255-5.387-6.599-11.604-7.926-18.262
			c-0.363-1.821-0.661-3.647-0.889-5.492l-0.053-0.638L0,35.258l0.052,0.362c0.803,5.732,2.017,11.361,4.163,16.758
			c1.577,3.966,3.566,7.689,6.447,10.884c0.938,1.039,1.963,1.977,3.146,2.738c1.384,0.892,2.738,0.832,4.069-0.098
			c0.379-0.266,0.747-0.556,1.091-0.867c3.664-3.315,6.622-7.176,8.862-11.58c0.174-0.344,0.354-0.501,0.768-0.503
			c0.929-0.004,1.854-0.11,2.772-0.266c2.122-0.359,4.146-0.987,6.019-2.277c0,0.29,0,0.484,0,0.68c0,1.818-0.01,3.639,0.003,5.458
			c0.014,2.026,0.149,4.04,0.883,5.959c1.393,3.646,5.226,5.217,8.797,3.612c1.927-0.864,3.25-2.347,4.253-4.161
			c0.118-0.212,0.173-0.475,0.448-0.685l-0.008,5.051l5.906,0.001l-0.006-0.726c0.021-2.928-0.162-5.863,0.207-8.783
			c0.232-1.837,0.661-3.617,1.71-5.184c0.702-1.048,1.626-1.782,2.91-1.996c1.366-0.229,2.29,0.344,2.656,1.672
			c0.168,0.606,0.231,1.23,0.233,1.859c0.006,2.042,0.01,4.083,0.004,6.125c-0.002,0.771,0.074,1.534,0.25,2.282
			c0.565,2.404,1.817,4.229,4.332,4.89c2.486,0.652,4.619-0.093,6.465-1.793c1.006-0.927,1.713-2.063,2.27-3.433
			c0.633,1.237,1.424,2.226,2.443,3.008c2.693,2.07,5.787,2.658,9.095,2.38c1.744-0.147,3.426-0.54,4.985-1.375l0.393-0.207
			l-0.001-5.376L95.201,59.938z M83.393,54.991c0.281-2.143,1.113-3.947,3.092-5.046c0.646-0.358,1.346-0.531,2.009-0.514
			c0.485,0,0.886,0.033,1.269,0.18c0.934,0.357,1.403,1.25,1.17,2.247c-0.211,0.895-0.762,1.541-1.516,2.031
			c-1.27,0.827-2.709,1.105-4.18,1.269c-0.5,0.056-1.387,0.074-1.891,0.105L83.393,54.991z"/>
		<path d="M40.708,33.784c2.237-0.004,3.828,1.573,3.831,3.798c0.004,2.288-1.562,3.896-3.797,3.902
			c-2.284,0.006-3.793-1.529-3.804-3.87C36.926,35.329,38.443,33.788,40.708,33.784z"/>
	</g>
</g>
<g>
</g>
<g>
</g>
<g>
</g>
<g>
</g>
<g>
</g>
<g>
</g>
<g>
</g>
<g>
</g>
<g>
</g>
<g>
</g>
<g>
</g>
<g>
</g>
<g>
</g>
<g>
</g>
<g>
</g>
</svg>
