<?xml version="1.0" encoding="iso-8859-1"?>
<!-- Generator: Adobe Illustrator 16.0.0, SVG Export Plug-In . SVG Version: 6.00 Build 0)  -->
<!DOCTYPE svg PUBLIC "-//W3C//DTD SVG 1.1//EN" "http://www.w3.org/Graphics/SVG/1.1/DTD/svg11.dtd">
<svg version="1.1" id="Capa_1" xmlns="http://www.w3.org/2000/svg" xmlns:xlink="http://www.w3.org/1999/xlink" x="0px" y="0px"
	 width="97.871px" height="97.871px" viewBox="0 0 97.871 97.871" style="enable-background:new 0 0 97.871 97.871;"
	 xml:space="preserve">
<g>
	<path d="M83.673,32.425l0.016-0.008c-0.006-0.013-0.014-0.021-0.019-0.034C82.222,14.271,67.242,0.021,48.955,0.001V0
		c-0.006,0-0.013,0-0.019,0s-0.013,0-0.02,0v0.001C29.67,0.022,14.075,15.8,14.075,35.26c0,5.49,1.242,10.686,3.454,15.316
		c11.874,24.547,31.295,47.295,31.295,47.295h0.222c0,0,19.422-22.748,31.295-47.295c2.215-4.631,3.455-9.826,3.455-15.316
		C83.795,34.305,83.748,33.362,83.673,32.425z M48.931,0.552c17.179,0,31.339,12.895,33.353,29.533
		c-3.619-4.796-9.391-4.47-11.837-4.061c-2.646-9.356-11.15-16.215-21.253-16.215c-2.29,0-4.498,0.352-6.575,1.005
		c-0.361-2.326-0.208-7.101,5.902-10.252C48.658,0.561,48.794,0.552,48.931,0.552z M49.065,48.666
		c-9.093,0-16.463-7.451-16.463-16.645c0-9.192,7.371-16.645,16.463-16.645c9.094,0,16.465,7.452,16.465,16.645
		C65.53,41.215,58.159,48.666,49.065,48.666z M45.859,0.699c-4.864,3.555-4.845,8.278-4.468,10.57
		c-8.36,3.191-14.317,11.336-14.317,20.904c0,3.129,0.641,6.106,1.789,8.81c-2.03,1.424-4.079,1.952-6.097,1.553
		c-3.789-0.75-6.521-4.502-7.331-5.742c-0.067-0.871-0.113-1.746-0.113-2.633C15.322,16.635,28.738,2.251,45.859,0.699z
		 M48.931,67.75c-16.79,0-30.701-12.296-33.206-28.381c1.453,1.722,3.777,3.858,6.779,4.453c0.534,0.107,1.068,0.159,1.601,0.159
		c1.789,0,3.569-0.631,5.321-1.815c3.633,7.327,11.11,12.37,19.768,12.37c2.995,0,5.844-0.608,8.448-1.698
		c1.024,2.012,3.689,8.797-3.261,14.467C52.606,67.594,50.787,67.75,48.931,67.75z M56.845,66.807
		c5.446-5.813,3.014-12.375,1.975-14.522c7.388-3.622,12.494-11.253,12.494-20.11c0-1.681-0.198-3.313-0.545-4.89
		c2.541-0.444,8.783-0.785,11.725,5.678l0.018-0.008c0.014,0.401,0.029,0.803,0.029,1.207C82.539,49.995,71.585,63.25,56.845,66.807
		z"/>
</g>
<g>
</g>
<g>
</g>
<g>
</g>
<g>
</g>
<g>
</g>
<g>
</g>
<g>
</g>
<g>
</g>
<g>
</g>
<g>
</g>
<g>
</g>
<g>
</g>
<g>
</g>
<g>
</g>
<g>
</g>
</svg>
