<?xml version="1.0" encoding="iso-8859-1"?>
<!-- Generator: Adobe Illustrator 16.0.0, SVG Export Plug-In . SVG Version: 6.00 Build 0)  -->
<!DOCTYPE svg PUBLIC "-//W3C//DTD SVG 1.1//EN" "http://www.w3.org/Graphics/SVG/1.1/DTD/svg11.dtd">
<svg version="1.1" id="Capa_1" xmlns="http://www.w3.org/2000/svg" xmlns:xlink="http://www.w3.org/1999/xlink" x="0px" y="0px"
	 width="96.911px" height="96.911px" viewBox="0 0 96.911 96.911" style="enable-background:new 0 0 96.911 96.911;"
	 xml:space="preserve">
<g>
	<g>
		<path d="M95.557,37.019c1.354-3.928,1.354-6.958,1.354-6.958C96.688,12.166,74.527,6.537,70.771,5.71
			c3.586,2.121,9.055,7.706,11.904,12.627c4.28,8.768,1.221,14.259-3.474,17.651c0.89-1.794,1.875-4.515,2.015-7.948
			c0.184-4.519-0.601-12.203-12.125-23.102c-6.312-3.027-13.38-4.729-20.849-4.729C21.6,0.21,0,21.811,0,48.456
			c0,5.061,0.779,9.936,2.225,14.518C-0.471,86.305,29.75,93.141,32.828,94.18c-3.232-1.724-6.859-4.187-8.527-5.945
			c-12.611-11.115,0.73-21.928,0.73-21.928c9.807-8.834,29.178-9.078,29.178-9.078c9.686-0.242,22.051-3.775,22.051-3.775
			c8.658-1.992,13.687-6.426,16.605-10.903C84.027,59.665,60.01,60.91,59.742,60.922c-11.197,0.549-18.285,2.827-18.357,2.852
			c-14.961,4.84-14.82,14.699-14.928,15.416c-0.092,8.178,4.213,12.606,8.855,15.609c4.266,1.234,8.27,1.902,12.932,1.902
			c26.65,0,48.248-21.602,48.248-48.245c0-3.691-0.416-7.285-1.201-10.739L95.557,37.019z M65.113,41.167
			C57.924,42,35.468,43.199,35.468,43.199C11.777,45.711,5.055,56.876,3.812,59.436c-0.869-3.519-1.334-7.196-1.334-10.98
			c0-25.235,20.531-45.767,45.766-45.767c8.623,0,16.695,2.397,23.588,6.559c5.76,6.07,8.648,12.446,8.414,18.697
			c-0.172,4.543-1.947,7.842-2.807,9.184C71.859,40.364,65.113,41.167,65.113,41.167z M48.244,94.223
			c-4.58,0-9.006-0.681-13.182-1.938l-0.658-0.363c-0.07-0.038-6.973-3.952-6.975-12.771c-0.031-0.387-0.564-9.53,14.26-14.452
			c0.07-0.022,7.031-2.261,18.096-2.804c0.076-0.004,8.232-0.313,15.746-3.558c9.226-3.981,15.107-9.044,18.104-15.785
			c0.25,1.933,0.381,3.903,0.381,5.903C94.016,73.69,73.482,94.223,48.244,94.223z"/>
	</g>
</g>
<g>
</g>
<g>
</g>
<g>
</g>
<g>
</g>
<g>
</g>
<g>
</g>
<g>
</g>
<g>
</g>
<g>
</g>
<g>
</g>
<g>
</g>
<g>
</g>
<g>
</g>
<g>
</g>
<g>
</g>
</svg>
