<?xml version="1.0" encoding="iso-8859-1"?>
<!-- Generator: Adobe Illustrator 16.0.0, SVG Export Plug-In . SVG Version: 6.00 Build 0)  -->
<!DOCTYPE svg PUBLIC "-//W3C//DTD SVG 1.1//EN" "http://www.w3.org/Graphics/SVG/1.1/DTD/svg11.dtd">
<svg version="1.1" id="Capa_1" xmlns="http://www.w3.org/2000/svg" xmlns:xlink="http://www.w3.org/1999/xlink" x="0px" y="0px"
	 width="94.861px" height="94.862px" viewBox="0 0 94.861 94.862" style="enable-background:new 0 0 94.861 94.862;"
	 xml:space="preserve">
<g>
	<g>
		<path d="M73.698,61.54c-0.425-0.136-0.854-0.292-1.291-0.338c-1.996-0.21-4-0.357-5.996-0.581
			c-0.879-0.099-1.772-0.243-2.601-0.539c-0.338-0.122-0.698-0.7-0.7-1.073c-0.005-0.309,0.45-0.769,0.801-0.898
			c0.584-0.219,1.24-0.26,1.875-0.312c1.235-0.102,2.496-0.059,3.718-0.252c3.366-0.539,5.596-2.867,5.875-6.006
			c0.151-1.695-0.146-3.298-1.181-4.927c0.778-0.435,3.349-0.271,3.349-0.271s0-2.46,0-3.587c-1.81-0.29-3.128,0.162-5.193,1.756
			c-2.443-1.783-5.156-2.255-8.072-1.503c-2.873,0.74-4.887,2.479-5.688,5.379c-0.806,2.912,0.108,5.342,2.371,7.289
			c0.161,0.137,0.381,0.209,0.682,0.371c-1.793,0.986-3.213,1.973-3.459,3.84c-0.279,2.145,1.35,2.965,3.137,3.828
			c-3.205,0.758-4.598,3.059-3.617,5.643c0.607,1.607,1.951,2.4,3.463,2.927c2.865,0.995,5.83,1.024,8.799,0.681
			c1.961-0.226,3.801-0.848,5.354-2.125c1.685-1.388,2.435-3.15,2.071-5.34C77.039,63.356,75.666,62.168,73.698,61.54z
			 M66.907,46.639c2.039-0.011,3.683,1.612,3.66,3.618c-0.021,1.959-1.656,3.568-3.625,3.57c-2.113,0.001-3.8-1.623-3.773-3.631
			C63.196,48.204,64.828,46.651,66.907,46.639z M64.03,69.256c-0.886-0.266-1.604-0.867-1.688-1.761
			c-0.094-1.05,0.426-1.778,1.307-2.239c0.441-0.23,0.947-0.408,1.439-0.461c6.555-0.505,7.4,1.836,7.404,2.342
			C72.526,68.932,68.643,70.512,64.03,69.256z"/>
		<path d="M35.123,50.934c-0.02-1.139-0.17-2.297-0.434-3.403c-0.438-1.823-1.449-3.305-3.266-3.983
			c-3.77-1.41-7.451-1.277-10.871,1.024c-0.811,0.546-1.455,1.336-2.23,2.066c1.293,0.983,2.383,1.813,3.525,2.682
			c0.914-1.156,1.924-2.139,3.395-2.524c2.99-0.782,4.676,0.483,4.625,3.521c-0.002,0.216-0.029,0.432-0.043,0.63
			c-1.74,0.36-3.434,0.647-5.096,1.071c-2.15,0.55-4.186,1.373-5.752,3.049c-3.209,3.425-1.77,9.281,2.549,10.292
			c2.059,0.481,4.066,0.161,5.982-0.669c0.871-0.377,1.689-0.866,2.57-1.327c0.127,0.589,0.246,1.138,0.365,1.692
			c1.709,0,3.373,0,4.93,0c-0.078-1.535-0.205-2.99-0.221-4.449C35.119,57.383,35.18,54.158,35.123,50.934z M29.848,58.977
			c-0.004,0.211-0.178,0.51-0.361,0.615c-1.127,0.646-2.227,1.375-3.432,1.83c-1.436,0.539-2.65,0.02-3.205-1.099
			c-0.588-1.183-0.307-2.888,0.875-3.59c1.209-0.72,2.592-1.161,3.928-1.647c0.648-0.236,1.359-0.298,2.213-0.474
			C29.866,56.182,29.881,57.58,29.848,58.977z"/>
		<path d="M94.61,61.774c-0.033-3.383,0.006-6.768-0.021-10.151c-0.011-1.05-0.066-2.11-0.234-3.144
			c-0.396-2.421-1.525-4.346-3.998-5.143c-2.645-0.854-5.318-0.991-7.973-0.007c-1.82,0.674-3.406,1.668-4.502,3.396
			c1.178,0.895,2.28,1.735,3.416,2.601c1.016-1.298,2.133-2.302,3.733-2.624c3.125-0.628,4.942,1.271,4.101,4.339
			c-0.396,0.063-0.804,0.136-1.211,0.198c-2.498,0.38-4.959,0.896-7.216,2.1c-2.014,1.07-3.424,2.606-3.877,4.926
			c-0.744,3.81,1.404,6.836,5.256,7.256c1.949,0.213,3.804-0.25,5.546-1.135c0.62-0.315,1.215-0.681,1.887-1.06
			c0.127,0.608,0.24,1.153,0.365,1.753c1.67,0,3.319,0,4.979,0C94.768,63.92,94.619,62.848,94.61,61.774z M89.276,58.952
			c-0.007,0.217-0.16,0.525-0.337,0.628c-1.184,0.67-2.348,1.41-3.604,1.903c-1.155,0.451-2.315-0.023-2.896-0.885
			c-0.622-0.93-0.598-2.418,0.175-3.312c0.428-0.493,0.965-0.999,1.558-1.219c1.598-0.597,3.252-1.046,5.12-1.625
			C89.291,56.164,89.305,57.557,89.276,58.952z"/>
		<path d="M56.201,47.883c-0.502-3-2.359-4.751-5.342-5.149c-1.895-0.251-3.607,0.265-5.242,1.134
			c-0.807,0.428-1.574,0.932-2.518,1.497c0-0.818,0-1.496,0-2.205c-1.678,0-3.225,0-4.805,0c0,7.332,0,14.599,0,21.913
			c1.76,0,3.467,0,5.25,0c0-0.412,0-0.76,0-1.105c0-4.281-0.057-14.756-0.057-14.756s1.529-2.004,5.201-2.19
			c1.09-0.073,1.844,0.516,2.109,1.577c0.193,0.764,0.271,1.576,0.275,2.365c0.023,4.346,0.01,8.688,0.01,13.034
			c0,0.343,0,0.685,0,1.077c1.809,0,3.516,0,5.305,0c0-0.41,0-0.756,0-1.102c0-4.633,0.008-9.265-0.008-13.896
			C56.377,49.344,56.321,48.604,56.201,47.883z"/>
		<path d="M17.979,43.095l-5.689,0.002l-3.104,5.98l-3.004-5.992l-5.924,0.009c1.574,2.686,6.17,10.674,6.17,10.674
			S1.668,62.193,0,65.137l5.822,0.008l3.375-6.758l3.729,6.713h5.564l-6.67-11.407L17.979,43.095z"/>
		<rect x="0.834" y="21.698" width="15.432" height="15.431"/>
		<rect x="20.098" y="21.698" width="15.432" height="15.431"/>
		<rect x="39.268" y="21.698" width="15.43" height="15.431"/>
		<rect x="58.436" y="21.698" width="15.433" height="15.431"/>
		<rect x="77.641" y="21.698" width="15.431" height="15.431"/>
	</g>
</g>
<g>
</g>
<g>
</g>
<g>
</g>
<g>
</g>
<g>
</g>
<g>
</g>
<g>
</g>
<g>
</g>
<g>
</g>
<g>
</g>
<g>
</g>
<g>
</g>
<g>
</g>
<g>
</g>
<g>
</g>
</svg>
