<?xml version="1.0" encoding="iso-8859-1"?>
<!-- Generator: Adobe Illustrator 16.0.0, SVG Export Plug-In . SVG Version: 6.00 Build 0)  -->
<!DOCTYPE svg PUBLIC "-//W3C//DTD SVG 1.1//EN" "http://www.w3.org/Graphics/SVG/1.1/DTD/svg11.dtd">
<svg version="1.1" id="Capa_1" xmlns="http://www.w3.org/2000/svg" xmlns:xlink="http://www.w3.org/1999/xlink" x="0px" y="0px"
	 width="97.489px" height="97.489px" viewBox="0 0 97.489 97.489" style="enable-background:new 0 0 97.489 97.489;"
	 xml:space="preserve">
<g>
	<g>
		<path d="M41.701,76.044c-1.544-0.022-3.088-0.011-4.632-0.008c-1.63,0.004-2.169,0.536-2.174,2.164
			c-0.007,2.089,0.007,4.178-0.004,6.268c-0.009,1.692-0.771,2.453-2.466,2.465c-1.771,0.014-3.542,0.005-5.314,0.004
			c-1.019-0.001-1.031-0.011-1.03-1.02c0.006-5.882,0.014-11.764,0.024-17.646c0.002-0.976,0.048-1.021,1.058-1.021
			c2.68,0.002,5.359,0.019,8.039,0.013c1.325-0.003,2.625-0.194,3.888-0.606c2.98-0.974,4.423-2.901,4.427-6.031
			c0.014-12.263,0.013-24.525,0.005-36.788c-0.001-1.281-0.217-2.539-0.782-3.704c-1.665-3.435-4.468-5.082-8.233-5.139
			c-2.475-0.037-4.95-0.006-7.425-0.009c-0.974-0.001-0.992-0.018-0.993-0.99c-0.002-3.361,0.007-6.722-0.001-10.082
			c-0.003-1.41-0.589-1.995-1.989-2.006c-1.476-0.011-2.952-0.006-4.428-0.002c-1.709,0.003-2.227,0.526-2.228,2.249
			c-0.002,3.315-0.016,6.631,0.01,9.946c0.005,0.688-0.232,0.906-0.91,0.897c-2.452-0.03-4.905-0.022-7.357-0.009
			C7.411,15,5.705,15.312,4.178,16.29c-2.794,1.788-4.151,4.379-4.165,7.66c-0.025,6.109-0.007,12.218-0.007,18.326
			c0.002,0,0.004,0,0.006,0c0,6.132-0.008,12.263,0.003,18.395c0.005,2.971,1.353,4.874,4.145,5.9
			c1.403,0.517,2.873,0.674,4.352,0.686c2.611,0.021,5.223-0.004,7.834-0.006c1.046,0,1.081,0.035,1.083,1.063
			c0.008,4.429,0.014,8.855,0.021,13.284c0.002,1.408,0.004,2.815,0.002,4.225c-0.001,1.11-0.003,1.11-1.145,1.111
			c-0.182,0.001-0.363,0-0.545,0c-4.587,0-9.174-0.003-13.762,0.004c-1.285,0.002-1.925,0.504-1.96,1.668
			c-0.054,1.792-0.044,3.589,0,5.381c0.023,0.941,0.619,1.487,1.563,1.575c0.338,0.032,0.681,0.021,1.021,0.021
			c10.151,0.001,20.301,0,30.452,0.001c0.886,0,1.768-0.025,2.652-0.103c3.916-0.337,7.328-3.567,7.674-7.467
			c0.303-3.418,0.104-6.854,0.095-10.279C43.494,76.604,42.854,76.059,41.701,76.044z M26.118,42.202c0-5.811,0-11.62,0.001-17.43
			c0-1.075,0.033-1.106,1.112-1.108c1.702-0.002,3.404-0.008,5.106,0.002c1.681,0.011,2.516,0.845,2.518,2.518
			c0.012,10.644,0.021,21.288,0.027,31.933c0.001,1.858-0.796,2.651-2.647,2.655c-1.725,0.004-3.45,0.004-5.175,0
			c-0.958-0.001-0.977-0.019-0.977-1.004c-0.002-5.854-0.001-11.711-0.001-17.565C26.094,42.202,26.106,42.202,26.118,42.202z
			 M17.451,59.681c0,1.091-0.003,1.092-1.093,1.093c-1.748,0.002-3.496,0.007-5.243-0.003c-1.614-0.008-2.471-0.868-2.471-2.492
			c-0.002-9.873,0-19.747,0.003-29.62c0-0.931,0.01-1.861,0.037-2.791c0.035-1.229,0.856-2.144,2.082-2.176
			c1.996-0.053,3.994-0.016,5.991-0.022c0.568-0.003,0.659,0.348,0.66,0.81c0.002,1.565,0.023,3.132,0.025,4.697
			c0.004,4.358,0.001,8.716,0.001,13.074c0.003,0,0.005,0,0.008,0C17.451,48.059,17.452,53.87,17.451,59.681z"/>
		<path d="M95.211,1.905H45.964c-1.889,0-2.361,0.479-2.36,2.39c0,1.498-0.007,2.996,0.009,4.495
			c0.013,1.198,0.559,1.753,1.75,1.788c0.794,0.023,1.589,0.009,2.384,0.009c4.45,0.001,8.899-0.001,13.351,0.002
			c0.941,0.001,0.994,0.063,1.005,1.012c0.011,0.84,0.035,1.68,0.035,2.519c0.002,12.829,0.001,25.657,0.001,38.484
			c0.002,0,0.005,0,0.007,0c0,13.622-0.001,27.245,0.001,40.868c0,1.539,0.561,2.103,2.091,2.11c1.316,0.009,2.634,0.003,3.95,0.003
			c2.185-0.001,2.58-0.397,2.582-2.577c0.015-26.973,0.028-53.946,0.043-80.919c0-1.503,0.001-1.503,1.538-1.503
			c7.697,0,15.395,0.002,23.092-0.003c1.532-0.001,2.036-0.517,2.042-2.052c0.005-1.453,0.005-2.906,0.004-4.359
			C97.486,2.416,96.976,1.906,95.211,1.905z"/>
		<polygon points="75.114,38.586 90.851,62.394 96.948,58.978 81.352,34.833 		"/>
	</g>
</g>
<g>
</g>
<g>
</g>
<g>
</g>
<g>
</g>
<g>
</g>
<g>
</g>
<g>
</g>
<g>
</g>
<g>
</g>
<g>
</g>
<g>
</g>
<g>
</g>
<g>
</g>
<g>
</g>
<g>
</g>
</svg>
