<?xml version="1.0" encoding="iso-8859-1"?>
<!-- Generator: Adobe Illustrator 16.0.0, SVG Export Plug-In . SVG Version: 6.00 Build 0)  -->
<!DOCTYPE svg PUBLIC "-//W3C//DTD SVG 1.1//EN" "http://www.w3.org/Graphics/SVG/1.1/DTD/svg11.dtd">
<svg version="1.1" id="Capa_1" xmlns="http://www.w3.org/2000/svg" xmlns:xlink="http://www.w3.org/1999/xlink" x="0px" y="0px"
	 width="97.214px" height="97.214px" viewBox="0 0 97.214 97.214" style="enable-background:new 0 0 97.214 97.214;"
	 xml:space="preserve">
<g>
	<g>
		<path d="M20.292,33.01c-2.884-1.017-3.869,0.497-4.474,1.927l-4.881,11.574L6.281,34.896c-0.764-1.568-2.042-2.666-4.433-1.865
			c-2.593,0.867-1.747,3.523-1.601,4.022L7.55,53.771l-2.867,6.266c-0.381,0.841-1.069,3.175,1.489,4.174
			c2.561,0.998,3.735-0.467,4.571-2.178l11.144-25C21.887,37.033,23.271,34.063,20.292,33.01z"/>
		<path d="M30.375,34.757c-5.629,0-10.193,4.476-10.193,9.996c0,5.521,3.912,9.999,10.193,9.999c6.757,0,10.19-4.478,10.19-9.999
			C40.564,39.233,36.001,34.757,30.375,34.757z M30.375,50.245c-2.512,0-4.546-2.388-4.546-5.329c0-2.945,2.034-5.33,4.546-5.33
			c2.507,0,4.543,2.385,4.543,5.33C34.917,47.857,32.88,50.245,30.375,50.245z"/>
		<path d="M56.625,35.318c-1.742,0.114-2.63,1.135-2.749,3.023l-0.003,9.277c-0.097,1.977-1.42,3.332-3.628,3.388
			c-3.274,0.082-3.718-2.255-3.713-3.088l0.007-9.309c-0.074-1.86-0.928-2.795-2.612-2.868c-1.807,0.131-2.763,1.171-2.881,3.056
			l-0.012,9.249c0.037,1.159-0.141,7.13,9.194,6.999c5.249-0.068,8.934-2.868,9.181-7.598l0.022-9.309
			C59.345,36.271,58.422,35.357,56.625,35.318z"/>
		<path d="M94.417,35.464c-1.741,0.063-2.69,1.067-2.761,2.932v9.262c-0.102,1.958-1.642,3.233-3.655,3.233
			c-2.116,0-3.56-1.277-3.662-3.233l-0.016-9.262c-0.098-1.864-0.958-2.876-2.669-2.938c-1.894,0-2.762,1.08-2.86,2.945v9.267
			c0.198,4.658,3.253,7.106,9.191,7.2c5.974-0.094,8.972-2.536,9.229-7.213v-9.262C97.113,36.532,96.165,35.528,94.417,35.464z"/>
		<path d="M72.157,44.902l4.93-4.294c0,0,2.438-2.318,0.302-4.351c-1.568-1.497-3.567-0.638-4.288,0.024l-7.195,6.799l-0.039-4.923
			c-0.045-1.658-0.979-2.713-2.911-2.713c-1.988,0-2.807,0.995-2.907,2.709v14.123c0.102,1.646,1.094,2.448,2.915,2.448
			c1.901,0.008,2.852-0.864,2.929-2.438l0.007-5.253c0,0,7.59,6.418,8.004,6.771c1.223,1.003,3.228,0.896,4.226-0.062
			c1.055-1.014,0.807-3.094-0.465-4.171L72.157,44.902z"/>
	</g>
</g>
<g>
</g>
<g>
</g>
<g>
</g>
<g>
</g>
<g>
</g>
<g>
</g>
<g>
</g>
<g>
</g>
<g>
</g>
<g>
</g>
<g>
</g>
<g>
</g>
<g>
</g>
<g>
</g>
<g>
</g>
</svg>
