<?xml version="1.0" encoding="iso-8859-1"?>
<!-- Generator: Adobe Illustrator 16.0.0, SVG Export Plug-In . SVG Version: 6.00 Build 0)  -->
<!DOCTYPE svg PUBLIC "-//W3C//DTD SVG 1.1//EN" "http://www.w3.org/Graphics/SVG/1.1/DTD/svg11.dtd">
<svg version="1.1" id="Capa_1" xmlns="http://www.w3.org/2000/svg" xmlns:xlink="http://www.w3.org/1999/xlink" x="0px" y="0px"
	 width="94.068px" height="94.068px" viewBox="0 0 94.068 94.068" style="enable-background:new 0 0 94.068 94.068;"
	 xml:space="preserve">
<g>
	<g>
		<path d="M39.821,10.073c0.397,0.224,0.854,0.202,1.279,0.314c3.604,0.959,6.142,4.403,5.975,8.131
			c-0.169,3.754-2.926,6.959-6.549,7.616c-4.46,0.809-8.699-2.059-9.489-6.418c-0.824-4.553,2.09-8.686,6.714-9.522
			c0.118-0.021,0.262,0.026,0.333-0.122C38.663,10.073,39.242,10.073,39.821,10.073z"/>
		<path d="M62.069,10.073c0.236,0.186,0.536,0.171,0.803,0.256c2.702,0.856,4.477,3.67,4.044,6.421
			c-0.476,3.03-2.874,5.067-5.957,5.061c-2.819-0.006-5.282-2.151-5.71-4.972c-0.462-3.053,1.498-5.931,4.524-6.645
			c0.117-0.027,0.26,0.009,0.341-0.122C60.767,10.073,61.418,10.073,62.069,10.073z"/>
		<path d="M27.14,70.401c0,7.539-6.036,13.597-13.547,13.596C6.02,83.995-0.037,77.937,0,70.333
			c0.037-7.788,6.468-13.593,13.822-13.504C21.107,56.917,27.14,62.991,27.14,70.401z"/>
		<path d="M18.636,25.375c6.332,0.099,11.275,5.182,11.157,11.474c-0.113,6.076-5.224,11.023-11.307,10.946
			c-6.322-0.079-11.273-5.197-11.078-11.638C7.597,29.993,12.633,25.392,18.636,25.375z"/>
		<path d="M78.172,28.089c-2.071,0.004-3.711-1.606-3.715-3.649c-0.003-2.055,1.623-3.706,3.66-3.715
			c2.059-0.009,3.702,1.616,3.704,3.66C81.823,26.466,80.229,28.084,78.172,28.089z"/>
		<path d="M86.162,36.703c0.003-1.235,0.99-2.219,2.201-2.195c1.226,0.025,2.171,1.008,2.158,2.244
			c-0.014,1.2-0.987,2.169-2.18,2.169C87.121,38.923,86.158,37.942,86.162,36.703z"/>
		<path d="M92.607,49.376c-0.837,0.008-1.493-0.619-1.513-1.445c-0.021-0.806,0.65-1.491,1.467-1.5
			c0.827-0.011,1.493,0.633,1.507,1.455C94.081,48.714,93.442,49.369,92.607,49.376z"/>
	</g>
</g>
<g>
</g>
<g>
</g>
<g>
</g>
<g>
</g>
<g>
</g>
<g>
</g>
<g>
</g>
<g>
</g>
<g>
</g>
<g>
</g>
<g>
</g>
<g>
</g>
<g>
</g>
<g>
</g>
<g>
</g>
</svg>
