<?xml version="1.0" encoding="iso-8859-1"?>
<!-- Generator: Adobe Illustrator 16.0.0, SVG Export Plug-In . SVG Version: 6.00 Build 0)  -->
<!DOCTYPE svg PUBLIC "-//W3C//DTD SVG 1.1//EN" "http://www.w3.org/Graphics/SVG/1.1/DTD/svg11.dtd">
<svg version="1.1" id="Capa_1" xmlns="http://www.w3.org/2000/svg" xmlns:xlink="http://www.w3.org/1999/xlink" x="0px" y="0px"
	 width="97.258px" height="97.259px" viewBox="0 0 97.258 97.259" style="enable-background:new 0 0 97.258 97.259;"
	 xml:space="preserve">
<g>
	<g>
		<path d="M34.982,91.479l-21.7,5.78c0,0,8.195-65.754,10.921-91.123l9.209-0.156c0.134,2.76,1.168,7.445,1.168,7.445
			c2.061-2.234,4.514-4.832,7.091-6.993C49.696-1.25,64.66-2.49,74.163,5.11c9.545,7.635,12.641,23.521,7.004,35.915
			c-5.24,11.514-15.863,17.155-28.25,15.004c-11.68-2.028-17.468-10.854-15.514-23.657c1.498-9.825,9.14-15.784,18.664-14.582
			c5.916,0.749,9.641,4.305,10.693,9.903c0.822,4.387-0.424,8.523-4.652,11.091c-5.889,2.36-7.585-2.097-7.585-2.097
			s2.211-0.193,3.17-1.552c2.038-2.926,1.772-5.901-1.187-7.839c-3.265-2.14-6.924,0.218-8.377,2.629
			c-3.408,5.642-2.923,11.416,1.917,15.776c5.094,4.59,10.818,3.124,15.793-0.737c7.508-5.828,8.274-19.675,1.726-27.218
			c-6.56-7.557-18.791-7.956-26.088-0.76c-6.894,6.798-7.621,15.612-7.492,24.536C34.077,48.192,34.982,91.479,34.982,91.479z"/>
	</g>
</g>
<g>
</g>
<g>
</g>
<g>
</g>
<g>
</g>
<g>
</g>
<g>
</g>
<g>
</g>
<g>
</g>
<g>
</g>
<g>
</g>
<g>
</g>
<g>
</g>
<g>
</g>
<g>
</g>
<g>
</g>
</svg>
