<?xml version="1.0" encoding="iso-8859-1"?>
<!-- Generator: Adobe Illustrator 16.0.0, SVG Export Plug-In . SVG Version: 6.00 Build 0)  -->
<!DOCTYPE svg PUBLIC "-//W3C//DTD SVG 1.1//EN" "http://www.w3.org/Graphics/SVG/1.1/DTD/svg11.dtd">
<svg version="1.1" id="Capa_1" xmlns="http://www.w3.org/2000/svg" xmlns:xlink="http://www.w3.org/1999/xlink" x="0px" y="0px"
	 width="96.528px" height="96.528px" viewBox="0 0 96.528 96.528" style="enable-background:new 0 0 96.528 96.528;"
	 xml:space="preserve">
<g>
	<path d="M62.588,77.297c-5.835-1.861-11.782-3.194-17.814-4.058c-3.454-0.491-6.929-0.817-10.433-1.019
		c-1.871-0.104-3.771-0.175-5.665-0.196c-0.729-0.013-1.462-0.013-2.201-0.013c-3.07,0-6.163,0.104-9.267,0.294
		c-3.11,0.182-6.224,0.452-9.386,0.842c1.422-0.746,2.906-1.341,4.402-1.888c1.491-0.56,3.025-1.022,4.567-1.444
		c3.088-0.839,6.24-1.44,9.43-1.844c1.008-0.124,2.027-0.229,3.051-0.311c1.474-0.123,2.948-0.183,4.429-0.218l2.62-19.283
		l2.467-18.204l0.07-0.478c-0.387-0.604-0.565-1.342-0.462-2.1c0.233-1.713,1.808-2.918,3.524-2.682
		c1.141,0.155,2.057,0.904,2.469,1.899c0.896-0.07,1.872-0.037,2.904,0.104c3.343,0.454,7.068,1.965,10.675,3.422
		c3.357,1.365,6.838,2.777,9.639,3.153c1.839,0.248,3.173,0.032,4.081-0.666c0.543-0.414,1.224-0.583,1.882-0.493
		c0.319,0.045,0.639,0.153,0.928,0.324c0.885,0.515,1.377,1.513,1.234,2.526l-2.473,18.208c-0.081,0.666-0.434,1.268-0.972,1.675
		c-1.859,1.414-4.25,1.902-7.302,1.482c-3.28-0.443-7.019-1.908-10.641-3.314c-3.443-1.345-6.991-2.733-9.852-3.122
		c-1.557-0.212-2.746-0.11-3.614,0.311L38.525,67.53c2.329,0.101,4.655,0.271,6.97,0.6c6.398,0.9,12.691,2.696,18.558,5.386
		c5.853,2.691,11.313,6.251,15.834,10.738C74.141,81.545,68.436,79.141,62.588,77.297L62.588,77.297z M87.07,9.327L21.752,0.11
		C15.735-0.744,10.175,3.445,9.33,9.458L0.11,74.775C-0.743,80.789,3.455,86.349,9.462,87.2l65.32,9.219
		c6.014,0.848,11.571-3.341,12.424-9.349l9.212-65.319C97.265,15.737,93.087,10.176,87.07,9.327z"/>
</g>
<g>
</g>
<g>
</g>
<g>
</g>
<g>
</g>
<g>
</g>
<g>
</g>
<g>
</g>
<g>
</g>
<g>
</g>
<g>
</g>
<g>
</g>
<g>
</g>
<g>
</g>
<g>
</g>
<g>
</g>
</svg>
