<?xml version="1.0" encoding="UTF-8"?>
<svg xmlns="http://www.w3.org/2000/svg" xmlns:xlink="http://www.w3.org/1999/xlink" viewBox="0 0 100 100" width="100px" height="100px">
<g id="surface44134407">
<path style=" stroke:none;fill-rule:nonzero;fill:rgb(92.54902%,94.117647%,94.509804%);fill-opacity:1;" d="M 24 6 C 14.082031 6 6 14.082031 6 24 L 6 76 C 6 85.917969 14.082031 94 24 94 L 76 94 C 85.917969 94 94 85.917969 94 76 L 94 24 C 94 14.082031 85.917969 6 76 6 Z M 24 10 L 76 10 C 83.753906 10 90 16.246094 90 24 L 90 76 C 90 83.753906 83.753906 90 76 90 L 24 90 C 16.246094 90 10 83.753906 10 76 L 10 24 C 10 16.246094 16.246094 10 24 10 Z M 76 14 C 73.808594 14 72 15.808594 72 18 L 72 24 C 72 26.191406 73.808594 28 76 28 L 82 28 C 84.191406 28 86 26.191406 86 24 L 86 18 C 86 15.808594 84.191406 14 82 14 Z M 76 18 L 82 18 L 82 24 L 76 24 Z M 50 24 C 42.664062 24 36.03125 27.082031 31.296875 32 L 16 32 C 14.894531 32 14 32.894531 14 34 L 14 74 C 14 80.601562 19.398438 86 26 86 L 74 86 C 80.601562 86 86 80.601562 86 74 L 86 34 C 86 32.894531 85.105469 32 84 32 L 68.703125 32 C 63.96875 27.082031 57.335938 24 50 24 Z M 50 28 C 62.148438 28 72 37.851562 72 50 C 72 62.148438 62.148438 72 50 72 C 37.851562 72 28 62.148438 28 50 C 28 37.851562 37.851562 28 50 28 Z M 50 32 C 49.71875 31.996094 49.4375 32.054688 49.179688 32.167969 C 39.664062 32.621094 32 40.371094 32 50 C 32 59.917969 40.082031 68 50 68 C 59.917969 68 68 59.917969 68 50 C 68 40.375 60.339844 32.625 50.828125 32.167969 C 50.566406 32.054688 50.285156 31.996094 50 32 Z M 18 36 L 28.136719 36 C 25.53125 40.046875 24 44.847656 24 50 C 24 64.316406 35.683594 76 50 76 C 64.316406 76 76 64.316406 76 50 C 76 44.847656 74.46875 40.046875 71.863281 36 L 82 36 L 82 74 C 82 78.441406 78.441406 82 74 82 L 26 82 C 21.558594 82 18 78.441406 18 74 Z M 50 36 C 57.753906 36 64 42.242188 64 50 C 64 57.757812 57.753906 64 50 64 C 42.246094 64 36 57.757812 36 50 C 36 42.242188 42.246094 36 50 36 Z M 50 36 "/>
</g>
</svg>
