<?xml version="1.0" encoding="UTF-8"?>
<svg xmlns="http://www.w3.org/2000/svg" xmlns:xlink="http://www.w3.org/1999/xlink" viewBox="0 0 100 100" width="100px" height="100px">
<g id="surface42803921">
<path style=" stroke:none;fill-rule:nonzero;fill:rgb(92.54902%,94.117647%,94.509804%);fill-opacity:1;" d="M 48.804688 18 C 35.601562 18 23.203125 19 16.601562 20.398438 C 12.203125 21.398438 8.398438 24.398438 7.601562 29 C 6.804688 33.796875 6 41 6 50 C 6 59 6.796875 66 7.796875 71 C 8.601562 75.398438 12.398438 78.601562 16.796875 79.601562 C 23.804688 81 35.796875 82 49 82 C 62.203125 82 74.195312 81 81.195312 79.601562 C 85.601562 78.601562 89.398438 75.601562 90.195312 71 C 91 66 92 58.804688 92.195312 49.804688 C 92.195312 40.804688 91.195312 33.601562 90.195312 28.601562 C 89.398438 24.203125 85.601562 21 81.195312 20 C 74.195312 19 62 18 48.804688 18 Z M 48.804688 22 C 63.203125 22 74.796875 23.195312 80.398438 24.195312 C 83.398438 25 85.796875 27 86.195312 29.601562 C 87.398438 36 88.195312 42.804688 88.195312 49.804688 C 88 58.398438 87 65.398438 86.195312 70.398438 C 85.601562 74.195312 81.601562 75.398438 80.398438 75.804688 C 73.195312 77.203125 61.195312 78.195312 49.195312 78.195312 C 37.195312 78.195312 25 77.398438 18 75.804688 C 15 75 12.601562 73 12.203125 70.398438 C 10.601562 64.796875 10 57.398438 10 50 C 10 40.796875 10.804688 34 11.601562 29.804688 C 12.203125 26 16.398438 24.796875 17.398438 24.398438 C 24 23 36.203125 22 48.804688 22 Z M 38 34 L 38 66 L 66 50 Z M 42 40.804688 L 58 50 L 42 59.195312 Z M 42 40.804688 "/>
</g>
</svg>
